<svg width="1050" height="803" viewBox="0 0 1050 803" fill="none" xmlns="http://www.w3.org/2000/svg">
<path d="M76.6541 658.704C76.0674 663.984 74.2541 668.624 71.2141 672.624C68.1741 676.571 64.1741 679.638 59.2141 681.824C54.3074 684.011 48.6541 685.104 42.2541 685.104C35.2674 685.104 29.1607 683.798 23.9341 681.184C18.7074 678.571 14.6274 674.918 11.6941 670.224C8.81406 665.531 7.37406 660.064 7.37406 653.824C7.37406 647.584 8.81406 642.118 11.6941 637.424C14.6274 632.731 18.7074 629.078 23.9341 626.464C29.1607 623.851 35.2674 622.544 42.2541 622.544C48.6541 622.544 54.3074 623.638 59.2141 625.824C64.1741 628.011 68.1741 631.104 71.2141 635.104C74.2541 639.051 76.0674 643.664 76.6541 648.944H60.0141C59.4807 646.384 58.4407 644.224 56.8941 642.464C55.3474 640.651 53.3207 639.264 50.8141 638.304C48.3607 637.344 45.5074 636.864 42.2541 636.864C38.5207 636.864 35.2941 637.558 32.5741 638.944C29.8541 640.278 27.7741 642.224 26.3341 644.784C24.8941 647.291 24.1741 650.304 24.1741 653.824C24.1741 657.344 24.8941 660.384 26.3341 662.944C27.7741 665.451 29.8541 667.398 32.5741 668.784C35.2941 670.118 38.5207 670.784 42.2541 670.784C45.5074 670.784 48.3607 670.331 50.8141 669.424C53.3207 668.518 55.3474 667.158 56.8941 665.344C58.4407 663.531 59.4807 661.318 60.0141 658.704H76.6541ZM96.1416 650.064H117.982C120.648 650.064 122.728 649.451 124.222 648.224C125.715 646.998 126.462 645.291 126.462 643.104C126.462 640.864 125.715 639.158 124.222 637.984C122.728 636.758 120.648 636.144 117.982 636.144H93.8216L101.262 628.224V683.824H84.7016V623.824H120.302C124.888 623.824 128.888 624.651 132.302 626.304C135.715 627.904 138.382 630.144 140.302 633.024C142.222 635.851 143.182 639.211 143.182 643.104C143.182 646.891 142.222 650.224 140.302 653.104C138.382 655.984 135.715 658.224 132.302 659.824C128.888 661.424 124.888 662.224 120.302 662.224H96.1416V650.064ZM105.102 655.744H123.742L145.262 683.824H126.062L105.102 655.744ZM203.95 647.824V659.824H160.03V647.824H203.95ZM171.31 653.824L167.39 677.904L160.67 670.384H206.59V683.824H150.83L155.39 653.824L150.83 623.824H206.19V637.264H160.67L167.39 629.744L171.31 653.824ZM226.772 672.304V658.944H268.132V672.304H226.772ZM258.692 623.824L285.972 683.824H268.292L245.412 630.864H250.212L227.252 683.824H209.572L236.852 623.824H258.692ZM300.845 631.104H317.485V683.824H300.845V631.104ZM277.965 623.824H340.365V638.544H277.965V623.824ZM347.514 623.824H364.074V683.824H347.514V623.824ZM410.768 676.384H403.728L426.848 623.824H444.368L416.448 683.824H397.648L369.728 623.824H387.488L410.768 676.384ZM501.294 647.824V659.824H457.374V647.824H501.294ZM468.654 653.824L464.734 677.904L458.014 670.384H503.934V683.824H448.174L452.734 653.824L448.174 623.824H503.534V637.264H458.014L464.734 629.744L468.654 653.824ZM64.4941 736.864H48.2541C47.9874 734.891 47.1074 733.264 45.6141 731.984C44.1741 730.651 42.0941 729.984 39.3741 729.984C37.7741 729.984 36.3874 730.198 35.2141 730.624C34.0941 731.051 33.2407 731.664 32.6541 732.464C32.0674 733.264 31.7741 734.171 31.7741 735.184C31.7741 736.038 32.0141 736.891 32.4941 737.744C33.0274 738.598 33.8807 739.504 35.0541 740.464L80.7341 779.824H60.3341L22.5741 747.504C20.2807 745.531 18.3341 743.451 16.7341 741.264C15.1874 739.024 14.4141 736.624 14.4141 734.064C14.4141 730.971 15.3474 728.278 17.2141 725.984C19.0807 723.638 21.8274 721.824 25.4541 720.544C29.0807 719.211 33.5074 718.544 38.7341 718.544C44.0674 718.544 48.6007 719.344 52.3341 720.944C56.1207 722.544 59.0274 724.731 61.0541 727.504C63.1341 730.278 64.2807 733.398 64.4941 736.864ZM60.2541 746.704H77.2141L58.0941 768.304C55.4274 771.344 52.7607 773.824 50.0941 775.744C47.4274 777.611 44.5474 778.971 41.4541 779.824C38.3607 780.678 34.8407 781.104 30.8941 781.104C25.8807 781.104 21.5607 780.331 17.9341 778.784C14.3607 777.184 11.6141 775.051 9.69406 772.384C7.77406 769.718 6.81406 766.678 6.81406 763.264C6.81406 760.278 7.61406 757.558 9.21406 755.104C10.8141 752.651 13.3207 750.598 16.7341 748.944C20.1474 747.291 24.6007 746.198 30.0941 745.664L33.4541 752.064C30.1474 752.758 27.5874 753.904 25.7741 755.504C23.9607 757.051 23.0541 758.918 23.0541 761.104C23.0541 762.544 23.4807 763.878 24.3341 765.104C25.2407 766.278 26.4407 767.211 27.9341 767.904C29.4807 768.598 31.2941 768.944 33.3741 768.944C37.1074 768.944 40.2007 768.224 42.6541 766.784C45.1607 765.344 47.2941 763.504 49.0541 761.264L60.2541 746.704ZM131.809 719.824C138.902 719.824 145.116 721.078 150.449 723.584C155.836 726.038 159.996 729.531 162.929 734.064C165.916 738.544 167.409 743.798 167.409 749.824C167.409 755.851 165.916 761.131 162.929 765.664C159.996 770.144 155.836 773.638 150.449 776.144C145.116 778.598 138.902 779.824 131.809 779.824H101.889V719.824H131.809ZM118.369 772.864L110.449 765.104H133.089C136.662 765.104 139.756 764.491 142.369 763.264C145.036 761.984 147.089 760.198 148.529 757.904C149.969 755.611 150.689 752.918 150.689 749.824C150.689 746.678 149.969 743.984 148.529 741.744C147.089 739.451 145.036 737.691 142.369 736.464C139.756 735.184 136.662 734.544 133.089 734.544H110.449L118.369 726.784V772.864ZM226.528 743.824V755.824H182.608V743.824H226.528ZM193.888 749.824L189.968 773.904L183.248 766.384H229.168V779.824H173.408L177.968 749.824L173.408 719.824H228.768V733.264H183.248L189.968 725.744L193.888 749.824ZM236.044 760.144H252.924C253.191 761.798 253.964 763.238 255.244 764.464C256.524 765.691 258.231 766.651 260.364 767.344C262.551 767.984 265.111 768.304 268.044 768.304C272.097 768.304 275.297 767.798 277.644 766.784C279.991 765.718 281.164 764.171 281.164 762.144C281.164 760.598 280.497 759.398 279.164 758.544C277.831 757.691 275.271 757.078 271.484 756.704L260.284 755.664C252.017 754.918 246.017 753.051 242.284 750.064C238.551 747.024 236.684 742.944 236.684 737.824C236.684 733.664 237.884 730.144 240.284 727.264C242.737 724.384 246.151 722.224 250.524 720.784C254.951 719.291 260.097 718.544 265.964 718.544C271.724 718.544 276.844 719.371 281.324 721.024C285.804 722.624 289.351 724.918 291.964 727.904C294.631 730.891 296.071 734.358 296.284 738.304H279.484C279.271 736.864 278.577 735.638 277.404 734.624C276.284 733.558 274.737 732.758 272.764 732.224C270.791 731.638 268.417 731.344 265.644 731.344C261.911 731.344 258.951 731.851 256.764 732.864C254.577 733.824 253.484 735.264 253.484 737.184C253.484 738.571 254.124 739.691 255.404 740.544C256.737 741.398 259.111 741.984 262.524 742.304L274.444 743.504C280.151 744.038 284.711 744.971 288.124 746.304C291.537 747.584 294.017 749.371 295.564 751.664C297.111 753.958 297.884 756.811 297.884 760.224C297.884 764.438 296.631 768.118 294.124 771.264C291.617 774.358 288.097 776.784 283.564 778.544C279.031 780.251 273.751 781.104 267.724 781.104C261.537 781.104 256.071 780.251 251.324 778.544C246.631 776.784 242.951 774.331 240.284 771.184C237.617 767.984 236.204 764.304 236.044 760.144ZM306.186 719.824H322.746V779.824H306.186V719.824ZM395.36 753.824C395.2 757.451 394.454 760.918 393.12 764.224C391.84 767.478 389.947 770.384 387.44 772.944C384.987 775.504 381.894 777.504 378.16 778.944C374.48 780.384 370.187 781.104 365.28 781.104C360.587 781.104 356.187 780.438 352.08 779.104C347.974 777.718 344.347 775.691 341.2 773.024C338.107 770.358 335.68 767.078 333.92 763.184C332.214 759.291 331.36 754.838 331.36 749.824C331.36 744.811 332.24 740.358 334 736.464C335.76 732.571 338.214 729.291 341.36 726.624C344.56 723.958 348.24 721.958 352.4 720.624C356.614 719.238 361.2 718.544 366.16 718.544C372.774 718.544 378.48 719.558 383.28 721.584C388.08 723.611 391.947 726.384 394.88 729.904C397.814 733.424 399.707 737.504 400.56 742.144H383.84C383.307 740.118 382.214 738.384 380.56 736.944C378.96 735.451 376.934 734.331 374.48 733.584C372.08 732.784 369.334 732.384 366.24 732.384C362.507 732.384 359.28 733.051 356.56 734.384C353.84 735.664 351.734 737.611 350.24 740.224C348.747 742.784 348 745.984 348 749.824C348 753.718 348.8 756.998 350.4 759.664C352 762.331 354.267 764.331 357.2 765.664C360.187 766.998 363.68 767.664 367.68 767.664C371.574 767.664 375.014 767.131 378 766.064C380.987 764.944 383.36 763.318 385.12 761.184C386.934 759.051 387.974 756.491 388.24 753.504L395.36 753.824ZM369.28 760.464V748.784H401.12V779.824H389.36L387.04 756.064L390.16 760.464H369.28ZM466.63 768.224L461.51 769.264V719.824H477.59V779.824H456.71L422.07 730.464L427.11 729.424V779.824H411.03V719.824H432.47L466.63 768.224Z" fill="white"/>
<path d="M86.704 583.492H2V2H139.947L190.769 110.256L274.263 2H528.375L695.363 110.256L810.318 2H1047.49V502.039H908.333L1047.49 800.638H557.577V713.154H610.194L577.522 583.492H235.541H86.704Z" stroke="white" stroke-width="3"/>
</svg>
