<svg width="440" height="350" viewBox="0 0 440 350" fill="none" xmlns="http://www.w3.org/2000/svg">
<path d="M33.5236 287.872C33.2596 290.248 32.4436 292.336 31.0756 294.136C29.7076 295.912 27.9076 297.292 25.6756 298.276C23.4676 299.26 20.9236 299.752 18.0436 299.752C14.8996 299.752 12.1516 299.164 9.79963 297.988C7.44763 296.812 5.61163 295.168 4.29163 293.056C2.99563 290.944 2.34763 288.484 2.34763 285.676C2.34763 282.868 2.99563 280.408 4.29163 278.296C5.61163 276.184 7.44763 274.54 9.79963 273.364C12.1516 272.188 14.8996 271.6 18.0436 271.6C20.9236 271.6 23.4676 272.092 25.6756 273.076C27.9076 274.06 29.7076 275.452 31.0756 277.252C32.4436 279.028 33.2596 281.104 33.5236 283.48H26.0356C25.7956 282.328 25.3276 281.356 24.6316 280.564C23.9356 279.748 23.0236 279.124 21.8956 278.692C20.7916 278.26 19.5076 278.044 18.0436 278.044C16.3636 278.044 14.9116 278.356 13.6876 278.98C12.4636 279.58 11.5276 280.456 10.8796 281.608C10.2316 282.736 9.90763 284.092 9.90763 285.676C9.90763 287.26 10.2316 288.628 10.8796 289.78C11.5276 290.908 12.4636 291.784 13.6876 292.408C14.9116 293.008 16.3636 293.308 18.0436 293.308C19.5076 293.308 20.7916 293.104 21.8956 292.696C23.0236 292.288 23.9356 291.676 24.6316 290.86C25.3276 290.044 25.7956 289.048 26.0356 287.872H33.5236ZM42.293 283.984H52.121C53.321 283.984 54.257 283.708 54.929 283.156C55.601 282.604 55.937 281.836 55.937 280.852C55.937 279.844 55.601 279.076 54.929 278.548C54.257 277.996 53.321 277.72 52.121 277.72H41.249L44.597 274.156V299.176H37.145V272.176H53.165C55.229 272.176 57.029 272.548 58.565 273.292C60.101 274.012 61.301 275.02 62.165 276.316C63.029 277.588 63.461 279.1 63.461 280.852C63.461 282.556 63.029 284.056 62.165 285.352C61.301 286.648 60.101 287.656 58.565 288.376C57.029 289.096 55.229 289.456 53.165 289.456H42.293V283.984ZM46.325 286.54H54.713L64.397 299.176H55.757L46.325 286.54ZM90.8069 282.976V288.376H71.0429V282.976H90.8069ZM76.1189 285.676L74.3549 296.512L71.3309 293.128H91.9949V299.176H66.9029L68.9549 285.676L66.9029 272.176H91.8149V278.224H71.3309L74.3549 274.84L76.1189 285.676ZM101.077 293.992V287.98H119.689V293.992H101.077ZM115.441 272.176L127.717 299.176H119.761L109.465 275.344H111.625L101.293 299.176H93.3368L105.613 272.176H115.441ZM134.41 275.452H141.898V299.176H134.41V275.452ZM124.114 272.176H152.194V278.8H124.114V272.176ZM155.411 272.176H162.863V299.176H155.411V272.176ZM183.875 295.828H180.707L191.111 272.176H198.995L186.431 299.176H177.971L165.407 272.176H173.399L183.875 295.828ZM224.612 282.976V288.376H204.848V282.976H224.612ZM209.924 285.676L208.16 296.512L205.136 293.128H225.8V299.176H200.708L202.76 285.676L200.708 272.176H225.62V278.224H205.136L208.16 274.84L209.924 285.676ZM28.0516 322.844H20.7436C20.6236 321.956 20.2276 321.224 19.5556 320.648C18.9076 320.048 17.9716 319.748 16.7476 319.748C16.0276 319.748 15.4036 319.844 14.8756 320.036C14.3716 320.228 13.9876 320.504 13.7236 320.864C13.4596 321.224 13.3276 321.632 13.3276 322.088C13.3276 322.472 13.4356 322.856 13.6516 323.24C13.8916 323.624 14.2756 324.032 14.8036 324.464L35.3596 342.176H26.1796L9.18763 327.632C8.15563 326.744 7.27963 325.808 6.55963 324.824C5.86363 323.816 5.51563 322.736 5.51563 321.584C5.51563 320.192 5.93563 318.98 6.77563 317.948C7.61563 316.892 8.85163 316.076 10.4836 315.5C12.1156 314.9 14.1076 314.6 16.4596 314.6C18.8596 314.6 20.8996 314.96 22.5796 315.68C24.2836 316.4 25.5916 317.384 26.5036 318.632C27.4396 319.88 27.9556 321.284 28.0516 322.844ZM26.1436 327.272H33.7756L25.1716 336.992C23.9716 338.36 22.7716 339.476 21.5716 340.34C20.3716 341.18 19.0756 341.792 17.6836 342.176C16.2916 342.56 14.7076 342.752 12.9316 342.752C10.6756 342.752 8.73163 342.404 7.09963 341.708C5.49163 340.988 4.25563 340.028 3.39162 338.828C2.52763 337.628 2.09563 336.26 2.09563 334.724C2.09563 333.38 2.45563 332.156 3.17563 331.052C3.89563 329.948 5.02363 329.024 6.55963 328.28C8.09563 327.536 10.0996 327.044 12.5716 326.804L14.0836 329.684C12.5956 329.996 11.4436 330.512 10.6276 331.232C9.81163 331.928 9.40363 332.768 9.40363 333.752C9.40363 334.4 9.59563 335 9.97963 335.552C10.3876 336.08 10.9276 336.5 11.5996 336.812C12.2956 337.124 13.1116 337.28 14.0476 337.28C15.7276 337.28 17.1196 336.956 18.2236 336.308C19.3516 335.66 20.3116 334.832 21.1036 333.824L26.1436 327.272ZM58.3434 315.176C61.5354 315.176 64.3314 315.74 66.7314 316.868C69.1554 317.972 71.0274 319.544 72.3474 321.584C73.6914 323.6 74.3634 325.964 74.3634 328.676C74.3634 331.388 73.6914 333.764 72.3474 335.804C71.0274 337.82 69.1554 339.392 66.7314 340.52C64.3314 341.624 61.5354 342.176 58.3434 342.176H44.8794V315.176H58.3434ZM52.2954 339.044L48.7314 335.552H58.9194C60.5274 335.552 61.9194 335.276 63.0954 334.724C64.2954 334.148 65.2194 333.344 65.8674 332.312C66.5154 331.28 66.8394 330.068 66.8394 328.676C66.8394 327.26 66.5154 326.048 65.8674 325.04C65.2194 324.008 64.2954 323.216 63.0954 322.664C61.9194 322.088 60.5274 321.8 58.9194 321.8H48.7314L52.2954 318.308V339.044ZM100.967 325.976V331.376H81.2031V325.976H100.967ZM86.2791 328.676L84.5151 339.512L81.4911 336.128H102.155V342.176H77.0631L79.1151 328.676L77.0631 315.176H101.975V321.224H81.4911L84.5151 317.84L86.2791 328.676ZM105.249 333.32H112.845C112.965 334.064 113.313 334.712 113.889 335.264C114.465 335.816 115.233 336.248 116.193 336.56C117.177 336.848 118.329 336.992 119.649 336.992C121.473 336.992 122.913 336.764 123.969 336.308C125.025 335.828 125.553 335.132 125.553 334.22C125.553 333.524 125.253 332.984 124.653 332.6C124.053 332.216 122.901 331.94 121.197 331.772L116.157 331.304C112.437 330.968 109.737 330.128 108.057 328.784C106.377 327.416 105.537 325.58 105.537 323.276C105.537 321.404 106.077 319.82 107.157 318.524C108.261 317.228 109.797 316.256 111.765 315.608C113.757 314.936 116.073 314.6 118.713 314.6C121.305 314.6 123.609 314.972 125.625 315.716C127.641 316.436 129.237 317.468 130.413 318.812C131.613 320.156 132.261 321.716 132.357 323.492H124.797C124.701 322.844 124.389 322.292 123.861 321.836C123.357 321.356 122.661 320.996 121.773 320.756C120.885 320.492 119.817 320.36 118.569 320.36C116.889 320.36 115.557 320.588 114.573 321.044C113.589 321.476 113.097 322.124 113.097 322.988C113.097 323.612 113.385 324.116 113.961 324.5C114.561 324.884 115.629 325.148 117.165 325.292L122.529 325.832C125.097 326.072 127.149 326.492 128.685 327.092C130.221 327.668 131.337 328.472 132.033 329.504C132.729 330.536 133.077 331.82 133.077 333.356C133.077 335.252 132.513 336.908 131.385 338.324C130.257 339.716 128.673 340.808 126.633 341.6C124.593 342.368 122.217 342.752 119.505 342.752C116.721 342.752 114.261 342.368 112.125 341.6C110.013 340.808 108.357 339.704 107.157 338.288C105.957 336.848 105.321 335.192 105.249 333.32ZM136.813 315.176H144.265V342.176H136.813V315.176ZM176.941 330.476C176.869 332.108 176.533 333.668 175.933 335.156C175.357 336.62 174.505 337.928 173.377 339.08C172.273 340.232 170.881 341.132 169.201 341.78C167.545 342.428 165.613 342.752 163.405 342.752C161.293 342.752 159.313 342.452 157.465 341.852C155.617 341.228 153.985 340.316 152.569 339.116C151.177 337.916 150.085 336.44 149.293 334.688C148.525 332.936 148.141 330.932 148.141 328.676C148.141 326.42 148.537 324.416 149.329 322.664C150.121 320.912 151.225 319.436 152.641 318.236C154.081 317.036 155.737 316.136 157.609 315.536C159.505 314.912 161.569 314.6 163.801 314.6C166.777 314.6 169.345 315.056 171.505 315.968C173.665 316.88 175.405 318.128 176.725 319.712C178.045 321.296 178.897 323.132 179.281 325.22H171.757C171.517 324.308 171.025 323.528 170.281 322.88C169.561 322.208 168.649 321.704 167.545 321.368C166.465 321.008 165.229 320.828 163.837 320.828C162.157 320.828 160.705 321.128 159.481 321.728C158.257 322.304 157.309 323.18 156.637 324.356C155.965 325.508 155.629 326.948 155.629 328.676C155.629 330.428 155.989 331.904 156.709 333.104C157.429 334.304 158.449 335.204 159.769 335.804C161.113 336.404 162.685 336.704 164.485 336.704C166.237 336.704 167.785 336.464 169.129 335.984C170.473 335.48 171.541 334.748 172.333 333.788C173.149 332.828 173.617 331.676 173.737 330.332L176.941 330.476ZM165.205 333.464V328.208H179.533V342.176H174.241L173.197 331.484L174.601 333.464H165.205ZM209.013 336.956L206.709 337.424V315.176H213.945V342.176H204.549L188.961 319.964L191.229 319.496V342.176H183.993V315.176H193.641L209.013 336.956Z" fill="#040000"/>
<path d="M35.6481 254.404H0V0H58.0556L79.4444 47.3622L114.583 0H221.528L291.806 47.3622L340.185 0H440V218.768H381.435L440 349.406H233.818V311.131H255.962L242.212 254.404H98.287H35.6481Z" fill="#040000"/>
</svg>
