<svg width="418" height="324" viewBox="0 0 418 324" fill="none" xmlns="http://www.w3.org/2000/svg">
<path d="M211.757 261.254H229.165V266.854H211.757V261.254ZM229.773 251.43V257.03H211.981L215.149 253.862V275.43H208.525V251.43H229.773ZM233.213 251.43H239.837V275.43H233.213V251.43ZM266.547 270.79L264.499 271.206V251.43H270.931V275.43H262.579L248.723 255.686L250.739 255.27V275.43H244.307V251.43H252.883L266.547 270.79ZM280.072 270.822V265.478H296.616V270.822H280.072ZM292.84 251.43L303.752 275.43H296.68L287.528 254.246H289.448L280.264 275.43H273.192L284.104 251.43H292.84ZM328.265 270.79L326.217 271.206V251.43H332.649V275.43H324.297L310.441 255.686L312.457 255.27V275.43H306.025V251.43H314.601L328.265 270.79ZM363.775 265.382C363.54 267.494 362.815 269.35 361.599 270.95C360.383 272.528 358.783 273.755 356.799 274.63C354.836 275.504 352.575 275.942 350.015 275.942C347.22 275.942 344.778 275.419 342.687 274.374C340.596 273.328 338.964 271.867 337.791 269.99C336.639 268.112 336.063 265.926 336.063 263.43C336.063 260.934 336.639 258.747 337.791 256.87C338.964 254.992 340.596 253.531 342.687 252.486C344.778 251.44 347.22 250.918 350.015 250.918C352.575 250.918 354.836 251.355 356.799 252.23C358.783 253.104 360.383 254.342 361.599 255.942C362.815 257.52 363.54 259.366 363.775 261.478H357.119C356.906 260.454 356.49 259.59 355.871 258.886C355.252 258.16 354.442 257.606 353.439 257.222C352.458 256.838 351.316 256.646 350.015 256.646C348.522 256.646 347.231 256.923 346.143 257.478C345.055 258.011 344.223 258.79 343.647 259.814C343.071 260.816 342.783 262.022 342.783 263.43C342.783 264.838 343.071 266.054 343.647 267.078C344.223 268.08 345.055 268.859 346.143 269.414C347.231 269.947 348.522 270.214 350.015 270.214C351.316 270.214 352.458 270.032 353.439 269.67C354.442 269.307 355.252 268.763 355.871 268.038C356.49 267.312 356.906 266.427 357.119 265.382H363.775ZM387.381 261.03V265.83H369.813V261.03H387.381ZM374.325 263.43L372.757 273.062L370.069 270.054H388.437V275.43H366.133L367.957 263.43L366.133 251.43H388.277V256.806H370.069L372.757 253.798L374.325 263.43ZM391.187 267.558H397.939C398.046 268.219 398.355 268.795 398.867 269.286C399.379 269.776 400.062 270.16 400.915 270.438C401.79 270.694 402.814 270.822 403.987 270.822C405.609 270.822 406.889 270.619 407.827 270.214C408.766 269.787 409.235 269.168 409.235 268.358C409.235 267.739 408.969 267.259 408.435 266.918C407.902 266.576 406.878 266.331 405.363 266.182L400.883 265.766C397.577 265.467 395.177 264.72 393.683 263.526C392.19 262.31 391.443 260.678 391.443 258.63C391.443 256.966 391.923 255.558 392.883 254.406C393.865 253.254 395.23 252.39 396.979 251.814C398.75 251.216 400.809 250.918 403.155 250.918C405.459 250.918 407.507 251.248 409.299 251.91C411.091 252.55 412.51 253.467 413.555 254.662C414.622 255.856 415.198 257.243 415.283 258.822H408.563C408.478 258.246 408.201 257.755 407.731 257.35C407.283 256.923 406.665 256.603 405.875 256.39C405.086 256.155 404.137 256.038 403.027 256.038C401.534 256.038 400.35 256.24 399.475 256.646C398.601 257.03 398.163 257.606 398.163 258.374C398.163 258.928 398.419 259.376 398.931 259.718C399.465 260.059 400.414 260.294 401.779 260.422L406.547 260.902C408.83 261.115 410.654 261.488 412.019 262.022C413.385 262.534 414.377 263.248 414.995 264.166C415.614 265.083 415.923 266.224 415.923 267.59C415.923 269.275 415.422 270.747 414.419 272.006C413.417 273.243 412.009 274.214 410.195 274.918C408.382 275.6 406.27 275.942 403.859 275.942C401.385 275.942 399.198 275.6 397.299 274.918C395.422 274.214 393.95 273.232 392.883 271.974C391.817 270.694 391.251 269.222 391.187 267.558ZM199.442 296.246H192.946C192.84 295.456 192.488 294.806 191.89 294.294C191.314 293.76 190.482 293.494 189.394 293.494C188.754 293.494 188.2 293.579 187.73 293.75C187.282 293.92 186.941 294.166 186.706 294.486C186.472 294.806 186.354 295.168 186.354 295.574C186.354 295.915 186.45 296.256 186.642 296.598C186.856 296.939 187.197 297.302 187.666 297.686L205.938 313.43H197.778L182.674 300.502C181.757 299.712 180.978 298.88 180.338 298.006C179.72 297.11 179.41 296.15 179.41 295.126C179.41 293.888 179.784 292.811 180.53 291.894C181.277 290.955 182.376 290.23 183.826 289.718C185.277 289.184 187.048 288.918 189.138 288.918C191.272 288.918 193.085 289.238 194.578 289.878C196.093 290.518 197.256 291.392 198.066 292.502C198.898 293.611 199.357 294.859 199.442 296.246ZM197.746 300.182H204.53L196.882 308.822C195.816 310.038 194.749 311.03 193.682 311.798C192.616 312.544 191.464 313.088 190.226 313.43C188.989 313.771 187.581 313.942 186.002 313.942C183.997 313.942 182.269 313.632 180.818 313.014C179.389 312.374 178.29 311.52 177.522 310.454C176.754 309.387 176.37 308.171 176.37 306.806C176.37 305.611 176.69 304.523 177.33 303.542C177.97 302.56 178.973 301.739 180.338 301.078C181.704 300.416 183.485 299.979 185.682 299.766L187.026 302.326C185.704 302.603 184.68 303.062 183.954 303.702C183.229 304.32 182.866 305.067 182.866 305.942C182.866 306.518 183.037 307.051 183.378 307.542C183.741 308.011 184.221 308.384 184.818 308.662C185.437 308.939 186.162 309.078 186.994 309.078C188.488 309.078 189.725 308.79 190.706 308.214C191.709 307.638 192.562 306.902 193.266 306.006L197.746 300.182ZM230.656 301.686L231.2 300.438C233.056 300.48 234.582 300.768 235.776 301.302C236.992 301.814 237.899 302.539 238.496 303.478C239.094 304.395 239.392 305.462 239.392 306.678C239.392 307.979 239.094 309.142 238.496 310.166C237.899 311.168 237.003 311.968 235.808 312.566C234.635 313.142 233.163 313.43 231.392 313.43H213.664L215.52 301.11L213.664 289.43H230.752C232.971 289.43 234.699 289.952 235.936 290.998C237.174 292.022 237.792 293.451 237.792 295.286C237.792 296.288 237.558 297.248 237.088 298.166C236.619 299.083 235.862 299.862 234.816 300.502C233.792 301.12 232.406 301.515 230.656 301.686ZM220.224 311.894L217.664 308.79H229.6C230.56 308.79 231.307 308.555 231.84 308.086C232.374 307.616 232.64 306.966 232.64 306.134C232.64 305.302 232.352 304.64 231.776 304.15C231.2 303.638 230.347 303.382 229.216 303.382H219.36V298.838H228.32C229.088 298.838 229.728 298.614 230.24 298.166C230.774 297.696 231.04 297.067 231.04 296.278C231.04 295.638 230.816 295.115 230.368 294.71C229.92 294.283 229.28 294.07 228.448 294.07H217.696L220.224 290.966L221.856 301.11L220.224 311.894ZM248.954 302.71C248.954 303.798 249.157 304.747 249.562 305.558C249.989 306.347 250.608 306.955 251.418 307.382C252.25 307.808 253.264 308.022 254.458 308.022C255.674 308.022 256.688 307.808 257.498 307.382C258.309 306.955 258.917 306.347 259.322 305.558C259.728 304.747 259.93 303.798 259.93 302.71V289.43H266.586V303.03C266.586 305.227 266.074 307.147 265.05 308.79C264.048 310.411 262.64 311.68 260.826 312.598C259.013 313.494 256.89 313.942 254.458 313.942C252.048 313.942 249.925 313.494 248.09 312.598C246.277 311.68 244.858 310.411 243.834 308.79C242.832 307.147 242.33 305.227 242.33 303.03V289.43H248.954V302.71ZM269.656 305.558H276.408C276.515 306.219 276.824 306.795 277.336 307.286C277.848 307.776 278.531 308.16 279.384 308.438C280.259 308.694 281.283 308.822 282.456 308.822C284.077 308.822 285.357 308.619 286.296 308.214C287.235 307.787 287.704 307.168 287.704 306.358C287.704 305.739 287.437 305.259 286.904 304.918C286.371 304.576 285.347 304.331 283.832 304.182L279.352 303.766C276.045 303.467 273.645 302.72 272.152 301.526C270.659 300.31 269.912 298.678 269.912 296.63C269.912 294.966 270.392 293.558 271.352 292.406C272.333 291.254 273.699 290.39 275.448 289.814C277.219 289.216 279.277 288.918 281.624 288.918C283.928 288.918 285.976 289.248 287.768 289.91C289.56 290.55 290.979 291.467 292.024 292.662C293.091 293.856 293.667 295.243 293.752 296.822H287.032C286.947 296.246 286.669 295.755 286.2 295.35C285.752 294.923 285.133 294.603 284.344 294.39C283.555 294.155 282.605 294.038 281.496 294.038C280.003 294.038 278.819 294.24 277.944 294.646C277.069 295.03 276.632 295.606 276.632 296.374C276.632 296.928 276.888 297.376 277.4 297.718C277.933 298.059 278.883 298.294 280.248 298.422L285.016 298.902C287.299 299.115 289.123 299.488 290.488 300.022C291.853 300.534 292.845 301.248 293.464 302.166C294.083 303.083 294.392 304.224 294.392 305.59C294.392 307.275 293.891 308.747 292.888 310.006C291.885 311.243 290.477 312.214 288.664 312.918C286.851 313.6 284.739 313.942 282.328 313.942C279.853 313.942 277.667 313.6 275.768 312.918C273.891 312.214 272.419 311.232 271.352 309.974C270.285 308.694 269.72 307.222 269.656 305.558ZM297.713 289.43H304.337V313.43H297.713V289.43ZM331.047 308.79L328.999 309.206V289.43H335.431V313.43H327.079L313.223 293.686L315.239 293.27V313.43H308.807V289.43H317.383L331.047 308.79ZM360.412 299.03V303.83H342.844V299.03H360.412ZM347.356 301.43L345.788 311.062L343.1 308.054H361.468V313.43H339.164L340.988 301.43L339.164 289.43H361.308V294.806H343.1L345.788 291.798L347.356 301.43ZM364.219 305.558H370.971C371.077 306.219 371.387 306.795 371.899 307.286C372.411 307.776 373.093 308.16 373.947 308.438C374.821 308.694 375.845 308.822 377.019 308.822C378.64 308.822 379.92 308.619 380.859 308.214C381.797 307.787 382.267 307.168 382.267 306.358C382.267 305.739 382 305.259 381.467 304.918C380.933 304.576 379.909 304.331 378.395 304.182L373.915 303.766C370.608 303.467 368.208 302.72 366.715 301.526C365.221 300.31 364.475 298.678 364.475 296.63C364.475 294.966 364.955 293.558 365.915 292.406C366.896 291.254 368.261 290.39 370.011 289.814C371.781 289.216 373.84 288.918 376.187 288.918C378.491 288.918 380.539 289.248 382.331 289.91C384.123 290.55 385.541 291.467 386.587 292.662C387.653 293.856 388.229 295.243 388.315 296.822H381.595C381.509 296.246 381.232 295.755 380.763 295.35C380.315 294.923 379.696 294.603 378.907 294.39C378.117 294.155 377.168 294.038 376.059 294.038C374.565 294.038 373.381 294.24 372.507 294.646C371.632 295.03 371.195 295.606 371.195 296.374C371.195 296.928 371.451 297.376 371.963 297.718C372.496 298.059 373.445 298.294 374.811 298.422L379.579 298.902C381.861 299.115 383.685 299.488 385.051 300.022C386.416 300.534 387.408 301.248 388.027 302.166C388.645 303.083 388.955 304.224 388.955 305.59C388.955 307.275 388.453 308.747 387.451 310.006C386.448 311.243 385.04 312.214 383.227 312.918C381.413 313.6 379.301 313.942 376.891 313.942C374.416 313.942 372.229 313.6 370.331 312.918C368.453 312.214 366.981 311.232 365.915 309.974C364.848 308.694 364.283 307.222 364.219 305.558ZM391.187 305.558H397.939C398.046 306.219 398.355 306.795 398.867 307.286C399.379 307.776 400.062 308.16 400.915 308.438C401.79 308.694 402.814 308.822 403.987 308.822C405.609 308.822 406.889 308.619 407.827 308.214C408.766 307.787 409.235 307.168 409.235 306.358C409.235 305.739 408.969 305.259 408.435 304.918C407.902 304.576 406.878 304.331 405.363 304.182L400.883 303.766C397.577 303.467 395.177 302.72 393.683 301.526C392.19 300.31 391.443 298.678 391.443 296.63C391.443 294.966 391.923 293.558 392.883 292.406C393.865 291.254 395.23 290.39 396.979 289.814C398.75 289.216 400.809 288.918 403.155 288.918C405.459 288.918 407.507 289.248 409.299 289.91C411.091 290.55 412.51 291.467 413.555 292.662C414.622 293.856 415.198 295.243 415.283 296.822H408.563C408.478 296.246 408.201 295.755 407.731 295.35C407.283 294.923 406.665 294.603 405.875 294.39C405.086 294.155 404.137 294.038 403.027 294.038C401.534 294.038 400.35 294.24 399.475 294.646C398.601 295.03 398.163 295.606 398.163 296.374C398.163 296.928 398.419 297.376 398.931 297.718C399.465 298.059 400.414 298.294 401.779 298.422L406.547 298.902C408.83 299.115 410.654 299.488 412.019 300.022C413.385 300.534 414.377 301.248 414.995 302.166C415.614 303.083 415.923 304.224 415.923 305.59C415.923 307.275 415.422 308.747 414.419 310.006C413.417 311.243 412.009 312.214 410.195 312.918C408.382 313.6 406.27 313.942 403.859 313.942C401.385 313.942 399.198 313.6 397.299 312.918C395.422 312.214 393.95 311.232 392.883 309.974C391.817 308.694 391.251 307.222 391.187 305.558Z" fill="white"/>
<path d="M201.044 1.5H1.5L1 89.1717H78.0825L1 145.5V322.797H144.699L160.339 282.618L181.5 281L192.5 236H417V165.155L319.632 180.604V63.003L417 74.5V1.5L201.044 25.1687V1.5Z" stroke="white" stroke-width="2"/>
</svg>
