<svg width="1038" height="802" viewBox="0 0 1038 802" fill="none" xmlns="http://www.w3.org/2000/svg">
<path d="M213.186 2H2V366.595H116.541L2 578.326V799.591H324.359L364.925 692.401H419.81L449.638 578.326H1036.45V2H886.116L807.368 120.569L709.531 2H484.028L276.422 141.912L213.186 2Z" stroke="white" stroke-width="3"/>
<path d="M523.35 648.787H566.87V662.787H523.35V648.787ZM568.39 624.227V638.227H523.91L531.83 630.307V684.227H515.27V624.227H568.39ZM576.989 624.227H593.549V684.227H576.989V624.227ZM660.324 672.627L655.204 673.667V624.227H671.284V684.227H650.404L615.764 634.867L620.804 633.827V684.227H604.724V624.227H626.164L660.324 672.627ZM694.138 672.707V659.347H735.498V672.707H694.138ZM726.058 624.227L753.338 684.227H735.658L712.778 631.267H717.578L694.618 684.227H676.938L704.218 624.227H726.058ZM814.62 672.627L809.5 673.667V624.227H825.58V684.227H804.7L770.06 634.867L775.1 633.827V684.227H759.02V624.227H780.46L814.62 672.627ZM903.395 659.107C902.808 664.387 900.995 669.027 897.955 673.027C894.915 676.973 890.915 680.04 885.955 682.227C881.048 684.413 875.395 685.507 868.995 685.507C862.008 685.507 855.901 684.2 850.675 681.587C845.448 678.973 841.368 675.32 838.435 670.627C835.555 665.933 834.115 660.467 834.115 654.227C834.115 647.987 835.555 642.52 838.435 637.827C841.368 633.133 845.448 629.48 850.675 626.867C855.901 624.253 862.008 622.947 868.995 622.947C875.395 622.947 881.048 624.04 885.955 626.227C890.915 628.413 894.915 631.507 897.955 635.507C900.995 639.453 902.808 644.067 903.395 649.347H886.755C886.221 646.787 885.181 644.627 883.635 642.867C882.088 641.053 880.061 639.667 877.555 638.707C875.101 637.747 872.248 637.267 868.995 637.267C865.261 637.267 862.035 637.96 859.315 639.347C856.595 640.68 854.515 642.627 853.075 645.187C851.635 647.693 850.915 650.707 850.915 654.227C850.915 657.747 851.635 660.787 853.075 663.347C854.515 665.853 856.595 667.8 859.315 669.187C862.035 670.52 865.261 671.187 868.995 671.187C872.248 671.187 875.101 670.733 877.555 669.827C880.061 668.92 882.088 667.56 883.635 665.747C885.181 663.933 886.221 661.72 886.755 659.107H903.395ZM962.41 648.227V660.227H918.49V648.227H962.41ZM929.77 654.227L925.85 678.307L919.13 670.787H965.05V684.227H909.29L913.85 654.227L909.29 624.227H964.65V637.667H919.13L925.85 630.147L929.77 654.227ZM971.925 664.547H988.805C989.072 666.2 989.845 667.64 991.125 668.867C992.405 670.093 994.112 671.053 996.245 671.747C998.432 672.387 1000.99 672.707 1003.93 672.707C1007.98 672.707 1011.18 672.2 1013.53 671.187C1015.87 670.12 1017.05 668.573 1017.05 666.547C1017.05 665 1016.38 663.8 1015.05 662.947C1013.71 662.093 1011.15 661.48 1007.37 661.107L996.165 660.067C987.899 659.32 981.899 657.453 978.165 654.467C974.432 651.427 972.565 647.347 972.565 642.227C972.565 638.067 973.765 634.547 976.165 631.667C978.619 628.787 982.032 626.627 986.405 625.187C990.832 623.693 995.979 622.947 1001.85 622.947C1007.61 622.947 1012.73 623.773 1017.21 625.427C1021.69 627.027 1025.23 629.32 1027.85 632.307C1030.51 635.293 1031.95 638.76 1032.17 642.707H1015.37C1015.15 641.267 1014.46 640.04 1013.29 639.027C1012.17 637.96 1010.62 637.16 1008.65 636.627C1006.67 636.04 1004.3 635.747 1001.53 635.747C997.792 635.747 994.832 636.253 992.645 637.267C990.459 638.227 989.365 639.667 989.365 641.587C989.365 642.973 990.005 644.093 991.285 644.947C992.619 645.8 994.992 646.387 998.405 646.707L1010.33 647.907C1016.03 648.44 1020.59 649.373 1024.01 650.707C1027.42 651.987 1029.9 653.773 1031.45 656.067C1032.99 658.36 1033.77 661.213 1033.77 664.627C1033.77 668.84 1032.51 672.52 1030.01 675.667C1027.5 678.76 1023.98 681.187 1019.45 682.947C1014.91 684.653 1009.63 685.507 1003.61 685.507C997.419 685.507 991.952 684.653 987.205 682.947C982.512 681.187 978.832 678.733 976.165 675.587C973.499 672.387 972.085 668.707 971.925 664.547ZM492.563 737.267H476.323C476.056 735.293 475.176 733.667 473.683 732.387C472.243 731.053 470.163 730.387 467.443 730.387C465.843 730.387 464.456 730.6 463.283 731.027C462.163 731.453 461.31 732.067 460.723 732.867C460.136 733.667 459.843 734.573 459.843 735.587C459.843 736.44 460.083 737.293 460.563 738.147C461.096 739 461.95 739.907 463.123 740.867L508.803 780.227H488.403L450.643 747.907C448.35 745.933 446.403 743.853 444.803 741.667C443.256 739.427 442.483 737.027 442.483 734.467C442.483 731.373 443.416 728.68 445.283 726.387C447.15 724.04 449.896 722.227 453.523 720.947C457.15 719.613 461.576 718.947 466.803 718.947C472.136 718.947 476.67 719.747 480.403 721.347C484.19 722.947 487.096 725.133 489.123 727.907C491.203 730.68 492.35 733.8 492.563 737.267ZM488.323 747.107H505.283L486.163 768.707C483.496 771.747 480.83 774.227 478.163 776.147C475.496 778.013 472.616 779.373 469.523 780.227C466.43 781.08 462.91 781.507 458.963 781.507C453.95 781.507 449.63 780.733 446.003 779.187C442.43 777.587 439.683 775.453 437.763 772.787C435.843 770.12 434.883 767.08 434.883 763.667C434.883 760.68 435.683 757.96 437.283 755.507C438.883 753.053 441.39 751 444.803 749.347C448.216 747.693 452.67 746.6 458.163 746.067L461.523 752.467C458.216 753.16 455.656 754.307 453.843 755.907C452.03 757.453 451.123 759.32 451.123 761.507C451.123 762.947 451.55 764.28 452.403 765.507C453.31 766.68 454.51 767.613 456.003 768.307C457.55 769 459.363 769.347 461.443 769.347C465.176 769.347 468.27 768.627 470.723 767.187C473.23 765.747 475.363 763.907 477.123 761.667L488.323 747.107ZM570.598 750.867L571.958 747.747C576.598 747.853 580.411 748.573 583.398 749.907C586.438 751.187 588.705 753 590.198 755.347C591.691 757.64 592.438 760.307 592.438 763.347C592.438 766.6 591.691 769.507 590.198 772.067C588.705 774.573 586.465 776.573 583.478 778.067C580.545 779.507 576.865 780.227 572.438 780.227H528.118L532.758 749.427L528.118 720.227H570.838C576.385 720.227 580.705 721.533 583.798 724.147C586.891 726.707 588.438 730.28 588.438 734.867C588.438 737.373 587.851 739.773 586.678 742.067C585.505 744.36 583.611 746.307 580.998 747.907C578.438 749.453 574.971 750.44 570.598 750.867ZM544.518 776.387L538.118 768.627H567.958C570.358 768.627 572.225 768.04 573.558 766.867C574.891 765.693 575.558 764.067 575.558 761.987C575.558 759.907 574.838 758.253 573.398 757.027C571.958 755.747 569.825 755.107 566.998 755.107H542.358V743.747H564.758C566.678 743.747 568.278 743.187 569.558 742.067C570.891 740.893 571.558 739.32 571.558 737.347C571.558 735.747 570.998 734.44 569.878 733.427C568.758 732.36 567.158 731.827 565.078 731.827H538.198L544.518 724.067L548.598 749.427L544.518 776.387ZM616.343 753.427C616.343 756.147 616.85 758.52 617.863 760.547C618.93 762.52 620.476 764.04 622.503 765.107C624.583 766.173 627.116 766.707 630.103 766.707C633.143 766.707 635.676 766.173 637.703 765.107C639.73 764.04 641.25 762.52 642.263 760.547C643.276 758.52 643.783 756.147 643.783 753.427V720.227H660.423V754.227C660.423 759.72 659.143 764.52 656.583 768.627C654.076 772.68 650.556 775.853 646.023 778.147C641.49 780.387 636.183 781.507 630.103 781.507C624.076 781.507 618.77 780.387 614.183 778.147C609.65 775.853 606.103 772.68 603.543 768.627C601.036 764.52 599.783 759.72 599.783 754.227V720.227H616.343V753.427ZM668.097 760.547H684.977C685.244 762.2 686.017 763.64 687.297 764.867C688.577 766.093 690.284 767.053 692.417 767.747C694.604 768.387 697.164 768.707 700.097 768.707C704.151 768.707 707.351 768.2 709.697 767.187C712.044 766.12 713.217 764.573 713.217 762.547C713.217 761 712.551 759.8 711.217 758.947C709.884 758.093 707.324 757.48 703.537 757.107L692.337 756.067C684.071 755.32 678.071 753.453 674.337 750.467C670.604 747.427 668.737 743.347 668.737 738.227C668.737 734.067 669.937 730.547 672.337 727.667C674.791 724.787 678.204 722.627 682.577 721.187C687.004 719.693 692.151 718.947 698.017 718.947C703.777 718.947 708.897 719.773 713.377 721.427C717.857 723.027 721.404 725.32 724.017 728.307C726.684 731.293 728.124 734.76 728.337 738.707H711.537C711.324 737.267 710.631 736.04 709.457 735.027C708.337 733.96 706.791 733.16 704.817 732.627C702.844 732.04 700.471 731.747 697.697 731.747C693.964 731.747 691.004 732.253 688.817 733.267C686.631 734.227 685.537 735.667 685.537 737.587C685.537 738.973 686.177 740.093 687.457 740.947C688.791 741.8 691.164 742.387 694.577 742.707L706.497 743.907C712.204 744.44 716.764 745.373 720.177 746.707C723.591 747.987 726.071 749.773 727.617 752.067C729.164 754.36 729.937 757.213 729.937 760.627C729.937 764.84 728.684 768.52 726.177 771.667C723.671 774.76 720.151 777.187 715.617 778.947C711.084 780.653 705.804 781.507 699.777 781.507C693.591 781.507 688.124 780.653 683.377 778.947C678.684 777.187 675.004 774.733 672.337 771.587C669.671 768.387 668.257 764.707 668.097 760.547ZM738.239 720.227H754.799V780.227H738.239V720.227ZM821.574 768.627L816.454 769.667V720.227H832.534V780.227H811.654L777.014 730.867L782.054 729.827V780.227H765.974V720.227H787.414L821.574 768.627ZM894.988 744.227V756.227H851.068V744.227H894.988ZM862.348 750.227L858.428 774.307L851.708 766.787H897.628V780.227H841.868L846.428 750.227L841.868 720.227H897.228V733.667H851.708L858.428 726.147L862.348 750.227ZM904.504 760.547H921.384C921.65 762.2 922.424 763.64 923.704 764.867C924.984 766.093 926.69 767.053 928.824 767.747C931.01 768.387 933.57 768.707 936.504 768.707C940.557 768.707 943.757 768.2 946.104 767.187C948.45 766.12 949.624 764.573 949.624 762.547C949.624 761 948.957 759.8 947.624 758.947C946.29 758.093 943.73 757.48 939.944 757.107L928.744 756.067C920.477 755.32 914.477 753.453 910.744 750.467C907.01 747.427 905.144 743.347 905.144 738.227C905.144 734.067 906.344 730.547 908.744 727.667C911.197 724.787 914.61 722.627 918.984 721.187C923.41 719.693 928.557 718.947 934.424 718.947C940.184 718.947 945.304 719.773 949.784 721.427C954.264 723.027 957.81 725.32 960.424 728.307C963.09 731.293 964.53 734.76 964.744 738.707H947.944C947.73 737.267 947.037 736.04 945.864 735.027C944.744 733.96 943.197 733.16 941.224 732.627C939.25 732.04 936.877 731.747 934.104 731.747C930.37 731.747 927.41 732.253 925.224 733.267C923.037 734.227 921.944 735.667 921.944 737.587C921.944 738.973 922.584 740.093 923.864 740.947C925.197 741.8 927.57 742.387 930.984 742.707L942.904 743.907C948.61 744.44 953.17 745.373 956.584 746.707C959.997 747.987 962.477 749.773 964.024 752.067C965.57 754.36 966.344 757.213 966.344 760.627C966.344 764.84 965.09 768.52 962.584 771.667C960.077 774.76 956.557 777.187 952.024 778.947C947.49 780.653 942.21 781.507 936.184 781.507C929.997 781.507 924.53 780.653 919.784 778.947C915.09 777.187 911.41 774.733 908.744 771.587C906.077 768.387 904.664 764.707 904.504 760.547ZM971.925 760.547H988.805C989.072 762.2 989.845 763.64 991.125 764.867C992.405 766.093 994.112 767.053 996.245 767.747C998.432 768.387 1000.99 768.707 1003.93 768.707C1007.98 768.707 1011.18 768.2 1013.53 767.187C1015.87 766.12 1017.05 764.573 1017.05 762.547C1017.05 761 1016.38 759.8 1015.05 758.947C1013.71 758.093 1011.15 757.48 1007.37 757.107L996.165 756.067C987.899 755.32 981.899 753.453 978.165 750.467C974.432 747.427 972.565 743.347 972.565 738.227C972.565 734.067 973.765 730.547 976.165 727.667C978.619 724.787 982.032 722.627 986.405 721.187C990.832 719.693 995.979 718.947 1001.85 718.947C1007.61 718.947 1012.73 719.773 1017.21 721.427C1021.69 723.027 1025.23 725.32 1027.85 728.307C1030.51 731.293 1031.95 734.76 1032.17 738.707H1015.37C1015.15 737.267 1014.46 736.04 1013.29 735.027C1012.17 733.96 1010.62 733.16 1008.65 732.627C1006.67 732.04 1004.3 731.747 1001.53 731.747C997.792 731.747 994.832 732.253 992.645 733.267C990.459 734.227 989.365 735.667 989.365 737.587C989.365 738.973 990.005 740.093 991.285 740.947C992.619 741.8 994.992 742.387 998.405 742.707L1010.33 743.907C1016.03 744.44 1020.59 745.373 1024.01 746.707C1027.42 747.987 1029.9 749.773 1031.45 752.067C1032.99 754.36 1033.77 757.213 1033.77 760.627C1033.77 764.84 1032.51 768.52 1030.01 771.667C1027.5 774.76 1023.98 777.187 1019.45 778.947C1014.91 780.653 1009.63 781.507 1003.61 781.507C997.419 781.507 991.952 780.653 987.205 778.947C982.512 777.187 978.832 774.733 976.165 771.587C973.499 768.387 972.085 764.707 971.925 760.547Z" fill="white"/>
</svg>
