<svg width="440" height="350" viewBox="0 0 440 350" fill="none" xmlns="http://www.w3.org/2000/svg">
<path d="M89.8255 0H0V159.509H48.7189L0 252.141V348.944H137.112L154.366 302.049H177.711L190.398 252.141H439.993V0H376.049L342.555 51.8738L300.941 0H205.026L116.722 61.211L89.8255 0Z" fill="#040000"/>
<path d="M209.093 283.4H228.677V289.7H209.093V283.4ZM229.361 272.348V278.648H209.345L212.909 275.084V299.348H205.457V272.348H229.361ZM233.23 272.348H240.682V299.348H233.23V272.348ZM270.731 294.128L268.427 294.596V272.348H275.663V299.348H266.267L250.679 277.136L252.947 276.668V299.348H245.711V272.348H255.359L270.731 294.128ZM285.947 294.164V288.152H304.559V294.164H285.947ZM300.311 272.348L312.587 299.348H304.631L294.335 275.516H296.495L286.163 299.348H278.207L290.483 272.348H300.311ZM340.164 294.128L337.86 294.596V272.348H345.096V299.348H335.7L320.112 277.136L322.38 276.668V299.348H315.144V272.348H324.792L340.164 294.128ZM380.113 288.044C379.849 290.42 379.033 292.508 377.665 294.308C376.297 296.084 374.497 297.464 372.265 298.448C370.057 299.432 367.513 299.924 364.633 299.924C361.489 299.924 358.741 299.336 356.389 298.16C354.037 296.984 352.201 295.34 350.881 293.228C349.585 291.116 348.937 288.656 348.937 285.848C348.937 283.04 349.585 280.58 350.881 278.468C352.201 276.356 354.037 274.712 356.389 273.536C358.741 272.36 361.489 271.772 364.633 271.772C367.513 271.772 370.057 272.264 372.265 273.248C374.497 274.232 376.297 275.624 377.665 277.424C379.033 279.2 379.849 281.276 380.113 283.652H372.625C372.385 282.5 371.917 281.528 371.221 280.736C370.525 279.92 369.613 279.296 368.485 278.864C367.381 278.432 366.097 278.216 364.633 278.216C362.953 278.216 361.501 278.528 360.277 279.152C359.053 279.752 358.117 280.628 357.469 281.78C356.821 282.908 356.497 284.264 356.497 285.848C356.497 287.432 356.821 288.8 357.469 289.952C358.117 291.08 359.053 291.956 360.277 292.58C361.501 293.18 362.953 293.48 364.633 293.48C366.097 293.48 367.381 293.276 368.485 292.868C369.613 292.46 370.525 291.848 371.221 291.032C371.917 290.216 372.385 289.22 372.625 288.044H380.113ZM406.67 283.148V288.548H386.906V283.148H406.67ZM391.982 285.848L390.218 296.684L387.194 293.3H407.858V299.348H382.766L384.818 285.848L382.766 272.348H407.678V278.396H387.194L390.218 275.012L391.982 285.848ZM410.952 290.492H418.548C418.668 291.236 419.016 291.884 419.592 292.436C420.168 292.988 420.936 293.42 421.896 293.732C422.88 294.02 424.032 294.164 425.352 294.164C427.176 294.164 428.616 293.936 429.672 293.48C430.728 293 431.256 292.304 431.256 291.392C431.256 290.696 430.956 290.156 430.356 289.772C429.756 289.388 428.604 289.112 426.9 288.944L421.86 288.476C418.14 288.14 415.44 287.3 413.76 285.956C412.08 284.588 411.24 282.752 411.24 280.448C411.24 278.576 411.78 276.992 412.86 275.696C413.964 274.4 415.5 273.428 417.468 272.78C419.46 272.108 421.776 271.772 424.416 271.772C427.008 271.772 429.312 272.144 431.328 272.888C433.344 273.608 434.94 274.64 436.116 275.984C437.316 277.328 437.964 278.888 438.06 280.664H430.5C430.404 280.016 430.092 279.464 429.564 279.008C429.06 278.528 428.364 278.168 427.476 277.928C426.588 277.664 425.52 277.532 424.272 277.532C422.592 277.532 421.26 277.76 420.276 278.216C419.292 278.648 418.8 279.296 418.8 280.16C418.8 280.784 419.088 281.288 419.664 281.672C420.264 282.056 421.332 282.32 422.868 282.464L428.232 283.004C430.8 283.244 432.852 283.664 434.388 284.264C435.924 284.84 437.04 285.644 437.736 286.676C438.432 287.708 438.78 288.992 438.78 290.528C438.78 292.424 438.216 294.08 437.088 295.496C435.96 296.888 434.376 297.98 432.336 298.772C430.296 299.54 427.92 299.924 425.208 299.924C422.424 299.924 419.964 299.54 417.828 298.772C415.716 297.98 414.06 296.876 412.86 295.46C411.66 294.02 411.024 292.364 410.952 290.492ZM195.239 323.016H187.931C187.811 322.128 187.415 321.396 186.743 320.82C186.095 320.22 185.159 319.92 183.935 319.92C183.215 319.92 182.591 320.016 182.063 320.208C181.559 320.4 181.175 320.676 180.911 321.036C180.647 321.396 180.515 321.804 180.515 322.26C180.515 322.644 180.623 323.028 180.839 323.412C181.079 323.796 181.463 324.204 181.991 324.636L202.547 342.348H193.367L176.375 327.804C175.343 326.916 174.467 325.98 173.747 324.996C173.051 323.988 172.703 322.908 172.703 321.756C172.703 320.364 173.123 319.152 173.963 318.12C174.803 317.064 176.039 316.248 177.671 315.672C179.303 315.072 181.295 314.772 183.647 314.772C186.047 314.772 188.087 315.132 189.767 315.852C191.471 316.572 192.779 317.556 193.691 318.804C194.627 320.052 195.143 321.456 195.239 323.016ZM193.331 327.444H200.963L192.359 337.164C191.159 338.532 189.959 339.648 188.759 340.512C187.559 341.352 186.263 341.964 184.871 342.348C183.479 342.732 181.895 342.924 180.119 342.924C177.863 342.924 175.919 342.576 174.287 341.88C172.679 341.16 171.443 340.2 170.579 339C169.715 337.8 169.283 336.432 169.283 334.896C169.283 333.552 169.643 332.328 170.363 331.224C171.083 330.12 172.211 329.196 173.747 328.452C175.283 327.708 177.287 327.216 179.759 326.976L181.271 329.856C179.783 330.168 178.631 330.684 177.815 331.404C176.999 332.1 176.591 332.94 176.591 333.924C176.591 334.572 176.783 335.172 177.167 335.724C177.575 336.252 178.115 336.672 178.787 336.984C179.483 337.296 180.299 337.452 181.235 337.452C182.915 337.452 184.307 337.128 185.411 336.48C186.539 335.832 187.499 335.004 188.291 333.996L193.331 327.444ZM230.354 329.136L230.966 327.732C233.054 327.78 234.77 328.104 236.114 328.704C237.482 329.28 238.502 330.096 239.174 331.152C239.846 332.184 240.182 333.384 240.182 334.752C240.182 336.216 239.846 337.524 239.174 338.676C238.502 339.804 237.494 340.704 236.15 341.376C234.83 342.024 233.174 342.348 231.182 342.348H211.238L213.326 328.488L211.238 315.348H230.462C232.958 315.348 234.902 315.936 236.294 317.112C237.686 318.264 238.382 319.872 238.382 321.936C238.382 323.064 238.118 324.144 237.59 325.176C237.062 326.208 236.21 327.084 235.034 327.804C233.882 328.5 232.322 328.944 230.354 329.136ZM218.618 340.62L215.738 337.128H229.166C230.246 337.128 231.086 336.864 231.686 336.336C232.286 335.808 232.586 335.076 232.586 334.14C232.586 333.204 232.262 332.46 231.614 331.908C230.966 331.332 230.006 331.044 228.734 331.044H217.646V325.932H227.726C228.59 325.932 229.31 325.68 229.886 325.176C230.486 324.648 230.786 323.94 230.786 323.052C230.786 322.332 230.534 321.744 230.03 321.288C229.526 320.808 228.806 320.568 227.87 320.568H215.774L218.618 317.076L220.454 328.488L218.618 340.62ZM250.94 330.288C250.94 331.512 251.168 332.58 251.624 333.492C252.104 334.38 252.8 335.064 253.712 335.544C254.648 336.024 255.788 336.264 257.132 336.264C258.5 336.264 259.64 336.024 260.552 335.544C261.464 335.064 262.148 334.38 262.604 333.492C263.06 332.58 263.288 331.512 263.288 330.288V315.348H270.776V330.648C270.776 333.12 270.2 335.28 269.048 337.128C267.92 338.952 266.336 340.38 264.296 341.412C262.256 342.42 259.868 342.924 257.132 342.924C254.42 342.924 252.032 342.42 249.968 341.412C247.928 340.38 246.332 338.952 245.18 337.128C244.052 335.28 243.488 333.12 243.488 330.648V315.348H250.94V330.288ZM274.229 333.492H281.825C281.945 334.236 282.293 334.884 282.869 335.436C283.445 335.988 284.213 336.42 285.173 336.732C286.157 337.02 287.309 337.164 288.629 337.164C290.453 337.164 291.893 336.936 292.949 336.48C294.005 336 294.533 335.304 294.533 334.392C294.533 333.696 294.233 333.156 293.633 332.772C293.033 332.388 291.881 332.112 290.177 331.944L285.137 331.476C281.417 331.14 278.717 330.3 277.037 328.956C275.357 327.588 274.517 325.752 274.517 323.448C274.517 321.576 275.057 319.992 276.137 318.696C277.241 317.4 278.777 316.428 280.745 315.78C282.737 315.108 285.053 314.772 287.693 314.772C290.285 314.772 292.589 315.144 294.605 315.888C296.621 316.608 298.217 317.64 299.393 318.984C300.593 320.328 301.241 321.888 301.337 323.664H293.777C293.681 323.016 293.369 322.464 292.841 322.008C292.337 321.528 291.641 321.168 290.753 320.928C289.865 320.664 288.797 320.532 287.549 320.532C285.869 320.532 284.537 320.76 283.553 321.216C282.569 321.648 282.077 322.296 282.077 323.16C282.077 323.784 282.365 324.288 282.941 324.672C283.541 325.056 284.609 325.32 286.145 325.464L291.509 326.004C294.077 326.244 296.129 326.664 297.665 327.264C299.201 327.84 300.317 328.644 301.013 329.676C301.709 330.708 302.057 331.992 302.057 333.528C302.057 335.424 301.493 337.08 300.365 338.496C299.237 339.888 297.653 340.98 295.613 341.772C293.573 342.54 291.197 342.924 288.485 342.924C285.701 342.924 283.241 342.54 281.105 341.772C278.993 340.98 277.337 339.876 276.137 338.46C274.937 337.02 274.301 335.364 274.229 333.492ZM305.793 315.348H313.245V342.348H305.793V315.348ZM343.293 337.128L340.989 337.596V315.348H348.225V342.348H338.829L323.241 320.136L325.509 319.668V342.348H318.273V315.348H327.921L343.293 337.128ZM376.33 326.148V331.548H356.566V326.148H376.33ZM361.642 328.848L359.878 339.684L356.854 336.3H377.518V342.348H352.426L354.478 328.848L352.426 315.348H377.338V321.396H356.854L359.878 318.012L361.642 328.848ZM380.612 333.492H388.208C388.328 334.236 388.676 334.884 389.252 335.436C389.828 335.988 390.596 336.42 391.556 336.732C392.54 337.02 393.692 337.164 395.012 337.164C396.836 337.164 398.276 336.936 399.332 336.48C400.388 336 400.916 335.304 400.916 334.392C400.916 333.696 400.616 333.156 400.016 332.772C399.416 332.388 398.264 332.112 396.56 331.944L391.52 331.476C387.8 331.14 385.1 330.3 383.42 328.956C381.74 327.588 380.9 325.752 380.9 323.448C380.9 321.576 381.44 319.992 382.52 318.696C383.624 317.4 385.16 316.428 387.128 315.78C389.12 315.108 391.436 314.772 394.076 314.772C396.668 314.772 398.972 315.144 400.988 315.888C403.004 316.608 404.6 317.64 405.776 318.984C406.976 320.328 407.624 321.888 407.72 323.664H400.16C400.064 323.016 399.752 322.464 399.224 322.008C398.72 321.528 398.024 321.168 397.136 320.928C396.248 320.664 395.18 320.532 393.932 320.532C392.252 320.532 390.92 320.76 389.936 321.216C388.952 321.648 388.46 322.296 388.46 323.16C388.46 323.784 388.748 324.288 389.324 324.672C389.924 325.056 390.992 325.32 392.528 325.464L397.892 326.004C400.46 326.244 402.512 326.664 404.048 327.264C405.584 327.84 406.7 328.644 407.396 329.676C408.092 330.708 408.44 331.992 408.44 333.528C408.44 335.424 407.876 337.08 406.748 338.496C405.62 339.888 404.036 340.98 401.996 341.772C399.956 342.54 397.58 342.924 394.868 342.924C392.084 342.924 389.624 342.54 387.488 341.772C385.376 340.98 383.72 339.876 382.52 338.46C381.32 337.02 380.684 335.364 380.612 333.492ZM410.952 333.492H418.548C418.668 334.236 419.016 334.884 419.592 335.436C420.168 335.988 420.936 336.42 421.896 336.732C422.88 337.02 424.032 337.164 425.352 337.164C427.176 337.164 428.616 336.936 429.672 336.48C430.728 336 431.256 335.304 431.256 334.392C431.256 333.696 430.956 333.156 430.356 332.772C429.756 332.388 428.604 332.112 426.9 331.944L421.86 331.476C418.14 331.14 415.44 330.3 413.76 328.956C412.08 327.588 411.24 325.752 411.24 323.448C411.24 321.576 411.78 319.992 412.86 318.696C413.964 317.4 415.5 316.428 417.468 315.78C419.46 315.108 421.776 314.772 424.416 314.772C427.008 314.772 429.312 315.144 431.328 315.888C433.344 316.608 434.94 317.64 436.116 318.984C437.316 320.328 437.964 321.888 438.06 323.664H430.5C430.404 323.016 430.092 322.464 429.564 322.008C429.06 321.528 428.364 321.168 427.476 320.928C426.588 320.664 425.52 320.532 424.272 320.532C422.592 320.532 421.26 320.76 420.276 321.216C419.292 321.648 418.8 322.296 418.8 323.16C418.8 323.784 419.088 324.288 419.664 324.672C420.264 325.056 421.332 325.32 422.868 325.464L428.232 326.004C430.8 326.244 432.852 326.664 434.388 327.264C435.924 327.84 437.04 328.644 437.736 329.676C438.432 330.708 438.78 331.992 438.78 333.528C438.78 335.424 438.216 337.08 437.088 338.496C435.96 339.888 434.376 340.98 432.336 341.772C430.296 342.54 427.92 342.924 425.208 342.924C422.424 342.924 419.964 342.54 417.828 341.772C415.716 340.98 414.06 339.876 412.86 338.46C411.66 337.02 411.024 335.364 410.952 333.492Z" fill="#040000"/>
</svg>
