<svg width="768" height="987" viewBox="0 0 768 987" fill="none" xmlns="http://www.w3.org/2000/svg">
<path d="M426.601 788.785C426.368 790.844 425.657 792.658 424.468 794.228C423.28 795.777 421.71 796.987 419.758 797.857C417.806 798.727 415.588 799.162 413.106 799.162C410.347 799.162 407.928 798.642 405.849 797.602C403.791 796.562 402.188 795.109 401.043 793.241C399.897 791.374 399.324 789.199 399.324 786.717C399.324 784.234 399.897 782.059 401.043 780.192C402.188 778.324 403.791 776.871 405.849 775.831C407.928 774.792 410.347 774.272 413.106 774.272C415.588 774.272 417.806 774.707 419.758 775.577C421.71 776.447 423.28 777.656 424.468 779.205C425.657 780.754 426.368 782.568 426.601 784.648H420.554C420.341 783.566 419.906 782.643 419.249 781.879C418.612 781.115 417.763 780.531 416.702 780.128C415.663 779.704 414.453 779.492 413.074 779.492C411.482 779.492 410.114 779.789 408.968 780.383C407.822 780.956 406.942 781.783 406.326 782.865C405.711 783.948 405.403 785.231 405.403 786.717C405.403 788.202 405.711 789.486 406.326 790.568C406.942 791.65 407.822 792.488 408.968 793.082C410.114 793.655 411.482 793.942 413.074 793.942C414.453 793.942 415.663 793.74 416.702 793.337C417.763 792.934 418.612 792.35 419.249 791.586C419.906 790.823 420.341 789.889 420.554 788.785H426.601ZM445.628 786.939L446.137 785.762C448.004 785.804 449.532 786.091 450.72 786.621C451.93 787.152 452.821 787.884 453.394 788.817C453.988 789.73 454.285 790.78 454.285 791.968C454.285 793.263 453.988 794.419 453.394 795.438C452.8 796.435 451.908 797.22 450.72 797.793C449.553 798.366 448.089 798.652 446.328 798.652H429.14L430.986 786.398L429.14 774.781H445.723C447.93 774.781 449.638 775.301 450.847 776.341C452.078 777.359 452.693 778.77 452.693 780.574C452.693 781.571 452.46 782.526 451.993 783.438C451.526 784.351 450.784 785.125 449.765 785.762C448.747 786.377 447.367 786.77 445.628 786.939ZM435.06 797.188L432.769 794.355H444.895C445.935 794.355 446.742 794.111 447.314 793.623C447.909 793.114 448.206 792.403 448.206 791.491C448.206 790.578 447.877 789.857 447.219 789.327C446.582 788.775 445.628 788.499 444.354 788.499H434.424V784.298H443.59C444.46 784.298 445.182 784.054 445.755 783.566C446.328 783.056 446.614 782.367 446.614 781.497C446.614 780.797 446.36 780.224 445.85 779.778C445.362 779.311 444.662 779.078 443.75 779.078H432.801L435.06 776.245L436.747 786.398L435.06 797.188ZM457.691 774.781H463.707V798.652H457.691V774.781ZM475.896 777.455H481.912V798.652H475.896V777.455ZM466.602 774.781H491.206V780.096H466.602V774.781ZM503.51 791.204C500.136 791.204 497.558 790.334 495.776 788.595C493.994 786.855 493.102 784.329 493.102 781.019V774.781H499.118V780.542C499.118 782.324 499.595 783.672 500.55 784.584C501.526 785.475 502.98 785.921 504.911 785.921C506.035 785.921 507.202 785.794 508.412 785.539C509.643 785.263 510.873 784.881 512.104 784.393L512.454 789.199C511.16 789.857 509.738 790.356 508.189 790.695C506.661 791.035 505.102 791.204 503.51 791.204ZM511.276 798.652V774.781H517.292V798.652H511.276ZM542.023 784.489V788.945H524.74V784.489H542.023ZM528.814 786.717L527.223 796.583L524.708 793.719H543.041V798.652H521.207L523.053 786.717L521.207 774.781H542.882V779.714H524.708L527.223 776.85L528.814 786.717ZM560.2 774.781C562.153 774.781 563.829 775.12 565.229 775.799C566.651 776.457 567.733 777.391 568.476 778.6C569.24 779.81 569.622 781.221 569.622 782.834C569.622 784.446 569.24 785.857 568.476 787.067C567.733 788.276 566.651 789.22 565.229 789.899C563.829 790.557 562.153 790.886 560.2 790.886H549.761V786.016H559.882C561.028 786.016 561.93 785.741 562.588 785.189C563.245 784.616 563.574 783.831 563.574 782.834C563.574 781.836 563.245 781.062 562.588 780.51C561.93 779.937 561.028 779.651 559.882 779.651H550.302L553.007 776.85V798.652H546.992V774.781H560.2ZM574.103 793.846V788.976H590.59V793.846H574.103ZM586.389 774.781L597.402 798.652H591.004L581.551 777.295H583.397L573.976 798.652H567.546L578.591 774.781H586.389ZM634.048 774.781V798.652H628.319V776.882L629.719 776.977L620.011 798.652H613.868L604.161 777.041L605.561 776.913V798.652H599.832V774.781H609.094L618.165 795.66H615.746L624.786 774.781H634.048ZM637.539 803.299L640.659 796.711L640.977 798.875C640.361 798.875 639.789 798.727 639.258 798.43C638.749 798.132 638.346 797.729 638.049 797.22C637.752 796.69 637.603 796.127 637.603 795.533C637.603 794.897 637.752 794.334 638.049 793.846C638.346 793.337 638.749 792.934 639.258 792.637C639.789 792.34 640.361 792.191 640.977 792.191C641.635 792.191 642.218 792.34 642.727 792.637C643.237 792.934 643.64 793.348 643.937 793.878C644.234 794.387 644.382 794.971 644.382 795.629C644.382 796.223 644.234 796.859 643.937 797.538C643.661 798.217 643.173 799.087 642.473 800.148L640.499 803.299H637.539ZM693.856 774.781V795.692L691.31 793.337H697.994V803.49H692.36V796.774L695.065 798.652H655.439V774.781H661.454V795.692L658.908 793.337H674.186L671.639 795.692V774.781H677.655V795.692L675.109 793.337H690.386L687.84 795.692V774.781H693.856ZM713.556 799.162C710.755 799.162 708.294 798.642 706.172 797.602C704.071 796.562 702.437 795.109 701.27 793.241C700.103 791.374 699.52 789.199 699.52 786.717C699.52 784.234 700.103 782.059 701.27 780.192C702.437 778.324 704.071 776.871 706.172 775.831C708.294 774.792 710.755 774.272 713.556 774.272C716.357 774.272 718.808 774.792 720.908 775.831C723.03 776.871 724.675 778.324 725.842 780.192C727.03 782.059 727.624 784.234 727.624 786.717C727.624 789.199 727.03 791.374 725.842 793.241C724.675 795.109 723.03 796.562 720.908 797.602C718.808 798.642 716.357 799.162 713.556 799.162ZM713.556 793.783C715.211 793.783 716.633 793.507 717.821 792.955C719.009 792.382 719.922 791.565 720.558 790.504C721.216 789.443 721.545 788.181 721.545 786.717C721.545 785.253 721.216 783.99 720.558 782.929C719.922 781.868 719.009 781.062 717.821 780.51C716.633 779.937 715.211 779.651 713.556 779.651C711.922 779.651 710.511 779.937 709.323 780.51C708.134 781.062 707.211 781.868 706.554 782.929C705.896 783.99 705.567 785.253 705.567 786.717C705.567 788.181 705.896 789.443 706.554 790.504C707.211 791.565 708.134 792.382 709.323 792.955C710.511 793.507 711.922 793.783 713.556 793.783ZM406.482 831.337L403.776 834.042V812.781H409.792V836.652H371.375V812.781H377.391V834.042L374.685 831.337H389.899L387.576 834.042V812.781H393.591V834.042L391.172 831.337H406.482ZM420.058 836.652L424.259 829.364H424.355L433.84 812.781H440.333L426.551 836.652H420.058ZM424.196 833.31L412.292 812.781H418.912L428.429 829.236L424.196 833.31ZM442.709 836.652V812.781H448.693V831.814L447.07 830.605L461.202 812.781H467.568L448.12 836.652H442.709ZM454.136 825.099L458.465 821.375L467.886 836.652H461.075L454.136 825.099ZM474.39 831.846V826.976H490.877V831.846H474.39ZM486.676 812.781L497.689 836.652H491.291L481.838 815.295H483.684L474.263 836.652H467.833L478.878 812.781H486.676ZM523.29 837.162C520.511 837.162 518.081 836.642 516.001 835.602C513.922 834.562 512.309 833.109 511.164 831.241C510.018 829.374 509.445 827.199 509.445 824.717C509.445 822.234 510.018 820.059 511.164 818.192C512.309 816.324 513.922 814.871 516.001 813.831C518.081 812.792 520.511 812.272 523.29 812.272C526.07 812.272 528.499 812.792 530.579 813.831C532.68 814.871 534.303 816.324 535.449 818.192C536.616 820.059 537.199 822.234 537.199 824.717C537.199 827.199 536.616 829.374 535.449 831.241C534.303 833.109 532.68 834.562 530.579 835.602C528.499 836.642 526.07 837.162 523.29 837.162ZM500.119 836.652V812.781H506.135V836.652H500.119ZM503.461 827.199V821.916H512.532V827.199H503.461ZM523.29 831.783C524.924 831.783 526.325 831.496 527.492 830.923C528.659 830.35 529.56 829.533 530.197 828.472C530.834 827.411 531.152 826.16 531.152 824.717C531.152 823.253 530.834 822.001 530.197 820.961C529.56 819.9 528.659 819.083 527.492 818.51C526.325 817.937 524.924 817.651 523.29 817.651C521.678 817.651 520.288 817.937 519.121 818.51C517.954 819.083 517.052 819.9 516.415 820.961C515.779 822.001 515.46 823.253 515.46 824.717C515.46 826.16 515.779 827.411 516.415 828.472C517.052 829.533 517.954 830.35 519.121 830.923C520.288 831.496 521.678 831.783 523.29 831.783ZM547.293 815.455H553.308V836.652H547.293V815.455ZM537.999 812.781H562.602V818.096H537.999V812.781ZM565.486 836.652V812.781H571.501V834.583L568.796 831.91H578.281C579.448 831.91 580.36 831.613 581.018 831.019C581.697 830.425 582.037 829.618 582.037 828.6C582.037 827.56 581.697 826.743 581.018 826.149C580.36 825.555 579.448 825.258 578.281 825.258H568.255V820.515H578.631C580.604 820.515 582.291 820.855 583.692 821.534C585.113 822.192 586.206 823.125 586.97 824.335C587.734 825.544 588.116 826.966 588.116 828.6C588.116 830.212 587.734 831.623 586.97 832.833C586.206 834.042 585.113 834.987 583.692 835.666C582.291 836.323 580.604 836.652 578.631 836.652H565.486ZM609.135 837.162C606.652 837.162 604.478 836.811 602.61 836.111C600.743 835.411 599.289 834.424 598.25 833.151C597.21 831.857 596.648 830.35 596.563 828.632H602.578C602.748 829.883 603.385 830.849 604.488 831.528C605.592 832.186 607.141 832.515 609.135 832.515C611.002 832.515 612.445 832.249 613.464 831.719C614.504 831.188 615.023 830.393 615.023 829.332C615.023 828.419 614.588 827.751 613.718 827.327C612.848 826.902 611.437 826.69 609.485 826.69H605.029V822.68H609.39C610.536 822.68 611.48 822.563 612.222 822.329C612.986 822.096 613.549 821.767 613.909 821.343C614.27 820.918 614.45 820.43 614.45 819.879C614.45 819.242 614.238 818.701 613.814 818.255C613.39 817.81 612.785 817.481 612 817.269C611.215 817.035 610.27 816.919 609.167 816.919C607.363 816.919 605.931 817.248 604.87 817.905C603.83 818.542 603.215 819.444 603.024 820.611H597.072C597.178 819.062 597.719 817.661 598.695 816.409C599.693 815.157 601.093 814.16 602.897 813.417C604.722 812.654 606.907 812.272 609.453 812.272C611.703 812.272 613.655 812.558 615.31 813.131C616.965 813.704 618.249 814.489 619.161 815.486C620.095 816.484 620.562 817.64 620.562 818.956C620.562 820.038 620.233 821.035 619.575 821.948C618.938 822.86 617.93 823.581 616.551 824.112C615.193 824.642 613.432 824.897 611.268 824.876V824.239C613.326 824.133 615.087 824.282 616.551 824.685C618.036 825.067 619.172 825.682 619.957 826.531C620.763 827.38 621.166 828.462 621.166 829.777C621.166 831.22 620.699 832.504 619.766 833.629C618.832 834.732 617.464 835.602 615.66 836.239C613.878 836.854 611.703 837.162 609.135 837.162ZM659.007 812.781V836.652H653.278V814.882L654.678 814.977L644.971 836.652H638.828L629.12 815.041L630.52 814.913V836.652H624.791V812.781H634.053L643.125 833.66H640.706L649.745 812.781H659.007ZM663.645 812.781H669.66V836.652H663.645V812.781ZM674.306 812.781H680.321V836.652H674.306V812.781ZM693.276 812.781H699.291V836.652H693.276V812.781ZM677.648 821.916H695.822V827.199H677.648V821.916ZM709.561 836.652L713.763 829.364H713.858L723.343 812.781H729.836L716.054 836.652H709.561ZM713.699 833.31L701.795 812.781H708.415L717.932 829.236L713.699 833.31ZM606.289 864.785C606.056 866.844 605.345 868.658 604.157 870.228C602.969 871.777 601.398 872.987 599.446 873.857C597.494 874.727 595.277 875.162 592.794 875.162C590.036 875.162 587.617 874.642 585.537 873.602C583.479 872.562 581.877 871.109 580.731 869.241C579.585 867.374 579.012 865.199 579.012 862.717C579.012 860.234 579.585 858.059 580.731 856.192C581.877 854.324 583.479 852.871 585.537 851.831C587.617 850.792 590.036 850.272 592.794 850.272C595.277 850.272 597.494 850.707 599.446 851.577C601.398 852.447 602.969 853.656 604.157 855.205C605.345 856.754 606.056 858.568 606.289 860.648H600.242C600.03 859.566 599.595 858.643 598.937 857.879C598.3 857.115 597.452 856.531 596.391 856.128C595.351 855.704 594.142 855.492 592.762 855.492C591.171 855.492 589.802 855.789 588.656 856.383C587.511 856.956 586.63 857.783 586.015 858.865C585.399 859.948 585.092 861.231 585.092 862.717C585.092 864.202 585.399 865.486 586.015 866.568C586.63 867.65 587.511 868.488 588.656 869.082C589.802 869.655 591.171 869.942 592.762 869.942C594.142 869.942 595.351 869.74 596.391 869.337C597.452 868.934 598.3 868.35 598.937 867.586C599.595 866.823 600.03 865.889 600.242 864.785H606.289ZM627.987 870.897V866.122H635.944C636.878 866.122 637.684 865.963 638.363 865.645C639.042 865.327 639.562 864.87 639.923 864.276C640.305 863.661 640.496 862.939 640.496 862.112C640.496 861.284 640.305 860.574 639.923 859.979C639.562 859.385 639.042 858.929 638.363 858.611C637.684 858.292 636.878 858.133 635.944 858.133H628.019V853.391H636.263C638.406 853.391 640.241 853.752 641.769 854.473C643.297 855.194 644.475 856.213 645.302 857.529C646.151 858.823 646.575 860.351 646.575 862.112C646.575 863.873 646.151 865.411 645.302 866.727C644.475 868.043 643.297 869.072 641.769 869.814C640.241 870.536 638.406 870.897 636.263 870.897H627.987ZM618.471 870.897C616.37 870.897 614.545 870.536 612.996 869.814C611.468 869.072 610.28 868.043 609.431 866.727C608.604 865.411 608.19 863.873 608.19 862.112C608.19 860.351 608.604 858.823 609.431 857.529C610.28 856.213 611.468 855.194 612.996 854.473C614.545 853.752 616.37 853.391 618.471 853.391H626.714V858.133H618.789C617.855 858.133 617.049 858.292 616.37 858.611C615.691 858.929 615.171 859.385 614.81 859.979C614.45 860.574 614.269 861.284 614.269 862.112C614.269 862.939 614.45 863.661 614.81 864.276C615.171 864.87 615.691 865.327 616.37 865.645C617.049 865.963 617.855 866.122 618.789 866.122H626.746V870.897H618.471ZM624.359 875.384V850.049H630.374V875.384H624.359ZM669.648 860.489V864.945H652.365V860.489H669.648ZM656.439 862.717L654.848 872.583L652.333 869.719H670.666V874.652H648.832L650.678 862.717L648.832 850.781H670.507V855.714H652.333L654.848 852.85L656.439 862.717ZM687.826 850.781C689.778 850.781 691.454 851.12 692.854 851.799C694.276 852.457 695.358 853.391 696.101 854.6C696.865 855.81 697.247 857.221 697.247 858.834C697.247 860.446 696.865 861.857 696.101 863.067C695.358 864.276 694.276 865.22 692.854 865.899C691.454 866.557 689.778 866.886 687.826 866.886H677.386V862.016H687.507C688.653 862.016 689.555 861.741 690.213 861.189C690.87 860.616 691.199 859.831 691.199 858.834C691.199 857.836 690.87 857.062 690.213 856.51C689.555 855.937 688.653 855.651 687.507 855.651H677.927L680.632 852.85V874.652H674.617V850.781H687.826ZM700.229 874.652V850.781H706.149V871.533L704.398 871.183L718.721 850.781H726.551V874.652H720.663V853.55L722.381 853.9L707.868 874.652H700.229ZM483.853 917.49V907.369H488.627L490.823 907.432H507.724L509.188 907.369H515.872V917.49H510.271V912.652H489.455V917.49H483.853ZM488.882 888.781H511.735V910.87H505.719V891.295L508.425 894.033H492.096L494.579 892.027C494.728 893.067 494.823 894.075 494.866 895.051C494.908 896.006 494.929 896.918 494.929 897.788C494.929 900.335 494.717 902.478 494.293 904.218C493.868 905.958 493.232 907.284 492.383 908.196C491.555 909.088 490.526 909.533 489.296 909.533L486.781 907.432C487.651 906.435 488.298 905.045 488.723 903.263C489.147 901.459 489.359 899.231 489.359 896.579C489.359 895.369 489.317 894.118 489.232 892.823C489.147 891.508 489.03 890.16 488.882 888.781ZM519.079 888.781H525.095V912.652H519.079V888.781ZM548.01 899.539V903.836H537.889L537.857 903.709C536.075 903.709 534.515 903.401 533.178 902.785C531.841 902.17 530.791 901.311 530.027 900.207C529.285 899.104 528.913 897.81 528.913 896.324C528.913 894.818 529.285 893.502 530.027 892.378C530.791 891.253 531.841 890.372 533.178 889.736C534.515 889.099 536.075 888.781 537.857 888.781H552.148V912.652H546.132V890.404L548.838 893.11H538.685C537.518 893.11 536.605 893.396 535.947 893.969C535.29 894.542 534.961 895.327 534.961 896.324C534.961 897.322 535.29 898.107 535.947 898.68C536.605 899.253 537.518 899.539 538.685 899.539H548.01ZM543.713 901.481L535.279 912.652H528.308L536.966 901.481H543.713ZM560.793 888.781H583.741V912.652H577.726V891.391L580.431 894.096H564.135L566.681 892.091C566.83 893.576 566.936 894.998 567 896.356C567.084 897.693 567.127 898.966 567.127 900.176C567.127 903.21 566.851 905.682 566.299 907.592C565.769 909.48 564.92 910.881 563.753 911.793C562.607 912.684 561.111 913.13 559.265 913.13C558.48 913.13 557.706 913.045 556.942 912.875C556.178 912.705 555.488 912.461 554.873 912.143V907.146C555.807 907.507 556.666 907.687 557.451 907.687C558.873 907.687 559.891 907.029 560.507 905.714C561.143 904.398 561.461 902.266 561.461 899.316C561.461 897.916 561.408 896.346 561.302 894.606C561.196 892.844 561.026 890.903 560.793 888.781ZM588.394 912.652V888.781H594.409V910.583L591.704 907.91H601.189C602.356 907.91 603.268 907.613 603.926 907.019C604.605 906.425 604.944 905.618 604.944 904.6C604.944 903.56 604.605 902.743 603.926 902.149C603.268 901.555 602.356 901.258 601.189 901.258H591.163V896.515H601.539C603.512 896.515 605.199 896.855 606.6 897.534C608.021 898.192 609.114 899.125 609.878 900.335C610.642 901.544 611.024 902.966 611.024 904.6C611.024 906.212 610.642 907.623 609.878 908.833C609.114 910.042 608.021 910.987 606.6 911.666C605.199 912.323 603.512 912.652 601.539 912.652H588.394ZM614.006 888.781H620.021V912.652H614.006V888.781ZM632.975 888.781H638.991V912.652H632.975V888.781ZM617.348 897.916H635.522V903.199H617.348V897.916ZM656.582 913.162C653.781 913.162 651.319 912.642 649.197 911.602C647.097 910.562 645.463 909.109 644.296 907.241C643.129 905.374 642.545 903.199 642.545 900.717C642.545 898.234 643.129 896.059 644.296 894.192C645.463 892.324 647.097 890.871 649.197 889.831C651.319 888.792 653.781 888.272 656.582 888.272C659.382 888.272 661.833 888.792 663.934 889.831C666.056 890.871 667.7 892.324 668.867 894.192C670.056 896.059 670.65 898.234 670.65 900.717C670.65 903.199 670.056 905.374 668.867 907.241C667.7 909.109 666.056 910.562 663.934 911.602C661.833 912.642 659.382 913.162 656.582 913.162ZM656.582 907.783C658.237 907.783 659.658 907.507 660.847 906.955C662.035 906.382 662.947 905.565 663.584 904.504C664.242 903.443 664.571 902.181 664.571 900.717C664.571 899.253 664.242 897.99 663.584 896.929C662.947 895.868 662.035 895.062 660.847 894.51C659.658 893.937 658.237 893.651 656.582 893.651C654.948 893.651 653.537 893.937 652.348 894.51C651.16 895.062 650.237 895.868 649.579 896.929C648.921 897.99 648.593 899.253 648.593 900.717C648.593 902.181 648.921 903.443 649.579 904.504C650.237 905.565 651.16 906.382 652.348 906.955C653.537 907.507 654.948 907.783 656.582 907.783ZM700.407 902.785C700.174 904.844 699.463 906.658 698.275 908.228C697.087 909.777 695.517 910.987 693.564 911.857C691.612 912.727 689.395 913.162 686.912 913.162C684.154 913.162 681.735 912.642 679.655 911.602C677.597 910.562 675.995 909.109 674.849 907.241C673.703 905.374 673.13 903.199 673.13 900.717C673.13 898.234 673.703 896.059 674.849 894.192C675.995 892.324 677.597 890.871 679.655 889.831C681.735 888.792 684.154 888.272 686.912 888.272C689.395 888.272 691.612 888.707 693.564 889.577C695.517 890.447 697.087 891.656 698.275 893.205C699.463 894.754 700.174 896.568 700.407 898.648H694.36C694.148 897.566 693.713 896.643 693.055 895.879C692.419 895.115 691.57 894.531 690.509 894.128C689.469 893.704 688.26 893.492 686.88 893.492C685.289 893.492 683.92 893.789 682.774 894.383C681.629 894.956 680.748 895.783 680.133 896.865C679.517 897.948 679.21 899.231 679.21 900.717C679.21 902.202 679.517 903.486 680.133 904.568C680.748 905.65 681.629 906.488 682.774 907.082C683.92 907.655 685.289 907.942 686.88 907.942C688.26 907.942 689.469 907.74 690.509 907.337C691.57 906.934 692.419 906.35 693.055 905.586C693.713 904.823 694.148 903.889 694.36 902.785H700.407ZM710.352 891.455H716.368V912.652H710.352V891.455ZM701.058 888.781H725.662V894.096H701.058V888.781ZM728.545 888.781H734.561V912.652H728.545V888.781Z" fill="white"/>
<path d="M367.041 377.317L364.335 380.023V358.761H370.351V382.633H331.934V358.761H337.95V380.023L335.244 377.317H350.458L348.135 380.023V358.761H354.15V380.023L351.731 377.317H367.041ZM380.617 382.633L384.818 375.344H384.914L394.399 358.761H400.892L387.11 382.633H380.617ZM384.755 379.291L372.851 358.761H379.471L388.988 375.217L384.755 379.291ZM403.269 382.633V358.761H409.252V377.795L407.629 376.585L421.761 358.761H428.127L408.679 382.633H403.269ZM414.695 371.079L419.024 367.355L428.445 382.633H421.634L414.695 371.079ZM434.949 377.827V372.957H451.436V377.827H434.949ZM447.235 358.761L458.248 382.633H451.85L442.397 361.276H444.243L434.822 382.633H428.392L439.437 358.761H447.235ZM466.991 375.185C463.617 375.185 461.039 374.315 459.257 372.575C457.474 370.835 456.583 368.31 456.583 365V358.761H462.599V364.522C462.599 366.305 463.076 367.652 464.031 368.565C465.007 369.456 466.461 369.901 468.392 369.901C469.516 369.901 470.683 369.774 471.893 369.519C473.123 369.244 474.354 368.862 475.585 368.374L475.935 373.18C474.641 373.838 473.219 374.336 471.67 374.676C470.142 375.015 468.583 375.185 466.991 375.185ZM474.757 382.633V358.761H480.773V382.633H474.757ZM489.717 377.827V372.957H506.204V377.827H489.717ZM502.003 358.761L513.015 382.633H506.618L497.165 361.276H499.011L489.589 382.633H483.16L494.205 358.761H502.003ZM549.661 358.761V382.633H543.932V360.862L545.333 360.958L535.625 382.633H529.482L519.774 361.021L521.175 360.894V382.633H515.446V358.761H524.708L533.779 379.641H531.36L540.399 358.761H549.661ZM575.527 358.761C577.479 358.761 579.155 359.101 580.556 359.78C581.978 360.438 583.06 361.371 583.802 362.581C584.566 363.79 584.948 365.201 584.948 366.814C584.948 368.427 584.566 369.838 583.802 371.047C583.06 372.257 581.978 373.201 580.556 373.88C579.155 374.538 577.479 374.867 575.527 374.867H565.087V369.997H575.209C576.355 369.997 577.256 369.721 577.914 369.169C578.572 368.596 578.901 367.811 578.901 366.814C578.901 365.817 578.572 365.042 577.914 364.491C577.256 363.918 576.355 363.631 575.209 363.631H565.628L568.334 360.83V382.633H562.318V358.761H575.527ZM600.884 383.142C598.083 383.142 595.622 382.622 593.5 381.582C591.399 380.543 589.766 379.089 588.599 377.222C587.432 375.355 586.848 373.18 586.848 370.697C586.848 368.214 587.432 366.04 588.599 364.172C589.766 362.305 591.399 360.851 593.5 359.812C595.622 358.772 598.083 358.252 600.884 358.252C603.685 358.252 606.136 358.772 608.237 359.812C610.359 360.851 612.003 362.305 613.17 364.172C614.359 366.04 614.953 368.214 614.953 370.697C614.953 373.18 614.359 375.355 613.17 377.222C612.003 379.089 610.359 380.543 608.237 381.582C606.136 382.622 603.685 383.142 600.884 383.142ZM600.884 377.763C602.539 377.763 603.961 377.487 605.149 376.935C606.338 376.363 607.25 375.546 607.887 374.485C608.544 373.424 608.873 372.161 608.873 370.697C608.873 369.233 608.544 367.97 607.887 366.909C607.25 365.849 606.338 365.042 605.149 364.491C603.961 363.918 602.539 363.631 600.884 363.631C599.251 363.631 597.839 363.918 596.651 364.491C595.463 365.042 594.54 365.849 593.882 366.909C593.224 367.97 592.895 369.233 592.895 370.697C592.895 372.161 593.224 373.424 593.882 374.485C594.54 375.546 595.463 376.363 596.651 376.935C597.839 377.487 599.251 377.763 600.884 377.763ZM622.118 367.96H632.812C634.765 367.96 636.377 368.268 637.65 368.883C638.945 369.498 639.91 370.358 640.547 371.461C641.183 372.543 641.502 373.827 641.502 375.312C641.502 376.776 641.152 378.06 640.451 379.163C639.772 380.267 638.775 381.126 637.459 381.742C636.165 382.336 634.616 382.633 632.812 382.633H617.535L619.381 370.188L617.535 358.761H639.624V363.408H621.259L623.55 360.576L625.11 370.092L623.423 380.978L621.131 378.177H632.08C633.141 378.177 633.98 377.912 634.595 377.381C635.21 376.851 635.518 376.108 635.518 375.153C635.518 374.219 635.2 373.487 634.563 372.957C633.948 372.405 633.11 372.129 632.049 372.129H622.118V367.96ZM657.766 383.142C654.965 383.142 652.503 382.622 650.381 381.582C648.281 380.543 646.647 379.089 645.48 377.222C644.313 375.355 643.729 373.18 643.729 370.697C643.729 368.214 644.313 366.04 645.48 364.172C646.647 362.305 648.281 360.851 650.381 359.812C652.503 358.772 654.965 358.252 657.766 358.252C660.566 358.252 663.017 358.772 665.118 359.812C667.24 360.851 668.884 362.305 670.051 364.172C671.24 366.04 671.834 368.214 671.834 370.697C671.834 373.18 671.24 375.355 670.051 377.222C668.884 379.089 667.24 380.543 665.118 381.582C663.017 382.622 660.566 383.142 657.766 383.142ZM657.766 377.763C659.421 377.763 660.842 377.487 662.031 376.935C663.219 376.363 664.131 375.546 664.768 374.485C665.426 373.424 665.755 372.161 665.755 370.697C665.755 369.233 665.426 367.97 664.768 366.909C664.131 365.849 663.219 365.042 662.031 364.491C660.842 363.918 659.421 363.631 657.766 363.631C656.132 363.631 654.721 363.918 653.532 364.491C652.344 365.042 651.421 365.849 650.763 366.909C650.105 367.97 649.777 369.233 649.777 370.697C649.777 372.161 650.105 373.424 650.763 374.485C651.421 375.546 652.344 376.363 653.532 376.935C654.721 377.487 656.132 377.763 657.766 377.763ZM681.883 361.435H687.899V382.633H681.883V361.435ZM672.589 358.761H697.193V364.077H672.589V358.761ZM700.076 382.633V358.761H705.996V379.514L704.246 379.163L718.569 358.761H726.398V382.633H720.51V361.53L722.229 361.881L707.715 382.633H700.076ZM483.327 425.471V415.349H488.102L490.298 415.413H507.199L508.663 415.349H515.347V425.471H509.745V420.633H488.929V425.471H483.327ZM488.356 396.761H511.209V418.85H505.194V399.276L507.899 402.013H491.571L494.054 400.008C494.202 401.048 494.298 402.056 494.34 403.032C494.382 403.986 494.404 404.899 494.404 405.769C494.404 408.315 494.191 410.458 493.767 412.198C493.343 413.938 492.706 415.264 491.857 416.177C491.03 417.068 490.001 417.514 488.77 417.514L486.256 415.413C487.126 414.416 487.773 413.026 488.197 411.243C488.621 409.44 488.834 407.212 488.834 404.559C488.834 403.35 488.791 402.098 488.706 400.804C488.621 399.488 488.505 398.141 488.356 396.761ZM522.564 396.761H545.513V420.633H539.497V399.371L542.202 402.077H525.906L528.453 400.072C528.601 401.557 528.707 402.979 528.771 404.337C528.856 405.673 528.898 406.947 528.898 408.156C528.898 411.19 528.622 413.662 528.071 415.572C527.54 417.461 526.691 418.861 525.524 419.773C524.378 420.665 522.883 421.11 521.036 421.11C520.251 421.11 519.477 421.025 518.713 420.856C517.949 420.686 517.259 420.442 516.644 420.124V415.126C517.578 415.487 518.437 415.668 519.222 415.668C520.644 415.668 521.662 415.01 522.278 413.694C522.914 412.379 523.233 410.246 523.233 407.297C523.233 405.896 523.18 404.326 523.073 402.586C522.967 400.825 522.798 398.883 522.564 396.761ZM568.434 407.519V411.816H558.313L558.281 411.689C556.499 411.689 554.939 411.381 553.602 410.766C552.266 410.151 551.215 409.291 550.451 408.188C549.709 407.084 549.337 405.79 549.337 404.305C549.337 402.798 549.709 401.483 550.451 400.358C551.215 399.233 552.266 398.353 553.602 397.716C554.939 397.08 556.499 396.761 558.281 396.761H572.572V420.633H566.557V398.385L569.262 401.09H559.109C557.942 401.09 557.029 401.377 556.371 401.949C555.714 402.522 555.385 403.307 555.385 404.305C555.385 405.302 555.714 406.087 556.371 406.66C557.029 407.233 557.942 407.519 559.109 407.519H568.434ZM564.138 409.461L555.703 420.633H548.733L557.39 409.461H564.138ZM585.226 396.761H591.242V420.633H585.226V396.761ZM604.196 396.761H610.211V420.633H604.196V396.761ZM588.568 405.896H606.742V411.18H588.568V405.896ZM627.802 421.142C625.001 421.142 622.54 420.622 620.418 419.582C618.317 418.543 616.683 417.089 615.516 415.222C614.349 413.355 613.766 411.18 613.766 408.697C613.766 406.214 614.349 404.04 615.516 402.172C616.683 400.305 618.317 398.851 620.418 397.812C622.54 396.772 625.001 396.252 627.802 396.252C630.603 396.252 633.054 396.772 635.154 397.812C637.276 398.851 638.921 400.305 640.088 402.172C641.276 404.04 641.87 406.214 641.87 408.697C641.87 411.18 641.276 413.355 640.088 415.222C638.921 417.089 637.276 418.543 635.154 419.582C633.054 420.622 630.603 421.142 627.802 421.142ZM627.802 415.763C629.457 415.763 630.879 415.487 632.067 414.935C633.255 414.363 634.168 413.546 634.804 412.485C635.462 411.424 635.791 410.161 635.791 408.697C635.791 407.233 635.462 405.97 634.804 404.909C634.168 403.849 633.255 403.042 632.067 402.491C630.879 401.918 629.457 401.631 627.802 401.631C626.168 401.631 624.757 401.918 623.569 402.491C622.38 403.042 621.457 403.849 620.8 404.909C620.142 405.97 619.813 407.233 619.813 408.697C619.813 410.161 620.142 411.424 620.8 412.485C621.457 413.546 622.38 414.363 623.569 414.935C624.757 415.487 626.168 415.763 627.802 415.763ZM660.939 408.92L661.449 407.742C663.316 407.785 664.844 408.071 666.032 408.602C667.242 409.132 668.133 409.864 668.706 410.798C669.3 411.71 669.597 412.761 669.597 413.949C669.597 415.243 669.3 416.4 668.706 417.418C668.112 418.415 667.22 419.201 666.032 419.773C664.865 420.346 663.401 420.633 661.64 420.633H644.452L646.298 408.379L644.452 396.761H661.035C663.242 396.761 664.95 397.281 666.159 398.321C667.39 399.339 668.005 400.751 668.005 402.554C668.005 403.551 667.772 404.506 667.305 405.419C666.838 406.331 666.096 407.106 665.077 407.742C664.059 408.358 662.679 408.75 660.939 408.92ZM650.372 419.169L648.081 416.336H660.207C661.247 416.336 662.053 416.092 662.626 415.604C663.221 415.095 663.518 414.384 663.518 413.471C663.518 412.559 663.189 411.838 662.531 411.307C661.894 410.755 660.939 410.479 659.666 410.479H649.736V406.278H658.902C659.772 406.278 660.494 406.034 661.067 405.546C661.64 405.037 661.926 404.347 661.926 403.477C661.926 402.777 661.672 402.204 661.162 401.758C660.674 401.292 659.974 401.058 659.062 401.058H648.113L650.372 398.225L652.059 408.379L650.372 419.169ZM673.003 420.633V396.761H678.923V417.514L677.173 417.163L691.496 396.761H699.325V420.633H693.437V399.53L695.156 399.881L680.642 420.633H673.003ZM717.457 410.002V406.405L729.042 420.633H721.626L713.701 410.416H716.566L708.608 420.633H701.32L712.969 406.437V409.97L702.052 396.761H709.531L716.757 405.992H713.86L720.958 396.761H728.31L717.457 410.002ZM422.036 434.761V458.633H416.307V436.862L417.707 436.958L408 458.633H401.857L392.149 437.021L393.55 436.894V458.633H387.82V434.761H397.083L406.154 455.641H403.735L412.774 434.761H422.036ZM439.628 459.142C436.827 459.142 434.366 458.622 432.244 457.582C430.143 456.543 428.509 455.089 427.342 453.222C426.175 451.355 425.592 449.18 425.592 446.697C425.592 444.214 426.175 442.04 427.342 440.172C428.509 438.305 430.143 436.851 432.244 435.812C434.366 434.772 436.827 434.252 439.628 434.252C442.429 434.252 444.88 434.772 446.98 435.812C449.102 436.851 450.747 438.305 451.914 440.172C453.102 442.04 453.696 444.214 453.696 446.697C453.696 449.18 453.102 451.355 451.914 453.222C450.747 455.089 449.102 456.543 446.98 457.582C444.88 458.622 442.429 459.142 439.628 459.142ZM439.628 453.763C441.283 453.763 442.705 453.487 443.893 452.935C445.081 452.363 445.994 451.546 446.63 450.485C447.288 449.424 447.617 448.161 447.617 446.697C447.617 445.233 447.288 443.97 446.63 442.909C445.994 441.849 445.081 441.042 443.893 440.491C442.705 439.918 441.283 439.631 439.628 439.631C437.994 439.631 436.583 439.918 435.395 440.491C434.206 441.042 433.283 441.849 432.626 442.909C431.968 443.97 431.639 445.233 431.639 446.697C431.639 448.161 431.968 449.424 432.626 450.485C433.283 451.546 434.206 452.363 435.395 452.935C436.583 453.487 437.994 453.763 439.628 453.763ZM453.226 458.633L462.679 443.355L467.008 447.079L460.037 458.633H453.226ZM490.625 458.633L483.686 447.079L488.015 443.355L497.468 458.633H490.625ZM478.307 453.126L476.62 452.522L490.752 434.761H497.118L477.543 458.633H473.151L453.576 434.761H459.942L474.042 452.522L472.387 453.126V434.761H478.307V453.126ZM503.79 434.761H526.739V458.633H520.723V437.371L523.429 440.077H507.132L509.679 438.072C509.827 439.557 509.933 440.979 509.997 442.337C510.082 443.673 510.124 444.947 510.124 446.156C510.124 449.19 509.848 451.662 509.297 453.572C508.766 455.461 507.917 456.861 506.75 457.773C505.605 458.665 504.109 459.11 502.263 459.11C501.477 459.11 500.703 459.025 499.939 458.856C499.175 458.686 498.486 458.442 497.87 458.124V453.126C498.804 453.487 499.663 453.668 500.448 453.668C501.87 453.668 502.889 453.01 503.504 451.694C504.14 450.379 504.459 448.246 504.459 445.297C504.459 443.896 504.406 442.326 504.3 440.586C504.194 438.825 504.024 436.883 503.79 434.761ZM531.391 458.633V434.761H537.311V455.514L535.56 455.163L549.883 434.761H557.713V458.633H551.825V437.53L553.544 437.881L539.03 458.633H531.391ZM578.104 446.92L578.614 445.742C580.481 445.785 582.009 446.071 583.197 446.602C584.406 447.132 585.298 447.864 585.871 448.798C586.465 449.71 586.762 450.761 586.762 451.949C586.762 453.243 586.465 454.4 585.871 455.418C585.276 456.415 584.385 457.201 583.197 457.773C582.03 458.346 580.566 458.633 578.805 458.633H561.617L563.463 446.379L561.617 434.761H578.2C580.407 434.761 582.115 435.281 583.324 436.321C584.555 437.339 585.17 438.751 585.17 440.554C585.17 441.551 584.937 442.506 584.47 443.419C584.003 444.331 583.261 445.106 582.242 445.742C581.224 446.358 579.844 446.75 578.104 446.92ZM567.537 457.169L565.246 454.336H577.372C578.412 454.336 579.218 454.092 579.791 453.604C580.385 453.095 580.682 452.384 580.682 451.471C580.682 450.559 580.354 449.838 579.696 449.307C579.059 448.755 578.104 448.479 576.831 448.479H566.901V444.278H576.067C576.937 444.278 577.659 444.034 578.232 443.546C578.805 443.037 579.091 442.347 579.091 441.477C579.091 440.777 578.836 440.204 578.327 439.758C577.839 439.292 577.139 439.058 576.226 439.058H565.277L567.537 436.225L569.224 446.379L567.537 457.169ZM603.06 459.142C600.259 459.142 597.798 458.622 595.676 457.582C593.575 456.543 591.941 455.089 590.774 453.222C589.607 451.355 589.024 449.18 589.024 446.697C589.024 444.214 589.607 442.04 590.774 440.172C591.941 438.305 593.575 436.851 595.676 435.812C597.798 434.772 600.259 434.252 603.06 434.252C605.861 434.252 608.312 434.772 610.413 435.812C612.534 436.851 614.179 438.305 615.346 440.172C616.534 442.04 617.128 444.214 617.128 446.697C617.128 449.18 616.534 451.355 615.346 453.222C614.179 455.089 612.534 456.543 610.413 457.582C608.312 458.622 605.861 459.142 603.06 459.142ZM603.06 453.763C604.715 453.763 606.137 453.487 607.325 452.935C608.513 452.363 609.426 451.546 610.062 450.485C610.72 449.424 611.049 448.161 611.049 446.697C611.049 445.233 610.72 443.97 610.062 442.909C609.426 441.849 608.513 441.042 607.325 440.491C606.137 439.918 604.715 439.631 603.06 439.631C601.426 439.631 600.015 439.918 598.827 440.491C597.639 441.042 596.716 441.849 596.058 442.909C595.4 443.97 595.071 445.233 595.071 446.697C595.071 448.161 595.4 449.424 596.058 450.485C596.716 451.546 597.639 452.363 598.827 452.935C600.015 453.487 601.426 453.763 603.06 453.763ZM646.886 448.766C646.653 450.824 645.942 452.638 644.754 454.209C643.565 455.758 641.995 456.967 640.043 457.837C638.091 458.707 635.873 459.142 633.391 459.142C630.632 459.142 628.213 458.622 626.134 457.582C624.076 456.543 622.474 455.089 621.328 453.222C620.182 451.355 619.609 449.18 619.609 446.697C619.609 444.214 620.182 442.04 621.328 440.172C622.474 438.305 624.076 436.851 626.134 435.812C628.213 434.772 630.632 434.252 633.391 434.252C635.873 434.252 638.091 434.687 640.043 435.557C641.995 436.427 643.565 437.637 644.754 439.186C645.942 440.735 646.653 442.549 646.886 444.628H640.839C640.627 443.546 640.192 442.623 639.534 441.859C638.897 441.095 638.048 440.512 636.987 440.109C635.948 439.684 634.738 439.472 633.359 439.472C631.768 439.472 630.399 439.769 629.253 440.363C628.107 440.936 627.227 441.764 626.611 442.846C625.996 443.928 625.688 445.212 625.688 446.697C625.688 448.182 625.996 449.466 626.611 450.548C627.227 451.631 628.107 452.469 629.253 453.063C630.399 453.636 631.768 453.922 633.359 453.922C634.738 453.922 635.948 453.721 636.987 453.317C638.048 452.914 638.897 452.331 639.534 451.567C640.192 450.803 640.627 449.869 640.839 448.766H646.886ZM656.831 437.435H662.846V458.633H656.831V437.435ZM647.537 434.761H672.14V440.077H647.537V434.761ZM695.107 444.469V448.925H677.825V444.469H695.107ZM681.899 446.697L680.307 456.564L677.793 453.699H696.126V458.633H674.292L676.138 446.697L674.292 434.761H695.967V439.695H677.793L680.307 436.83L681.899 446.697ZM700.076 458.633V434.761H705.996V455.514L704.246 455.163L718.569 434.761H726.398V458.633H720.51V437.53L722.229 437.881L707.715 458.633H700.076ZM705.264 427.6H710.038C710.293 428.321 710.675 428.873 711.184 429.255C711.715 429.616 712.362 429.796 713.126 429.796C713.932 429.796 714.59 429.616 715.099 429.255C715.608 428.873 715.99 428.321 716.245 427.6H721.019C720.553 429.531 719.619 430.942 718.218 431.833C716.839 432.724 715.142 433.17 713.126 433.17C711.131 433.17 709.434 432.724 708.033 431.833C706.633 430.942 705.71 429.531 705.264 427.6Z" fill="white"/>
<path d="M774.829 340.863V0.695312H-0.993079L-0.998057 74.2989H383.502L395.823 113.881H514.055L493.528 170.779H354.771V209.57H250.497L241.461 245.377H-0.998057L-1 585.545H395.816L405.816 685.01H-0.993079L-0.985794 986.386H774.829L774.821 935.66H461.509L465.605 881.062H568.93L547.048 848.131H338.629L350.738 801.383H381.937L386.792 755.671H774.829V481.108L354.771 474.091L364.623 424.476H459.865L452.564 395.643H294.101L299.76 340.863H774.829Z" fill="#6D61FF" stroke="black"/>
<path d="M77.8387 106.375C77.6053 108.434 76.8945 110.248 75.7062 111.818C74.5179 113.367 72.9477 114.576 70.9956 115.446C69.0434 116.316 66.826 116.751 64.3434 116.751C61.5849 116.751 59.166 116.232 57.0865 115.192C55.0282 114.152 53.4262 112.699 52.2804 110.831C51.1345 108.964 50.5616 106.789 50.5616 104.306C50.5616 101.824 51.1345 99.6489 52.2804 97.7816C53.4262 95.9143 55.0282 94.4608 57.0865 93.4211C59.166 92.3814 61.5849 91.8615 64.3434 91.8615C66.826 91.8615 69.0434 92.2965 70.9956 93.1665C72.9477 94.0365 74.5179 95.2459 75.7062 96.7949C76.8945 98.3439 77.6053 100.158 77.8387 102.238H71.7913C71.5791 101.155 71.1441 100.232 70.4863 99.4685C69.8497 98.7046 69.001 98.1211 67.94 97.718C66.9003 97.2936 65.6908 97.0814 64.3116 97.0814C62.7201 97.0814 61.3515 97.3785 60.2057 97.9726C59.0599 98.5455 58.1793 99.373 57.5639 100.455C56.9486 101.537 56.6409 102.821 56.6409 104.306C56.6409 105.792 56.9486 107.076 57.5639 108.158C58.1793 109.24 59.0599 110.078 60.2057 110.672C61.3515 111.245 62.7201 111.532 64.3116 111.532C65.6908 111.532 66.9003 111.33 67.94 110.927C69.001 110.524 69.8497 109.94 70.4863 109.176C71.1441 108.412 71.5791 107.479 71.7913 106.375H77.8387ZM87.7832 95.0444H93.7988V116.242H87.7832V95.0444ZM78.4892 92.3708H103.093V97.6861H78.4892V92.3708ZM111.61 116.242L115.811 108.953H115.907L125.392 92.3708H131.885L118.103 116.242H111.61ZM115.748 112.9L103.844 92.3708H110.464L119.981 108.826L115.748 112.9ZM129.62 121.08V110.959H134.394L136.591 111.022H153.491L154.956 110.959H161.64V121.08H156.038V116.242H135.222V121.08H129.62ZM134.649 92.3708H157.502V114.46H151.486V94.8852L154.192 97.6225H137.864L140.346 95.6173C140.495 96.657 140.59 97.6649 140.633 98.641C140.675 99.5958 140.696 100.508 140.696 101.378C140.696 103.925 140.484 106.068 140.06 107.808C139.635 109.548 138.999 110.874 138.15 111.786C137.323 112.677 136.293 113.123 135.063 113.123L132.548 111.022C133.418 110.025 134.065 108.635 134.49 106.853C134.914 105.049 135.126 102.821 135.126 100.169C135.126 98.9593 135.084 97.7073 134.999 96.413C134.914 95.0974 134.798 93.75 134.649 92.3708ZM184.93 102.078V106.534H167.648V102.078H184.93ZM171.722 104.306L170.13 114.173L167.616 111.309H185.949V116.242H164.115L165.961 104.306L164.115 92.3708H185.79V97.3042H167.616L170.13 94.4396L171.722 104.306ZM189.899 92.3708H195.915V116.242H189.899V92.3708ZM208.869 92.3708H214.885V116.242H208.869V92.3708ZM193.241 101.506H211.415V106.789H193.241V101.506ZM227.064 95.0444H233.08V116.242H227.064V95.0444ZM217.77 92.3708H242.374V97.6861H217.77V92.3708ZM245.638 111.436V106.566H262.125V111.436H245.638ZM257.924 92.3708L268.936 116.242H262.539L253.086 94.8852H254.932L245.51 116.242H239.081L250.126 92.3708H257.924ZM305.582 92.3708V116.242H299.853V94.4714L301.254 94.5669L291.546 116.242H285.403L275.695 94.6306L277.096 94.5033V116.242H271.367V92.3708H280.629L289.7 113.25H287.281L296.32 92.3708H305.582ZM324.757 95.0444H330.772V116.242H324.757V95.0444ZM315.463 92.3708L340.066 92.3708V97.6861H315.463V92.3708ZM343.33 111.436V106.566H359.817V111.436H343.33ZM355.616 92.3708L366.629 116.242H360.231L350.778 94.8852H352.624L343.203 116.242H336.774L347.818 92.3708H355.616ZM67.3989 142.529L67.9082 141.352C69.7755 141.394 71.3032 141.681 72.4915 142.211C73.701 142.741 74.5922 143.474 75.1651 144.407C75.7592 145.32 76.0563 146.37 76.0563 147.558C76.0563 148.853 75.7592 150.009 75.1651 151.028C74.571 152.025 73.6798 152.81 72.4915 153.383C71.3245 153.956 69.8604 154.242 68.0992 154.242H50.9117L52.7578 141.988L50.9117 130.371H67.4944C69.7012 130.371 71.4093 130.891 72.6188 131.93C73.8495 132.949 74.4649 134.36 74.4649 136.164C74.4649 137.161 74.2315 138.116 73.7647 139.028C73.2978 139.941 72.5552 140.715 71.5367 141.352C70.5181 141.967 69.1389 142.36 67.3989 142.529ZM56.8319 152.778L54.5402 149.945H66.6669C67.7066 149.945 68.5129 149.701 69.0859 149.213C69.68 148.704 69.9771 147.993 69.9771 147.081C69.9771 146.168 69.6482 145.447 68.9904 144.916C68.3538 144.365 67.3989 144.089 66.1258 144.089H56.1953V139.888H65.3619C66.2319 139.888 66.9533 139.643 67.5263 139.155C68.0992 138.646 68.3856 137.957 68.3856 137.087C68.3856 136.386 68.131 135.813 67.6217 135.368C67.1337 134.901 66.4335 134.668 65.5211 134.668H54.572L56.8319 131.835L58.5188 141.988L56.8319 152.778ZM79.4627 154.242V130.371H85.3828V151.123L83.6323 150.773L97.9551 130.371H105.785V154.242H99.8967V133.14L101.615 133.49L87.1016 154.242H79.4627ZM135.279 130.371V154.242H129.263V132.981L132.001 135.686H113.731L116.437 132.981V154.242H110.421V130.371H135.279ZM145.552 154.242L149.753 146.953H149.849L159.334 130.371H165.827L152.045 154.242H145.552ZM149.69 150.9L137.786 130.371H144.406L153.923 146.826L149.69 150.9ZM192.44 144.375C192.207 146.434 191.496 148.248 190.308 149.818C189.119 151.367 187.549 152.576 185.597 153.446C183.645 154.316 181.428 154.751 178.945 154.751C176.186 154.751 173.767 154.232 171.688 153.192C169.63 152.152 168.028 150.699 166.882 148.831C165.736 146.964 165.163 144.789 165.163 142.306C165.163 139.824 165.736 137.649 166.882 135.782C168.028 133.914 169.63 132.461 171.688 131.421C173.767 130.381 176.186 129.862 178.945 129.862C181.428 129.862 183.645 130.296 185.597 131.166C187.549 132.036 189.119 133.246 190.308 134.795C191.496 136.344 192.207 138.158 192.44 140.238H186.393C186.181 139.155 185.746 138.232 185.088 137.469C184.451 136.705 183.602 136.121 182.542 135.718C181.502 135.294 180.292 135.081 178.913 135.081C177.322 135.081 175.953 135.378 174.807 135.973C173.661 136.546 172.781 137.373 172.165 138.455C171.55 139.537 171.242 140.821 171.242 142.306C171.242 143.792 171.55 145.076 172.165 146.158C172.781 147.24 173.661 148.078 174.807 148.672C175.953 149.245 177.322 149.532 178.913 149.532C180.292 149.532 181.502 149.33 182.542 148.927C183.602 148.524 184.451 147.94 185.088 147.176C185.746 146.412 186.181 145.479 186.393 144.375H192.44ZM195.805 154.242V130.371H201.789V149.404L200.165 148.195L214.297 130.371H220.663L201.216 154.242H195.805ZM207.231 142.688L211.56 138.964L220.981 154.242H214.17L207.231 142.688ZM223.189 130.371H229.204V154.242H223.189V130.371ZM242.158 130.371H248.174V154.242H242.158V130.371ZM226.531 139.506H244.705V144.789H226.531V139.506ZM252.81 154.242V130.371H258.73V151.123L256.98 150.773L271.303 130.371H279.133V154.242H273.244V133.14L274.963 133.49L260.449 154.242H252.81ZM283.769 154.242V130.371H289.752V149.404L288.129 148.195L302.261 130.371H308.627L289.179 154.242H283.769ZM295.195 142.688L299.524 138.964L308.945 154.242H302.134L295.195 142.688ZM315.449 149.436V144.566H331.936V149.436H315.449ZM327.735 130.371L338.748 154.242H332.35L322.897 132.885H324.743L315.322 154.242H308.893L319.937 130.371H327.735ZM375.394 130.371V154.242H369.665V132.471L371.065 132.567L361.357 154.242H355.215L345.507 132.631L346.907 132.503V154.242H341.178V130.371H350.44L359.511 151.25H357.092L366.132 130.371H375.394ZM385.772 159.08V148.959H390.546L392.742 149.022H409.643L411.107 148.959H417.791V159.08H412.189V154.242H391.374V159.08H385.772ZM390.801 130.371H413.654V152.46H407.638V132.885L410.343 135.622H394.015L396.498 133.617C396.646 134.657 396.742 135.665 396.784 136.641C396.827 137.596 396.848 138.508 396.848 139.378C396.848 141.925 396.636 144.068 396.211 145.808C395.787 147.548 395.15 148.874 394.302 149.786C393.474 150.677 392.445 151.123 391.214 151.123L388.7 149.022C389.57 148.025 390.217 146.635 390.641 144.853C391.066 143.049 391.278 140.821 391.278 138.169C391.278 136.959 391.236 135.707 391.151 134.413C391.066 133.097 390.949 131.75 390.801 130.371ZM425.009 130.371H447.957V154.242H441.941V132.981L444.647 135.686H428.351L430.897 133.681C431.045 135.166 431.152 136.588 431.215 137.946C431.3 139.283 431.342 140.556 431.342 141.765C431.342 144.8 431.067 147.272 430.515 149.181C429.984 151.07 429.136 152.47 427.969 153.383C426.823 154.274 425.327 154.72 423.481 154.72C422.696 154.72 421.921 154.635 421.157 154.465C420.393 154.295 419.704 154.051 419.088 153.733V148.736C420.022 149.097 420.881 149.277 421.667 149.277C423.088 149.277 424.107 148.619 424.722 147.304C425.359 145.988 425.677 143.855 425.677 140.906C425.677 139.506 425.624 137.935 425.518 136.195C425.412 134.434 425.242 132.493 425.009 130.371ZM470.879 141.129V145.426H460.757L460.725 145.298C458.943 145.298 457.383 144.991 456.047 144.375C454.71 143.76 453.66 142.901 452.896 141.797C452.153 140.694 451.782 139.399 451.782 137.914C451.782 136.408 452.153 135.092 452.896 133.967C453.66 132.843 454.71 131.962 456.047 131.326C457.383 130.689 458.943 130.371 460.725 130.371H475.017V154.242H469.001V131.994L471.706 134.699H461.553C460.386 134.699 459.474 134.986 458.816 135.559C458.158 136.132 457.829 136.917 457.829 137.914C457.829 138.911 458.158 139.697 458.816 140.269C459.474 140.842 460.386 141.129 461.553 141.129H470.879ZM466.582 143.07L458.147 154.242H451.177L459.834 143.07H466.582ZM76.5019 168.371V192.242H70.4863V170.981L73.2236 173.686H54.954L57.6594 170.981V192.242H51.6438V168.371H76.5019ZM85.1516 168.371H108.1V192.242H102.084V170.981L104.79 173.686H88.4936L91.0399 171.681C91.1884 173.166 91.2945 174.588 91.3581 175.946C91.443 177.283 91.4855 178.556 91.4855 179.765C91.4855 182.8 91.2096 185.272 90.6579 187.181C90.1274 189.07 89.2787 190.47 88.1116 191.383C86.9658 192.274 85.4699 192.72 83.6238 192.72C82.8387 192.72 82.0642 192.635 81.3003 192.465C80.5364 192.295 79.8468 192.051 79.2315 191.733V186.736C80.1651 187.097 81.0245 187.277 81.8096 187.277C83.2313 187.277 84.2498 186.619 84.8651 185.304C85.5017 183.988 85.82 181.855 85.82 178.906C85.82 177.506 85.7669 175.935 85.6608 174.195C85.5547 172.434 85.385 170.493 85.1516 168.371ZM117.049 187.436V182.566H133.536V187.436H117.049ZM129.335 168.371L140.348 192.242H133.95L124.497 170.885H126.343L116.922 192.242H110.492L121.537 168.371H129.335ZM142.778 168.371H148.794V192.242H142.778V168.371ZM161.748 168.371H167.763V192.242H161.748V168.371ZM146.12 177.506H164.294V182.789H146.12V177.506ZM178.033 192.242L182.235 184.953H182.33L191.815 168.371H198.308L184.526 192.242H178.033ZM182.171 188.9L170.267 168.371H176.887L186.404 184.826L182.171 188.9ZM216.44 180.529L216.949 179.352C218.816 179.394 220.344 179.681 221.533 180.211C222.742 180.741 223.633 181.474 224.206 182.407C224.8 183.32 225.097 184.37 225.097 185.558C225.097 186.853 224.8 188.009 224.206 189.028C223.612 190.025 222.721 190.81 221.533 191.383C220.365 191.956 218.901 192.242 217.14 192.242H199.953L201.799 179.988L199.953 168.371H216.535C218.742 168.371 220.45 168.891 221.66 169.93C222.891 170.949 223.506 172.36 223.506 174.164C223.506 175.161 223.272 176.116 222.806 177.028C222.339 177.941 221.596 178.715 220.578 179.352C219.559 179.967 218.18 180.36 216.44 180.529ZM205.873 190.778L203.581 187.945H215.708C216.748 187.945 217.554 187.701 218.127 187.213C218.721 186.704 219.018 185.993 219.018 185.081C219.018 184.168 218.689 183.447 218.031 182.916C217.395 182.365 216.44 182.089 215.167 182.089H205.236V177.888H214.403C215.273 177.888 215.994 177.643 216.567 177.155C217.14 176.646 217.427 175.957 217.427 175.087C217.427 174.386 217.172 173.813 216.663 173.368C216.175 172.901 215.474 172.668 214.562 172.668H203.613L205.873 169.835L207.56 179.988L205.873 190.778ZM231.651 187.436V182.566H248.138V187.436H231.651ZM243.936 168.371L254.949 192.242H248.551L239.098 170.885H240.944L231.523 192.242H225.094L236.138 168.371H243.936ZM257.379 168.371H263.395V192.242H257.379V168.371ZM276.349 168.371H282.365V192.242H276.349V168.371ZM260.721 177.506H278.896V182.789H260.721V177.506ZM287.001 168.371H293.017V192.242H287.001V168.371ZM305.971 168.371H311.987V192.242H305.971V168.371ZM290.343 177.506H308.517V182.789H290.343V177.506ZM334.892 179.129V183.426H324.771L324.739 183.298C322.957 183.298 321.397 182.991 320.06 182.375C318.724 181.76 317.673 180.901 316.909 179.797C316.167 178.694 315.795 177.399 315.795 175.914C315.795 174.408 316.167 173.092 316.909 171.967C317.673 170.843 318.724 169.962 320.06 169.326C321.397 168.689 322.957 168.371 324.739 168.371H339.03V192.242H333.015V169.994L335.72 172.699H325.567C324.4 172.699 323.487 172.986 322.829 173.559C322.172 174.132 321.843 174.917 321.843 175.914C321.843 176.911 322.172 177.697 322.829 178.269C323.487 178.842 324.4 179.129 325.567 179.129H334.892ZM330.596 181.07L322.161 192.242H315.191L323.848 181.07H330.596ZM51.6438 230.242L51.6438 206.371H57.6276V225.404L56.0043 224.195L70.1362 206.371H76.5019L57.0547 230.242H51.6438ZM63.0703 218.688L67.3989 214.964L76.8202 230.242H70.0089L63.0703 218.688ZM83.3244 225.436V220.566H99.8116V225.436H83.3244ZM95.6102 206.371L106.623 230.242H100.225L90.7723 208.885H92.6184L83.1971 230.242H76.7677L87.8122 206.371H95.6102ZM122.262 206.371C124.214 206.371 125.891 206.71 127.291 207.389C128.713 208.047 129.795 208.981 130.538 210.19C131.302 211.4 131.683 212.811 131.683 214.423C131.683 216.036 131.302 217.447 130.538 218.657C129.795 219.866 128.713 220.81 127.291 221.489C125.891 222.147 124.214 222.476 122.262 222.476H111.822V217.606H121.944C123.09 217.606 123.992 217.33 124.649 216.779C125.307 216.206 125.636 215.421 125.636 214.423C125.636 213.426 125.307 212.652 124.649 212.1C123.992 211.527 123.09 211.241 121.944 211.241H112.364L115.069 208.44V230.242H109.053V206.371H122.262ZM133.615 206.371H139.472L138.326 216.524H134.761L133.615 206.371ZM155.885 230.751C153.126 230.751 150.697 230.232 148.596 229.192C146.516 228.152 144.893 226.699 143.726 224.831C142.559 222.964 141.976 220.789 141.976 218.306C141.976 215.824 142.559 213.649 143.726 211.782C144.893 209.914 146.516 208.461 148.596 207.421C150.697 206.381 153.126 205.862 155.885 205.862C158.367 205.862 160.585 206.286 162.537 207.135C164.489 207.983 166.08 209.161 167.311 210.668C168.542 212.153 169.284 213.904 169.539 215.919H163.587C163.375 214.858 162.929 213.957 162.25 213.214C161.571 212.45 160.691 211.866 159.609 211.463C158.548 211.06 157.317 210.859 155.916 210.859C154.261 210.859 152.829 211.166 151.62 211.782C150.431 212.376 149.519 213.225 148.882 214.328C148.246 215.431 147.927 216.757 147.927 218.306C147.927 219.855 148.246 221.182 148.882 222.285C149.519 223.388 150.431 224.248 151.62 224.863C152.829 225.457 154.261 225.754 155.916 225.754C157.338 225.754 158.579 225.553 159.64 225.15C160.723 224.746 161.593 224.163 162.25 223.399C162.929 222.635 163.375 221.733 163.587 220.694H169.539C169.284 222.688 168.542 224.439 167.311 225.945C166.08 227.452 164.489 228.63 162.537 229.478C160.585 230.327 158.367 230.751 155.885 230.751ZM145.19 220.312V216.301H159.927V220.312H145.19ZM186.013 206.371C187.965 206.371 189.641 206.71 191.042 207.389C192.463 208.047 193.545 208.981 194.288 210.19C195.052 211.4 195.434 212.811 195.434 214.423C195.434 216.036 195.052 217.447 194.288 218.657C193.545 219.866 192.463 220.81 191.042 221.489C189.641 222.147 187.965 222.476 186.013 222.476H175.573V217.606H185.694C186.84 217.606 187.742 217.33 188.4 216.779C189.058 216.206 189.386 215.421 189.386 214.423C189.386 213.426 189.058 212.652 188.4 212.1C187.742 211.527 186.84 211.241 185.694 211.241H176.114L178.819 208.44V230.242H172.804V206.371H186.013ZM198.416 230.242V206.371H204.336V227.123L202.585 226.773L216.908 206.371H224.738V230.242H218.85V209.14L220.568 209.49L206.055 230.242H198.416Z" fill="white"/>
<path d="M79.2372 616.012C79.0037 618.07 78.2929 619.885 77.1046 621.455C75.9164 623.004 74.3462 624.213 72.394 625.083C70.4419 625.953 68.2245 626.388 65.7418 626.388C62.9834 626.388 60.5644 625.868 58.4849 624.829C56.4267 623.789 54.8246 622.335 53.6788 620.468C52.533 618.601 51.9601 616.426 51.9601 613.943C51.9601 611.461 52.533 609.286 53.6788 607.418C54.8246 605.551 56.4267 604.098 58.4849 603.058C60.5644 602.018 62.9834 601.498 65.7418 601.498C68.2245 601.498 70.4419 601.933 72.394 602.803C74.3462 603.673 75.9164 604.883 77.1046 606.432C78.2929 607.981 79.0037 609.795 79.2372 611.874H73.1897C72.9775 610.792 72.5425 609.869 71.8848 609.105C71.2482 608.341 70.3994 607.758 69.3385 607.355C68.2987 606.93 67.0892 606.718 65.71 606.718C64.1186 606.718 62.75 607.015 61.6041 607.609C60.4583 608.182 59.5777 609.01 58.9624 610.092C58.347 611.174 58.0393 612.458 58.0393 613.943C58.0393 615.429 58.347 616.712 58.9624 617.794C59.5777 618.877 60.4583 619.715 61.6041 620.309C62.75 620.882 64.1186 621.168 65.71 621.168C67.0892 621.168 68.2987 620.967 69.3385 620.564C70.3994 620.16 71.2482 619.577 71.8848 618.813C72.5425 618.049 72.9775 617.115 73.1897 616.012H79.2372ZM107.46 602.007V625.879H101.444V604.617L104.182 607.323H85.9119L88.6174 604.617V625.879H82.6018V602.007H107.46ZM132.183 611.715V616.171H114.9V611.715H132.183ZM118.974 613.943L117.383 623.81L114.868 620.945H133.201V625.879H111.367L113.213 613.943L111.367 602.007H133.042V606.941H114.868L117.383 604.076L118.974 613.943ZM161.755 602.007V622.505L159.655 620.564H165.893V630.717H160.259V624.797L162.105 625.879H137.152V602.007H143.167V622.505L141.226 620.564L157.84 620.564L155.74 622.505V602.007H161.755ZM169.105 602.007H175.12V625.879H169.105V602.007ZM184.063 621.073V616.203H200.55V621.073H184.063ZM196.349 602.007L207.361 625.879H200.964L191.511 604.522H193.357L183.935 625.879H177.506L188.551 602.007H196.349ZM213.802 602.007H236.751V625.879H230.735V604.617L233.44 607.323H217.144L219.69 605.318C219.839 606.803 219.945 608.225 220.009 609.583C220.094 610.919 220.136 612.193 220.136 613.402C220.136 616.436 219.86 618.908 219.308 620.818C218.778 622.707 217.929 624.107 216.762 625.02C215.616 625.911 214.12 626.356 212.274 626.356C211.489 626.356 210.715 626.271 209.951 626.102C209.187 625.932 208.497 625.688 207.882 625.37V620.373C208.816 620.733 209.675 620.914 210.46 620.914C211.882 620.914 212.9 620.256 213.516 618.94C214.152 617.625 214.471 615.492 214.471 612.543C214.471 611.142 214.417 609.572 214.311 607.832C214.205 606.071 214.036 604.129 213.802 602.007ZM241.403 602.007H247.418V625.879H241.403V602.007ZM278.259 616.012C278.026 618.07 277.315 619.885 276.126 621.455C274.938 623.004 273.368 624.213 271.416 625.083C269.464 625.953 267.246 626.388 264.764 626.388C262.005 626.388 259.586 625.868 257.507 624.829C255.448 623.789 253.846 622.335 252.701 620.468C251.555 618.601 250.982 616.426 250.982 613.943C250.982 611.461 251.555 609.286 252.701 607.418C253.846 605.551 255.448 604.098 257.507 603.058C259.586 602.018 262.005 601.498 264.764 601.498C267.246 601.498 269.464 601.933 271.416 602.803C273.368 603.673 274.938 604.883 276.126 606.432C277.315 607.981 278.026 609.795 278.259 611.874H272.212C271.999 610.792 271.564 609.869 270.907 609.105C270.27 608.341 269.421 607.758 268.36 607.355C267.321 606.93 266.111 606.718 264.732 606.718C263.14 606.718 261.772 607.015 260.626 607.609C259.48 608.182 258.6 609.01 257.984 610.092C257.369 611.174 257.061 612.458 257.061 613.943C257.061 615.429 257.369 616.712 257.984 617.794C258.6 618.877 259.48 619.715 260.626 620.309C261.772 620.882 263.14 621.168 264.732 621.168C266.111 621.168 267.321 620.967 268.36 620.564C269.421 620.16 270.27 619.577 270.907 618.813C271.564 618.049 271.999 617.115 272.212 616.012H278.259ZM288.203 604.681H294.219V625.879H288.203V604.681ZM278.909 602.007H303.513V607.323H278.909V602.007ZM306.777 621.073V616.203H323.264V621.073H306.777ZM319.063 602.007L330.075 625.879H323.678L314.225 604.522H316.071L306.65 625.879H300.22L311.265 602.007H319.063ZM366.722 602.007V625.879H360.992V604.108L362.393 604.204L352.685 625.879H346.542L336.834 604.267L338.235 604.14V625.879H332.506V602.007H341.768L350.839 622.887H348.42L357.459 602.007H366.722ZM51.2917 668.717V658.595H56.066L58.2621 658.659H75.1631L76.6272 658.595H83.3112V668.717H77.7094V663.879H56.8935V668.717H51.2917ZM56.3206 640.007H79.1735V662.097H73.1579V642.522L75.8633 645.259H59.5353L62.0179 643.254C62.1664 644.294 62.2619 645.302 62.3044 646.278C62.3468 647.233 62.368 648.145 62.368 649.015C62.368 651.561 62.1558 653.704 61.7314 655.444C61.3071 657.184 60.6705 658.51 59.8217 659.423C58.9942 660.314 57.9651 660.76 56.7344 660.76L54.2199 658.659C55.0899 657.662 55.7371 656.272 56.1614 654.489C56.5858 652.686 56.798 650.458 56.798 647.805C56.798 646.596 56.7556 645.344 56.6707 644.05C56.5858 642.734 56.4691 641.387 56.3206 640.007ZM90.5286 640.007H113.477V663.879H107.461V642.617L110.167 645.323H93.8706L96.4169 643.318C96.5654 644.803 96.6715 646.225 96.7352 647.583C96.82 648.919 96.8625 650.193 96.8625 651.402C96.8625 654.436 96.5866 656.908 96.0349 658.818C95.5045 660.707 94.6557 662.107 93.4886 663.02C92.3428 663.911 90.8469 664.356 89.0008 664.356C88.2157 664.356 87.4412 664.271 86.6773 664.102C85.9134 663.932 85.2238 663.688 84.6085 663.37V658.373C85.5421 658.733 86.4015 658.914 87.1866 658.914C88.6083 658.914 89.6268 658.256 90.2421 656.94C90.8787 655.625 91.197 653.492 91.197 650.543C91.197 649.142 91.1439 647.572 91.0378 645.832C90.9317 644.071 90.762 642.129 90.5286 640.007ZM136.399 650.766V655.062H126.277L126.245 654.935C124.463 654.935 122.903 654.627 121.567 654.012C120.23 653.397 119.18 652.537 118.416 651.434C117.673 650.331 117.302 649.036 117.302 647.551C117.302 646.044 117.673 644.729 118.416 643.604C119.18 642.479 120.23 641.599 121.567 640.962C122.903 640.326 124.463 640.007 126.245 640.007H140.536V663.879H134.521V641.631L137.226 644.336H127.073C125.906 644.336 124.994 644.623 124.336 645.196C123.678 645.768 123.349 646.554 123.349 647.551C123.349 648.548 123.678 649.333 124.336 649.906C124.994 650.479 125.906 650.766 127.073 650.766H136.399ZM132.102 652.707L123.667 663.879H116.697L125.354 652.707H132.102ZM166.399 640.007C168.351 640.007 170.028 640.347 171.428 641.026C172.85 641.684 173.932 642.617 174.675 643.827C175.439 645.036 175.82 646.447 175.82 648.06C175.82 649.673 175.439 651.084 174.675 652.293C173.932 653.503 172.85 654.447 171.428 655.126C170.028 655.784 168.351 656.113 166.399 656.113H155.959V651.243H166.081C167.227 651.243 168.129 650.967 168.786 650.415C169.444 649.843 169.773 649.057 169.773 648.06C169.773 647.063 169.444 646.288 168.786 645.737C168.129 645.164 167.227 644.877 166.081 644.877H156.501L159.206 642.076V663.879H153.19V640.007H166.399ZM191.757 664.388C188.956 664.388 186.494 663.868 184.372 662.829C182.272 661.789 180.638 660.335 179.471 658.468C178.304 656.601 177.72 654.426 177.72 651.943C177.72 649.461 178.304 647.286 179.471 645.418C180.638 643.551 182.272 642.098 184.372 641.058C186.494 640.018 188.956 639.498 191.757 639.498C194.558 639.498 197.008 640.018 199.109 641.058C201.231 642.098 202.875 643.551 204.042 645.418C205.231 647.286 205.825 649.461 205.825 651.943C205.825 654.426 205.231 656.601 204.042 658.468C202.875 660.335 201.231 661.789 199.109 662.829C197.008 663.868 194.558 664.388 191.757 664.388ZM191.757 659.009C193.412 659.009 194.833 658.733 196.022 658.182C197.21 657.609 198.122 656.792 198.759 655.731C199.417 654.67 199.746 653.407 199.746 651.943C199.746 650.479 199.417 649.217 198.759 648.156C198.122 647.095 197.21 646.288 196.022 645.737C194.833 645.164 193.412 644.877 191.757 644.877C190.123 644.877 188.712 645.164 187.523 645.737C186.335 646.288 185.412 647.095 184.754 648.156C184.097 649.217 183.768 650.479 183.768 651.943C183.768 653.407 184.097 654.67 184.754 655.731C185.412 656.792 186.335 657.609 187.523 658.182C188.712 658.733 190.123 659.009 191.757 659.009ZM220.4 664.388C217.918 664.388 215.743 664.038 213.875 663.338C212.008 662.638 210.555 661.651 209.515 660.378C208.475 659.083 207.913 657.577 207.828 655.858H213.844C214.013 657.11 214.65 658.075 215.753 658.755C216.857 659.412 218.406 659.741 220.4 659.741C222.268 659.741 223.711 659.476 224.729 658.945C225.769 658.415 226.289 657.619 226.289 656.558C226.289 655.646 225.854 654.978 224.984 654.553C224.114 654.129 222.703 653.917 220.75 653.917H216.294V649.906H220.655C221.801 649.906 222.745 649.789 223.488 649.556C224.252 649.323 224.814 648.994 225.175 648.569C225.535 648.145 225.716 647.657 225.716 647.105C225.716 646.469 225.504 645.928 225.079 645.482C224.655 645.036 224.05 644.707 223.265 644.495C222.48 644.262 221.536 644.145 220.432 644.145C218.629 644.145 217.196 644.474 216.135 645.132C215.096 645.768 214.48 646.67 214.289 647.837H208.337C208.443 646.288 208.985 644.888 209.961 643.636C210.958 642.384 212.358 641.387 214.162 640.644C215.987 639.88 218.172 639.498 220.719 639.498C222.968 639.498 224.92 639.785 226.575 640.358C228.23 640.931 229.514 641.716 230.426 642.713C231.36 643.71 231.827 644.867 231.827 646.182C231.827 647.264 231.498 648.262 230.84 649.174C230.204 650.087 229.196 650.808 227.816 651.338C226.458 651.869 224.697 652.124 222.533 652.102V651.466C224.591 651.36 226.352 651.508 227.816 651.911C229.302 652.293 230.437 652.909 231.222 653.757C232.028 654.606 232.432 655.688 232.432 657.004C232.432 658.447 231.965 659.731 231.031 660.855C230.097 661.959 228.729 662.829 226.925 663.465C225.143 664.08 222.968 664.388 220.4 664.388ZM251.812 652.166L252.321 650.988C254.188 651.031 255.716 651.317 256.904 651.848C258.114 652.378 259.005 653.11 259.578 654.044C260.172 654.956 260.469 656.007 260.469 657.195C260.469 658.489 260.172 659.646 259.578 660.664C258.984 661.662 258.093 662.447 256.904 663.02C255.737 663.592 254.273 663.879 252.512 663.879H235.324L237.171 651.625L235.324 640.007H251.907C254.114 640.007 255.822 640.527 257.032 641.567C258.262 642.586 258.878 643.997 258.878 645.8C258.878 646.798 258.644 647.752 258.177 648.665C257.711 649.577 256.968 650.352 255.949 650.988C254.931 651.604 253.552 651.996 251.812 652.166ZM241.245 662.415L238.953 659.582H251.08C252.119 659.582 252.926 659.338 253.499 658.85C254.093 658.341 254.39 657.63 254.39 656.717C254.39 655.805 254.061 655.084 253.403 654.553C252.767 654.001 251.812 653.726 250.539 653.726H240.608V649.524H249.775C250.645 649.524 251.366 649.28 251.939 648.792C252.512 648.283 252.798 647.593 252.798 646.723C252.798 646.023 252.544 645.45 252.034 645.005C251.546 644.538 250.846 644.304 249.934 644.304H238.985L241.245 641.472L242.931 651.625L241.245 662.415ZM263.875 663.879V640.007H269.796V660.76L268.045 660.41L282.368 640.007H290.198V663.879H284.309V642.777L286.028 643.127L271.514 663.879H263.875ZM302.377 642.681H308.393V663.879H302.377V642.681ZM293.083 640.007H317.687V645.323H293.083V640.007ZM320.57 663.879V640.007H326.554V659.041L324.931 657.831L339.062 640.007H345.428L325.981 663.879H320.57ZM331.997 652.325L336.325 648.601L345.746 663.879H338.935L331.997 652.325ZM353.588 663.879L357.789 656.59H357.884L367.369 640.007H373.862L360.081 663.879H353.588ZM357.725 660.537L345.821 640.007H352.442L361.958 656.463L357.725 660.537Z" fill="white"/>
</svg>
