<svg width="1440" height="574" viewBox="0 0 1440 574" fill="none" xmlns="http://www.w3.org/2000/svg">
<path d="M1031.77 83.112L1028.79 86.12V65H1035.42V89H996.409V65H1003.03V86.12L1000.06 83.112H1015.29L1012.6 86.12V65H1019.23V86.12L1016.44 83.112H1031.77ZM1045.57 89L1049.89 81.48H1049.99L1059.37 65H1066.57L1052.77 89H1045.57ZM1049.8 85.768L1037.8 65H1045.13L1054.5 81.32L1049.8 85.768ZM1068.82 89V65H1075.41V83.72L1073.65 82.344L1087.25 65H1094.26L1074.8 89H1068.82ZM1080.27 77.544L1085.14 73.512L1094.58 89H1087.06L1080.27 77.544ZM1101.33 84.392V79.048H1117.88V84.392H1101.33ZM1114.1 65L1125.01 89H1117.94L1108.79 67.816H1110.71L1101.52 89H1094.45L1105.36 65H1114.1ZM1133.82 81.768C1130.41 81.768 1127.8 80.8827 1125.98 79.112C1124.19 77.32 1123.29 74.7387 1123.29 71.368V65H1129.92V70.824C1129.92 72.5093 1130.38 73.7787 1131.29 74.632C1132.21 75.4853 1133.59 75.912 1135.42 75.912C1136.49 75.912 1137.61 75.7947 1138.78 75.56C1139.96 75.304 1141.13 74.9413 1142.3 74.472L1142.69 79.784C1141.41 80.424 1140.01 80.9147 1138.49 81.256C1136.98 81.5973 1135.42 81.768 1133.82 81.768ZM1141.44 89V65H1148.09V89H1141.44ZM1157.21 84.392V79.048H1173.75V84.392H1157.21ZM1169.97 65L1180.89 89H1173.81L1164.66 67.816H1166.58L1157.4 89H1150.33L1161.24 65H1169.97ZM1218.23 65V89H1211.93V67.368L1213.34 67.528L1204.06 89H1197.34L1188.02 67.592L1189.46 67.432V89H1183.16V65H1193.4L1202.01 85.608H1199.45L1207.99 65H1218.23ZM1244.13 65C1246.14 65 1247.86 65.3413 1249.32 66.024C1250.79 66.7067 1251.91 67.6773 1252.68 68.936C1253.44 70.1733 1253.83 71.624 1253.83 73.288C1253.83 74.9307 1253.44 76.3813 1252.68 77.64C1251.91 78.8773 1250.79 79.8373 1249.32 80.52C1247.86 81.2027 1246.14 81.544 1244.13 81.544H1233.73V76.232H1243.72C1244.78 76.232 1245.61 75.976 1246.21 75.464C1246.81 74.9307 1247.11 74.2053 1247.11 73.288C1247.11 72.3493 1246.81 71.624 1246.21 71.112C1245.61 70.5787 1244.78 70.312 1243.72 70.312H1234.31L1237.28 67.24V89H1230.66V65L1244.13 65ZM1269.91 89.512C1267.07 89.512 1264.57 88.9893 1262.42 87.944C1260.28 86.8987 1258.62 85.4373 1257.43 83.56C1256.25 81.6827 1255.67 79.496 1255.67 77C1255.67 74.504 1256.25 72.3173 1257.43 70.44C1258.62 68.5627 1260.28 67.1013 1262.42 66.056C1264.57 65.0107 1267.07 64.488 1269.91 64.488C1272.76 64.488 1275.26 65.0107 1277.39 66.056C1279.53 67.1013 1281.19 68.5627 1282.39 70.44C1283.58 72.3173 1284.18 74.504 1284.18 77C1284.18 79.496 1283.58 81.6827 1282.39 83.56C1281.19 85.4373 1279.53 86.8987 1277.39 87.944C1275.26 88.9893 1272.76 89.512 1269.91 89.512ZM1269.91 83.592C1271.46 83.592 1272.81 83.3253 1273.94 82.792C1275.07 82.2587 1275.93 81.5013 1276.53 80.52C1277.15 79.5387 1277.46 78.3653 1277.46 77C1277.46 75.6347 1277.15 74.4613 1276.53 73.48C1275.93 72.4987 1275.07 71.7413 1273.94 71.208C1272.81 70.6747 1271.46 70.408 1269.91 70.408C1268.37 70.408 1267.04 70.6747 1265.91 71.208C1264.78 71.7413 1263.9 72.4987 1263.28 73.48C1262.66 74.4613 1262.35 75.6347 1262.35 77C1262.35 78.3653 1262.66 79.5387 1263.28 80.52C1263.9 81.5013 1264.78 82.2587 1265.91 82.792C1267.04 83.3253 1268.37 83.592 1269.91 83.592ZM1291.6 74.12H1302.2C1304.22 74.12 1305.89 74.4293 1307.19 75.048C1308.49 75.6667 1309.46 76.5413 1310.1 77.672C1310.74 78.7813 1311.06 80.0827 1311.06 81.576C1311.06 83.0693 1310.71 84.3813 1310 85.512C1309.3 86.6213 1308.29 87.4853 1306.96 88.104C1305.64 88.7013 1304.05 89 1302.2 89H1286.58L1288.44 76.552L1286.58 65H1309.2V70.024H1290.71L1293.24 66.984L1294.74 76.424L1293.11 87.208L1290.58 84.168H1301.33C1302.29 84.168 1303.05 83.9227 1303.6 83.432C1304.18 82.9413 1304.47 82.2693 1304.47 81.416C1304.47 80.5413 1304.18 79.8693 1303.6 79.4C1303.05 78.9093 1302.29 78.664 1301.33 78.664H1291.6V74.12ZM1327.44 89.512C1324.6 89.512 1322.1 88.9893 1319.95 87.944C1317.82 86.8987 1316.15 85.4373 1314.96 83.56C1313.78 81.6827 1313.2 79.496 1313.2 77C1313.2 74.504 1313.78 72.3173 1314.96 70.44C1316.15 68.5627 1317.82 67.1013 1319.95 66.056C1322.1 65.0107 1324.6 64.488 1327.44 64.488C1330.3 64.488 1332.79 65.0107 1334.93 66.056C1337.06 67.1013 1338.72 68.5627 1339.92 70.44C1341.11 72.3173 1341.71 74.504 1341.71 77C1341.71 79.496 1341.11 81.6827 1339.92 83.56C1338.72 85.4373 1337.06 86.8987 1334.93 87.944C1332.79 88.9893 1330.3 89.512 1327.44 89.512ZM1327.44 83.592C1328.99 83.592 1330.34 83.3253 1331.47 82.792C1332.6 82.2587 1333.46 81.5013 1334.06 80.52C1334.68 79.5387 1334.99 78.3653 1334.99 77C1334.99 75.6347 1334.68 74.4613 1334.06 73.48C1333.46 72.4987 1332.6 71.7413 1331.47 71.208C1330.34 70.6747 1328.99 70.408 1327.44 70.408C1325.9 70.408 1324.57 70.6747 1323.44 71.208C1322.31 71.7413 1321.43 72.4987 1320.81 73.48C1320.19 74.4613 1319.89 75.6347 1319.89 77C1319.89 78.3653 1320.19 79.5387 1320.81 80.52C1321.43 81.5013 1322.31 82.2587 1323.44 82.792C1324.57 83.3253 1325.9 83.592 1327.44 83.592ZM1351.68 67.912H1358.34V89H1351.68V67.912ZM1342.53 65H1367.49V70.888H1342.53V65ZM1370.35 89V65H1376.87V85.512L1375.05 85.096L1388.65 65H1397.32V89H1390.76V68.104L1392.62 68.52L1378.76 89H1370.35ZM1151.21 131.832V121.144H1156.4L1158.51 121.208H1175.15L1176.81 121.144H1183.79V131.832H1177.58V127H1157.42V131.832H1151.21ZM1156.21 103H1179.66V125.144H1173.01V105.784L1176.01 108.792H1159.73L1162.48 106.584C1162.65 107.565 1162.75 108.515 1162.77 109.432C1162.81 110.349 1162.83 111.224 1162.83 112.056C1162.83 114.552 1162.61 116.653 1162.16 118.36C1161.73 120.067 1161.08 121.357 1160.21 122.232C1159.35 123.107 1158.28 123.544 1156.97 123.544L1154.19 121.24C1155.04 120.237 1155.67 118.872 1156.08 117.144C1156.48 115.395 1156.69 113.24 1156.69 110.68C1156.69 109.507 1156.64 108.28 1156.56 107C1156.47 105.72 1156.36 104.387 1156.21 103ZM1190.97 103H1214.52V127H1207.87V105.88L1210.88 108.888H1194.68L1197.47 106.68C1197.64 108.088 1197.76 109.443 1197.82 110.744C1197.88 112.024 1197.92 113.24 1197.92 114.392C1197.92 117.464 1197.64 119.971 1197.08 121.912C1196.53 123.832 1195.65 125.24 1194.46 126.136C1193.27 127.032 1191.72 127.48 1189.82 127.48C1188.99 127.48 1188.17 127.395 1187.36 127.224C1186.57 127.053 1185.84 126.797 1185.18 126.456V120.952C1186.12 121.315 1186.98 121.496 1187.77 121.496C1189.16 121.496 1190.15 120.867 1190.75 119.608C1191.37 118.349 1191.68 116.291 1191.68 113.432C1191.68 112.045 1191.61 110.488 1191.48 108.76C1191.38 107.032 1191.21 105.112 1190.97 103ZM1237.4 113.656V118.36H1227.39L1227.36 118.232C1225.52 118.232 1223.91 117.923 1222.52 117.304C1221.16 116.685 1220.09 115.811 1219.32 114.68C1218.58 113.549 1218.2 112.227 1218.2 110.712C1218.2 109.155 1218.58 107.811 1219.32 106.68C1220.09 105.528 1221.16 104.632 1222.52 103.992C1223.91 103.331 1225.52 103 1227.36 103H1242.01V127H1235.36V104.76L1238.33 107.736H1228.32C1227.23 107.736 1226.37 108.003 1225.76 108.536C1225.16 109.048 1224.86 109.773 1224.86 110.712C1224.86 111.629 1225.16 112.355 1225.76 112.888C1226.37 113.4 1227.23 113.656 1228.32 113.656H1237.4ZM1233.44 115.768L1225.24 127L1217.56 127L1226.01 115.768H1233.44ZM1254.41 103H1261.03V127H1254.41V103ZM1273.29 103H1279.95V127H1273.29V103ZM1258.12 111.864H1276.04V117.752H1258.12V111.864ZM1297.62 127.512C1294.79 127.512 1292.29 126.989 1290.14 125.944C1288 124.899 1286.34 123.437 1285.14 121.56C1283.97 119.683 1283.38 117.496 1283.38 115C1283.38 112.504 1283.97 110.317 1285.14 108.44C1286.34 106.563 1288 105.101 1290.14 104.056C1292.29 103.011 1294.79 102.488 1297.62 102.488C1300.48 102.488 1302.98 103.011 1305.11 104.056C1307.25 105.101 1308.91 106.563 1310.1 108.44C1311.3 110.317 1311.9 112.504 1311.9 115C1311.9 117.496 1311.3 119.683 1310.1 121.56C1308.91 123.437 1307.25 124.899 1305.11 125.944C1302.98 126.989 1300.48 127.512 1297.62 127.512ZM1297.62 121.592C1299.18 121.592 1300.53 121.325 1301.66 120.792C1302.79 120.259 1303.65 119.501 1304.25 118.52C1304.87 117.539 1305.18 116.365 1305.18 115C1305.18 113.635 1304.87 112.461 1304.25 111.48C1303.65 110.499 1302.79 109.741 1301.66 109.208C1300.53 108.675 1299.18 108.408 1297.62 108.408C1296.09 108.408 1294.76 108.675 1293.62 109.208C1292.49 109.741 1291.62 110.499 1291 111.48C1290.38 112.461 1290.07 113.635 1290.07 115C1290.07 116.365 1290.38 117.539 1291 118.52C1291.62 119.501 1292.49 120.259 1293.62 120.792C1294.76 121.325 1296.09 121.592 1297.62 121.592ZM1331.29 115.256L1331.83 114.008C1333.69 114.051 1335.22 114.339 1336.41 114.872C1337.63 115.384 1338.53 116.109 1339.13 117.048C1339.73 117.965 1340.03 119.032 1340.03 120.248C1340.03 121.549 1339.73 122.712 1339.13 123.736C1338.53 124.739 1337.64 125.539 1336.44 126.136C1335.27 126.712 1333.8 127 1332.03 127H1314.3L1316.15 114.68L1314.3 103H1331.39C1333.61 103 1335.33 103.523 1336.57 104.568C1337.81 105.592 1338.43 107.021 1338.43 108.856C1338.43 109.859 1338.19 110.819 1337.72 111.736C1337.25 112.653 1336.5 113.432 1335.45 114.072C1334.43 114.691 1333.04 115.085 1331.29 115.256ZM1320.86 125.464L1318.3 122.36H1330.23C1331.19 122.36 1331.94 122.125 1332.47 121.656C1333.01 121.187 1333.27 120.536 1333.27 119.704C1333.27 118.872 1332.99 118.211 1332.41 117.72C1331.83 117.208 1330.98 116.952 1329.85 116.952H1319.99V112.408H1328.95C1329.72 112.408 1330.36 112.184 1330.87 111.736C1331.41 111.267 1331.67 110.637 1331.67 109.848C1331.67 109.208 1331.45 108.685 1331 108.28C1330.55 107.853 1329.91 107.64 1329.08 107.64H1318.33L1320.86 104.536L1322.49 114.68L1320.86 125.464ZM1343.28 127V103H1349.81V123.512L1347.99 123.096L1361.59 103H1370.26V127H1363.7V106.104L1365.56 106.52L1351.7 127H1343.28ZM1388.93 116.536V112.504L1400.71 127H1392.55L1384.77 116.952H1388.03L1380.23 127H1372.16L1384 112.536V116.504L1372.87 103H1381.15L1388.19 112.088H1384.93L1391.87 103H1400.03L1388.93 116.536ZM1088.95 141V165H1082.65V143.368L1084.05 143.528L1074.77 165H1068.05L1058.74 143.592L1060.18 143.432V165H1053.88V141H1064.12L1072.73 161.608H1070.17L1078.71 141H1088.95ZM1106.62 165.512C1103.79 165.512 1101.29 164.989 1099.14 163.944C1097 162.899 1095.34 161.437 1094.14 159.56C1092.97 157.683 1092.38 155.496 1092.38 153C1092.38 150.504 1092.97 148.317 1094.14 146.44C1095.34 144.563 1097 143.101 1099.14 142.056C1101.29 141.011 1103.79 140.488 1106.62 140.488C1109.48 140.488 1111.98 141.011 1114.11 142.056C1116.25 143.101 1117.91 144.563 1119.1 146.44C1120.3 148.317 1120.9 150.504 1120.9 153C1120.9 155.496 1120.3 157.683 1119.1 159.56C1117.91 161.437 1116.25 162.899 1114.11 163.944C1111.98 164.989 1109.48 165.512 1106.62 165.512ZM1106.62 159.592C1108.18 159.592 1109.53 159.325 1110.66 158.792C1111.79 158.259 1112.65 157.501 1113.25 156.52C1113.87 155.539 1114.18 154.365 1114.18 153C1114.18 151.635 1113.87 150.461 1113.25 149.48C1112.65 148.499 1111.79 147.741 1110.66 147.208C1109.53 146.675 1108.18 146.408 1106.62 146.408C1105.09 146.408 1103.76 146.675 1102.62 147.208C1101.49 147.741 1100.62 148.499 1100 149.48C1099.38 150.461 1099.07 151.635 1099.07 153C1099.07 154.365 1099.38 155.539 1100 156.52C1100.62 157.501 1101.49 158.259 1102.62 158.792C1103.76 159.325 1105.09 159.592 1106.62 159.592ZM1120.26 165L1129.73 149.512L1134.57 153.544L1127.78 165H1120.26ZM1157.51 165L1150.76 153.544L1155.59 149.512L1165.03 165H1157.51ZM1145.93 158.952L1144.1 158.312L1157.7 141H1164.71L1145.09 165H1140.23L1120.61 141H1127.59L1141.22 158.312L1139.37 158.952V141H1145.93V158.952ZM1171.28 141H1194.84V165H1188.18V143.88L1191.19 146.888H1175L1177.78 144.68C1177.95 146.088 1178.07 147.443 1178.13 148.744C1178.2 150.024 1178.23 151.24 1178.23 152.392C1178.23 155.464 1177.95 157.971 1177.4 159.912C1176.84 161.832 1175.97 163.24 1174.77 164.136C1173.58 165.032 1172.03 165.48 1170.13 165.48C1169.3 165.48 1168.48 165.395 1167.67 165.224C1166.88 165.053 1166.15 164.797 1165.49 164.456V158.952C1166.43 159.315 1167.3 159.496 1168.08 159.496C1169.47 159.496 1170.46 158.867 1171.06 157.608C1171.68 156.349 1171.99 154.291 1171.99 151.432C1171.99 150.045 1171.92 148.488 1171.8 146.76C1171.69 145.032 1171.52 143.112 1171.28 141ZM1199.28 165V141H1205.81V161.512L1203.99 161.096L1217.59 141H1226.26V165H1219.7V144.104L1221.56 144.52L1207.7 165H1199.28ZM1247.01 153.256L1247.55 152.008C1249.41 152.051 1250.93 152.339 1252.13 152.872C1253.35 153.384 1254.25 154.109 1254.85 155.048C1255.45 155.965 1255.75 157.032 1255.75 158.248C1255.75 159.549 1255.45 160.712 1254.85 161.736C1254.25 162.739 1253.36 163.539 1252.16 164.136C1250.99 164.712 1249.52 165 1247.75 165H1230.02L1231.87 152.68L1230.02 141H1247.11C1249.32 141 1251.05 141.523 1252.29 142.568C1253.53 143.592 1254.15 145.021 1254.15 146.856C1254.15 147.859 1253.91 148.819 1253.44 149.736C1252.97 150.653 1252.21 151.432 1251.17 152.072C1250.15 152.691 1248.76 153.085 1247.01 153.256ZM1236.58 163.464L1234.02 160.36H1245.95C1246.91 160.36 1247.66 160.125 1248.19 159.656C1248.73 159.187 1248.99 158.536 1248.99 157.704C1248.99 156.872 1248.71 156.211 1248.13 155.72C1247.55 155.208 1246.7 154.952 1245.57 154.952H1235.71V150.408H1244.67C1245.44 150.408 1246.08 150.184 1246.59 149.736C1247.13 149.267 1247.39 148.637 1247.39 147.848C1247.39 147.208 1247.17 146.685 1246.72 146.28C1246.27 145.853 1245.63 145.64 1244.8 145.64H1234.05L1236.58 142.536L1238.21 152.68L1236.58 163.464ZM1272.09 165.512C1269.26 165.512 1266.76 164.989 1264.61 163.944C1262.47 162.899 1260.81 161.437 1259.61 159.56C1258.44 157.683 1257.85 155.496 1257.85 153C1257.85 150.504 1258.44 148.317 1259.61 146.44C1260.81 144.563 1262.47 143.101 1264.61 142.056C1266.76 141.011 1269.26 140.488 1272.09 140.488C1274.95 140.488 1277.45 141.011 1279.58 142.056C1281.71 143.101 1283.38 144.563 1284.57 146.44C1285.77 148.317 1286.37 150.504 1286.37 153C1286.37 155.496 1285.77 157.683 1284.57 159.56C1283.38 161.437 1281.71 162.899 1279.58 163.944C1277.45 164.989 1274.95 165.512 1272.09 165.512ZM1272.09 159.592C1273.65 159.592 1274.99 159.325 1276.13 158.792C1277.26 158.259 1278.12 157.501 1278.72 156.52C1279.34 155.539 1279.65 154.365 1279.65 153C1279.65 151.635 1279.34 150.461 1278.72 149.48C1278.12 148.499 1277.26 147.741 1276.13 147.208C1274.99 146.675 1273.65 146.408 1272.09 146.408C1270.56 146.408 1269.22 146.675 1268.09 147.208C1266.96 147.741 1266.09 148.499 1265.47 149.48C1264.85 150.461 1264.54 151.635 1264.54 153C1264.54 154.365 1264.85 155.539 1265.47 156.52C1266.09 157.501 1266.96 158.259 1268.09 158.792C1269.22 159.325 1270.56 159.592 1272.09 159.592ZM1316.44 154.952C1316.21 157.064 1315.48 158.92 1314.26 160.52C1313.05 162.099 1311.45 163.325 1309.46 164.2C1307.5 165.075 1305.24 165.512 1302.68 165.512C1299.89 165.512 1297.44 164.989 1295.35 163.944C1293.26 162.899 1291.63 161.437 1290.46 159.56C1289.3 157.683 1288.73 155.496 1288.73 153C1288.73 150.504 1289.3 148.317 1290.46 146.44C1291.63 144.563 1293.26 143.101 1295.35 142.056C1297.44 141.011 1299.89 140.488 1302.68 140.488C1305.24 140.488 1307.5 140.925 1309.46 141.8C1311.45 142.675 1313.05 143.912 1314.26 145.512C1315.48 147.091 1316.21 148.936 1316.44 151.048H1309.78C1309.57 150.024 1309.16 149.16 1308.54 148.456C1307.92 147.731 1307.11 147.176 1306.1 146.792C1305.12 146.408 1303.98 146.216 1302.68 146.216C1301.19 146.216 1299.9 146.493 1298.81 147.048C1297.72 147.581 1296.89 148.36 1296.31 149.384C1295.74 150.387 1295.45 151.592 1295.45 153C1295.45 154.408 1295.74 155.624 1296.31 156.648C1296.89 157.651 1297.72 158.429 1298.81 158.984C1299.9 159.517 1301.19 159.784 1302.68 159.784C1303.98 159.784 1305.12 159.603 1306.1 159.24C1307.11 158.877 1307.92 158.333 1308.54 157.608C1309.16 156.883 1309.57 155.997 1309.78 154.952H1316.44ZM1326.27 143.912H1332.93V165H1326.27V143.912ZM1317.12 141H1342.08V146.888H1317.12V141ZM1365.45 150.6V155.4H1347.88V150.6H1365.45ZM1352.4 153L1350.83 162.632L1348.14 159.624H1366.51V165H1344.2L1346.03 153L1344.2 141H1366.35V146.376H1348.14L1350.83 143.368L1352.4 153ZM1370.35 165V141H1376.87V161.512L1375.05 161.096L1388.65 141H1397.32V165H1390.76V144.104L1392.62 144.52L1378.76 165H1370.35ZM1375.53 133.704H1380.75C1381 134.387 1381.38 134.909 1381.87 135.272C1382.38 135.613 1383.01 135.784 1383.75 135.784C1384.5 135.784 1385.12 135.613 1385.61 135.272C1386.12 134.909 1386.51 134.387 1386.76 133.704H1391.98C1391.51 135.731 1390.54 137.203 1389.07 138.12C1387.62 139.016 1385.85 139.464 1383.75 139.464C1381.69 139.464 1379.91 139.016 1378.44 138.12C1376.97 137.203 1376 135.731 1375.53 133.704Z" fill="white"/>
<path d="M70.8921 168.952C70.6574 171.064 69.9321 172.92 68.7161 174.52C67.5001 176.099 65.9001 177.325 63.9161 178.2C61.9534 179.075 59.6921 179.512 57.1321 179.512C54.3374 179.512 51.8948 178.989 49.8041 177.944C47.7134 176.899 46.0814 175.437 44.9081 173.56C43.7561 171.683 43.1801 169.496 43.1801 167C43.1801 164.504 43.7561 162.317 44.9081 160.44C46.0814 158.563 47.7134 157.101 49.8041 156.056C51.8948 155.011 54.3374 154.488 57.1321 154.488C59.6921 154.488 61.9534 154.925 63.9161 155.8C65.9001 156.675 67.5001 157.912 68.7161 159.512C69.9321 161.091 70.6574 162.936 70.8921 165.048H64.2361C64.0228 164.024 63.6068 163.16 62.9881 162.456C62.3694 161.731 61.5588 161.176 60.5561 160.792C59.5748 160.408 58.4334 160.216 57.1321 160.216C55.6388 160.216 54.3481 160.493 53.2601 161.048C52.1721 161.581 51.3401 162.36 50.7641 163.384C50.1881 164.387 49.9001 165.592 49.9001 167C49.9001 168.408 50.1881 169.624 50.7641 170.648C51.3401 171.651 52.1721 172.429 53.2601 172.984C54.3481 173.517 55.6388 173.784 57.1321 173.784C58.4334 173.784 59.5748 173.603 60.5561 173.24C61.5588 172.877 62.3694 172.333 62.9881 171.608C63.6068 170.883 64.0228 169.997 64.2361 168.952H70.8921ZM80.7248 157.912H87.3808V179H80.7248V157.912ZM71.5728 155H96.5328V160.888H71.5728V155ZM105.056 179L109.376 171.48H109.472L118.848 155H126.048L112.256 179H105.056ZM109.28 175.768L97.2803 155H104.608L113.984 171.32L109.28 175.768ZM123.698 183.832V173.144H128.882L130.994 173.208H147.634L149.298 173.144H156.274V183.832H150.066V179H129.906V183.832H123.698ZM128.69 155H152.146V177.144H145.49V157.784L148.498 160.792H132.21L134.962 158.584C135.133 159.565 135.229 160.515 135.25 161.432C135.293 162.349 135.314 163.224 135.314 164.056C135.314 166.552 135.09 168.653 134.642 170.36C134.215 172.067 133.565 173.357 132.69 174.232C131.837 175.107 130.759 175.544 129.458 175.544L126.674 173.24C127.527 172.237 128.157 170.872 128.562 169.144C128.967 167.395 129.17 165.24 129.17 162.68C129.17 161.507 129.127 160.28 129.042 159C128.957 157.72 128.839 156.387 128.69 155ZM179.967 164.6V169.4H162.399V164.6H179.967ZM166.911 167L165.343 176.632L162.655 173.624H181.023V179H158.719L160.543 167L158.719 155H180.863V160.376H162.655L165.343 157.368L166.911 167ZM184.861 155H191.485V179H184.861V155ZM203.741 155H210.397V179H203.741V155ZM188.573 163.864H206.493V169.752H188.573V163.864ZM222.412 157.912H229.068V179H222.412V157.912ZM213.26 155H238.22V160.888H213.26V155ZM241.908 174.392V169.048H258.452V174.392H241.908ZM254.676 155L265.588 179H258.516L249.364 157.816H251.284L242.1 179H235.028L245.94 155H254.676ZM302.933 155V179H296.629V157.368L298.037 157.528L288.757 179H282.037L272.725 157.592L274.165 157.432V179H267.861V155H278.101L286.709 175.608H284.149L292.693 155H302.933ZM321.881 157.912H328.537V179H321.881V157.912ZM312.729 155H337.689V160.888H312.729V155ZM341.377 174.392V169.048H357.921V174.392H341.377ZM354.145 155L365.057 179H357.985L348.833 157.816H350.753L341.569 179H334.497L345.409 155H354.145ZM60.4921 205.256L61.0361 204.008C62.8921 204.051 64.4174 204.339 65.6121 204.872C66.8281 205.384 67.7348 206.109 68.3321 207.048C68.9294 207.965 69.2281 209.032 69.2281 210.248C69.2281 211.549 68.9294 212.712 68.3321 213.736C67.7348 214.739 66.8388 215.539 65.6441 216.136C64.4708 216.712 62.9988 217 61.2281 217H43.5001L45.3561 204.68L43.5001 193H60.5881C62.8068 193 64.5348 193.523 65.7721 194.568C67.0094 195.592 67.6281 197.021 67.6281 198.856C67.6281 199.859 67.3934 200.819 66.9241 201.736C66.4548 202.653 65.6974 203.432 64.6521 204.072C63.6281 204.691 62.2414 205.085 60.4921 205.256ZM50.0601 215.464L47.5001 212.36H59.4361C60.3961 212.36 61.1428 212.125 61.6761 211.656C62.2094 211.187 62.4761 210.536 62.4761 209.704C62.4761 208.872 62.1881 208.211 61.6121 207.72C61.0361 207.208 60.1828 206.952 59.0521 206.952H49.1961V202.408H58.1561C58.9241 202.408 59.5641 202.184 60.0761 201.736C60.6094 201.267 60.8761 200.637 60.8761 199.848C60.8761 199.208 60.6521 198.685 60.2041 198.28C59.7561 197.853 59.1161 197.64 58.2841 197.64H47.5321L50.0601 194.536L51.6921 204.68L50.0601 215.464ZM72.4861 217V193H79.0141V213.512L77.1901 213.096L90.7901 193H99.4621V217H92.9021V196.104L94.7581 196.52L80.9021 217H72.4861ZM129.363 193V217H122.739V195.88L125.715 198.888H107.603L110.579 195.88V217H103.955V193H129.363ZM139.494 217L143.814 209.48H143.91L153.286 193H160.486L146.694 217H139.494ZM143.718 213.768L131.718 193H139.046L148.422 209.32L143.718 213.768ZM187.361 206.952C187.126 209.064 186.401 210.92 185.185 212.52C183.969 214.099 182.369 215.325 180.385 216.2C178.422 217.075 176.161 217.512 173.601 217.512C170.806 217.512 168.364 216.989 166.273 215.944C164.182 214.899 162.55 213.437 161.377 211.56C160.225 209.683 159.649 207.496 159.649 205C159.649 202.504 160.225 200.317 161.377 198.44C162.55 196.563 164.182 195.101 166.273 194.056C168.364 193.011 170.806 192.488 173.601 192.488C176.161 192.488 178.422 192.925 180.385 193.8C182.369 194.675 183.969 195.912 185.185 197.512C186.401 199.091 187.126 200.936 187.361 203.048H180.705C180.492 202.024 180.076 201.16 179.457 200.456C178.838 199.731 178.028 199.176 177.025 198.792C176.044 198.408 174.902 198.216 173.601 198.216C172.108 198.216 170.817 198.493 169.729 199.048C168.641 199.581 167.809 200.36 167.233 201.384C166.657 202.387 166.369 203.592 166.369 205C166.369 206.408 166.657 207.624 167.233 208.648C167.809 209.651 168.641 210.429 169.729 210.984C170.817 211.517 172.108 211.784 173.601 211.784C174.902 211.784 176.044 211.603 177.025 211.24C178.028 210.877 178.838 210.333 179.457 209.608C180.076 208.883 180.492 207.997 180.705 206.952H187.361ZM190.58 217V193H197.172V211.72L195.412 210.344L209.012 193H216.02L196.564 217H190.58ZM202.036 205.544L206.9 201.512L216.34 217H208.82L202.036 205.544ZM218.424 193H225.048V217H218.424V193ZM237.304 193H243.96V217H237.304V193ZM222.136 201.864H240.056V207.752H222.136V201.864ZM248.455 217V193H254.983V213.512L253.159 213.096L266.759 193H275.431V217H268.871V196.104L270.727 196.52L256.871 217H248.455ZM279.924 217V193H286.516V211.72L284.756 210.344L298.356 193H305.364L285.908 217H279.924ZM291.38 205.544L296.244 201.512L305.684 217H298.164L291.38 205.544ZM312.439 212.392V207.048H328.983V212.392H312.439ZM325.207 193L336.119 217H329.047L319.895 195.816H321.815L312.631 217H305.559L316.471 193H325.207ZM373.464 193V217H367.16V195.368L368.568 195.528L359.288 217H352.568L343.256 195.592L344.696 195.432V217H338.392V193H348.632L357.24 213.608H354.68L363.224 193H373.464ZM42.6041 259.832V249.144H47.7881L49.9001 249.208H66.5401L68.2041 249.144H75.1801V259.832H68.9721V255H48.8121V259.832H42.6041ZM47.5961 231H71.0521V253.144H64.3961V233.784L67.4041 236.792H51.1161L53.8681 234.584C54.0388 235.565 54.1348 236.515 54.1561 237.432C54.1988 238.349 54.2201 239.224 54.2201 240.056C54.2201 242.552 53.9961 244.653 53.5481 246.36C53.1214 248.067 52.4708 249.357 51.5961 250.232C50.7428 251.107 49.6654 251.544 48.3641 251.544L45.5801 249.24C46.4334 248.237 47.0628 246.872 47.4681 245.144C47.8734 243.395 48.0761 241.24 48.0761 238.68C48.0761 237.507 48.0334 236.28 47.9481 235C47.8628 233.72 47.7454 232.387 47.5961 231ZM82.3611 231H105.913V255H99.2571V233.88L102.265 236.888H86.0731L88.8571 234.68C89.0278 236.088 89.1451 237.443 89.2091 238.744C89.2731 240.024 89.3051 241.24 89.3051 242.392C89.3051 245.464 89.0278 247.971 88.4731 249.912C87.9184 251.832 87.0438 253.24 85.8491 254.136C84.6544 255.032 83.1078 255.48 81.2091 255.48C80.3771 255.48 79.5558 255.395 78.7451 255.224C77.9558 255.053 77.2304 254.797 76.5691 254.456V248.952C77.5078 249.315 78.3718 249.496 79.1611 249.496C80.5478 249.496 81.5398 248.867 82.1371 247.608C82.7558 246.349 83.0651 244.291 83.0651 241.432C83.0651 240.045 83.0011 238.488 82.8731 236.76C82.7664 235.032 82.5958 233.112 82.3611 231ZM128.793 241.656V246.36H118.777L118.745 246.232C116.91 246.232 115.3 245.923 113.913 245.304C112.548 244.685 111.481 243.811 110.713 242.68C109.966 241.549 109.593 240.227 109.593 238.712C109.593 237.155 109.966 235.811 110.713 234.68C111.481 233.528 112.548 232.632 113.913 231.992C115.3 231.331 116.91 231 118.745 231H133.401V255H126.745V232.76L129.721 235.736H119.705C118.617 235.736 117.764 236.003 117.145 236.536C116.548 237.048 116.249 237.773 116.249 238.712C116.249 239.629 116.548 240.355 117.145 240.888C117.764 241.4 118.617 241.656 119.705 241.656H128.793ZM124.825 243.768L116.633 255H108.953L117.401 243.768H124.825ZM171.207 231V255H164.583V233.88L167.559 236.888H149.447L152.423 233.88V255H145.799V231H171.207ZM179.674 231H203.226V255H196.57V233.88L199.578 236.888H183.386L186.17 234.68C186.34 236.088 186.458 237.443 186.522 238.744C186.586 240.024 186.618 241.24 186.618 242.392C186.618 245.464 186.34 247.971 185.786 249.912C185.231 251.832 184.356 253.24 183.162 254.136C181.967 255.032 180.42 255.48 178.522 255.48C177.69 255.48 176.868 255.395 176.058 255.224C175.268 255.053 174.543 254.797 173.882 254.456V248.952C174.82 249.315 175.684 249.496 176.474 249.496C177.86 249.496 178.852 248.867 179.45 247.608C180.068 246.349 180.378 244.291 180.378 241.432C180.378 240.045 180.314 238.488 180.186 236.76C180.079 235.032 179.908 233.112 179.674 231ZM212.346 250.392V245.048H228.89V250.392H212.346ZM225.114 231L236.026 255H228.954L219.802 233.816H221.722L212.538 255H205.466L216.378 231H225.114ZM238.299 231H244.923V255H238.299V231ZM257.179 231H263.835V255H257.179V231ZM242.011 239.864H259.931V245.752H242.011V239.864ZM273.994 255L278.314 247.48H278.41L287.786 231H294.986L281.194 255H273.994ZM278.218 251.768L266.218 231H273.546L282.922 247.32L278.218 251.768ZM313.492 243.256L314.036 242.008C315.892 242.051 317.417 242.339 318.612 242.872C319.828 243.384 320.735 244.109 321.332 245.048C321.929 245.965 322.228 247.032 322.228 248.248C322.228 249.549 321.929 250.712 321.332 251.736C320.735 252.739 319.839 253.539 318.644 254.136C317.471 254.712 315.999 255 314.228 255H296.5L298.356 242.68L296.5 231H313.588C315.807 231 317.535 231.523 318.772 232.568C320.009 233.592 320.628 235.021 320.628 236.856C320.628 237.859 320.393 238.819 319.924 239.736C319.455 240.653 318.697 241.432 317.652 242.072C316.628 242.691 315.241 243.085 313.492 243.256ZM303.06 253.464L300.5 250.36H312.436C313.396 250.36 314.143 250.125 314.676 249.656C315.209 249.187 315.476 248.536 315.476 247.704C315.476 246.872 315.188 246.211 314.612 245.72C314.036 245.208 313.183 244.952 312.052 244.952H302.196V240.408H311.156C311.924 240.408 312.564 240.184 313.076 239.736C313.609 239.267 313.876 238.637 313.876 237.848C313.876 237.208 313.652 236.685 313.204 236.28C312.756 235.853 312.116 235.64 311.284 235.64H300.532L303.06 232.536L304.692 242.68L303.06 253.464ZM328.971 250.392V245.048H345.515V250.392H328.971ZM341.739 231L352.651 255H345.579L336.427 233.816H338.347L329.163 255H322.091L333.003 231H341.739ZM354.924 231H361.548V255H354.924V231ZM373.804 231H380.46V255H373.804V231ZM358.636 239.864H376.556V245.752H358.636V239.864ZM384.955 231H391.579V255H384.955V231ZM403.835 231H410.491V255H403.835V231ZM388.667 239.864H406.587V245.752H388.667V239.864ZM433.418 241.656V246.36H423.402L423.37 246.232C421.535 246.232 419.925 245.923 418.538 245.304C417.173 244.685 416.106 243.811 415.338 242.68C414.591 241.549 414.218 240.227 414.218 238.712C414.218 237.155 414.591 235.811 415.338 234.68C416.106 233.528 417.173 232.632 418.538 231.992C419.925 231.331 421.535 231 423.37 231H438.026V255H431.37V232.76L434.346 235.736H424.33C423.242 235.736 422.389 236.003 421.77 236.536C421.173 237.048 420.874 237.773 420.874 238.712C420.874 239.629 421.173 240.355 421.77 240.888C422.389 241.4 423.242 241.656 424.33 241.656H433.418ZM429.45 243.768L421.258 255H413.578L422.026 243.768H429.45ZM44.2361 293L44.2361 269H50.8281V287.72L49.0681 286.344L62.6681 269H69.6761L50.2201 293H44.2361ZM55.6921 281.544L60.5561 277.512L69.9961 293H62.4761L55.6921 281.544ZM76.7518 288.392V283.048H93.2958V288.392H76.7518ZM89.5198 269L100.432 293H93.3598L84.2078 271.816H86.1278L76.9438 293H69.8718L80.7838 269H89.5198ZM116.177 269C118.182 269 119.91 269.341 121.361 270.024C122.833 270.707 123.953 271.677 124.721 272.936C125.489 274.173 125.873 275.624 125.873 277.288C125.873 278.931 125.489 280.381 124.721 281.64C123.953 282.877 122.833 283.837 121.361 284.52C119.91 285.203 118.182 285.544 116.177 285.544H105.777V280.232H115.761C116.828 280.232 117.66 279.976 118.257 279.464C118.854 278.931 119.153 278.205 119.153 277.288C119.153 276.349 118.854 275.624 118.257 275.112C117.66 274.579 116.828 274.312 115.761 274.312H106.353L109.329 271.24V293H102.705V269H116.177ZM127.679 269H134.175L132.895 279.72H128.959L127.679 269ZM150.636 293.512C147.82 293.512 145.356 292.989 143.244 291.944C141.132 290.899 139.479 289.437 138.284 287.56C137.111 285.683 136.524 283.496 136.524 281C136.524 278.504 137.111 276.317 138.284 274.44C139.479 272.563 141.132 271.101 143.244 270.056C145.356 269.011 147.82 268.488 150.636 268.488C153.153 268.488 155.404 268.915 157.388 269.768C159.393 270.621 161.015 271.816 162.252 273.352C163.511 274.867 164.268 276.648 164.524 278.696H157.964C157.751 277.693 157.324 276.851 156.684 276.168C156.044 275.464 155.212 274.931 154.188 274.568C153.185 274.184 152.012 273.992 150.668 273.992C149.111 273.992 147.756 274.269 146.604 274.824C145.473 275.379 144.599 276.179 143.98 277.224C143.383 278.269 143.084 279.528 143.084 281C143.084 282.472 143.383 283.731 143.98 284.776C144.599 285.821 145.473 286.621 146.604 287.176C147.756 287.731 149.111 288.008 150.668 288.008C152.033 288.008 153.217 287.827 154.22 287.464C155.244 287.08 156.065 286.536 156.684 285.832C157.324 285.128 157.751 284.285 157.964 283.304H164.524C164.268 285.331 163.511 287.112 162.252 288.648C161.015 290.184 159.393 291.379 157.388 292.232C155.404 293.085 153.153 293.512 150.636 293.512ZM140.076 283.208V278.792H154.668V283.208H140.076ZM181.177 269C183.182 269 184.91 269.341 186.361 270.024C187.833 270.707 188.953 271.677 189.721 272.936C190.489 274.173 190.873 275.624 190.873 277.288C190.873 278.931 190.489 280.381 189.721 281.64C188.953 282.877 187.833 283.837 186.361 284.52C184.91 285.203 183.182 285.544 181.177 285.544H170.777V280.232H180.761C181.828 280.232 182.66 279.976 183.257 279.464C183.854 278.931 184.153 278.205 184.153 277.288C184.153 276.349 183.854 275.624 183.257 275.112C182.66 274.579 181.828 274.312 180.761 274.312H171.353L174.329 271.24V293H167.705V269H181.177ZM193.767 293V269H200.295V289.512L198.471 289.096L212.071 269H220.743V293H214.183V272.104L216.039 272.52L202.183 293H193.767Z" fill="white"/>
<path d="M1440.5 574.5V494H1121.5V439.5H1219V413H1006.5V361H1041.5V319.5H1440V182.5H1018V128H1125.78L1112 103H968.5V45H1440V0.5M0 0V135.769H371L391.5 177.5H411.5L426.5 215.5H470.5V271H259.786V311.5H0V407.538H388.5L411.797 503.5H0V573.5" stroke="white" stroke-width="2"/>
<path d="M1092.55 352.952C1092.32 355.064 1091.59 356.92 1090.38 358.52C1089.16 360.099 1087.56 361.325 1085.58 362.2C1083.61 363.075 1081.35 363.512 1078.79 363.512C1076 363.512 1073.55 362.989 1071.46 361.944C1069.37 360.899 1067.74 359.437 1066.57 357.56C1065.42 355.683 1064.84 353.496 1064.84 351C1064.84 348.504 1065.42 346.317 1066.57 344.44C1067.74 342.563 1069.37 341.101 1071.46 340.056C1073.55 339.011 1076 338.488 1078.79 338.488C1081.35 338.488 1083.61 338.925 1085.58 339.8C1087.56 340.675 1089.16 341.912 1090.38 343.512C1091.59 345.091 1092.32 346.936 1092.55 349.048H1085.9C1085.68 348.024 1085.27 347.16 1084.65 346.456C1084.03 345.731 1083.22 345.176 1082.22 344.792C1081.23 344.408 1080.09 344.216 1078.79 344.216C1077.3 344.216 1076.01 344.493 1074.92 345.048C1073.83 345.581 1073 346.36 1072.42 347.384C1071.85 348.387 1071.56 349.592 1071.56 351C1071.56 352.408 1071.85 353.624 1072.42 354.648C1073 355.651 1073.83 356.429 1074.92 356.984C1076.01 357.517 1077.3 357.784 1078.79 357.784C1080.09 357.784 1081.23 357.603 1082.22 357.24C1083.22 356.877 1084.03 356.333 1084.65 355.608C1085.27 354.883 1085.68 353.997 1085.9 352.952H1092.55ZM1111.9 351.256L1112.45 350.008C1114.3 350.051 1115.83 350.339 1117.02 350.872C1118.24 351.384 1119.14 352.109 1119.74 353.048C1120.34 353.965 1120.64 355.032 1120.64 356.248C1120.64 357.549 1120.34 358.712 1119.74 359.736C1119.14 360.739 1118.25 361.539 1117.05 362.136C1115.88 362.712 1114.41 363 1112.64 363H1094.91L1096.77 350.68L1094.91 339H1112C1114.22 339 1115.94 339.523 1117.18 340.568C1118.42 341.592 1119.04 343.021 1119.04 344.856C1119.04 345.859 1118.8 346.819 1118.33 347.736C1117.86 348.653 1117.11 349.432 1116.06 350.072C1115.04 350.691 1113.65 351.085 1111.9 351.256ZM1101.47 361.464L1098.91 358.36H1110.85C1111.81 358.36 1112.55 358.125 1113.09 357.656C1113.62 357.187 1113.89 356.536 1113.89 355.704C1113.89 354.872 1113.6 354.211 1113.02 353.72C1112.45 353.208 1111.59 352.952 1110.46 352.952H1100.61V348.408H1109.57C1110.33 348.408 1110.97 348.184 1111.49 347.736C1112.02 347.267 1112.29 346.637 1112.29 345.848C1112.29 345.208 1112.06 344.685 1111.61 344.28C1111.17 343.853 1110.53 343.64 1109.69 343.64H1098.94L1101.47 340.536L1103.1 350.68L1101.47 361.464ZM1123.9 339H1130.52V363H1123.9V339ZM1142.51 341.912H1149.17V363H1142.51V341.912ZM1133.36 339H1158.32V344.888H1133.36V339ZM1170.81 355.768C1167.4 355.768 1164.78 354.883 1162.97 353.112C1161.18 351.32 1160.28 348.739 1160.28 345.368V339H1166.91V344.824C1166.91 346.509 1167.36 347.779 1168.28 348.632C1169.2 349.485 1170.57 349.912 1172.41 349.912C1173.48 349.912 1174.6 349.795 1175.77 349.56C1176.94 349.304 1178.12 348.941 1179.29 348.472L1179.67 353.784C1178.39 354.424 1177 354.915 1175.48 355.256C1173.97 355.597 1172.41 355.768 1170.81 355.768ZM1178.43 363V339H1185.08V363H1178.43ZM1210.03 348.6V353.4H1192.47V348.6H1210.03ZM1196.98 351L1195.41 360.632L1192.72 357.624H1211.09V363H1188.79L1190.61 351L1188.79 339H1210.93V344.376H1192.72L1195.41 341.368L1196.98 351ZM1228.4 339C1230.4 339 1232.13 339.341 1233.58 340.024C1235.06 340.707 1236.18 341.677 1236.94 342.936C1237.71 344.173 1238.1 345.624 1238.1 347.288C1238.1 348.931 1237.71 350.381 1236.94 351.64C1236.18 352.877 1235.06 353.837 1233.58 354.52C1232.13 355.203 1230.4 355.544 1228.4 355.544H1218V350.232H1227.98C1229.05 350.232 1229.88 349.976 1230.48 349.464C1231.08 348.931 1231.38 348.205 1231.38 347.288C1231.38 346.349 1231.08 345.624 1230.48 345.112C1229.88 344.579 1229.05 344.312 1227.98 344.312H1218.58L1221.55 341.24V363H1214.93V339H1228.4ZM1242.91 358.392V353.048H1259.46V358.392H1242.91ZM1255.68 339L1266.59 363H1259.52L1250.37 341.816H1252.29L1243.1 363H1236.03L1246.94 339H1255.68ZM1303.94 339V363H1297.63V341.368L1299.04 341.528L1289.76 363H1283.04L1273.73 341.592L1275.17 341.432V363H1268.87V339H1279.11L1287.71 359.608H1285.15L1293.7 339H1303.94ZM1307.34 367.736L1310.64 360.824L1310.99 363.224C1310.3 363.224 1309.69 363.064 1309.13 362.744C1308.58 362.424 1308.13 361.987 1307.79 361.432C1307.47 360.877 1307.31 360.269 1307.31 359.608C1307.31 358.925 1307.47 358.317 1307.79 357.784C1308.13 357.229 1308.58 356.792 1309.13 356.472C1309.69 356.152 1310.3 355.992 1310.99 355.992C1311.69 355.992 1312.32 356.152 1312.88 356.472C1313.43 356.792 1313.87 357.24 1314.19 357.816C1314.51 358.371 1314.67 359 1314.67 359.704C1314.67 360.344 1314.51 361.027 1314.19 361.752C1313.89 362.477 1313.37 363.405 1312.62 364.536L1310.51 367.736H1307.34ZM1364.62 339V359.864L1361.78 357.112H1368.78V367.832H1362.54V360.6L1365.55 363H1325.62V339H1332.24V359.864L1329.39 357.112H1344.66L1341.81 359.864V339H1348.43V359.864L1345.58 357.112H1360.85L1358 359.864V339H1364.62ZM1384.55 363.512C1381.71 363.512 1379.22 362.989 1377.06 361.944C1374.93 360.899 1373.26 359.437 1372.07 357.56C1370.9 355.683 1370.31 353.496 1370.31 351C1370.31 348.504 1370.9 346.317 1372.07 344.44C1373.26 342.563 1374.93 341.101 1377.06 340.056C1379.22 339.011 1381.71 338.488 1384.55 338.488C1387.41 338.488 1389.9 339.011 1392.04 340.056C1394.17 341.101 1395.83 342.563 1397.03 344.44C1398.22 346.317 1398.82 348.504 1398.82 351C1398.82 353.496 1398.22 355.683 1397.03 357.56C1395.83 359.437 1394.17 360.899 1392.04 361.944C1389.9 362.989 1387.41 363.512 1384.55 363.512ZM1384.55 357.592C1386.11 357.592 1387.45 357.325 1388.58 356.792C1389.71 356.259 1390.58 355.501 1391.17 354.52C1391.79 353.539 1392.1 352.365 1392.1 351C1392.1 349.635 1391.79 348.461 1391.17 347.48C1390.58 346.499 1389.71 345.741 1388.58 345.208C1387.45 344.675 1386.11 344.408 1384.55 344.408C1383.01 344.408 1381.68 344.675 1380.55 345.208C1379.42 345.741 1378.54 346.499 1377.93 347.48C1377.31 348.461 1377 349.635 1377 351C1377 352.365 1377.31 353.539 1377.93 354.52C1378.54 355.501 1379.42 356.259 1380.55 356.792C1381.68 357.325 1383.01 357.592 1384.55 357.592ZM1071.48 395.112L1068.5 398.12V377H1075.12V401H1036.12V377H1042.74V398.12L1039.76 395.112H1055L1052.31 398.12V377H1058.93V398.12L1056.15 395.112H1071.48ZM1085.28 401L1089.6 393.48H1089.7L1099.07 377H1106.27L1092.48 401H1085.28ZM1089.5 397.768L1077.5 377H1084.83L1094.21 393.32L1089.5 397.768ZM1108.52 401V377H1115.11V395.72L1113.35 394.344L1126.95 377H1133.96L1114.51 401H1108.52ZM1119.98 389.544L1124.84 385.512L1134.28 401H1126.76L1119.98 389.544ZM1141.04 396.392V391.048H1157.58V396.392H1141.04ZM1153.81 377L1164.72 401H1157.65L1148.49 379.816H1150.41L1141.23 401H1134.16L1145.07 377H1153.81ZM1190.73 401.512C1187.92 401.512 1185.45 400.989 1183.34 399.944C1181.23 398.899 1179.59 397.437 1178.41 395.56C1177.26 393.683 1176.69 391.496 1176.69 389C1176.69 386.504 1177.26 384.317 1178.41 382.44C1179.59 380.563 1181.23 379.101 1183.34 378.056C1185.45 377.011 1187.92 376.488 1190.73 376.488C1193.57 376.488 1196.05 377.011 1198.16 378.056C1200.27 379.101 1201.91 380.563 1203.09 382.44C1204.28 384.317 1204.88 386.504 1204.88 389C1204.88 391.496 1204.28 393.683 1203.09 395.56C1201.91 397.437 1200.27 398.899 1198.16 399.944C1196.05 400.989 1193.57 401.512 1190.73 401.512ZM1166.99 401V377H1173.61V401H1166.99ZM1170.7 391.752V385.864H1180.11V391.752H1170.7ZM1190.73 395.592C1192.27 395.592 1193.59 395.325 1194.7 394.792C1195.81 394.259 1196.66 393.501 1197.26 392.52C1197.86 391.517 1198.16 390.344 1198.16 389C1198.16 387.635 1197.86 386.461 1197.26 385.48C1196.66 384.499 1195.81 383.741 1194.7 383.208C1193.59 382.675 1192.27 382.408 1190.73 382.408C1189.22 382.408 1187.91 382.675 1186.8 383.208C1185.69 383.741 1184.84 384.499 1184.24 385.48C1183.64 386.461 1183.34 387.635 1183.34 389C1183.34 390.344 1183.64 391.517 1184.24 392.52C1184.84 393.501 1185.69 394.259 1186.8 394.792C1187.91 395.325 1189.22 395.592 1190.73 395.592ZM1214.82 379.912H1221.48V401H1214.82V379.912ZM1205.67 377H1230.63V382.888H1205.67V377ZM1233.49 401V377H1240.11V398.76L1237.14 395.784H1246.48C1247.57 395.784 1248.41 395.507 1249.01 394.952C1249.63 394.397 1249.94 393.651 1249.94 392.712C1249.94 391.752 1249.63 391.005 1249.01 390.472C1248.41 389.939 1247.57 389.672 1246.48 389.672H1236.56V384.424H1246.9C1248.92 384.424 1250.66 384.776 1252.11 385.48C1253.59 386.163 1254.71 387.123 1255.47 388.36C1256.26 389.597 1256.66 391.048 1256.66 392.712C1256.66 394.376 1256.26 395.837 1255.47 397.096C1254.71 398.333 1253.59 399.293 1252.11 399.976C1250.66 400.659 1248.92 401 1246.9 401H1233.49ZM1277.82 401.512C1275.28 401.512 1273.05 401.16 1271.13 400.456C1269.23 399.752 1267.75 398.749 1266.68 397.448C1265.64 396.147 1265.07 394.621 1264.99 392.872H1271.64C1271.79 394.024 1272.39 394.909 1273.43 395.528C1274.48 396.125 1275.94 396.424 1277.82 396.424C1279.59 396.424 1280.95 396.189 1281.91 395.72C1282.87 395.229 1283.35 394.504 1283.35 393.544C1283.35 392.712 1282.94 392.104 1282.11 391.72C1281.29 391.336 1279.95 391.144 1278.07 391.144H1273.69V386.76H1277.98C1279.09 386.76 1279.99 386.664 1280.7 386.472C1281.4 386.259 1281.92 385.96 1282.27 385.576C1282.63 385.192 1282.81 384.744 1282.81 384.232C1282.81 383.656 1282.61 383.176 1282.2 382.792C1281.82 382.387 1281.25 382.088 1280.51 381.896C1279.78 381.683 1278.89 381.576 1277.85 381.576C1276.12 381.576 1274.77 381.875 1273.79 382.472C1272.8 383.048 1272.23 383.88 1272.06 384.968H1265.47C1265.59 383.389 1266.15 381.96 1267.13 380.68C1268.13 379.4 1269.56 378.387 1271.42 377.64C1273.27 376.872 1275.52 376.488 1278.17 376.488C1280.45 376.488 1282.45 376.776 1284.15 377.352C1285.86 377.907 1287.18 378.696 1288.12 379.72C1289.08 380.723 1289.56 381.896 1289.56 383.24C1289.56 384.328 1289.23 385.32 1288.57 386.216C1287.93 387.112 1286.91 387.827 1285.5 388.36C1284.11 388.893 1282.31 389.16 1280.09 389.16V388.488C1282.18 388.381 1283.97 388.52 1285.47 388.904C1286.98 389.288 1288.14 389.907 1288.95 390.76C1289.76 391.613 1290.17 392.712 1290.17 394.056C1290.17 395.507 1289.69 396.797 1288.73 397.928C1287.77 399.037 1286.37 399.912 1284.54 400.552C1282.7 401.192 1280.46 401.512 1277.82 401.512ZM1328.72 377V401H1322.41V379.368L1323.82 379.528L1314.54 401H1307.82L1298.51 379.592L1299.95 379.432V401H1293.65V377H1303.89L1312.49 397.608H1309.93L1318.48 377H1328.72ZM1333.21 377H1339.83V401H1333.21V377ZM1344.3 377H1350.93V401H1344.3V377ZM1363.18 377H1369.84V401H1363.18V377ZM1348.01 385.864H1365.93V391.752H1348.01V385.864ZM1380 401L1384.32 393.48H1384.41L1393.79 377H1400.99L1387.2 401H1380ZM1384.22 397.768L1372.22 377H1379.55L1388.93 393.32L1384.22 397.768ZM1275.77 428.952C1275.54 431.064 1274.81 432.92 1273.6 434.52C1272.38 436.099 1270.78 437.325 1268.8 438.2C1266.83 439.075 1264.57 439.512 1262.01 439.512C1259.22 439.512 1256.77 438.989 1254.68 437.944C1252.59 436.899 1250.96 435.437 1249.79 433.56C1248.64 431.683 1248.06 429.496 1248.06 427C1248.06 424.504 1248.64 422.317 1249.79 420.44C1250.96 418.563 1252.59 417.101 1254.68 416.056C1256.77 415.011 1259.22 414.488 1262.01 414.488C1264.57 414.488 1266.83 414.925 1268.8 415.8C1270.78 416.675 1272.38 417.912 1273.6 419.512C1274.81 421.091 1275.54 422.936 1275.77 425.048H1269.12C1268.9 424.024 1268.49 423.16 1267.87 422.456C1267.25 421.731 1266.44 421.176 1265.44 420.792C1264.45 420.408 1263.31 420.216 1262.01 420.216C1260.52 420.216 1259.23 420.493 1258.14 421.048C1257.05 421.581 1256.22 422.36 1255.64 423.384C1255.07 424.387 1254.78 425.592 1254.78 427C1254.78 428.408 1255.07 429.624 1255.64 430.648C1256.22 431.651 1257.05 432.429 1258.14 432.984C1259.23 433.517 1260.52 433.784 1262.01 433.784C1263.31 433.784 1264.45 433.603 1265.44 433.24C1266.44 432.877 1267.25 432.333 1267.87 431.608C1268.49 430.883 1268.9 429.997 1269.12 428.952H1275.77ZM1297.71 435.352V430.104H1305.58C1306.46 430.104 1307.2 429.965 1307.82 429.688C1308.44 429.389 1308.92 428.963 1309.26 428.408C1309.6 427.853 1309.77 427.192 1309.77 426.424C1309.77 425.656 1309.6 424.995 1309.26 424.44C1308.92 423.885 1308.44 423.469 1307.82 423.192C1307.2 422.893 1306.46 422.744 1305.58 422.744H1297.74V417.496H1305.97C1308.14 417.496 1310.01 417.869 1311.57 418.616C1313.14 419.363 1314.35 420.397 1315.18 421.72C1316.04 423.043 1316.46 424.611 1316.46 426.424C1316.46 428.216 1316.04 429.784 1315.18 431.128C1314.35 432.451 1313.14 433.485 1311.57 434.232C1310.01 434.979 1308.14 435.352 1305.97 435.352H1297.71ZM1288.08 435.352C1285.9 435.352 1284.02 434.979 1282.45 434.232C1280.89 433.485 1279.68 432.451 1278.83 431.128C1278 429.784 1277.58 428.216 1277.58 426.424C1277.58 424.611 1278 423.043 1278.83 421.72C1279.68 420.397 1280.89 419.363 1282.45 418.616C1284.02 417.869 1285.9 417.496 1288.08 417.496H1296.27V422.744H1288.43C1287.58 422.744 1286.84 422.893 1286.22 423.192C1285.6 423.469 1285.12 423.885 1284.78 424.44C1284.44 424.995 1284.27 425.656 1284.27 426.424C1284.27 427.192 1284.44 427.853 1284.78 428.408C1285.12 428.963 1285.6 429.389 1286.22 429.688C1286.84 429.965 1287.58 430.104 1288.43 430.104H1296.3V435.352H1288.08ZM1293.71 439.8V414.2H1300.33V439.8H1293.71ZM1339.81 424.6V429.4H1322.25V424.6H1339.81ZM1326.76 427L1325.19 436.632L1322.5 433.624H1340.87V439H1318.57L1320.39 427L1318.57 415H1340.71V420.376H1322.5L1325.19 417.368L1326.76 427ZM1358.18 415C1360.19 415 1361.91 415.341 1363.36 416.024C1364.84 416.707 1365.96 417.677 1366.72 418.936C1367.49 420.173 1367.88 421.624 1367.88 423.288C1367.88 424.931 1367.49 426.381 1366.72 427.64C1365.96 428.877 1364.84 429.837 1363.36 430.52C1361.91 431.203 1360.19 431.544 1358.18 431.544H1347.78V426.232H1357.76C1358.83 426.232 1359.66 425.976 1360.26 425.464C1360.86 424.931 1361.16 424.205 1361.16 423.288C1361.16 422.349 1360.86 421.624 1360.26 421.112C1359.66 420.579 1358.83 420.312 1357.76 420.312H1348.36L1351.33 417.24V439H1344.71V415H1358.18ZM1370.77 439V415H1377.3V435.512L1375.48 435.096L1389.08 415H1397.75V439H1391.19V418.104L1393.04 418.52L1379.19 439H1370.77ZM1142.67 481.832V471.144H1147.85L1149.97 471.208H1166.61L1168.27 471.144H1175.25V481.832H1169.04V477H1148.88V481.832H1142.67ZM1147.66 453H1171.12V475.144H1164.46V455.784L1167.47 458.792H1151.18L1153.93 456.584C1154.11 457.565 1154.2 458.515 1154.22 459.432C1154.27 460.349 1154.29 461.224 1154.29 462.056C1154.29 464.552 1154.06 466.653 1153.61 468.36C1153.19 470.067 1152.54 471.357 1151.66 472.232C1150.81 473.107 1149.73 473.544 1148.43 473.544L1145.65 471.24C1146.5 470.237 1147.13 468.872 1147.53 467.144C1147.94 465.395 1148.14 463.24 1148.14 460.68C1148.14 459.507 1148.1 458.28 1148.01 457C1147.93 455.72 1147.81 454.387 1147.66 453ZM1178.43 453H1185.05V477H1178.43V453ZM1207.95 463.656V468.36H1197.94L1197.91 468.232C1196.07 468.232 1194.46 467.923 1193.07 467.304C1191.71 466.685 1190.64 465.811 1189.87 464.68C1189.13 463.549 1188.75 462.227 1188.75 460.712C1188.75 459.155 1189.13 457.811 1189.87 456.68C1190.64 455.528 1191.71 454.632 1193.07 453.992C1194.46 453.331 1196.07 453 1197.91 453H1212.56V477H1205.91V454.76L1208.88 457.736H1198.87C1197.78 457.736 1196.92 458.003 1196.31 458.536C1195.71 459.048 1195.41 459.773 1195.41 460.712C1195.41 461.629 1195.71 462.355 1196.31 462.888C1196.92 463.4 1197.78 463.656 1198.87 463.656H1207.95ZM1203.99 465.768L1195.79 477H1188.11L1196.56 465.768H1203.99ZM1221.02 453H1244.57V477H1237.92V455.88L1240.93 458.888H1224.73L1227.52 456.68C1227.69 458.088 1227.81 459.443 1227.87 460.744C1227.93 462.024 1227.97 463.24 1227.97 464.392C1227.97 467.464 1227.69 469.971 1227.13 471.912C1226.58 473.832 1225.7 475.24 1224.51 476.136C1223.31 477.032 1221.77 477.48 1219.87 477.48C1219.04 477.48 1218.22 477.395 1217.41 477.224C1216.62 477.053 1215.89 476.797 1215.23 476.456V470.952C1216.17 471.315 1217.03 471.496 1217.82 471.496C1219.21 471.496 1220.2 470.867 1220.8 469.608C1221.42 468.349 1221.73 466.291 1221.73 463.432C1221.73 462.045 1221.66 460.488 1221.53 458.76C1221.43 457.032 1221.26 455.112 1221.02 453ZM1249.02 477V453H1255.65V474.76L1252.67 471.784H1262.01C1263.1 471.784 1263.94 471.507 1264.54 470.952C1265.16 470.397 1265.47 469.651 1265.47 468.712C1265.47 467.752 1265.16 467.005 1264.54 466.472C1263.94 465.939 1263.1 465.672 1262.01 465.672H1252.09V460.424H1262.43C1264.46 460.424 1266.19 460.776 1267.65 461.48C1269.12 462.163 1270.24 463.123 1271.01 464.36C1271.79 465.597 1272.19 467.048 1272.19 468.712C1272.19 470.376 1271.79 471.837 1271.01 473.096C1270.24 474.333 1269.12 475.293 1267.65 475.976C1266.19 476.659 1264.46 477 1262.43 477H1249.02ZM1275.08 453H1281.71V477H1275.08V453ZM1293.96 453H1300.62V477H1293.96V453ZM1278.8 461.864H1296.72V467.752H1278.8V461.864ZM1318.3 477.512C1315.46 477.512 1312.97 476.989 1310.81 475.944C1308.68 474.899 1307.01 473.437 1305.82 471.56C1304.65 469.683 1304.06 467.496 1304.06 465C1304.06 462.504 1304.65 460.317 1305.82 458.44C1307.01 456.563 1308.68 455.101 1310.81 454.056C1312.97 453.011 1315.46 452.488 1318.3 452.488C1321.16 452.488 1323.65 453.011 1325.79 454.056C1327.92 455.101 1329.58 456.563 1330.78 458.44C1331.97 460.317 1332.57 462.504 1332.57 465C1332.57 467.496 1331.97 469.683 1330.78 471.56C1329.58 473.437 1327.92 474.899 1325.79 475.944C1323.65 476.989 1321.16 477.512 1318.3 477.512ZM1318.3 471.592C1319.86 471.592 1321.2 471.325 1322.33 470.792C1323.46 470.259 1324.33 469.501 1324.92 468.52C1325.54 467.539 1325.85 466.365 1325.85 465C1325.85 463.635 1325.54 462.461 1324.92 461.48C1324.33 460.499 1323.46 459.741 1322.33 459.208C1321.2 458.675 1319.86 458.408 1318.3 458.408C1316.76 458.408 1315.43 458.675 1314.3 459.208C1313.17 459.741 1312.29 460.499 1311.68 461.48C1311.06 462.461 1310.75 463.635 1310.75 465C1310.75 466.365 1311.06 467.539 1311.68 468.52C1312.29 469.501 1313.17 470.259 1314.3 470.792C1315.43 471.325 1316.76 471.592 1318.3 471.592ZM1362.65 466.952C1362.41 469.064 1361.69 470.92 1360.47 472.52C1359.25 474.099 1357.65 475.325 1355.67 476.2C1353.71 477.075 1351.45 477.512 1348.89 477.512C1346.09 477.512 1343.65 476.989 1341.56 475.944C1339.47 474.899 1337.84 473.437 1336.66 471.56C1335.51 469.683 1334.93 467.496 1334.93 465C1334.93 462.504 1335.51 460.317 1336.66 458.44C1337.84 456.563 1339.47 455.101 1341.56 454.056C1343.65 453.011 1346.09 452.488 1348.89 452.488C1351.45 452.488 1353.71 452.925 1355.67 453.8C1357.65 454.675 1359.25 455.912 1360.47 457.512C1361.69 459.091 1362.41 460.936 1362.65 463.048H1355.99C1355.78 462.024 1355.36 461.16 1354.74 460.456C1354.12 459.731 1353.31 459.176 1352.31 458.792C1351.33 458.408 1350.19 458.216 1348.89 458.216C1347.39 458.216 1346.1 458.493 1345.01 459.048C1343.93 459.581 1343.09 460.36 1342.52 461.384C1341.94 462.387 1341.65 463.592 1341.65 465C1341.65 466.408 1341.94 467.624 1342.52 468.648C1343.09 469.651 1343.93 470.429 1345.01 470.984C1346.1 471.517 1347.39 471.784 1348.89 471.784C1350.19 471.784 1351.33 471.603 1352.31 471.24C1353.31 470.877 1354.12 470.333 1354.74 469.608C1355.36 468.883 1355.78 467.997 1355.99 466.952H1362.65ZM1372.48 455.912H1379.13V477H1372.48V455.912ZM1363.33 453H1388.29V458.888H1363.33V453ZM1391.15 453H1397.77V477H1391.15V453Z" fill="white"/>
<path d="M70.896 439.952C70.6613 442.064 69.936 443.92 68.72 445.52C67.504 447.099 65.904 448.325 63.92 449.2C61.9573 450.075 59.696 450.512 57.136 450.512C54.3413 450.512 51.8987 449.989 49.808 448.944C47.7173 447.899 46.0853 446.437 44.912 444.56C43.76 442.683 43.184 440.496 43.184 438C43.184 435.504 43.76 433.317 44.912 431.44C46.0853 429.563 47.7173 428.101 49.808 427.056C51.8987 426.011 54.3413 425.488 57.136 425.488C59.696 425.488 61.9573 425.925 63.92 426.8C65.904 427.675 67.504 428.912 68.72 430.512C69.936 432.091 70.6613 433.936 70.896 436.048H64.24C64.0267 435.024 63.6107 434.16 62.992 433.456C62.3733 432.731 61.5627 432.176 60.56 431.792C59.5787 431.408 58.4373 431.216 57.136 431.216C55.6427 431.216 54.352 431.493 53.264 432.048C52.176 432.581 51.344 433.36 50.768 434.384C50.192 435.387 49.904 436.592 49.904 438C49.904 439.408 50.192 440.624 50.768 441.648C51.344 442.651 52.176 443.429 53.264 443.984C54.352 444.517 55.6427 444.784 57.136 444.784C58.4373 444.784 59.5787 444.603 60.56 444.24C61.5627 443.877 62.3733 443.333 62.992 442.608C63.6107 441.883 64.0267 440.997 64.24 439.952H70.896ZM99.523 426V450H92.899V428.88L95.875 431.888H77.763L80.739 428.88V450H74.115V426H99.523ZM124.502 435.6V440.4H106.934V435.6H124.502ZM111.446 438L109.878 447.632L107.19 444.624H125.558V450H103.254L105.078 438L103.254 426H125.398V431.376H107.19L109.878 428.368L111.446 438ZM154.548 426V446.288L152.18 444.112H158.708V454.832H152.468V448.752L154.292 450H129.396V426H136.02V446.288L133.876 444.112H150.26L147.924 446.288V426H154.548ZM161.865 426H168.489V450H161.865V426ZM177.631 445.392V440.048H194.175V445.392H177.631ZM190.399 426L201.311 450H194.239L185.087 428.816H187.007L177.823 450H170.751L181.663 426H190.399ZM207.584 426H231.136V450H224.48V428.88L227.488 431.888H211.296L214.08 429.68C214.25 431.088 214.368 432.443 214.432 433.744C214.496 435.024 214.528 436.24 214.528 437.392C214.528 440.464 214.25 442.971 213.696 444.912C213.141 446.832 212.266 448.24 211.072 449.136C209.877 450.032 208.33 450.48 206.432 450.48C205.6 450.48 204.778 450.395 203.968 450.224C203.178 450.053 202.453 449.797 201.792 449.456V443.952C202.73 444.315 203.594 444.496 204.384 444.496C205.77 444.496 206.762 443.867 207.36 442.608C207.978 441.349 208.288 439.291 208.288 436.432C208.288 435.045 208.224 433.488 208.096 431.76C207.989 430.032 207.818 428.112 207.584 426ZM235.584 426H242.208V450H235.584V426ZM273.334 439.952C273.099 442.064 272.374 443.92 271.158 445.52C269.942 447.099 268.342 448.325 266.358 449.2C264.395 450.075 262.134 450.512 259.574 450.512C256.779 450.512 254.336 449.989 252.246 448.944C250.155 447.899 248.523 446.437 247.35 444.56C246.198 442.683 245.622 440.496 245.622 438C245.622 435.504 246.198 433.317 247.35 431.44C248.523 429.563 250.155 428.101 252.246 427.056C254.336 426.011 256.779 425.488 259.574 425.488C262.134 425.488 264.395 425.925 266.358 426.8C268.342 427.675 269.942 428.912 271.158 430.512C272.374 432.091 273.099 433.936 273.334 436.048H266.678C266.464 435.024 266.048 434.16 265.43 433.456C264.811 432.731 264 432.176 262.998 431.792C262.016 431.408 260.875 431.216 259.574 431.216C258.08 431.216 256.79 431.493 255.702 432.048C254.614 432.581 253.782 433.36 253.206 434.384C252.63 435.387 252.342 436.592 252.342 438C252.342 439.408 252.63 440.624 253.206 441.648C253.782 442.651 254.614 443.429 255.702 443.984C256.79 444.517 258.08 444.784 259.574 444.784C260.875 444.784 262.016 444.603 262.998 444.24C264 443.877 264.811 443.333 265.43 442.608C266.048 441.883 266.464 440.997 266.678 439.952H273.334ZM283.166 428.912H289.822V450H283.166V428.912ZM274.014 426H298.974V431.888H274.014V426ZM302.662 445.392V440.048H319.206V445.392H302.662ZM315.43 426L326.342 450H319.27L310.118 428.816H312.038L302.854 450H295.782L306.694 426H315.43ZM363.687 426V450H357.383V428.368L358.791 428.528L349.511 450H342.791L333.479 428.592L334.919 428.432V450H328.615V426H338.855L347.463 446.608H344.903L353.447 426H363.687ZM42.608 492.832V482.144H47.792L49.904 482.208H66.544L68.208 482.144H75.184V492.832H68.976V488H48.816V492.832H42.608ZM47.6 464H71.056V486.144H64.4V466.784L67.408 469.792H51.12L53.872 467.584C54.0427 468.565 54.1387 469.515 54.16 470.432C54.2027 471.349 54.224 472.224 54.224 473.056C54.224 475.552 54 477.653 53.552 479.36C53.1253 481.067 52.4747 482.357 51.6 483.232C50.7467 484.107 49.6693 484.544 48.368 484.544L45.584 482.24C46.4373 481.237 47.0667 479.872 47.472 478.144C47.8773 476.395 48.08 474.24 48.08 471.68C48.08 470.507 48.0373 469.28 47.952 468C47.8667 466.72 47.7493 465.387 47.6 464ZM82.365 464H105.917V488H99.261V466.88L102.269 469.888H86.077L88.861 467.68C89.0317 469.088 89.149 470.443 89.213 471.744C89.277 473.024 89.309 474.24 89.309 475.392C89.309 478.464 89.0317 480.971 88.477 482.912C87.9223 484.832 87.0477 486.24 85.853 487.136C84.6583 488.032 83.1117 488.48 81.213 488.48C80.381 488.48 79.5597 488.395 78.749 488.224C77.9597 488.053 77.2343 487.797 76.573 487.456V481.952C77.5117 482.315 78.3757 482.496 79.165 482.496C80.5517 482.496 81.5437 481.867 82.141 480.608C82.7597 479.349 83.069 477.291 83.069 474.432C83.069 473.045 83.005 471.488 82.877 469.76C82.7703 468.032 82.5997 466.112 82.365 464ZM128.797 474.656V479.36H118.781L118.749 479.232C116.914 479.232 115.304 478.923 113.917 478.304C112.552 477.685 111.485 476.811 110.717 475.68C109.97 474.549 109.597 473.227 109.597 471.712C109.597 470.155 109.97 468.811 110.717 467.68C111.485 466.528 112.552 465.632 113.917 464.992C115.304 464.331 116.914 464 118.749 464H133.405V488H126.749V465.76L129.725 468.736H119.709C118.621 468.736 117.768 469.003 117.149 469.536C116.552 470.048 116.253 470.773 116.253 471.712C116.253 472.629 116.552 473.355 117.149 473.888C117.768 474.4 118.621 474.656 119.709 474.656H128.797ZM124.829 476.768L116.637 488H108.957L117.405 476.768H124.829ZM159.275 464C161.28 464 163.008 464.341 164.459 465.024C165.931 465.707 167.051 466.677 167.819 467.936C168.587 469.173 168.971 470.624 168.971 472.288C168.971 473.931 168.587 475.381 167.819 476.64C167.051 477.877 165.931 478.837 164.459 479.52C163.008 480.203 161.28 480.544 159.275 480.544H148.875V475.232H158.859C159.925 475.232 160.757 474.976 161.355 474.464C161.952 473.931 162.251 473.205 162.251 472.288C162.251 471.349 161.952 470.624 161.355 470.112C160.757 469.579 159.925 469.312 158.859 469.312H149.451L152.427 466.24V488H145.803V464H159.275ZM185.049 488.512C182.212 488.512 179.716 487.989 177.561 486.944C175.428 485.899 173.764 484.437 172.569 482.56C171.396 480.683 170.809 478.496 170.809 476C170.809 473.504 171.396 471.317 172.569 469.44C173.764 467.563 175.428 466.101 177.561 465.056C179.716 464.011 182.212 463.488 185.049 463.488C187.908 463.488 190.404 464.011 192.537 465.056C194.67 466.101 196.334 467.563 197.529 469.44C198.724 471.317 199.321 473.504 199.321 476C199.321 478.496 198.724 480.683 197.529 482.56C196.334 484.437 194.67 485.899 192.537 486.944C190.404 487.989 187.908 488.512 185.049 488.512ZM185.049 482.592C186.606 482.592 187.95 482.325 189.081 481.792C190.212 481.259 191.076 480.501 191.673 479.52C192.292 478.539 192.601 477.365 192.601 476C192.601 474.635 192.292 473.461 191.673 472.48C191.076 471.499 190.212 470.741 189.081 470.208C187.95 469.675 186.606 469.408 185.049 469.408C183.513 469.408 182.18 469.675 181.049 470.208C179.918 470.741 179.044 471.499 178.425 472.48C177.806 473.461 177.497 474.635 177.497 476C177.497 477.365 177.806 478.539 178.425 479.52C179.044 480.501 179.918 481.259 181.049 481.792C182.18 482.325 183.513 482.592 185.049 482.592ZM214.036 488.512C211.497 488.512 209.268 488.16 207.348 487.456C205.449 486.752 203.967 485.749 202.9 484.448C201.855 483.147 201.289 481.621 201.204 479.872H207.86C208.009 481.024 208.607 481.909 209.652 482.528C210.697 483.125 212.159 483.424 214.036 483.424C215.807 483.424 217.172 483.189 218.132 482.72C219.092 482.229 219.572 481.504 219.572 480.544C219.572 479.712 219.156 479.104 218.324 478.72C217.513 478.336 216.169 478.144 214.292 478.144H209.908V473.76H214.196C215.305 473.76 216.212 473.664 216.916 473.472C217.62 473.259 218.143 472.96 218.484 472.576C218.847 472.192 219.028 471.744 219.028 471.232C219.028 470.656 218.825 470.176 218.42 469.792C218.036 469.387 217.471 469.088 216.724 468.896C215.999 468.683 215.113 468.576 214.068 468.576C212.34 468.576 210.985 468.875 210.004 469.472C209.023 470.048 208.447 470.88 208.276 471.968H201.684C201.812 470.389 202.367 468.96 203.348 467.68C204.351 466.4 205.78 465.387 207.636 464.64C209.492 463.872 211.743 463.488 214.388 463.488C216.671 463.488 218.665 463.776 220.372 464.352C222.079 464.907 223.401 465.696 224.34 466.72C225.3 467.723 225.78 468.896 225.78 470.24C225.78 471.328 225.449 472.32 224.788 473.216C224.148 474.112 223.124 474.827 221.716 475.36C220.329 475.893 218.527 476.16 216.308 476.16V475.488C218.399 475.381 220.191 475.52 221.684 475.904C223.199 476.288 224.361 476.907 225.172 477.76C225.983 478.613 226.388 479.712 226.388 481.056C226.388 482.507 225.908 483.797 224.948 484.928C223.988 486.037 222.591 486.912 220.756 487.552C218.921 488.192 216.681 488.512 214.036 488.512ZM246.121 476.256L246.665 475.008C248.521 475.051 250.046 475.339 251.241 475.872C252.457 476.384 253.364 477.109 253.961 478.048C254.558 478.965 254.857 480.032 254.857 481.248C254.857 482.549 254.558 483.712 253.961 484.736C253.364 485.739 252.468 486.539 251.273 487.136C250.1 487.712 248.628 488 246.857 488H229.129L230.985 475.68L229.129 464H246.217C248.436 464 250.164 464.523 251.401 465.568C252.638 466.592 253.257 468.021 253.257 469.856C253.257 470.859 253.022 471.819 252.553 472.736C252.084 473.653 251.326 474.432 250.281 475.072C249.257 475.691 247.87 476.085 246.121 476.256ZM235.689 486.464L233.129 483.36H245.065C246.025 483.36 246.772 483.125 247.305 482.656C247.838 482.187 248.105 481.536 248.105 480.704C248.105 479.872 247.817 479.211 247.241 478.72C246.665 478.208 245.812 477.952 244.681 477.952H234.825V473.408H243.785C244.553 473.408 245.193 473.184 245.705 472.736C246.238 472.267 246.505 471.637 246.505 470.848C246.505 470.208 246.281 469.685 245.833 469.28C245.385 468.853 244.745 468.64 243.913 468.64H233.161L235.689 465.536L237.321 475.68L235.689 486.464ZM258.115 488V464H264.643V484.512L262.819 484.096L276.419 464H285.091V488H278.531V467.104L280.387 467.52L266.531 488H258.115ZM297.104 466.912H303.76V488H297.104V466.912ZM287.952 464H312.912V469.888H287.952V464ZM315.771 488V464H322.363V482.72L320.603 481.344L334.203 464H341.211L321.755 488H315.771ZM327.227 476.544L332.091 472.512L341.531 488H334.011L327.227 476.544ZM349.279 488L353.599 480.48H353.695L363.071 464H370.271L356.479 488H349.279ZM353.503 484.768L341.503 464H348.831L358.207 480.32L353.503 484.768Z" fill="white"/>
</svg>
