<svg width="1829" height="1003" viewBox="0 0 1829 1003" fill="none" xmlns="http://www.w3.org/2000/svg">
<path  d="M1294.03 315.345L1289.75 319.669V289.309H1299.28V323.809H1243.2V289.309H1252.72V319.669L1248.45 315.345H1270.34L1266.48 319.669V289.309H1276V319.669L1272 315.345H1294.03ZM1313.88 323.809L1320.09 312.999H1320.22L1333.7 289.309H1344.05L1324.23 323.809H1313.88ZM1319.95 319.163L1302.7 289.309H1313.23L1326.71 312.769L1319.95 319.163ZM1347.29 323.809V289.309H1356.76V316.219L1354.23 314.241L1373.78 289.309H1383.86L1355.89 323.809H1347.29ZM1363.75 307.341L1370.75 301.545L1384.32 323.809H1373.51L1363.75 307.341ZM1394.03 317.185V309.503H1417.81V317.185H1394.03ZM1412.38 289.309L1428.07 323.809H1417.9L1404.75 293.357H1407.51L1394.3 323.809H1384.14L1399.82 289.309H1412.38ZM1440.73 313.413C1435.83 313.413 1432.07 312.14 1429.46 309.595C1426.89 307.019 1425.6 303.308 1425.6 298.463V289.309H1435.12V297.681C1435.12 300.103 1435.78 301.928 1437.1 303.155C1438.42 304.381 1440.4 304.995 1443.03 304.995C1444.57 304.995 1446.18 304.826 1447.86 304.489C1449.55 304.121 1451.24 303.599 1452.92 302.925L1453.48 310.561C1451.64 311.481 1449.63 312.186 1447.45 312.677C1445.27 313.167 1443.03 313.413 1440.73 313.413ZM1451.68 323.809V289.309H1461.25V323.809H1451.68ZM1474.35 317.185V309.503H1498.13V317.185H1474.35ZM1492.7 289.309L1508.39 323.809H1498.22L1485.07 293.357H1487.83L1474.62 323.809H1464.46L1480.14 289.309H1492.7ZM1562.07 289.309V323.809H1553.01V292.713L1555.03 292.943L1541.69 323.809H1532.03L1518.65 293.035L1520.72 292.805V323.809H1511.66V289.309H1526.38L1538.75 318.933H1535.07L1547.35 289.309H1562.07ZM1599.3 289.309C1602.19 289.309 1604.67 289.799 1606.75 290.781C1608.87 291.762 1610.48 293.157 1611.58 294.967C1612.69 296.745 1613.24 298.831 1613.24 301.223C1613.24 303.584 1612.69 305.669 1611.58 307.479C1610.48 309.257 1608.87 310.637 1606.75 311.619C1604.67 312.6 1602.19 313.091 1599.3 313.091H1584.35V305.455H1598.7C1600.24 305.455 1601.43 305.087 1602.29 304.351C1603.15 303.584 1603.58 302.541 1603.58 301.223C1603.58 299.873 1603.15 298.831 1602.29 298.095C1601.43 297.328 1600.24 296.945 1598.7 296.945H1585.18L1589.46 292.529V323.809H1579.94V289.309H1599.3ZM1636.35 324.545C1632.27 324.545 1628.69 323.793 1625.59 322.291C1622.52 320.788 1620.13 318.687 1618.41 315.989C1616.73 313.29 1615.88 310.147 1615.88 306.559C1615.88 302.971 1616.73 299.827 1618.41 297.129C1620.13 294.43 1622.52 292.329 1625.59 290.827C1628.69 289.324 1632.27 288.573 1636.35 288.573C1640.46 288.573 1644.05 289.324 1647.12 290.827C1650.18 292.329 1652.58 294.43 1654.29 297.129C1656.01 299.827 1656.87 302.971 1656.87 306.559C1656.87 310.147 1656.01 313.29 1654.29 315.989C1652.58 318.687 1650.18 320.788 1647.12 322.291C1644.05 323.793 1640.46 324.545 1636.35 324.545ZM1636.35 316.035C1638.59 316.035 1640.52 315.651 1642.15 314.885C1643.77 314.118 1645.02 313.029 1645.88 311.619C1646.76 310.208 1647.21 308.521 1647.21 306.559C1647.21 304.596 1646.76 302.909 1645.88 301.499C1645.02 300.088 1643.77 298.999 1642.15 298.233C1640.52 297.466 1638.59 297.083 1636.35 297.083C1634.15 297.083 1632.23 297.466 1630.6 298.233C1628.98 298.999 1627.72 300.088 1626.83 301.499C1625.94 302.909 1625.5 304.596 1625.5 306.559C1625.5 308.521 1625.94 310.208 1626.83 311.619C1627.72 313.029 1628.98 314.118 1630.6 314.885C1632.23 315.651 1634.15 316.035 1636.35 316.035ZM1667.54 302.419H1682.77C1685.68 302.419 1688.08 302.863 1689.95 303.753C1691.82 304.642 1693.21 305.899 1694.13 307.525C1695.05 309.119 1695.51 310.99 1695.51 313.137C1695.51 315.283 1695.01 317.169 1693.99 318.795C1692.98 320.389 1691.53 321.631 1689.62 322.521C1687.72 323.379 1685.44 323.809 1682.77 323.809H1660.32L1662.99 305.915L1660.32 289.309H1692.84V296.531H1666.26L1669.89 292.161L1672.05 305.731L1669.71 321.233L1666.07 316.863H1681.53C1682.91 316.863 1684 316.51 1684.79 315.805C1685.62 315.099 1686.04 314.133 1686.04 312.907C1686.04 311.649 1685.62 310.683 1684.79 310.009C1684 309.303 1682.91 308.951 1681.53 308.951H1667.54V302.419ZM1719.05 324.545C1714.98 324.545 1711.39 323.793 1708.29 322.291C1705.22 320.788 1702.83 318.687 1701.11 315.989C1699.43 313.29 1698.58 310.147 1698.58 306.559C1698.58 302.971 1699.43 299.827 1701.11 297.129C1702.83 294.43 1705.22 292.329 1708.29 290.827C1711.39 289.324 1714.98 288.573 1719.05 288.573C1723.16 288.573 1726.75 289.324 1729.82 290.827C1732.89 292.329 1735.28 294.43 1736.99 297.129C1738.71 299.827 1739.57 302.971 1739.57 306.559C1739.57 310.147 1738.71 313.29 1736.99 315.989C1735.28 318.687 1732.89 320.788 1729.82 322.291C1726.75 323.793 1723.16 324.545 1719.05 324.545ZM1719.05 316.035C1721.29 316.035 1723.23 315.651 1724.85 314.885C1726.48 314.118 1727.72 313.029 1728.58 311.619C1729.47 310.208 1729.91 308.521 1729.91 306.559C1729.91 304.596 1729.47 302.909 1728.58 301.499C1727.72 300.088 1726.48 298.999 1724.85 298.233C1723.23 297.466 1721.29 297.083 1719.05 297.083C1716.85 297.083 1714.93 297.466 1713.3 298.233C1711.68 298.999 1710.42 300.088 1709.53 301.499C1708.64 302.909 1708.2 304.596 1708.2 306.559C1708.2 308.521 1708.64 310.208 1709.53 311.619C1710.42 313.029 1711.68 314.118 1713.3 314.885C1714.93 315.651 1716.85 316.035 1719.05 316.035ZM1753.9 293.495H1763.47V323.809H1753.9V293.495ZM1740.75 289.309H1776.63V297.773H1740.75V289.309ZM1780.74 323.809V289.309H1790.12V318.795L1787.5 318.197L1807.05 289.309H1819.52V323.809H1810.09V293.771L1812.75 294.369L1792.84 323.809H1780.74ZM1465.74 385.755V370.391H1473.19L1476.22 370.483H1500.14L1502.54 370.391H1512.56V385.755H1503.64V378.809H1474.66V385.755H1465.74ZM1472.91 344.309H1506.63V376.141H1497.06V348.311L1501.39 352.635H1477.97L1481.93 349.461C1482.17 350.871 1482.31 352.236 1482.34 353.555C1482.4 354.873 1482.43 356.131 1482.43 357.327C1482.43 360.915 1482.11 363.935 1481.47 366.389C1480.85 368.842 1479.92 370.697 1478.66 371.955C1477.43 373.212 1475.89 373.841 1474.02 373.841L1470.01 370.529C1471.24 369.087 1472.14 367.125 1472.73 364.641C1473.31 362.126 1473.6 359.029 1473.6 355.349C1473.6 353.662 1473.54 351.899 1473.42 350.059C1473.29 348.219 1473.13 346.302 1472.91 344.309ZM1522.89 344.309H1556.74V378.809H1547.17V348.449L1551.5 352.773H1528.22L1532.22 349.599C1532.47 351.623 1532.64 353.57 1532.73 355.441C1532.82 357.281 1532.87 359.029 1532.87 360.685C1532.87 365.101 1532.47 368.704 1531.67 371.495C1530.87 374.255 1529.62 376.279 1527.9 377.567C1526.18 378.855 1523.96 379.499 1521.23 379.499C1520.03 379.499 1518.85 379.376 1517.69 379.131C1516.55 378.885 1515.51 378.517 1514.56 378.027V370.115C1515.91 370.636 1517.15 370.897 1518.29 370.897C1520.28 370.897 1521.71 369.992 1522.56 368.183C1523.45 366.373 1523.9 363.414 1523.9 359.305C1523.9 357.311 1523.81 355.073 1523.62 352.589C1523.47 350.105 1523.22 347.345 1522.89 344.309ZM1589.63 359.627V366.389H1575.23L1575.19 366.205C1572.55 366.205 1570.24 365.76 1568.24 364.871C1566.28 363.981 1564.75 362.724 1563.64 361.099C1562.57 359.473 1562.03 357.572 1562.03 355.395C1562.03 353.156 1562.57 351.224 1563.64 349.599C1564.75 347.943 1566.28 346.655 1568.24 345.735C1570.24 344.784 1572.55 344.309 1575.19 344.309H1596.26V378.809H1586.69V346.839L1590.97 351.117H1576.57C1575 351.117 1573.78 351.5 1572.89 352.267C1572.03 353.003 1571.6 354.045 1571.6 355.395C1571.6 356.713 1572.03 357.756 1572.89 358.523C1573.78 359.259 1575 359.627 1576.57 359.627H1589.63ZM1583.93 362.663L1572.15 378.809H1561.11L1573.26 362.663H1583.93ZM1614.08 344.309H1623.6V378.809H1614.08V344.309ZM1641.22 344.309H1650.79V378.809H1641.22V344.309ZM1619.41 357.051H1645.17V365.515H1619.41V357.051ZM1676.2 379.545C1672.12 379.545 1668.53 378.793 1665.44 377.291C1662.37 375.788 1659.98 373.687 1658.26 370.989C1656.57 368.29 1655.73 365.147 1655.73 361.559C1655.73 357.971 1656.57 354.827 1658.26 352.129C1659.98 349.43 1662.37 347.329 1665.44 345.827C1668.53 344.324 1672.12 343.573 1676.2 343.573C1680.31 343.573 1683.9 344.324 1686.96 345.827C1690.03 347.329 1692.42 349.43 1694.14 352.129C1695.86 354.827 1696.72 357.971 1696.72 361.559C1696.72 365.147 1695.86 368.29 1694.14 370.989C1692.42 373.687 1690.03 375.788 1686.96 377.291C1683.9 378.793 1680.31 379.545 1676.2 379.545ZM1676.2 371.035C1678.44 371.035 1680.37 370.651 1682 369.885C1683.62 369.118 1684.86 368.029 1685.72 366.619C1686.61 365.208 1687.06 363.521 1687.06 361.559C1687.06 359.596 1686.61 357.909 1685.72 356.499C1684.86 355.088 1683.62 353.999 1682 353.233C1680.37 352.466 1678.44 352.083 1676.2 352.083C1673.99 352.083 1672.07 352.466 1670.45 353.233C1668.82 353.999 1667.57 355.088 1666.68 356.499C1665.79 357.909 1665.34 359.596 1665.34 361.559C1665.34 363.521 1665.79 365.208 1666.68 366.619C1667.57 368.029 1668.82 369.118 1670.45 369.885C1672.07 370.651 1673.99 371.035 1676.2 371.035ZM1724.59 361.927L1725.38 360.133C1728.04 360.194 1730.24 360.608 1731.95 361.375C1733.7 362.111 1735.01 363.153 1735.86 364.503C1736.72 365.821 1737.15 367.355 1737.15 369.103C1737.15 370.973 1736.72 372.645 1735.86 374.117C1735.01 375.558 1733.72 376.708 1732 377.567C1730.31 378.395 1728.2 378.809 1725.65 378.809H1700.17L1702.84 361.099L1700.17 344.309H1724.73C1727.92 344.309 1730.41 345.06 1732.18 346.563C1733.96 348.035 1734.85 350.089 1734.85 352.727C1734.85 354.168 1734.51 355.548 1733.84 356.867C1733.17 358.185 1732.08 359.305 1730.57 360.225C1729.1 361.114 1727.11 361.681 1724.59 361.927ZM1709.6 376.601L1705.92 372.139H1723.08C1724.46 372.139 1725.53 371.801 1726.3 371.127C1727.06 370.452 1727.45 369.517 1727.45 368.321C1727.45 367.125 1727.03 366.174 1726.2 365.469C1725.38 364.733 1724.15 364.365 1722.52 364.365H1708.36V357.833H1721.24C1722.34 357.833 1723.26 357.511 1724 356.867C1724.76 356.192 1725.15 355.287 1725.15 354.153C1725.15 353.233 1724.82 352.481 1724.18 351.899C1723.54 351.285 1722.62 350.979 1721.42 350.979H1705.96L1709.6 346.517L1711.94 361.099L1709.6 376.601ZM1741.84 378.809V344.309H1751.22V373.795L1748.6 373.197L1768.15 344.309H1780.61V378.809H1771.18V348.771L1773.85 349.369L1753.93 378.809H1741.84ZM1807.45 363.767V357.971L1824.38 378.809H1812.65L1801.47 364.365H1806.16L1794.94 378.809H1783.35L1800.37 358.017V363.721L1784.36 344.309H1796.27L1806.39 357.373H1801.7L1811.68 344.309H1823.41L1807.45 363.767ZM1362.98 399.309V433.809H1353.92V402.713L1355.94 402.943L1342.6 433.809H1332.94L1319.55 403.035L1321.62 402.805V433.809H1312.56V399.309H1327.28L1339.66 428.933H1335.98L1348.26 399.309H1362.98ZM1388.38 434.545C1384.31 434.545 1380.72 433.793 1377.62 432.291C1374.55 430.788 1372.16 428.687 1370.44 425.989C1368.76 423.29 1367.91 420.147 1367.91 416.559C1367.91 412.971 1368.76 409.827 1370.44 407.129C1372.16 404.43 1374.55 402.329 1377.62 400.827C1380.72 399.324 1384.31 398.573 1388.38 398.573C1392.49 398.573 1396.08 399.324 1399.15 400.827C1402.22 402.329 1404.61 404.43 1406.32 407.129C1408.04 409.827 1408.9 412.971 1408.9 416.559C1408.9 420.147 1408.04 423.29 1406.32 425.989C1404.61 428.687 1402.22 430.788 1399.15 432.291C1396.08 433.793 1392.49 434.545 1388.38 434.545ZM1388.38 426.035C1390.62 426.035 1392.56 425.651 1394.18 424.885C1395.81 424.118 1397.05 423.029 1397.91 421.619C1398.8 420.208 1399.24 418.521 1399.24 416.559C1399.24 414.596 1398.8 412.909 1397.91 411.499C1397.05 410.088 1395.81 408.999 1394.18 408.233C1392.56 407.466 1390.62 407.083 1388.38 407.083C1386.18 407.083 1384.26 407.466 1382.63 408.233C1381.01 408.999 1379.75 410.088 1378.86 411.499C1377.97 412.909 1377.53 414.596 1377.53 416.559C1377.53 418.521 1377.97 420.208 1378.86 421.619C1379.75 423.029 1381.01 424.118 1382.63 424.885C1384.26 425.651 1386.18 426.035 1388.38 426.035ZM1407.99 433.809L1421.61 411.545L1428.55 417.341L1418.8 433.809H1407.99ZM1461.53 433.809L1451.83 417.341L1458.77 411.545L1472.34 433.809H1461.53ZM1444.88 425.115L1442.26 424.195L1461.81 399.309H1471.88L1443.69 433.809H1436.69L1408.5 399.309H1418.52L1438.12 424.195L1435.45 425.115V399.309H1444.88V425.115ZM1481.33 399.309H1515.19V433.809H1505.62V403.449L1509.95 407.773H1486.67L1490.67 404.599C1490.92 406.623 1491.09 408.57 1491.18 410.441C1491.27 412.281 1491.32 414.029 1491.32 415.685C1491.32 420.101 1490.92 423.704 1490.12 426.495C1489.32 429.255 1488.06 431.279 1486.35 432.567C1484.63 433.855 1482.41 434.499 1479.68 434.499C1478.48 434.499 1477.3 434.376 1476.14 434.131C1475 433.885 1473.96 433.517 1473.01 433.027V425.115C1474.36 425.636 1475.6 425.897 1476.73 425.897C1478.73 425.897 1480.15 424.992 1481.01 423.183C1481.9 421.373 1482.35 418.414 1482.35 414.305C1482.35 412.311 1482.25 410.073 1482.07 407.589C1481.92 405.105 1481.67 402.345 1481.33 399.309ZM1521.58 433.809V399.309H1530.97V428.795L1528.35 428.197L1547.9 399.309H1560.36V433.809H1550.93V403.771L1553.6 404.369L1533.68 433.809H1521.58ZM1590.19 416.927L1590.97 415.133C1593.64 415.194 1595.83 415.608 1597.55 416.375C1599.3 417.111 1600.6 418.153 1601.46 419.503C1602.32 420.821 1602.75 422.355 1602.75 424.103C1602.75 425.973 1602.32 427.645 1601.46 429.117C1600.6 430.558 1599.31 431.708 1597.59 432.567C1595.91 433.395 1593.79 433.809 1591.25 433.809H1565.76L1568.43 416.099L1565.76 399.309H1590.33C1593.51 399.309 1596 400.06 1597.78 401.563C1599.56 403.035 1600.45 405.089 1600.45 407.727C1600.45 409.168 1600.11 410.548 1599.43 411.867C1598.76 413.185 1597.67 414.305 1596.17 415.225C1594.7 416.114 1592.7 416.681 1590.19 416.927ZM1575.19 431.601L1571.51 427.139H1588.67C1590.05 427.139 1591.12 426.801 1591.89 426.127C1592.66 425.452 1593.04 424.517 1593.04 423.321C1593.04 422.125 1592.63 421.174 1591.8 420.469C1590.97 419.733 1589.74 419.365 1588.12 419.365H1573.95V412.833H1586.83C1587.93 412.833 1588.85 412.511 1589.59 411.867C1590.36 411.192 1590.74 410.287 1590.74 409.153C1590.74 408.233 1590.42 407.481 1589.77 406.899C1589.13 406.285 1588.21 405.979 1587.01 405.979H1571.56L1575.19 401.517L1577.54 416.099L1575.19 431.601ZM1626.25 434.545C1622.17 434.545 1618.58 433.793 1615.48 432.291C1612.42 430.788 1610.02 428.687 1608.31 425.989C1606.62 423.29 1605.78 420.147 1605.78 416.559C1605.78 412.971 1606.62 409.827 1608.31 407.129C1610.02 404.43 1612.42 402.329 1615.48 400.827C1618.58 399.324 1622.17 398.573 1626.25 398.573C1630.36 398.573 1633.94 399.324 1637.01 400.827C1640.08 402.329 1642.47 404.43 1644.19 407.129C1645.9 409.827 1646.76 412.971 1646.76 416.559C1646.76 420.147 1645.9 423.29 1644.19 425.989C1642.47 428.687 1640.08 430.788 1637.01 432.291C1633.94 433.793 1630.36 434.545 1626.25 434.545ZM1626.25 426.035C1628.48 426.035 1630.42 425.651 1632.04 424.885C1633.67 424.118 1634.91 423.029 1635.77 421.619C1636.66 420.208 1637.1 418.521 1637.1 416.559C1637.1 414.596 1636.66 412.909 1635.77 411.499C1634.91 410.088 1633.67 408.999 1632.04 408.233C1630.42 407.466 1628.48 407.083 1626.25 407.083C1624.04 407.083 1622.12 407.466 1620.5 408.233C1618.87 408.999 1617.61 410.088 1616.72 411.499C1615.83 412.909 1615.39 414.596 1615.39 416.559C1615.39 418.521 1615.83 420.208 1616.72 421.619C1617.61 423.029 1618.87 424.118 1620.5 424.885C1622.12 425.651 1624.04 426.035 1626.25 426.035ZM1689.99 419.365C1689.66 422.401 1688.61 425.069 1686.87 427.369C1685.12 429.638 1682.82 431.401 1679.97 432.659C1677.15 433.916 1673.89 434.545 1670.21 434.545C1666.2 434.545 1662.69 433.793 1659.68 432.291C1656.68 430.788 1654.33 428.687 1652.64 425.989C1650.99 423.29 1650.16 420.147 1650.16 416.559C1650.16 412.971 1650.99 409.827 1652.64 407.129C1654.33 404.43 1656.68 402.329 1659.68 400.827C1662.69 399.324 1666.2 398.573 1670.21 398.573C1673.89 398.573 1677.15 399.201 1679.97 400.459C1682.82 401.716 1685.12 403.495 1686.87 405.795C1688.61 408.064 1689.66 410.717 1689.99 413.753H1680.43C1680.12 412.281 1679.52 411.039 1678.63 410.027C1677.74 408.984 1676.58 408.187 1675.14 407.635C1673.73 407.083 1672.09 406.807 1670.21 406.807C1668.07 406.807 1666.21 407.205 1664.65 408.003C1663.08 408.769 1661.89 409.889 1661.06 411.361C1660.23 412.802 1659.82 414.535 1659.82 416.559C1659.82 418.583 1660.23 420.331 1661.06 421.803C1661.89 423.244 1663.08 424.363 1664.65 425.161C1666.21 425.927 1668.07 426.311 1670.21 426.311C1672.09 426.311 1673.73 426.05 1675.14 425.529C1676.58 425.007 1677.74 424.225 1678.63 423.183C1679.52 422.14 1680.12 420.867 1680.43 419.365H1689.99ZM1704.13 403.495H1713.7V433.809H1704.13V403.495ZM1690.97 399.309H1726.85V407.773H1690.97V399.309ZM1760.45 413.109V420.009H1735.2V413.109H1760.45ZM1741.68 416.559L1739.43 430.405L1735.56 426.081H1761.97V433.809H1729.91L1732.53 416.559L1729.91 399.309H1761.74V407.037H1735.56L1739.43 402.713L1741.68 416.559ZM1767.49 433.809V399.309H1776.87V428.795L1774.25 428.197L1793.8 399.309H1806.26V433.809H1796.83V403.771L1799.5 404.369L1779.58 433.809H1767.49ZM1774.94 388.821H1782.44C1782.8 389.802 1783.34 390.553 1784.05 391.075C1784.78 391.565 1785.69 391.811 1786.76 391.811C1787.83 391.811 1788.72 391.565 1789.43 391.075C1790.16 390.553 1790.72 389.802 1791.08 388.821H1798.58C1797.91 391.734 1796.51 393.85 1794.4 395.169C1792.31 396.457 1789.76 397.101 1786.76 397.101C1783.78 397.101 1781.24 396.457 1779.12 395.169C1777.01 393.85 1775.61 391.734 1774.94 388.821ZM1811.16 440.617L1815.9 430.681L1816.4 434.131C1815.42 434.131 1814.53 433.901 1813.73 433.441C1812.94 432.981 1812.29 432.352 1811.8 431.555C1811.34 430.757 1811.11 429.883 1811.11 428.933C1811.11 427.951 1811.34 427.077 1811.8 426.311C1812.29 425.513 1812.94 424.885 1813.73 424.425C1814.53 423.965 1815.42 423.735 1816.4 423.735C1817.41 423.735 1818.32 423.965 1819.12 424.425C1819.91 424.885 1820.54 425.529 1821 426.357C1821.46 427.154 1821.69 428.059 1821.69 429.071C1821.69 429.991 1821.46 430.972 1821 432.015C1820.57 433.057 1819.82 434.391 1818.75 436.017L1815.71 440.617H1811.16Z" fill="white"/>
<path  d="M41.538 94.888C41.2007 97.924 40.158 100.592 38.41 102.892C36.662 105.161 34.362 106.925 31.51 108.182C28.6887 109.439 25.438 110.068 21.758 110.068C17.7407 110.068 14.2293 109.317 11.224 107.814C8.21867 106.311 5.87267 104.211 4.186 101.512C2.53 98.8134 1.702 95.67 1.702 92.082C1.702 88.494 2.53 85.3507 4.186 82.652C5.87267 79.9534 8.21867 77.8527 11.224 76.35C14.2293 74.8474 17.7407 74.096 21.758 74.096C25.438 74.096 28.6887 74.7247 31.51 75.982C34.362 77.2394 36.662 79.018 38.41 81.318C40.158 83.5874 41.2007 86.24 41.538 89.276H31.97C31.6633 87.804 31.0653 86.562 30.176 85.55C29.2867 84.5074 28.1213 83.71 26.68 83.158C25.2693 82.606 23.6287 82.33 21.758 82.33C19.6113 82.33 17.756 82.7287 16.192 83.526C14.628 84.2927 13.432 85.412 12.604 86.884C11.776 88.3254 11.362 90.058 11.362 92.082C11.362 94.106 11.776 95.854 12.604 97.326C13.432 98.7674 14.628 99.8867 16.192 100.684C17.756 101.451 19.6113 101.834 21.758 101.834C23.6287 101.834 25.2693 101.573 26.68 101.052C28.1213 100.531 29.2867 99.7487 30.176 98.706C31.0653 97.6634 31.6633 96.3907 31.97 94.888H41.538ZM55.6726 79.018H65.2406V109.332H55.6726V79.018ZM42.5166 74.832H78.3966V83.296H42.5166V74.832ZM90.6491 109.332L96.8591 98.522H96.9971L110.475 74.832H120.825L100.999 109.332H90.6491ZM96.7211 104.686L79.4711 74.832H90.0051L103.483 98.292L96.7211 104.686ZM117.446 116.278V100.914H124.898L127.934 101.006H151.854L154.246 100.914H164.274V116.278H155.35V109.332H126.37V116.278H117.446ZM124.622 74.832H158.34V106.664H148.772V78.834L153.096 83.158H129.682L133.638 79.984C133.884 81.3947 134.022 82.7594 134.052 84.078C134.114 85.3967 134.144 86.654 134.144 87.85C134.144 91.438 133.822 94.4587 133.178 96.912C132.565 99.3654 131.63 101.221 130.372 102.478C129.146 103.735 127.597 104.364 125.726 104.364L121.724 101.052C122.951 99.6107 123.856 97.648 124.438 95.164C125.021 92.6494 125.312 89.552 125.312 85.872C125.312 84.1854 125.251 82.422 125.128 80.582C125.006 78.742 124.837 76.8254 124.622 74.832ZM198.333 88.632V95.532H173.079V88.632H198.333ZM179.565 92.082L177.311 105.928L173.447 101.604H199.851V109.332H167.789L170.411 92.082L167.789 74.832H199.621V82.56H173.447L177.311 78.236L179.565 92.082ZM205.368 74.832H214.89V109.332H205.368V74.832ZM232.508 74.832H242.076V109.332H232.508V74.832ZM210.704 87.574H236.464V96.038H210.704V87.574ZM259.348 79.018H268.916V109.332H259.348V79.018ZM246.192 74.832H282.072V83.296H246.192V74.832ZM287.374 102.708V95.026H311.156V102.708H287.374ZM305.728 74.832L321.414 109.332H311.248L298.092 78.88H300.852L287.65 109.332H277.484L293.17 74.832L305.728 74.832ZM375.097 74.832V109.332H366.035V78.236L368.059 78.466L354.719 109.332H345.059L331.673 78.558L333.743 78.328V109.332H324.681V74.832H339.401L351.775 104.456H348.095L360.377 74.832H375.097ZM402.335 79.018H411.903V109.332L402.335 109.332V79.018ZM389.179 74.832H425.059V83.296H389.179V74.832ZM430.36 102.708V95.026H454.142V102.708H430.36ZM448.714 74.832L464.4 109.332H454.234L441.078 78.88H443.838L430.636 109.332H420.47L436.156 74.832H448.714ZM26.588 147.45L27.37 145.656C30.038 145.717 32.2307 146.131 33.948 146.898C35.696 147.634 36.9993 148.677 37.858 150.026C38.7167 151.345 39.146 152.878 39.146 154.626C39.146 156.497 38.7167 158.168 37.858 159.64C36.9993 161.081 35.7113 162.231 33.994 163.09C32.3073 163.918 30.1913 164.332 27.646 164.332H2.162L4.83 146.622L2.162 129.832H26.726C29.9153 129.832 32.3993 130.583 34.178 132.086C35.9567 133.558 36.846 135.613 36.846 138.25C36.846 139.691 36.5087 141.071 35.834 142.39C35.1593 143.709 34.0707 144.828 32.568 145.748C31.096 146.637 29.1027 147.205 26.588 147.45ZM11.592 162.124L7.912 157.662H25.07C26.45 157.662 27.5233 157.325 28.29 156.65C29.0567 155.975 29.44 155.04 29.44 153.844C29.44 152.648 29.026 151.697 28.198 150.992C27.37 150.256 26.1433 149.888 24.518 149.888H10.35V143.356H23.23C24.334 143.356 25.254 143.034 25.99 142.39C26.7567 141.715 27.14 140.811 27.14 139.676C27.14 138.756 26.818 138.005 26.174 137.422C25.53 136.809 24.61 136.502 23.414 136.502H7.958L11.592 132.04L13.938 146.622L11.592 162.124ZM43.8294 164.332V129.832H53.2134V159.318L50.5914 158.72L70.1414 129.832H82.6074V164.332H73.1774V134.294L75.8454 134.892L55.9274 164.332H43.8294ZM125.59 129.832V164.332H116.068V133.972L120.346 138.296H94.3097L98.5877 133.972V164.332H89.0657V129.832H125.59ZM140.153 164.332L146.363 153.522H146.501L159.979 129.832H170.329L150.503 164.332H140.153ZM146.225 159.686L128.975 129.832H139.509L152.987 153.292L146.225 159.686ZM209.007 149.888C208.669 152.924 207.627 155.592 205.879 157.892C204.131 160.161 201.831 161.925 198.979 163.182C196.157 164.439 192.907 165.068 189.227 165.068C185.209 165.068 181.698 164.317 178.693 162.814C175.687 161.311 173.341 159.211 171.655 156.512C169.999 153.813 169.171 150.67 169.171 147.082C169.171 143.494 169.999 140.351 171.655 137.652C173.341 134.953 175.687 132.853 178.693 131.35C181.698 129.847 185.209 129.096 189.227 129.096C192.907 129.096 196.157 129.725 198.979 130.982C201.831 132.239 204.131 134.018 205.879 136.318C207.627 138.587 208.669 141.24 209.007 144.276H199.439C199.132 142.804 198.534 141.562 197.645 140.55C196.755 139.507 195.59 138.71 194.149 138.158C192.738 137.606 191.097 137.33 189.227 137.33C187.08 137.33 185.225 137.729 183.661 138.526C182.097 139.293 180.901 140.412 180.073 141.884C179.245 143.325 178.831 145.058 178.831 147.082C178.831 149.106 179.245 150.854 180.073 152.326C180.901 153.767 182.097 154.887 183.661 155.684C185.225 156.451 187.08 156.834 189.227 156.834C191.097 156.834 192.738 156.573 194.149 156.052C195.59 155.531 196.755 154.749 197.645 153.706C198.534 152.663 199.132 151.391 199.439 149.888H209.007ZM213.634 164.332V129.832H223.11V156.742L220.58 154.764L240.13 129.832H250.204L222.236 164.332H213.634ZM230.102 147.864L237.094 142.068L250.664 164.332H239.854L230.102 147.864ZM253.659 129.832H263.181V164.332H253.659V129.832ZM280.799 129.832H290.367V164.332H280.799V129.832ZM258.995 142.574H284.755V151.038H258.995V142.574ZM296.829 164.332V129.832H306.213V159.318L303.591 158.72L323.141 129.832H335.607V164.332H326.177V134.294L328.845 134.892L308.927 164.332H296.829ZM342.066 164.332V129.832H351.542V156.742L349.012 154.764L368.562 129.832H378.636L350.668 164.332H342.066ZM358.534 147.864L365.526 142.068L379.096 164.332H368.286L358.534 147.864ZM388.807 157.708V150.026H412.589V157.708H388.807ZM407.161 129.832L422.847 164.332H412.681L399.525 133.88H402.285L389.083 164.332H378.917L394.603 129.832H407.161ZM476.531 129.832V164.332H467.469V133.236L469.493 133.466L456.153 164.332H446.493L433.107 133.558L435.177 133.328V164.332H426.115V129.832H440.835L453.209 159.456H449.529L461.811 129.832H476.531ZM0.874 226.278L0.874 210.914H8.326L11.362 211.006H35.282L37.674 210.914H47.702V226.278H38.778V219.332H9.798V226.278H0.874ZM8.05 184.832H41.768L41.768 216.664H32.2V188.834L36.524 193.158H13.11L17.066 189.984C17.3113 191.395 17.4493 192.759 17.48 194.078C17.5413 195.397 17.572 196.654 17.572 197.85C17.572 201.438 17.25 204.459 16.606 206.912C15.9927 209.365 15.0573 211.221 13.8 212.478C12.5733 213.735 11.0247 214.364 9.154 214.364L5.152 211.052C6.37867 209.611 7.28333 207.648 7.866 205.164C8.44867 202.649 8.74 199.552 8.74 195.872C8.74 194.185 8.67867 192.422 8.556 190.582C8.43333 188.742 8.26467 186.825 8.05 184.832ZM58.0247 184.832H91.8807V219.332H82.3127V188.972L86.6367 193.296H63.3607L67.3627 190.122C67.608 192.146 67.7767 194.093 67.8687 195.964C67.9607 197.804 68.0067 199.552 68.0067 201.208C68.0067 205.624 67.608 209.227 66.8107 212.018C66.0134 214.778 64.756 216.802 63.0387 218.09C61.3214 219.378 59.098 220.022 56.3687 220.022C55.1727 220.022 53.992 219.899 52.8267 219.654C51.692 219.409 50.6494 219.041 49.6987 218.55V210.638C51.048 211.159 52.29 211.42 53.4247 211.42C55.418 211.42 56.844 210.515 57.7027 208.706C58.592 206.897 59.0367 203.937 59.0367 199.828C59.0367 197.835 58.9447 195.596 58.7607 193.112C58.6074 190.628 58.362 187.868 58.0247 184.832ZM124.771 200.15V206.912H110.373L110.327 206.728C107.689 206.728 105.374 206.283 103.381 205.394C101.418 204.505 99.8847 203.247 98.7807 201.622C97.7074 199.997 97.1707 198.095 97.1707 195.918C97.1707 193.679 97.7074 191.747 98.7807 190.122C99.8847 188.466 101.418 187.178 103.381 186.258C105.374 185.307 107.689 184.832 110.327 184.832H131.395V219.332H121.827V187.362L126.105 191.64H111.707C110.143 191.64 108.916 192.023 108.027 192.79C107.168 193.526 106.739 194.569 106.739 195.918C106.739 197.237 107.168 198.279 108.027 199.046C108.916 199.782 110.143 200.15 111.707 200.15H124.771ZM119.067 203.186L107.291 219.332H96.2507L108.395 203.186H119.067ZM185.74 184.832V219.332H176.218V188.972L180.496 193.296H154.46L158.738 188.972V219.332H149.216V184.832H185.74ZM197.911 184.832H231.767V219.332H222.199V188.972L226.523 193.296H203.247L207.249 190.122C207.495 192.146 207.663 194.093 207.755 195.964C207.847 197.804 207.893 199.552 207.893 201.208C207.893 205.624 207.495 209.227 206.697 212.018C205.9 214.778 204.643 216.802 202.925 218.09C201.208 219.378 198.985 220.022 196.255 220.022C195.059 220.022 193.879 219.899 192.713 219.654C191.579 219.409 190.536 219.041 189.585 218.55V210.638C190.935 211.159 192.177 211.42 193.311 211.42C195.305 211.42 196.731 210.515 197.589 208.706C198.479 206.897 198.923 203.937 198.923 199.828C198.923 197.835 198.831 195.596 198.647 193.112C198.494 190.628 198.249 187.868 197.911 184.832ZM244.877 212.708V205.026H268.659V212.708H244.877ZM263.231 184.832L278.917 219.332H268.751L255.595 188.88H258.355L245.153 219.332H234.987L250.673 184.832H263.231ZM282.185 184.832H291.707V219.332H282.185V184.832ZM309.325 184.832H318.893V219.332H309.325V184.832ZM287.521 197.574H313.281V206.038H287.521V197.574ZM333.497 219.332L339.707 208.522H339.845L353.323 184.832H363.673L343.847 219.332H333.497ZM339.569 214.686L322.319 184.832H332.853L346.331 208.292L339.569 214.686ZM390.276 202.45L391.058 200.656C393.726 200.717 395.918 201.131 397.636 201.898C399.384 202.634 400.687 203.677 401.546 205.026C402.404 206.345 402.834 207.878 402.834 209.626C402.834 211.497 402.404 213.168 401.546 214.64C400.687 216.081 399.399 217.231 397.682 218.09C395.995 218.918 393.879 219.332 391.334 219.332H365.85L368.518 201.622L365.85 184.832H390.414C393.603 184.832 396.087 185.583 397.866 187.086C399.644 188.558 400.534 190.613 400.534 193.25C400.534 194.691 400.196 196.071 399.522 197.39C398.847 198.709 397.758 199.828 396.256 200.748C394.784 201.637 392.79 202.205 390.276 202.45ZM375.28 217.124L371.6 212.662H388.758C390.138 212.662 391.211 212.325 391.978 211.65C392.744 210.975 393.128 210.04 393.128 208.844C393.128 207.648 392.714 206.697 391.886 205.992C391.058 205.256 389.831 204.888 388.206 204.888H374.038V198.356H386.917C388.022 198.356 388.942 198.034 389.677 197.39C390.444 196.715 390.828 195.811 390.828 194.676C390.828 193.756 390.506 193.005 389.862 192.422C389.218 191.809 388.298 191.502 387.102 191.502H371.646L375.28 187.04L377.626 201.622L375.28 217.124ZM412.526 212.708V205.026H436.308V212.708H412.526ZM430.88 184.832L446.566 219.332H436.4L423.244 188.88H426.004L412.802 219.332H402.636L418.322 184.832H430.88ZM449.833 184.832H459.355V219.332H449.833V184.832ZM476.973 184.832H486.541V219.332H476.973V184.832ZM455.169 197.574H480.929V206.038H455.169V197.574ZM493.003 184.832H502.525V219.332H493.003V184.832ZM520.143 184.832H529.711V219.332H520.143V184.832ZM498.339 197.574H524.099V206.038H498.339V197.574ZM562.669 200.15V206.912H548.271L548.225 206.728C545.588 206.728 543.272 206.283 541.279 205.394C539.316 204.505 537.783 203.247 536.679 201.622C535.606 199.997 535.069 198.095 535.069 195.918C535.069 193.679 535.606 191.747 536.679 190.122C537.783 188.466 539.316 187.178 541.279 186.258C543.272 185.307 545.588 184.832 548.225 184.832H569.293V219.332H559.725V187.362L564.003 191.64H549.605C548.041 191.64 546.814 192.023 545.925 192.79C545.066 193.526 544.637 194.569 544.637 195.918C544.637 197.237 545.066 198.279 545.925 199.046C546.814 199.782 548.041 200.15 549.605 200.15H562.669ZM556.965 203.186L545.189 219.332L534.149 219.332L546.293 203.186H556.965ZM3.22 274.332L3.22 239.832H12.696V266.742L10.166 264.764L29.716 239.832H39.79L11.822 274.332H3.22ZM19.688 257.864L26.68 252.068L40.25 274.332H29.44L19.688 257.864ZM49.9614 267.708V260.026H73.7434V267.708H49.9614ZM68.3154 239.832L84.0014 274.332H73.8354L60.6794 243.88H63.4394L50.2374 274.332H40.0714L55.7574 239.832H68.3154ZM106.635 239.832C109.517 239.832 112.001 240.323 114.087 241.304C116.203 242.285 117.813 243.681 118.917 245.49C120.021 247.269 120.573 249.354 120.573 251.746C120.573 254.107 120.021 256.193 118.917 258.002C117.813 259.781 116.203 261.161 114.087 262.142C112.001 263.123 109.517 263.614 106.635 263.614H91.6848V255.978H106.037C107.57 255.978 108.766 255.61 109.625 254.874C110.483 254.107 110.913 253.065 110.913 251.746C110.913 250.397 110.483 249.354 109.625 248.618C108.766 247.851 107.57 247.468 106.037 247.468H92.5128L96.7908 243.052V274.332H87.2688V239.832H106.635ZM123.17 239.832H132.508L130.668 255.242H125.01L123.17 239.832ZM156.17 275.068C152.122 275.068 148.58 274.317 145.544 272.814C142.508 271.311 140.131 269.211 138.414 266.512C136.727 263.813 135.884 260.67 135.884 257.082C135.884 253.494 136.727 250.351 138.414 247.652C140.131 244.953 142.508 242.853 145.544 241.35C148.58 239.847 152.122 239.096 156.17 239.096C159.788 239.096 163.024 239.709 165.876 240.936C168.758 242.163 171.089 243.88 172.868 246.088C174.677 248.265 175.766 250.826 176.134 253.77H166.704C166.397 252.329 165.784 251.117 164.864 250.136C163.944 249.124 162.748 248.357 161.276 247.836C159.834 247.284 158.148 247.008 156.216 247.008C153.977 247.008 152.03 247.407 150.374 248.204C148.748 249.001 147.491 250.151 146.602 251.654C145.743 253.157 145.314 254.966 145.314 257.082C145.314 259.198 145.743 261.007 146.602 262.51C147.491 264.013 148.748 265.163 150.374 265.96C152.03 266.757 153.977 267.156 156.216 267.156C158.178 267.156 159.88 266.895 161.322 266.374C162.794 265.822 163.974 265.04 164.864 264.028C165.784 263.016 166.397 261.805 166.704 260.394H176.134C175.766 263.307 174.677 265.868 172.868 268.076C171.089 270.284 168.758 272.001 165.876 273.228C163.024 274.455 159.788 275.068 156.17 275.068ZM140.99 260.256V253.908H161.966V260.256H140.99ZM200.072 239.832C202.955 239.832 205.439 240.323 207.524 241.304C209.64 242.285 211.25 243.681 212.354 245.49C213.458 247.269 214.01 249.354 214.01 251.746C214.01 254.107 213.458 256.193 212.354 258.002C211.25 259.781 209.64 261.161 207.524 262.142C205.439 263.123 202.955 263.614 200.072 263.614H185.122V255.978H199.474C201.008 255.978 202.204 255.61 203.062 254.874C203.921 254.107 204.35 253.065 204.35 251.746C204.35 250.397 203.921 249.354 203.062 248.618C202.204 247.851 201.008 247.468 199.474 247.468H185.95L190.228 243.052V274.332H180.706V239.832H200.072ZM218.171 274.332V239.832H227.555V269.318L224.933 268.72L244.483 239.832H256.949V274.332H247.519V244.294L250.187 244.892L230.269 274.332H218.171Z" fill="white"/>
<path d="M1380.53 762.083C1380.19 765.119 1379.15 767.787 1377.4 770.087C1375.65 772.357 1373.35 774.12 1370.5 775.377C1367.68 776.635 1364.43 777.263 1360.75 777.263C1356.73 777.263 1353.22 776.512 1350.21 775.009C1347.21 773.507 1344.86 771.406 1343.18 768.707C1341.52 766.009 1340.69 762.865 1340.69 759.277C1340.69 755.689 1341.52 752.546 1343.18 749.847C1344.86 747.149 1347.21 745.048 1350.21 743.545C1353.22 742.043 1356.73 741.291 1360.75 741.291C1364.43 741.291 1367.68 741.92 1370.5 743.177C1373.35 744.435 1375.65 746.213 1377.4 748.513C1379.15 750.783 1380.19 753.435 1380.53 756.471H1370.96C1370.65 754.999 1370.06 753.757 1369.17 752.745C1368.28 751.703 1367.11 750.905 1365.67 750.353C1364.26 749.801 1362.62 749.525 1360.75 749.525C1358.6 749.525 1356.75 749.924 1355.18 750.721C1353.62 751.488 1352.42 752.607 1351.59 754.079C1350.77 755.521 1350.35 757.253 1350.35 759.277C1350.35 761.301 1350.77 763.049 1351.59 764.521C1352.42 765.963 1353.62 767.082 1355.18 767.879C1356.75 768.646 1358.6 769.029 1360.75 769.029C1362.62 769.029 1364.26 768.769 1365.67 768.247C1367.11 767.726 1368.28 766.944 1369.17 765.901C1370.06 764.859 1370.65 763.586 1370.96 762.083H1380.53ZM1408.34 759.645L1409.13 757.851C1411.79 757.913 1413.99 758.327 1415.7 759.093C1417.45 759.829 1418.76 760.872 1419.61 762.221C1420.47 763.54 1420.9 765.073 1420.9 766.821C1420.9 768.692 1420.47 770.363 1419.61 771.835C1418.76 773.277 1417.47 774.427 1415.75 775.285C1414.06 776.113 1411.95 776.527 1409.4 776.527H1383.92L1386.59 758.817L1383.92 742.027H1408.48C1411.67 742.027 1414.16 742.779 1415.93 744.281C1417.71 745.753 1418.6 747.808 1418.6 750.445C1418.6 751.887 1418.26 753.267 1417.59 754.585C1416.92 755.904 1415.83 757.023 1414.32 757.943C1412.85 758.833 1410.86 759.4 1408.34 759.645ZM1393.35 774.319L1389.67 769.857H1406.83C1408.21 769.857 1409.28 769.52 1410.05 768.845C1410.81 768.171 1411.2 767.235 1411.2 766.039C1411.2 764.843 1410.78 763.893 1409.95 763.187C1409.13 762.451 1407.9 762.083 1406.27 762.083H1392.11V755.551H1404.99C1406.09 755.551 1407.01 755.229 1407.75 754.585C1408.51 753.911 1408.9 753.006 1408.9 751.871C1408.9 750.951 1408.57 750.2 1407.93 749.617C1407.29 749.004 1406.37 748.697 1405.17 748.697H1389.71L1393.35 744.235L1395.69 758.817L1393.35 774.319ZM1425.59 742.027H1435.11V776.527H1425.59V742.027ZM1452.34 746.213H1461.91V776.527H1452.34V746.213ZM1439.19 742.027H1475.07V750.491H1439.19V742.027ZM1493.02 766.131C1488.12 766.131 1484.36 764.859 1481.75 762.313C1479.18 759.737 1477.89 756.027 1477.89 751.181V742.027H1487.41V750.399C1487.41 752.822 1488.07 754.647 1489.39 755.873C1490.71 757.1 1492.69 757.713 1495.32 757.713C1496.86 757.713 1498.47 757.545 1500.15 757.207C1501.84 756.839 1503.53 756.318 1505.21 755.643L1505.76 763.279C1503.92 764.199 1501.92 764.905 1499.74 765.395C1497.56 765.886 1495.32 766.131 1493.02 766.131ZM1503.97 776.527V742.027H1513.54V776.527H1503.97ZM1549.41 755.827V762.727H1524.15V755.827H1549.41ZM1530.64 759.277L1528.39 773.123L1524.52 768.799H1550.93V776.527H1518.86L1521.49 759.277L1518.86 742.027H1550.7V749.755H1524.52L1528.39 745.431L1530.64 759.277ZM1575.81 742.027C1578.69 742.027 1581.18 742.518 1583.26 743.499C1585.38 744.481 1586.99 745.876 1588.09 747.685C1589.19 749.464 1589.75 751.549 1589.75 753.941C1589.75 756.303 1589.19 758.388 1588.09 760.197C1586.99 761.976 1585.38 763.356 1583.26 764.337C1581.18 765.319 1578.69 765.809 1575.81 765.809H1560.86V758.173H1575.21C1576.74 758.173 1577.94 757.805 1578.8 757.069C1579.66 756.303 1580.09 755.26 1580.09 753.941C1580.09 752.592 1579.66 751.549 1578.8 750.813C1577.94 750.047 1576.74 749.663 1575.21 749.663H1561.69L1565.96 745.247V776.527H1556.44V742.027H1575.81ZM1596.67 769.903V762.221H1620.45V769.903H1596.67ZM1615.02 742.027L1630.71 776.527H1620.54L1607.39 746.075H1610.15L1596.95 776.527H1586.78L1602.47 742.027H1615.02ZM1684.39 742.027V776.527H1675.33V745.431L1677.36 745.661L1664.02 776.527H1654.36L1640.97 745.753L1643.04 745.523V776.527H1633.98V742.027H1648.7L1661.07 771.651H1657.39L1669.67 742.027H1684.39ZM1689.28 783.335L1694.02 773.399L1694.53 776.849C1693.55 776.849 1692.66 776.619 1691.86 776.159C1691.06 775.699 1690.42 775.071 1689.93 774.273C1689.47 773.476 1689.24 772.602 1689.24 771.651C1689.24 770.67 1689.47 769.796 1689.93 769.029C1690.42 768.232 1691.06 767.603 1691.86 767.143C1692.66 766.683 1693.55 766.453 1694.53 766.453C1695.54 766.453 1696.45 766.683 1697.24 767.143C1698.04 767.603 1698.67 768.247 1699.13 769.075C1699.59 769.873 1699.82 770.777 1699.82 771.789C1699.82 772.709 1699.59 773.691 1699.13 774.733C1698.7 775.776 1697.95 777.11 1696.87 778.735L1693.84 783.335H1689.28ZM1771.58 742.027V772.019L1767.49 768.063H1777.56V783.473H1768.59V773.077L1772.92 776.527H1715.51V742.027H1725.03V772.019L1720.94 768.063H1742.88L1738.79 772.019V742.027H1748.31V772.019L1744.21 768.063H1766.16L1762.06 772.019V742.027H1771.58ZM1800.18 777.263C1796.1 777.263 1792.52 776.512 1789.42 775.009C1786.35 773.507 1783.96 771.406 1782.24 768.707C1780.56 766.009 1779.71 762.865 1779.71 759.277C1779.71 755.689 1780.56 752.546 1782.24 749.847C1783.96 747.149 1786.35 745.048 1789.42 743.545C1792.52 742.043 1796.1 741.291 1800.18 741.291C1804.29 741.291 1807.88 742.043 1810.95 743.545C1814.01 745.048 1816.41 747.149 1818.12 749.847C1819.84 752.546 1820.7 755.689 1820.7 759.277C1820.7 762.865 1819.84 766.009 1818.12 768.707C1816.41 771.406 1814.01 773.507 1810.95 775.009C1807.88 776.512 1804.29 777.263 1800.18 777.263ZM1800.18 768.753C1802.42 768.753 1804.35 768.37 1805.98 767.603C1807.6 766.837 1808.85 765.748 1809.71 764.337C1810.59 762.927 1811.04 761.24 1811.04 759.277C1811.04 757.315 1810.59 755.628 1809.71 754.217C1808.85 752.807 1807.6 751.718 1805.98 750.951C1804.35 750.185 1802.42 749.801 1800.18 749.801C1797.98 749.801 1796.06 750.185 1794.43 750.951C1792.81 751.718 1791.55 752.807 1790.66 754.217C1789.77 755.628 1789.33 757.315 1789.33 759.277C1789.33 761.24 1789.77 762.927 1790.66 764.337C1791.55 765.748 1792.81 766.837 1794.43 767.603C1796.06 768.37 1797.98 768.753 1800.18 768.753ZM1350.09 823.063L1345.82 827.387V797.027H1355.34V831.527H1299.26V797.027H1308.79V827.387L1304.51 823.063H1326.4L1322.54 827.387V797.027H1332.06V827.387L1328.06 823.063H1350.09ZM1369.94 831.527L1376.15 820.717H1376.29L1389.76 797.027H1400.11L1380.29 831.527H1369.94ZM1376.01 826.881L1358.76 797.027H1369.29L1382.77 820.487L1376.01 826.881ZM1403.35 831.527V797.027H1412.82V823.937L1410.29 821.959L1429.84 797.027H1439.92L1411.95 831.527H1403.35ZM1419.82 815.059L1426.81 809.263L1440.38 831.527H1429.57L1419.82 815.059ZM1450.09 824.903V817.221H1473.87V824.903H1450.09ZM1468.44 797.027L1484.13 831.527H1473.96L1460.81 801.075H1463.57L1450.37 831.527H1440.2L1455.89 797.027H1468.44ZM1521.53 832.263C1517.48 832.263 1513.94 831.512 1510.9 830.009C1507.87 828.507 1505.51 826.406 1503.82 823.707C1502.16 821.009 1501.34 817.865 1501.34 814.277C1501.34 810.689 1502.16 807.546 1503.82 804.847C1505.51 802.149 1507.87 800.048 1510.9 798.545C1513.94 797.043 1517.48 796.291 1521.53 796.291C1525.61 796.291 1529.17 797.043 1532.2 798.545C1535.24 800.048 1537.6 802.149 1539.29 804.847C1541 807.546 1541.86 810.689 1541.86 814.277C1541.86 817.865 1541 821.009 1539.29 823.707C1537.6 826.406 1535.24 828.507 1532.2 830.009C1529.17 831.512 1525.61 832.263 1521.53 832.263ZM1487.4 831.527V797.027H1496.92V831.527H1487.4ZM1492.73 818.233V809.769H1506.26V818.233H1492.73ZM1521.53 823.753C1523.74 823.753 1525.64 823.37 1527.23 822.603C1528.83 821.837 1530.06 820.748 1530.91 819.337C1531.77 817.896 1532.2 816.209 1532.2 814.277C1532.2 812.315 1531.77 810.628 1530.91 809.217C1530.06 807.807 1528.83 806.718 1527.23 805.951C1525.64 805.185 1523.74 804.801 1521.53 804.801C1519.35 804.801 1517.47 805.185 1515.87 805.951C1514.28 806.718 1513.05 807.807 1512.19 809.217C1511.33 810.628 1510.9 812.315 1510.9 814.277C1510.9 816.209 1511.33 817.896 1512.19 819.337C1513.05 820.748 1514.28 821.837 1515.87 822.603C1517.47 823.37 1519.35 823.753 1521.53 823.753ZM1556.2 801.213H1565.77V831.527H1556.2V801.213ZM1543.05 797.027H1578.93V805.491H1543.05V797.027ZM1583.04 831.527V797.027H1592.56V828.307L1588.28 824.029H1601.71C1603.28 824.029 1604.49 823.631 1605.35 822.833C1606.24 822.036 1606.68 820.963 1606.68 819.613C1606.68 818.233 1606.24 817.16 1605.35 816.393C1604.49 815.627 1603.28 815.243 1601.71 815.243H1587.45V807.699H1602.31C1605.22 807.699 1607.72 808.205 1609.81 809.217C1611.92 810.199 1613.53 811.579 1614.64 813.357C1615.77 815.136 1616.34 817.221 1616.34 819.613C1616.34 822.005 1615.77 824.106 1614.64 825.915C1613.53 827.694 1611.92 829.074 1609.81 830.055C1607.72 831.037 1605.22 831.527 1602.31 831.527H1583.04ZM1646.76 832.263C1643.11 832.263 1639.9 831.757 1637.14 830.745C1634.41 829.733 1632.28 828.292 1630.75 826.421C1629.25 824.551 1628.43 822.358 1628.31 819.843H1637.88C1638.09 821.499 1638.95 822.772 1640.45 823.661C1641.96 824.52 1644.06 824.949 1646.76 824.949C1649.3 824.949 1651.26 824.612 1652.64 823.937C1654.02 823.232 1654.71 822.189 1654.71 820.809C1654.71 819.613 1654.12 818.739 1652.92 818.187C1651.76 817.635 1649.82 817.359 1647.12 817.359H1640.82V811.057H1646.99C1648.58 811.057 1649.88 810.919 1650.9 810.643C1651.91 810.337 1652.66 809.907 1653.15 809.355C1653.67 808.803 1653.93 808.159 1653.93 807.423C1653.93 806.595 1653.64 805.905 1653.06 805.353C1652.51 804.771 1651.69 804.341 1650.62 804.065C1649.58 803.759 1648.31 803.605 1646.8 803.605C1644.32 803.605 1642.37 804.035 1640.96 804.893C1639.55 805.721 1638.72 806.917 1638.48 808.481H1629C1629.18 806.212 1629.98 804.157 1631.39 802.317C1632.83 800.477 1634.89 799.021 1637.56 797.947C1640.22 796.843 1643.46 796.291 1647.26 796.291C1650.54 796.291 1653.41 796.705 1655.86 797.533C1658.32 798.331 1660.22 799.465 1661.57 800.937C1662.95 802.379 1663.64 804.065 1663.64 805.997C1663.64 807.561 1663.16 808.987 1662.21 810.275C1661.29 811.563 1659.82 812.591 1657.8 813.357C1655.8 814.124 1653.21 814.507 1650.02 814.507V813.541C1653.03 813.388 1655.6 813.587 1657.75 814.139C1659.93 814.691 1661.6 815.581 1662.76 816.807C1663.93 818.034 1664.51 819.613 1664.51 821.545C1664.51 823.631 1663.82 825.486 1662.44 827.111C1661.06 828.706 1659.05 829.963 1656.42 830.883C1653.78 831.803 1650.56 832.263 1646.76 832.263ZM1719.93 797.027V831.527H1710.86V800.431L1712.89 800.661L1699.55 831.527H1689.89L1676.5 800.753L1678.57 800.523V831.527H1669.51V797.027H1684.23L1696.6 826.651H1692.92L1705.21 797.027H1719.93ZM1726.38 797.027H1735.9V831.527H1726.38V797.027ZM1742.33 797.027H1751.85V831.527H1742.33V797.027ZM1769.47 797.027H1779.04V831.527H1769.47V797.027ZM1747.67 809.769H1773.43V818.233H1747.67V809.769ZM1793.64 831.527L1799.85 820.717H1799.99L1813.47 797.027H1823.82L1803.99 831.527H1793.64ZM1799.71 826.881L1782.46 797.027H1793L1806.48 820.487L1799.71 826.881ZM1643.82 872.083C1643.48 875.119 1642.44 877.787 1640.69 880.087C1638.94 882.357 1636.64 884.12 1633.79 885.377C1630.97 886.635 1627.72 887.263 1624.04 887.263C1620.02 887.263 1616.51 886.512 1613.5 885.009C1610.5 883.507 1608.15 881.406 1606.46 878.707C1604.81 876.009 1603.98 872.865 1603.98 869.277C1603.98 865.689 1604.81 862.546 1606.46 859.847C1608.15 857.149 1610.5 855.048 1613.5 853.545C1616.51 852.043 1620.02 851.291 1624.04 851.291C1627.72 851.291 1630.97 851.92 1633.79 853.177C1636.64 854.435 1638.94 856.213 1640.69 858.513C1642.44 860.783 1643.48 863.435 1643.82 866.471H1634.25C1633.94 864.999 1633.34 863.757 1632.45 862.745C1631.56 861.703 1630.4 860.905 1628.96 860.353C1627.55 859.801 1625.91 859.525 1624.04 859.525C1621.89 859.525 1620.03 859.924 1618.47 860.721C1616.91 861.488 1615.71 862.607 1614.88 864.079C1614.05 865.521 1613.64 867.253 1613.64 869.277C1613.64 871.301 1614.05 873.049 1614.88 874.521C1615.71 875.963 1616.91 877.082 1618.47 877.879C1620.03 878.646 1621.89 879.029 1624.04 879.029C1625.91 879.029 1627.55 878.769 1628.96 878.247C1630.4 877.726 1631.56 876.944 1632.45 875.901C1633.34 874.859 1633.94 873.586 1634.25 872.083H1643.82ZM1675.35 881.283V873.739H1686.67C1687.93 873.739 1689 873.54 1689.89 873.141C1690.78 872.712 1691.47 872.099 1691.96 871.301C1692.45 870.504 1692.69 869.553 1692.69 868.449C1692.69 867.345 1692.45 866.395 1691.96 865.597C1691.47 864.8 1690.78 864.202 1689.89 863.803C1689 863.374 1687.93 863.159 1686.67 863.159H1675.4V855.615H1687.22C1690.35 855.615 1693.03 856.152 1695.27 857.225C1697.54 858.299 1699.27 859.786 1700.47 861.687C1701.7 863.589 1702.31 865.843 1702.31 868.449C1702.31 871.025 1701.7 873.279 1700.47 875.211C1699.27 877.113 1697.54 878.6 1695.27 879.673C1693.03 880.747 1690.35 881.283 1687.22 881.283H1675.35ZM1661.51 881.283C1658.38 881.283 1655.68 880.747 1653.41 879.673C1651.17 878.6 1649.44 877.113 1648.21 875.211C1647.02 873.279 1646.42 871.025 1646.42 868.449C1646.42 865.843 1647.02 863.589 1648.21 861.687C1649.44 859.786 1651.17 858.299 1653.41 857.225C1655.68 856.152 1658.38 855.615 1661.51 855.615H1673.28V863.159H1662.01C1660.79 863.159 1659.73 863.374 1658.84 863.803C1657.95 864.202 1657.26 864.8 1656.77 865.597C1656.28 866.395 1656.03 867.345 1656.03 868.449C1656.03 869.553 1656.28 870.504 1656.77 871.301C1657.26 872.099 1657.95 872.712 1658.84 873.141C1659.73 873.54 1660.79 873.739 1662.01 873.739H1673.33V881.283H1661.51ZM1669.6 887.677V850.877H1679.12V887.677H1669.6ZM1735.88 865.827V872.727H1710.62V865.827H1735.88ZM1717.11 869.277L1714.86 883.123L1710.99 878.799H1737.4V886.527H1705.33L1707.96 869.277L1705.33 852.027H1737.17V859.755H1710.99L1714.86 855.431L1717.11 869.277ZM1762.28 852.027C1765.16 852.027 1767.65 852.518 1769.73 853.499C1771.85 854.481 1773.46 855.876 1774.56 857.685C1775.67 859.464 1776.22 861.549 1776.22 863.941C1776.22 866.303 1775.67 868.388 1774.56 870.197C1773.46 871.976 1771.85 873.356 1769.73 874.337C1767.65 875.319 1765.16 875.809 1762.28 875.809H1747.33V868.173H1761.68C1763.21 868.173 1764.41 867.805 1765.27 867.069C1766.13 866.303 1766.56 865.26 1766.56 863.941C1766.56 862.592 1766.13 861.549 1765.27 860.813C1764.41 860.047 1763.21 859.663 1761.68 859.663H1748.16L1752.44 855.247V886.527H1742.91V852.027H1762.28ZM1780.38 886.527V852.027H1789.76V881.513L1787.14 880.915L1806.69 852.027H1819.16V886.527H1809.73V856.489L1812.39 857.087L1792.48 886.527H1780.38ZM1438.69 948.473V933.109H1446.14L1449.18 933.201H1473.1L1475.49 933.109H1485.52V948.473H1476.6V941.527H1447.62V948.473H1438.69ZM1445.87 907.027H1479.59V938.859H1470.02V911.029L1474.34 915.353H1450.93L1454.88 912.179C1455.13 913.59 1455.27 914.955 1455.3 916.273C1455.36 917.592 1455.39 918.849 1455.39 920.045C1455.39 923.633 1455.07 926.654 1454.42 929.107C1453.81 931.561 1452.88 933.416 1451.62 934.673C1450.39 935.931 1448.84 936.559 1446.97 936.559L1442.97 933.247C1444.2 931.806 1445.1 929.843 1445.68 927.359C1446.27 924.845 1446.56 921.747 1446.56 918.067C1446.56 916.381 1446.5 914.617 1446.37 912.777C1446.25 910.937 1446.08 909.021 1445.87 907.027ZM1490.09 907.027H1499.61V941.527H1490.09V907.027ZM1532.54 922.345V929.107H1518.14L1518.09 928.923C1515.45 928.923 1513.14 928.479 1511.15 927.589C1509.18 926.7 1507.65 925.443 1506.55 923.817C1505.47 922.192 1504.94 920.291 1504.94 918.113C1504.94 915.875 1505.47 913.943 1506.55 912.317C1507.65 910.661 1509.18 909.373 1511.15 908.453C1513.14 907.503 1515.45 907.027 1518.09 907.027H1539.16V941.527H1529.59V909.557L1533.87 913.835H1519.47C1517.91 913.835 1516.68 914.219 1515.79 914.985C1514.93 915.721 1514.5 916.764 1514.5 918.113C1514.5 919.432 1514.93 920.475 1515.79 921.241C1516.68 921.977 1517.91 922.345 1519.47 922.345H1532.54ZM1526.83 925.381L1515.06 941.527H1504.02L1516.16 925.381H1526.83ZM1551.32 907.027H1585.18V941.527H1575.61V911.167L1579.93 915.491H1556.66L1560.66 912.317C1560.9 914.341 1561.07 916.289 1561.17 918.159C1561.26 919.999 1561.3 921.747 1561.3 923.403C1561.3 927.819 1560.9 931.423 1560.11 934.213C1559.31 936.973 1558.05 938.997 1556.34 940.285C1554.62 941.573 1552.39 942.217 1549.67 942.217C1548.47 942.217 1547.29 942.095 1546.12 941.849C1544.99 941.604 1543.95 941.236 1543 940.745V932.833C1544.34 933.355 1545.59 933.615 1546.72 933.615C1548.71 933.615 1550.14 932.711 1551 930.901C1551.89 929.092 1552.33 926.133 1552.33 922.023C1552.33 920.03 1552.24 917.791 1552.06 915.307C1551.9 912.823 1551.66 910.063 1551.32 907.027ZM1591.57 941.527V907.027H1601.09V938.307L1596.82 934.029H1610.25C1611.81 934.029 1613.02 933.631 1613.88 932.833C1614.77 932.036 1615.22 930.963 1615.22 929.613C1615.22 928.233 1614.77 927.16 1613.88 926.393C1613.02 925.627 1611.81 925.243 1610.25 925.243H1595.99V917.699H1610.85C1613.76 917.699 1616.26 918.205 1618.34 919.217C1620.46 920.199 1622.07 921.579 1623.17 923.357C1624.31 925.136 1624.88 927.221 1624.88 929.613C1624.88 932.005 1624.31 934.106 1623.17 935.915C1622.07 937.694 1620.46 939.074 1618.34 940.055C1616.26 941.037 1613.76 941.527 1610.85 941.527H1591.57ZM1629.04 907.027H1638.56V941.527H1629.04V907.027ZM1656.18 907.027H1665.74V941.527H1656.18V907.027ZM1634.37 919.769H1660.13V928.233H1634.37V919.769ZM1691.16 942.263C1687.08 942.263 1683.49 941.512 1680.39 940.009C1677.33 938.507 1674.94 936.406 1673.22 933.707C1671.53 931.009 1670.69 927.865 1670.69 924.277C1670.69 920.689 1671.53 917.546 1673.22 914.847C1674.94 912.149 1677.33 910.048 1680.39 908.545C1683.49 907.043 1687.08 906.291 1691.16 906.291C1695.27 906.291 1698.86 907.043 1701.92 908.545C1704.99 910.048 1707.38 912.149 1709.1 914.847C1710.82 917.546 1711.67 920.689 1711.67 924.277C1711.67 927.865 1710.82 931.009 1709.1 933.707C1707.38 936.406 1704.99 938.507 1701.92 940.009C1698.86 941.512 1695.27 942.263 1691.16 942.263ZM1691.16 933.753C1693.4 933.753 1695.33 933.37 1696.95 932.603C1698.58 931.837 1699.82 930.748 1700.68 929.337C1701.57 927.927 1702.01 926.24 1702.01 924.277C1702.01 922.315 1701.57 920.628 1700.68 919.217C1699.82 917.807 1698.58 916.718 1696.95 915.951C1695.33 915.185 1693.4 914.801 1691.16 914.801C1688.95 914.801 1687.03 915.185 1685.41 915.951C1683.78 916.718 1682.53 917.807 1681.64 919.217C1680.75 920.628 1680.3 922.315 1680.3 924.277C1680.3 926.24 1680.75 927.927 1681.64 929.337C1682.53 930.748 1683.78 931.837 1685.41 932.603C1687.03 933.37 1688.95 933.753 1691.16 933.753ZM1754.91 927.083C1754.57 930.119 1753.53 932.787 1751.78 935.087C1750.03 937.357 1747.73 939.12 1744.88 940.377C1742.06 941.635 1738.81 942.263 1735.13 942.263C1731.11 942.263 1727.6 941.512 1724.59 940.009C1721.59 938.507 1719.24 936.406 1717.56 933.707C1715.9 931.009 1715.07 927.865 1715.07 924.277C1715.07 920.689 1715.9 917.546 1717.56 914.847C1719.24 912.149 1721.59 910.048 1724.59 908.545C1727.6 907.043 1731.11 906.291 1735.13 906.291C1738.81 906.291 1742.06 906.92 1744.88 908.177C1747.73 909.435 1750.03 911.213 1751.78 913.513C1753.53 915.783 1754.57 918.435 1754.91 921.471H1745.34C1745.03 919.999 1744.43 918.757 1743.55 917.745C1742.66 916.703 1741.49 915.905 1740.05 915.353C1738.64 914.801 1737 914.525 1735.13 914.525C1732.98 914.525 1731.13 914.924 1729.56 915.721C1728 916.488 1726.8 917.607 1725.97 919.079C1725.15 920.521 1724.73 922.253 1724.73 924.277C1724.73 926.301 1725.15 928.049 1725.97 929.521C1726.8 930.963 1728 932.082 1729.56 932.879C1731.13 933.646 1732.98 934.029 1735.13 934.029C1737 934.029 1738.64 933.769 1740.05 933.247C1741.49 932.726 1742.66 931.944 1743.55 930.901C1744.43 929.859 1745.03 928.586 1745.34 927.083H1754.91ZM1769.04 911.213H1778.61V941.527H1769.04V911.213ZM1755.89 907.027H1791.77V915.491H1755.89V907.027ZM1795.88 907.027H1805.4V941.527H1795.88V907.027ZM1815.5 941.987C1814.52 941.987 1813.62 941.757 1812.79 941.297C1811.99 940.837 1811.36 940.209 1810.9 939.411C1810.44 938.583 1810.21 937.679 1810.21 936.697C1810.21 935.716 1810.44 934.827 1810.9 934.029C1811.36 933.232 1811.99 932.603 1812.79 932.143C1813.62 931.653 1814.52 931.407 1815.5 931.407C1816.52 931.407 1817.42 931.653 1818.22 932.143C1819.01 932.603 1819.64 933.232 1820.1 934.029C1820.56 934.827 1820.79 935.716 1820.79 936.697C1820.79 937.679 1820.56 938.583 1820.1 939.411C1819.64 940.209 1819.01 940.837 1818.22 941.297C1817.42 941.757 1816.52 941.987 1815.5 941.987Z" fill="white"/>
<path  d="M41.538 533.224C41.2007 536.26 40.158 538.928 38.41 541.228C36.662 543.497 34.362 545.261 31.51 546.518C28.6887 547.775 25.438 548.404 21.758 548.404C17.7407 548.404 14.2293 547.653 11.224 546.15C8.21867 544.647 5.87267 542.547 4.186 539.848C2.53 537.149 1.702 534.006 1.702 530.418C1.702 526.83 2.53 523.687 4.186 520.988C5.87267 518.289 8.21867 516.189 11.224 514.686C14.2293 513.183 17.7407 512.432 21.758 512.432C25.438 512.432 28.6887 513.061 31.51 514.318C34.362 515.575 36.662 517.354 38.41 519.654C40.158 521.923 41.2007 524.576 41.538 527.612H31.97C31.6633 526.14 31.0653 524.898 30.176 523.886C29.2867 522.843 28.1213 522.046 26.68 521.494C25.2693 520.942 23.6287 520.666 21.758 520.666C19.6113 520.666 17.756 521.065 16.192 521.862C14.628 522.629 13.432 523.748 12.604 525.22C11.776 526.661 11.362 528.394 11.362 530.418C11.362 532.442 11.776 534.19 12.604 535.662C13.432 537.103 14.628 538.223 16.192 539.02C17.756 539.787 19.6113 540.17 21.758 540.17C23.6287 540.17 25.2693 539.909 26.68 539.388C28.1213 538.867 29.2867 538.085 30.176 537.042C31.0653 535.999 31.6633 534.727 31.97 533.224H41.538ZM82.6893 513.168V547.668H73.1673V517.308L77.4453 521.632H51.4093L55.6873 517.308V547.668H46.1653V513.168H82.6893ZM118.597 526.968V533.868H93.3426V526.968H118.597ZM99.8286 530.418L97.5746 544.264L93.7106 539.94H120.115V547.668H88.0526L90.6746 530.418L88.0526 513.168H119.885V520.896H93.7106L97.5746 516.572L99.8286 530.418ZM161.788 513.168V542.332L158.384 539.204H167.768V554.614H158.798V545.874L161.42 547.668H125.632V513.168H135.154V542.332L132.072 539.204H155.624L152.266 542.332V513.168H161.788ZM172.306 513.168H181.828V547.668H172.306V513.168ZM194.969 541.044V533.362H218.751V541.044H194.969ZM213.323 513.168L229.009 547.668H218.843L205.687 517.216H208.447L195.245 547.668H185.079L200.765 513.168H213.323ZM238.027 513.168H271.883V547.668H262.315V517.308L266.639 521.632H243.363L247.365 518.458C247.61 520.482 247.779 522.429 247.871 524.3C247.963 526.14 248.009 527.888 248.009 529.544C248.009 533.96 247.61 537.563 246.813 540.354C246.015 543.114 244.758 545.138 243.041 546.426C241.323 547.714 239.1 548.358 236.371 548.358C235.175 548.358 233.994 548.235 232.829 547.99C231.694 547.745 230.651 547.377 229.701 546.886V538.974C231.05 539.495 232.292 539.756 233.427 539.756C235.42 539.756 236.846 538.851 237.705 537.042C238.594 535.233 239.039 532.273 239.039 528.164C239.039 526.171 238.947 523.932 238.763 521.448C238.609 518.964 238.364 516.204 238.027 513.168ZM278.277 513.168H287.799V547.668H278.277V513.168ZM332.542 533.224C332.205 536.26 331.162 538.928 329.414 541.228C327.666 543.497 325.366 545.261 322.514 546.518C319.693 547.775 316.442 548.404 312.762 548.404C308.745 548.404 305.233 547.653 302.228 546.15C299.223 544.647 296.877 542.547 295.19 539.848C293.534 537.149 292.706 534.006 292.706 530.418C292.706 526.83 293.534 523.687 295.19 520.988C296.877 518.289 299.223 516.189 302.228 514.686C305.233 513.183 308.745 512.432 312.762 512.432C316.442 512.432 319.693 513.061 322.514 514.318C325.366 515.575 327.666 517.354 329.414 519.654C331.162 521.923 332.205 524.576 332.542 527.612H322.974C322.667 526.14 322.069 524.898 321.18 523.886C320.291 522.843 319.125 522.046 317.684 521.494C316.273 520.942 314.633 520.666 312.762 520.666C310.615 520.666 308.76 521.065 307.196 521.862C305.632 522.629 304.436 523.748 303.608 525.22C302.78 526.661 302.366 528.394 302.366 530.418C302.366 532.442 302.78 534.19 303.608 535.662C304.436 537.103 305.632 538.223 307.196 539.02C308.76 539.787 310.615 540.17 312.762 540.17C314.633 540.17 316.273 539.909 317.684 539.388C319.125 538.867 320.291 538.085 321.18 537.042C322.069 535.999 322.667 534.727 322.974 533.224H332.542ZM346.676 517.354H356.244V547.668H346.676V517.354ZM333.52 513.168H369.4V521.632H333.52V513.168ZM374.702 541.044V533.362H398.484V541.044H374.702ZM393.056 513.168L408.742 547.668H398.576L385.42 517.216H388.18L374.978 547.668H364.812L380.498 513.168H393.056ZM462.425 513.168V547.668H453.363V516.572L455.387 516.802L442.047 547.668H432.387L419.001 516.894L421.071 516.664V547.668H412.009V513.168H426.729L439.103 542.792H435.423L447.705 513.168H462.425ZM0.874 609.614L0.874 594.25H8.326L11.362 594.342H35.282L37.674 594.25H47.702V609.614H38.778V602.668H9.798V609.614H0.874ZM8.05 568.168H41.768V600H32.2V572.17L36.524 576.494H13.11L17.066 573.32C17.3113 574.731 17.4493 576.095 17.48 577.414C17.5413 578.733 17.572 579.99 17.572 581.186C17.572 584.774 17.25 587.795 16.606 590.248C15.9927 592.701 15.0573 594.557 13.8 595.814C12.5733 597.071 11.0247 597.7 9.154 597.7L5.152 594.388C6.37867 592.947 7.28333 590.984 7.866 588.5C8.44867 585.985 8.74 582.888 8.74 579.208C8.74 577.521 8.67867 575.758 8.556 573.918C8.43333 572.078 8.26467 570.161 8.05 568.168ZM58.0247 568.168H91.8807V602.668H82.3127V572.308L86.6367 576.632H63.3607L67.3627 573.458C67.608 575.482 67.7767 577.429 67.8687 579.3C67.9607 581.14 68.0067 582.888 68.0067 584.544C68.0067 588.96 67.608 592.563 66.8107 595.354C66.0134 598.114 64.756 600.138 63.0387 601.426C61.3214 602.714 59.098 603.358 56.3687 603.358C55.1727 603.358 53.992 603.235 52.8267 602.99C51.692 602.745 50.6494 602.377 49.6987 601.886V593.974C51.048 594.495 52.29 594.756 53.4247 594.756C55.418 594.756 56.844 593.851 57.7027 592.042C58.592 590.233 59.0367 587.273 59.0367 583.164C59.0367 581.171 58.9447 578.932 58.7607 576.448C58.6074 573.964 58.362 571.204 58.0247 568.168ZM124.771 583.486V590.248H110.373L110.327 590.064C107.689 590.064 105.374 589.619 103.381 588.73C101.418 587.841 99.8847 586.583 98.7807 584.958C97.7074 583.333 97.1707 581.431 97.1707 579.254C97.1707 577.015 97.7074 575.083 98.7807 573.458C99.8847 571.802 101.418 570.514 103.381 569.594C105.374 568.643 107.689 568.168 110.327 568.168H131.395V602.668H121.827V570.698L126.105 574.976H111.707C110.143 574.976 108.916 575.359 108.027 576.126C107.168 576.862 106.739 577.905 106.739 579.254C106.739 580.573 107.168 581.615 108.027 582.382C108.916 583.118 110.143 583.486 111.707 583.486H124.771ZM119.067 586.522L107.291 602.668H96.2507L108.395 586.522H119.067ZM168.582 568.168C171.465 568.168 173.949 568.659 176.034 569.64C178.15 570.621 179.76 572.017 180.864 573.826C181.968 575.605 182.52 577.69 182.52 580.082C182.52 582.443 181.968 584.529 180.864 586.338C179.76 588.117 178.15 589.497 176.034 590.478C173.949 591.459 171.465 591.95 168.582 591.95H153.632V584.314H167.984C169.517 584.314 170.713 583.946 171.572 583.21C172.431 582.443 172.86 581.401 172.86 580.082C172.86 578.733 172.431 577.69 171.572 576.954C170.713 576.187 169.517 575.804 167.984 575.804H154.46L158.738 571.388V602.668H149.216V568.168H168.582ZM205.633 603.404C201.554 603.404 197.966 602.653 194.869 601.15C191.802 599.647 189.41 597.547 187.693 594.848C186.006 592.149 185.163 589.006 185.163 585.418C185.163 581.83 186.006 578.687 187.693 575.988C189.41 573.289 191.802 571.189 194.869 569.686C197.966 568.183 201.554 567.432 205.633 567.432C209.742 567.432 213.33 568.183 216.397 569.686C219.464 571.189 221.856 573.289 223.573 575.988C225.29 578.687 226.149 581.83 226.149 585.418C226.149 589.006 225.29 592.149 223.573 594.848C221.856 597.547 219.464 599.647 216.397 601.15C213.33 602.653 209.742 603.404 205.633 603.404ZM205.633 594.894C207.872 594.894 209.804 594.511 211.429 593.744C213.054 592.977 214.296 591.889 215.155 590.478C216.044 589.067 216.489 587.381 216.489 585.418C216.489 583.455 216.044 581.769 215.155 580.358C214.296 578.947 213.054 577.859 211.429 577.092C209.804 576.325 207.872 575.942 205.633 575.942C203.425 575.942 201.508 576.325 199.883 577.092C198.258 577.859 197 578.947 196.111 580.358C195.222 581.769 194.777 583.455 194.777 585.418C194.777 587.381 195.222 589.067 196.111 590.478C197 591.889 198.258 592.977 199.883 593.744C201.508 594.511 203.425 594.894 205.633 594.894ZM247.302 603.404C243.652 603.404 240.448 602.898 237.688 601.886C234.958 600.874 232.827 599.433 231.294 597.562C229.791 595.691 228.978 593.499 228.856 590.984H238.424C238.638 592.64 239.497 593.913 241 594.802C242.502 595.661 244.603 596.09 247.302 596.09C249.847 596.09 251.81 595.753 253.19 595.078C254.57 594.373 255.26 593.33 255.26 591.95C255.26 590.754 254.662 589.88 253.466 589.328C252.3 588.776 250.368 588.5 247.67 588.5H241.368V582.198H247.532C249.126 582.198 250.43 582.06 251.442 581.784C252.454 581.477 253.205 581.048 253.696 580.496C254.217 579.944 254.478 579.3 254.478 578.564C254.478 577.736 254.186 577.046 253.604 576.494C253.052 575.911 252.239 575.482 251.166 575.206C250.123 574.899 248.85 574.746 247.348 574.746C244.864 574.746 242.916 575.175 241.506 576.034C240.095 576.862 239.267 578.058 239.022 579.622H229.546C229.73 577.353 230.527 575.298 231.938 573.458C233.379 571.618 235.434 570.161 238.102 569.088C240.77 567.984 244.005 567.432 247.808 567.432C251.089 567.432 253.956 567.846 256.41 568.674C258.863 569.471 260.764 570.606 262.114 572.078C263.494 573.519 264.184 575.206 264.184 577.138C264.184 578.702 263.708 580.128 262.758 581.416C261.838 582.704 260.366 583.731 258.342 584.498C256.348 585.265 253.757 585.648 250.568 585.648V584.682C253.573 584.529 256.149 584.728 258.296 585.28C260.473 585.832 262.144 586.721 263.31 587.948C264.475 589.175 265.058 590.754 265.058 592.686C265.058 594.771 264.368 596.627 262.988 598.252C261.608 599.847 259.599 601.104 256.962 602.024C254.324 602.944 251.104 603.404 247.302 603.404ZM293.424 585.786L294.206 583.992C296.874 584.053 299.067 584.467 300.784 585.234C302.532 585.97 303.835 587.013 304.694 588.362C305.553 589.681 305.982 591.214 305.982 592.962C305.982 594.833 305.553 596.504 304.694 597.976C303.835 599.417 302.547 600.567 300.83 601.426C299.143 602.254 297.027 602.668 294.482 602.668H268.998L271.666 584.958L268.998 568.168H293.562C296.751 568.168 299.235 568.919 301.014 570.422C302.793 571.894 303.682 573.949 303.682 576.586C303.682 578.027 303.345 579.407 302.67 580.726C301.995 582.045 300.907 583.164 299.404 584.084C297.932 584.973 295.939 585.541 293.424 585.786ZM278.428 600.46L274.748 595.998H291.906C293.286 595.998 294.359 595.661 295.126 594.986C295.893 594.311 296.276 593.376 296.276 592.18C296.276 590.984 295.862 590.033 295.034 589.328C294.206 588.592 292.979 588.224 291.354 588.224H277.186V581.692H290.066C291.17 581.692 292.09 581.37 292.826 580.726C293.593 580.051 293.976 579.147 293.976 578.012C293.976 577.092 293.654 576.341 293.01 575.758C292.366 575.145 291.446 574.838 290.25 574.838H274.794L278.428 570.376L280.774 584.958L278.428 600.46ZM310.665 602.668V568.168H320.049V597.654L317.427 597.056L336.977 568.168H349.443V602.668H340.013V572.63L342.681 573.228L322.763 602.668H310.665ZM366.712 572.354H376.28V602.668H366.712V572.354ZM353.556 568.168H389.436V576.632H353.556V568.168ZM393.546 602.668V568.168H403.022V595.078L400.492 593.1L420.042 568.168H430.116L402.148 602.668H393.546ZM410.014 586.2L417.006 580.404L430.576 602.668H419.766L410.014 586.2ZM441.714 602.668L447.924 591.858H448.062L461.54 568.168H471.89L452.064 602.668H441.714ZM447.786 598.022L430.536 568.168H441.07L454.548 591.628L447.786 598.022Z" fill="white"/>
<path  d="M506.031 110.579L474.53 62.992H2.67969V2H715.146L912.867 93.1528V2L1247.99 6.02145L1361.26 110.579L1629.36 2V184.976H1827.08V268.756H1207.77L1176.27 350.525H1434.99V382.027H1291.55L1260.72 461.115H1827.08V645.432H1735.25L1818.36 717.147H1337.13L1260.72 788.193V849.185H1558.98L1585.79 896.772H1413.54V967.147H1818.36V1002H1237.26H935.656L715.146 906.826V1002H2.67969V906.826H302.948L2.67969 717.147V632.697H506.031V487.255H2.67969V399.453L65.0121 350.525H2.67969V292.214H276.138L302.948 247.308H611.929V162.858H506.031V110.579Z" stroke="white" stroke-width="2"/>
</svg>
