<svg width="1920" height="1068" viewBox="0 0 1920 1068" fill="none" xmlns="http://www.w3.org/2000/svg">
<path d="M1484.65 139.099L1501.4 169.497H1359.96H1358.46V170.997V243.804V245.304H1359.96H1918.5V725.236H1391.35H1389.85V726.736V780.676H1344.59H1343.09V782.176V851.643V853.143H1344.59H1626.98V885.545H1498.22H1496.72V887.045V959.852V961.352H1498.22H1918.5V1065.89H1.5V974.043H550.124H552.032L551.582 972.19L520.459 843.993L520.181 842.847H519.001H1.5V417.636H347.051H348.551V416.136V363.532H628.546H630.046V362.032V287.889V286.389H628.546H570.787L551.123 236.574L550.748 235.624H549.727H523.944L496.969 180.714L496.557 179.876H495.623H1.5V1.5H1918.5V58.616H1293.83H1292.33V60.116V137.599V139.099H1293.83H1484.65Z" stroke="white" stroke-width="3"/>
</svg>
