<svg width="900" height="1066" viewBox="0 0 900 1066" fill="none" xmlns="http://www.w3.org/2000/svg">
<path d="M524.614 852.745C524.364 854.944 523.605 856.882 522.336 858.559C521.066 860.214 519.389 861.506 517.304 862.435C515.218 863.364 512.838 863.829 510.164 863.829C507.24 863.829 504.667 863.274 502.446 862.163C500.247 861.052 498.536 859.5 497.312 857.505C496.088 855.51 495.476 853.187 495.476 850.535C495.476 847.883 496.088 845.56 497.312 843.565C498.536 841.57 500.247 840.018 502.446 838.907C504.667 837.796 507.24 837.241 510.164 837.241C512.838 837.241 515.218 837.706 517.304 838.635C519.389 839.564 521.066 840.856 522.336 842.511C523.605 844.166 524.364 846.104 524.614 848.325H518.154C517.927 847.169 517.462 846.183 516.76 845.367C516.08 844.551 515.173 843.928 514.04 843.497C512.929 843.044 511.637 842.817 510.164 842.817C508.464 842.817 507.002 843.134 505.778 843.769C504.554 844.381 503.613 845.265 502.956 846.421C502.298 847.577 501.97 848.948 501.97 850.535C501.97 852.122 502.298 853.493 502.956 854.649C503.613 855.805 504.554 856.7 505.778 857.335C507.002 857.947 508.464 858.253 510.164 858.253C511.637 858.253 512.929 858.038 514.04 857.607C515.173 857.176 516.08 856.553 516.76 855.737C517.462 854.921 517.927 853.924 518.154 852.745H524.614ZM544.938 850.773L545.482 849.515C547.477 849.56 549.109 849.866 550.378 850.433C551.67 851 552.622 851.782 553.234 852.779C553.869 853.754 554.186 854.887 554.186 856.179C554.186 857.539 553.869 858.763 553.234 859.851C552.599 860.916 551.647 861.755 550.378 862.367C549.131 862.979 547.567 863.285 545.686 863.285H527.326L529.298 850.195L527.326 837.785H545.04C547.397 837.785 549.222 838.34 550.514 839.451C551.829 840.539 552.486 842.046 552.486 843.973C552.486 845.038 552.237 846.058 551.738 847.033C551.239 848.008 550.446 848.835 549.358 849.515C548.27 850.172 546.797 850.592 544.938 850.773ZM533.65 861.721L531.202 858.695H544.156C545.267 858.695 546.128 858.434 546.74 857.913C547.375 857.369 547.692 856.61 547.692 855.635C547.692 854.66 547.341 853.89 546.638 853.323C545.958 852.734 544.938 852.439 543.578 852.439H532.97V847.951H542.762C543.691 847.951 544.462 847.69 545.074 847.169C545.686 846.625 545.992 845.888 545.992 844.959C545.992 844.211 545.731 843.599 545.21 843.123C544.689 842.624 543.929 842.375 542.932 842.375H531.236L533.65 839.349L535.452 850.195L533.65 861.721ZM557.825 837.785H564.251V863.285H557.825V837.785ZM577.272 840.607H583.698V863.285H577.272V840.607ZM567.344 837.785H593.626V843.463H567.344V837.785ZM606.77 855.329C603.166 855.329 600.412 854.4 598.508 852.541C596.604 850.682 595.652 847.985 595.652 844.449V837.785H602.078V843.939C602.078 845.843 602.588 847.282 603.608 848.257C604.65 849.209 606.203 849.685 608.266 849.685C609.467 849.685 610.714 849.549 612.006 849.277C613.32 848.982 614.635 848.574 615.95 848.053L616.324 853.187C614.941 853.89 613.422 854.422 611.768 854.785C610.136 855.148 608.47 855.329 606.77 855.329ZM615.066 863.285V837.785H621.492V863.285H615.066ZM647.91 848.155V852.915H629.448V848.155H647.91ZM633.8 850.535L632.1 861.075L629.414 858.049H648.998V863.285H625.674L627.646 850.535L625.674 837.785H648.828V843.021H629.414L632.1 839.995L633.8 850.535ZM667.328 837.785C669.413 837.785 671.204 838.148 672.7 838.873C674.218 839.576 675.374 840.573 676.168 841.865C676.984 843.157 677.392 844.664 677.392 846.387C677.392 848.11 676.984 849.617 676.168 850.909C675.374 852.201 674.218 853.21 672.7 853.935C671.204 854.638 669.413 854.989 667.328 854.989H656.176V849.787H666.988C668.212 849.787 669.175 849.492 669.878 848.903C670.58 848.291 670.932 847.452 670.932 846.387C670.932 845.322 670.58 844.494 669.878 843.905C669.175 843.293 668.212 842.987 666.988 842.987H656.754L659.644 839.995V863.285H653.218V837.785H667.328ZM682.179 858.151V852.983H699.791V858.151H682.179ZM695.303 837.785L707.067 863.285H700.233L690.135 840.471H692.107L682.043 863.285H675.209L686.973 837.785H695.303ZM746.213 837.785V863.285H740.093V840.029L741.589 840.131L731.219 863.285H724.657L714.287 840.199L715.783 840.063V863.285H709.663V837.785H719.557L729.247 860.089H726.663L736.319 837.785H746.213ZM749.943 868.249L753.275 861.211L753.615 863.523C752.957 863.523 752.345 863.364 751.779 863.047C751.235 862.73 750.804 862.299 750.487 861.755C750.169 861.188 750.011 860.588 750.011 859.953C750.011 859.273 750.169 858.672 750.487 858.151C750.804 857.607 751.235 857.176 751.779 856.859C752.345 856.542 752.957 856.383 753.615 856.383C754.317 856.383 754.941 856.542 755.485 856.859C756.029 857.176 756.459 857.618 756.777 858.185C757.094 858.729 757.253 859.352 757.253 860.055C757.253 860.69 757.094 861.37 756.777 862.095C756.482 862.82 755.961 863.75 755.213 864.883L753.105 868.249H749.943ZM810.068 837.785V860.123L807.348 857.607H814.488V868.453H808.47V861.279L811.36 863.285H769.03V837.785H775.456V860.123L772.736 857.607H789.056L786.336 860.123V837.785H792.762V860.123L790.042 857.607H806.362L803.642 860.123V837.785H810.068ZM831.079 863.829C828.087 863.829 825.458 863.274 823.191 862.163C820.947 861.052 819.202 859.5 817.955 857.505C816.708 855.51 816.085 853.187 816.085 850.535C816.085 847.883 816.708 845.56 817.955 843.565C819.202 841.57 820.947 840.018 823.191 838.907C825.458 837.796 828.087 837.241 831.079 837.241C834.071 837.241 836.689 837.796 838.933 838.907C841.2 840.018 842.956 841.57 844.203 843.565C845.472 845.56 846.107 847.883 846.107 850.535C846.107 853.187 845.472 855.51 844.203 857.505C842.956 859.5 841.2 861.052 838.933 862.163C836.689 863.274 834.071 863.829 831.079 863.829ZM831.079 858.083C832.847 858.083 834.366 857.788 835.635 857.199C836.904 856.587 837.879 855.714 838.559 854.581C839.262 853.448 839.613 852.099 839.613 850.535C839.613 848.971 839.262 847.622 838.559 846.489C837.879 845.356 836.904 844.494 835.635 843.905C834.366 843.293 832.847 842.987 831.079 842.987C829.334 842.987 827.826 843.293 826.557 843.905C825.288 844.494 824.302 845.356 823.599 846.489C822.896 847.622 822.545 848.971 822.545 850.535C822.545 852.099 822.896 853.448 823.599 854.581C824.302 855.714 825.288 856.587 826.557 857.199C827.826 857.788 829.334 858.083 831.079 858.083ZM503.055 898.607L500.165 901.497V878.785H506.591V904.285H465.553V878.785H471.979V901.497L469.089 898.607H485.341L482.859 901.497V878.785H489.285V901.497L486.701 898.607H503.055ZM517.558 904.285L522.046 896.499H522.148L532.28 878.785H539.216L524.494 904.285H517.558ZM521.978 900.715L509.262 878.785H516.334L526.466 896.363L521.978 900.715ZM541.755 904.285V878.785H548.147V899.151L546.413 897.825L561.509 878.785H568.309L547.535 904.285H541.755ZM553.961 891.943L558.585 887.965L568.649 904.285H561.373L553.961 891.943ZM575.597 899.151V893.983H593.209V899.151H575.597ZM588.721 878.785L600.485 904.285H593.651L583.553 881.471H585.525L575.461 904.285H568.627L580.391 878.785H588.721ZM627.833 904.829C624.863 904.829 622.268 904.274 620.047 903.163C617.825 902.052 616.103 900.5 614.879 898.505C613.655 896.51 613.043 894.187 613.043 891.535C613.043 888.883 613.655 886.56 614.879 884.565C616.103 882.57 617.825 881.018 620.047 879.907C622.268 878.796 624.863 878.241 627.833 878.241C630.802 878.241 633.397 878.796 635.619 879.907C637.863 881.018 639.597 882.57 640.821 884.565C642.067 886.56 642.691 888.883 642.691 891.535C642.691 894.187 642.067 896.51 640.821 898.505C639.597 900.5 637.863 902.052 635.619 903.163C633.397 904.274 630.802 904.829 627.833 904.829ZM603.081 904.285V878.785H609.507V904.285H603.081ZM606.651 894.187V888.543H616.341V894.187H606.651ZM627.833 899.083C629.578 899.083 631.074 898.777 632.321 898.165C633.567 897.553 634.531 896.68 635.211 895.547C635.891 894.414 636.231 893.076 636.231 891.535C636.231 889.971 635.891 888.634 635.211 887.523C634.531 886.39 633.567 885.517 632.321 884.905C631.074 884.293 629.578 883.987 627.833 883.987C626.11 883.987 624.625 884.293 623.379 884.905C622.132 885.517 621.169 886.39 620.489 887.523C619.809 888.634 619.469 889.971 619.469 891.535C619.469 893.076 619.809 894.414 620.489 895.547C621.169 896.68 622.132 897.553 623.379 898.165C624.625 898.777 626.11 899.083 627.833 899.083ZM653.473 881.607H659.899V904.285H653.473V881.607ZM643.545 878.785H669.827V884.463H643.545V878.785ZM672.907 904.285V878.785H679.333V902.075L676.443 899.219H686.575C687.822 899.219 688.796 898.902 689.499 898.267C690.224 897.632 690.587 896.771 690.587 895.683C690.587 894.572 690.224 893.7 689.499 893.065C688.796 892.43 687.822 892.113 686.575 892.113H675.865V887.047H686.949C689.057 887.047 690.859 887.41 692.355 888.135C693.874 888.838 695.041 889.835 695.857 891.127C696.673 892.419 697.081 893.938 697.081 895.683C697.081 897.406 696.673 898.913 695.857 900.205C695.041 901.497 693.874 902.506 692.355 903.231C690.859 903.934 689.057 904.285 686.949 904.285H672.907ZM719.534 904.829C716.882 904.829 714.559 904.455 712.564 903.707C710.57 902.959 709.017 901.905 707.906 900.545C706.796 899.162 706.195 897.553 706.104 895.717H712.53C712.712 897.054 713.392 898.086 714.57 898.811C715.749 899.514 717.404 899.865 719.534 899.865C721.529 899.865 723.07 899.582 724.158 899.015C725.269 898.448 725.824 897.598 725.824 896.465C725.824 895.49 725.36 894.776 724.43 894.323C723.501 893.87 721.994 893.643 719.908 893.643H715.114V889.359H719.806C721.053 889.359 722.073 889.234 722.866 888.985C723.66 888.736 724.249 888.384 724.634 887.931C725.02 887.455 725.212 886.934 725.212 886.367C725.212 885.687 724.986 885.109 724.532 884.633C724.079 884.157 723.433 883.806 722.594 883.579C721.756 883.33 720.747 883.205 719.568 883.205C717.642 883.205 716.112 883.556 714.978 884.259C713.868 884.939 713.21 885.902 713.006 887.149H706.648C706.762 885.494 707.34 883.998 708.382 882.661C709.448 881.324 710.944 880.258 712.87 879.465C714.797 878.649 717.132 878.241 719.874 878.241C722.277 878.241 724.362 878.547 726.13 879.159C727.898 879.771 729.27 880.61 730.244 881.675C731.242 882.74 731.74 883.976 731.74 885.381C731.74 886.537 731.389 887.602 730.686 888.577C730.006 889.552 728.93 890.322 727.456 890.889C726.006 891.456 724.124 891.728 721.812 891.705V891.025C724.011 890.912 725.892 891.07 727.456 891.501C729.043 891.909 730.256 892.566 731.094 893.473C731.956 894.38 732.386 895.536 732.386 896.941C732.386 898.482 731.888 899.854 730.89 901.055C729.893 902.234 728.431 903.163 726.504 903.843C724.6 904.5 722.277 904.829 719.534 904.829ZM772.809 878.785V904.285H766.689V881.029L768.185 881.131L757.815 904.285H751.253L740.883 881.199L742.379 881.063V904.285H736.259V878.785H746.153L755.843 901.089H753.259L762.915 878.785H772.809ZM777.762 878.785H784.188V904.285H777.762V878.785ZM789.151 878.785H795.577V904.285H789.151V878.785ZM809.415 878.785H815.807V904.285H809.415V878.785ZM792.721 888.543H812.135V894.187H792.721V888.543ZM826.812 904.285L831.3 896.499H831.402L841.534 878.785H848.47L833.748 904.285H826.812ZM831.232 900.715L818.516 878.785H825.588L835.72 896.363L831.232 900.715ZM716.494 934.745C716.245 936.944 715.486 938.882 714.216 940.559C712.947 942.214 711.27 943.506 709.184 944.435C707.099 945.364 704.719 945.829 702.044 945.829C699.12 945.829 696.548 945.274 694.326 944.163C692.128 943.052 690.416 941.5 689.192 939.505C687.968 937.51 687.356 935.187 687.356 932.535C687.356 929.883 687.968 927.56 689.192 925.565C690.416 923.57 692.128 922.018 694.326 920.907C696.548 919.796 699.12 919.241 702.044 919.241C704.719 919.241 707.099 919.706 709.184 920.635C711.27 921.564 712.947 922.856 714.216 924.511C715.486 926.166 716.245 928.104 716.494 930.325H710.034C709.808 929.169 709.343 928.183 708.64 927.367C707.96 926.551 707.054 925.928 705.92 925.497C704.81 925.044 703.518 924.817 702.044 924.817C700.344 924.817 698.882 925.134 697.658 925.769C696.434 926.381 695.494 927.265 694.836 928.421C694.179 929.577 693.85 930.948 693.85 932.535C693.85 934.122 694.179 935.493 694.836 936.649C695.494 937.805 696.434 938.7 697.658 939.335C698.882 939.947 700.344 940.253 702.044 940.253C703.518 940.253 704.81 940.038 705.92 939.607C707.054 939.176 707.96 938.553 708.64 937.737C709.343 936.921 709.808 935.924 710.034 934.745H716.494ZM739.673 941.273V936.173H748.173C749.193 936.173 750.054 936.003 750.757 935.663C751.482 935.323 752.037 934.836 752.423 934.201C752.831 933.544 753.035 932.773 753.035 931.889C753.035 931.005 752.831 930.246 752.423 929.611C752.037 928.976 751.482 928.489 750.757 928.149C750.054 927.809 749.193 927.639 748.173 927.639H739.707V922.573H748.513C750.802 922.573 752.763 922.958 754.395 923.729C756.027 924.5 757.285 925.588 758.169 926.993C759.075 928.376 759.529 930.008 759.529 931.889C759.529 933.77 759.075 935.414 758.169 936.819C757.285 938.224 756.027 939.324 754.395 940.117C752.763 940.888 750.802 941.273 748.513 941.273H739.673ZM729.507 941.273C727.263 941.273 725.313 940.888 723.659 940.117C722.027 939.324 720.757 938.224 719.851 936.819C718.967 935.414 718.525 933.77 718.525 931.889C718.525 930.008 718.967 928.376 719.851 926.993C720.757 925.588 722.027 924.5 723.659 923.729C725.313 922.958 727.263 922.573 729.507 922.573H738.313V927.639H729.847C728.849 927.639 727.988 927.809 727.263 928.149C726.537 928.489 725.982 928.976 725.597 929.611C725.211 930.246 725.019 931.005 725.019 931.889C725.019 932.773 725.211 933.544 725.597 934.201C725.982 934.836 726.537 935.323 727.263 935.663C727.988 936.003 728.849 936.173 729.847 936.173H738.347V941.273H729.507ZM735.797 946.067V919.003H742.223V946.067H735.797ZM784.175 930.155V934.915H765.713V930.155H784.175ZM770.065 932.535L768.365 943.075L765.679 940.049H785.263V945.285H761.939L763.911 932.535L761.939 919.785H785.093V925.021H765.679L768.365 921.995L770.065 932.535ZM803.593 919.785C805.678 919.785 807.469 920.148 808.965 920.873C810.484 921.576 811.64 922.573 812.433 923.865C813.249 925.157 813.657 926.664 813.657 928.387C813.657 930.11 813.249 931.617 812.433 932.909C811.64 934.201 810.484 935.21 808.965 935.935C807.469 936.638 805.678 936.989 803.593 936.989H792.441V931.787H803.253C804.477 931.787 805.44 931.492 806.143 930.903C806.846 930.291 807.197 929.452 807.197 928.387C807.197 927.322 806.846 926.494 806.143 925.905C805.44 925.293 804.477 924.987 803.253 924.987H793.019L795.909 921.995V945.285H789.483V919.785H803.593ZM816.843 945.285V919.785H823.167V941.953L821.297 941.579L836.597 919.785H844.961V945.285H838.671V922.743L840.507 923.117L825.003 945.285H816.843ZM585.705 991.453V980.641H590.805L593.151 980.709H611.205L612.769 980.641H619.909V991.453H613.925V986.285H591.689V991.453H585.705ZM591.077 960.785H615.489V984.381H609.063V963.471L611.953 966.395H594.511L597.163 964.253C597.322 965.364 597.412 966.44 597.435 967.483C597.48 968.503 597.503 969.478 597.503 970.407C597.503 973.127 597.276 975.416 596.823 977.275C596.392 979.134 595.724 980.55 594.817 981.525C593.933 982.477 592.834 982.953 591.519 982.953L588.833 980.743C589.762 979.655 590.454 978.159 590.907 976.255C591.36 974.328 591.587 971.948 591.587 969.115C591.587 967.823 591.542 966.486 591.451 965.103C591.36 963.698 591.236 962.258 591.077 960.785ZM623.335 960.785H629.761V986.285H623.335V960.785ZM654.239 972.277V976.833H643.427L643.393 976.731C641.489 976.731 639.823 976.402 638.395 975.745C636.967 975.088 635.845 974.17 635.029 972.991C634.236 971.812 633.839 970.43 633.839 968.843C633.839 967.234 634.236 965.828 635.029 964.627C635.845 963.426 636.967 962.485 638.395 961.805C639.823 961.125 641.489 960.785 643.393 960.785H658.659V986.285H652.233V962.519L655.123 965.409H644.277C643.031 965.409 642.056 965.715 641.353 966.327C640.651 966.916 640.299 967.755 640.299 968.843C640.299 969.908 640.651 970.747 641.353 971.359C642.056 971.971 643.031 972.277 644.277 972.277H654.239ZM649.649 974.351L640.639 986.285H633.193L642.441 974.351H649.649ZM667.894 960.785H692.408V986.285H685.982V963.573L688.872 966.463H671.464L674.184 964.321C674.343 965.908 674.456 967.426 674.524 968.877C674.615 970.305 674.66 971.665 674.66 972.957C674.66 976.198 674.365 978.839 673.776 980.879C673.209 982.896 672.303 984.392 671.056 985.367C669.832 986.319 668.234 986.795 666.262 986.795C665.423 986.795 664.596 986.704 663.78 986.523C662.964 986.342 662.227 986.081 661.57 985.741V980.403C662.567 980.788 663.485 980.981 664.324 980.981C665.843 980.981 666.931 980.29 667.588 978.907C668.268 977.502 668.608 975.212 668.608 972.039C668.608 970.543 668.551 968.866 668.438 967.007C668.325 965.126 668.143 963.052 667.894 960.785ZM697.378 986.285V960.785H703.804V984.075L700.914 981.219H711.046C712.292 981.219 713.267 980.902 713.97 980.267C714.695 979.632 715.058 978.771 715.058 977.683C715.058 976.572 714.695 975.7 713.97 975.065C713.267 974.43 712.292 974.113 711.046 974.113H700.336V969.047H711.42C713.528 969.047 715.33 969.41 716.826 970.135C718.344 970.838 719.512 971.835 720.328 973.127C721.144 974.419 721.552 975.938 721.552 977.683C721.552 979.406 721.144 980.913 720.328 982.205C719.512 983.497 718.344 984.506 716.826 985.231C715.33 985.934 713.528 986.285 711.42 986.285H697.378ZM724.737 960.785H731.163V986.285H724.737V960.785ZM745.001 960.785H751.393V986.285H745.001V960.785ZM728.307 970.543H747.721V976.187H728.307V970.543ZM770.218 986.829C767.226 986.829 764.596 986.274 762.33 985.163C760.086 984.052 758.34 982.5 757.094 980.505C755.847 978.51 755.224 976.187 755.224 973.535C755.224 970.883 755.847 968.56 757.094 966.565C758.34 964.57 760.086 963.018 762.33 961.907C764.596 960.796 767.226 960.241 770.218 960.241C773.21 960.241 775.828 960.796 778.072 961.907C780.338 963.018 782.095 964.57 783.342 966.565C784.611 968.56 785.246 970.883 785.246 973.535C785.246 976.187 784.611 978.51 783.342 980.505C782.095 982.5 780.338 984.052 778.072 985.163C775.828 986.274 773.21 986.829 770.218 986.829ZM770.218 981.083C771.986 981.083 773.504 980.788 774.774 980.199C776.043 979.587 777.018 978.714 777.698 977.581C778.4 976.448 778.752 975.099 778.752 973.535C778.752 971.971 778.4 970.622 777.698 969.489C777.018 968.356 776.043 967.494 774.774 966.905C773.504 966.293 771.986 965.987 770.218 965.987C768.472 965.987 766.965 966.293 765.696 966.905C764.426 967.494 763.44 968.356 762.738 969.489C762.035 970.622 761.684 971.971 761.684 973.535C761.684 975.099 762.035 976.448 762.738 977.581C763.44 978.714 764.426 979.587 765.696 980.199C766.965 980.788 768.472 981.083 770.218 981.083ZM817.033 975.745C816.784 977.944 816.025 979.882 814.755 981.559C813.486 983.214 811.809 984.506 809.723 985.435C807.638 986.364 805.258 986.829 802.583 986.829C799.659 986.829 797.087 986.274 794.865 985.163C792.667 984.052 790.955 982.5 789.731 980.505C788.507 978.51 787.895 976.187 787.895 973.535C787.895 970.883 788.507 968.56 789.731 966.565C790.955 964.57 792.667 963.018 794.865 961.907C797.087 960.796 799.659 960.241 802.583 960.241C805.258 960.241 807.638 960.706 809.723 961.635C811.809 962.564 813.486 963.856 814.755 965.511C816.025 967.166 816.784 969.104 817.033 971.325H810.573C810.347 970.169 809.882 969.183 809.179 968.367C808.499 967.551 807.593 966.928 806.459 966.497C805.349 966.044 804.057 965.817 802.583 965.817C800.883 965.817 799.421 966.134 798.197 966.769C796.973 967.381 796.033 968.265 795.375 969.421C794.718 970.577 794.389 971.948 794.389 973.535C794.389 975.122 794.718 976.493 795.375 977.649C796.033 978.805 796.973 979.7 798.197 980.335C799.421 980.947 800.883 981.253 802.583 981.253C804.057 981.253 805.349 981.038 806.459 980.607C807.593 980.176 808.499 979.553 809.179 978.737C809.882 977.921 810.347 976.924 810.573 975.745H817.033ZM827.656 963.607H834.082V986.285H827.656V963.607ZM817.728 960.785H844.01V966.463H817.728V960.785ZM847.091 960.785H853.517V986.285H847.091V960.785Z" fill="white"/>
<path d="M459.982 407.783L457.092 410.673V387.961H463.518V413.461H422.48V387.961H428.906V410.673L426.016 407.783H442.268L439.786 410.673V387.961H446.212V410.673L443.628 407.783H459.982ZM474.484 413.461L478.972 405.675H479.074L489.206 387.961H496.142L481.42 413.461H474.484ZM478.904 409.891L466.188 387.961H473.26L483.392 405.539L478.904 409.891ZM498.681 413.461V387.961H505.073V408.327L503.339 407.001L518.435 387.961H525.235L504.461 413.461H498.681ZM510.887 401.119L515.511 397.141L525.575 413.461H518.299L510.887 401.119ZM532.523 408.327V403.159H550.135V408.327H532.523ZM545.647 387.961L557.411 413.461H550.577L540.479 390.647H542.451L532.387 413.461H525.553L537.317 387.961H545.647ZM566.751 405.505C563.147 405.505 560.393 404.576 558.489 402.717C556.585 400.858 555.633 398.161 555.633 394.625V387.961H562.059V394.115C562.059 396.019 562.569 397.458 563.589 398.433C564.632 399.385 566.184 399.861 568.247 399.861C569.448 399.861 570.695 399.725 571.987 399.453C573.302 399.158 574.616 398.75 575.931 398.229L576.305 403.363C574.922 404.066 573.404 404.598 571.749 404.961C570.117 405.324 568.451 405.505 566.751 405.505ZM575.047 413.461V387.961H581.473V413.461H575.047ZM591.027 408.327V403.159H608.639V408.327H591.027ZM604.151 387.961L615.915 413.461H609.081L598.983 390.647H600.955L590.891 413.461H584.057L595.821 387.961H604.151ZM655.061 387.961V413.461H648.941V390.205L650.437 390.307L640.067 413.461H633.505L623.135 390.375L624.631 390.239V413.461H618.511V387.961H628.405L638.095 410.265H635.511L645.167 387.961H655.061ZM682.692 387.961C684.777 387.961 686.568 388.324 688.064 389.049C689.582 389.752 690.738 390.749 691.532 392.041C692.348 393.333 692.756 394.84 692.756 396.563C692.756 398.286 692.348 399.793 691.532 401.085C690.738 402.377 689.582 403.386 688.064 404.111C686.568 404.814 684.777 405.165 682.692 405.165H671.54V399.963H682.352C683.576 399.963 684.539 399.668 685.242 399.079C685.944 398.467 686.296 397.628 686.296 396.563C686.296 395.498 685.944 394.67 685.242 394.081C684.539 393.469 683.576 393.163 682.352 393.163H672.118L675.008 390.171V413.461H668.582V387.961H682.692ZM709.779 414.005C706.787 414.005 704.158 413.45 701.891 412.339C699.647 411.228 697.902 409.676 696.655 407.681C695.408 405.686 694.785 403.363 694.785 400.711C694.785 398.059 695.408 395.736 696.655 393.741C697.902 391.746 699.647 390.194 701.891 389.083C704.158 387.972 706.787 387.417 709.779 387.417C712.771 387.417 715.389 387.972 717.633 389.083C719.9 390.194 721.656 391.746 722.903 393.741C724.172 395.736 724.807 398.059 724.807 400.711C724.807 403.363 724.172 405.686 722.903 407.681C721.656 409.676 719.9 411.228 717.633 412.339C715.389 413.45 712.771 414.005 709.779 414.005ZM709.779 408.259C711.547 408.259 713.066 407.964 714.335 407.375C715.604 406.763 716.579 405.89 717.259 404.757C717.962 403.624 718.313 402.275 718.313 400.711C718.313 399.147 717.962 397.798 717.259 396.665C716.579 395.532 715.604 394.67 714.335 394.081C713.066 393.469 711.547 393.163 709.779 393.163C708.034 393.163 706.526 393.469 705.257 394.081C703.988 394.67 703.002 395.532 702.299 396.665C701.596 397.798 701.245 399.147 701.245 400.711C701.245 402.275 701.596 403.624 702.299 404.757C703.002 405.89 703.988 406.763 705.257 407.375C706.526 407.964 708.034 408.259 709.779 408.259ZM732.461 397.787H743.885C745.971 397.787 747.693 398.116 749.053 398.773C750.436 399.43 751.467 400.348 752.147 401.527C752.827 402.683 753.167 404.054 753.167 405.641C753.167 407.205 752.793 408.576 752.045 409.755C751.32 410.934 750.255 411.852 748.849 412.509C747.467 413.144 745.812 413.461 743.885 413.461H727.565L729.537 400.167L727.565 387.961H751.161V392.925H731.543L733.991 389.899L735.657 400.065L733.855 411.693L731.407 408.701H743.069C744.225 408.701 745.132 408.418 745.789 407.851C746.447 407.284 746.775 406.491 746.775 405.471C746.775 404.474 746.435 403.692 745.755 403.125C745.098 402.536 744.203 402.241 743.069 402.241H732.461V397.787ZM770.541 414.005C767.549 414.005 764.919 413.45 762.653 412.339C760.409 411.228 758.663 409.676 757.417 407.681C756.17 405.686 755.547 403.363 755.547 400.711C755.547 398.059 756.17 395.736 757.417 393.741C758.663 391.746 760.409 390.194 762.653 389.083C764.919 387.972 767.549 387.417 770.541 387.417C773.533 387.417 776.151 387.972 778.395 389.083C780.661 390.194 782.418 391.746 783.665 393.741C784.934 395.736 785.569 398.059 785.569 400.711C785.569 403.363 784.934 405.686 783.665 407.681C782.418 409.676 780.661 411.228 778.395 412.339C776.151 413.45 773.533 414.005 770.541 414.005ZM770.541 408.259C772.309 408.259 773.827 407.964 775.097 407.375C776.366 406.763 777.341 405.89 778.021 404.757C778.723 403.624 779.075 402.275 779.075 400.711C779.075 399.147 778.723 397.798 778.021 396.665C777.341 395.532 776.366 394.67 775.097 394.081C773.827 393.469 772.309 393.163 770.541 393.163C768.795 393.163 767.288 393.469 766.019 394.081C764.749 394.67 763.763 395.532 763.061 396.665C762.358 397.798 762.007 399.147 762.007 400.711C762.007 402.275 762.358 403.624 763.061 404.757C763.763 405.89 764.749 406.763 766.019 407.375C767.288 407.964 768.795 408.259 770.541 408.259ZM796.304 390.783H802.73V413.461H796.304V390.783ZM786.376 387.961H812.658V393.639H786.376V387.961ZM815.738 413.461V387.961H822.062V410.129L820.192 409.755L835.492 387.961H843.856V413.461H837.566V390.919L839.402 391.293L823.898 413.461H815.738ZM584.202 459.629V448.817H589.302L591.648 448.885H609.702L611.266 448.817H618.406V459.629H612.422V454.461H590.186V459.629H584.202ZM589.574 428.961H613.986V452.557H607.56V431.647L610.45 434.571H593.008L595.66 432.429C595.819 433.54 595.909 434.616 595.932 435.659C595.977 436.679 596 437.654 596 438.583C596 441.303 595.773 443.592 595.32 445.451C594.889 447.31 594.221 448.726 593.314 449.701C592.43 450.653 591.331 451.129 590.016 451.129L587.33 448.919C588.259 447.831 588.951 446.335 589.404 444.431C589.857 442.504 590.084 440.124 590.084 437.291C590.084 435.999 590.039 434.662 589.948 433.279C589.857 431.874 589.733 430.434 589.574 428.961ZM626.116 428.961H650.63V454.461H644.204V431.749L647.094 434.639H629.686L632.406 432.497C632.564 434.084 632.678 435.602 632.746 437.053C632.836 438.481 632.882 439.841 632.882 441.133C632.882 444.374 632.587 447.015 631.998 449.055C631.431 451.072 630.524 452.568 629.278 453.543C628.054 454.495 626.456 454.971 624.484 454.971C623.645 454.971 622.818 454.88 622.002 454.699C621.186 454.518 620.449 454.257 619.792 453.917V448.579C620.789 448.964 621.707 449.157 622.546 449.157C624.064 449.157 625.152 448.466 625.81 447.083C626.49 445.678 626.83 443.388 626.83 440.215C626.83 438.719 626.773 437.042 626.66 435.183C626.546 433.302 626.365 431.228 626.116 428.961ZM675.115 440.453V445.009H664.303L664.269 444.907C662.365 444.907 660.699 444.578 659.271 443.921C657.843 443.264 656.721 442.346 655.905 441.167C655.112 439.988 654.715 438.606 654.715 437.019C654.715 435.41 655.112 434.004 655.905 432.803C656.721 431.602 657.843 430.661 659.271 429.981C660.699 429.301 662.365 428.961 664.269 428.961H679.535V454.461H673.109V430.695L675.999 433.585H665.153C663.907 433.585 662.932 433.891 662.229 434.503C661.527 435.092 661.175 435.931 661.175 437.019C661.175 438.084 661.527 438.923 662.229 439.535C662.932 440.147 663.907 440.453 665.153 440.453H675.115ZM670.525 442.527L661.515 454.461H654.069L663.317 442.527H670.525ZM693.052 428.961H699.478V454.461H693.052V428.961ZM713.316 428.961H719.708V454.461H713.316V428.961ZM696.622 438.719H716.036V444.363H696.622V438.719ZM738.533 455.005C735.541 455.005 732.912 454.45 730.645 453.339C728.401 452.228 726.656 450.676 725.409 448.681C724.162 446.686 723.539 444.363 723.539 441.711C723.539 439.059 724.162 436.736 725.409 434.741C726.656 432.746 728.401 431.194 730.645 430.083C732.912 428.972 735.541 428.417 738.533 428.417C741.525 428.417 744.143 428.972 746.387 430.083C748.654 431.194 750.41 432.746 751.657 434.741C752.926 436.736 753.561 439.059 753.561 441.711C753.561 444.363 752.926 446.686 751.657 448.681C750.41 450.676 748.654 452.228 746.387 453.339C744.143 454.45 741.525 455.005 738.533 455.005ZM738.533 449.259C740.301 449.259 741.82 448.964 743.089 448.375C744.358 447.763 745.333 446.89 746.013 445.757C746.716 444.624 747.067 443.275 747.067 441.711C747.067 440.147 746.716 438.798 746.013 437.665C745.333 436.532 744.358 435.67 743.089 435.081C741.82 434.469 740.301 434.163 738.533 434.163C736.788 434.163 735.28 434.469 734.011 435.081C732.742 435.67 731.756 436.532 731.053 437.665C730.35 438.798 729.999 440.147 729.999 441.711C729.999 443.275 730.35 444.624 731.053 445.757C731.756 446.89 732.742 447.763 734.011 448.375C735.28 448.964 736.788 449.259 738.533 449.259ZM773.931 441.949L774.475 440.691C776.47 440.736 778.102 441.042 779.371 441.609C780.663 442.176 781.615 442.958 782.227 443.955C782.862 444.93 783.179 446.063 783.179 447.355C783.179 448.715 782.862 449.939 782.227 451.027C781.592 452.092 780.64 452.931 779.371 453.543C778.124 454.155 776.56 454.461 774.679 454.461H756.319L758.291 441.371L756.319 428.961H774.033C776.39 428.961 778.215 429.516 779.507 430.627C780.822 431.715 781.479 433.222 781.479 435.149C781.479 436.214 781.23 437.234 780.731 438.209C780.232 439.184 779.439 440.011 778.351 440.691C777.263 441.348 775.79 441.768 773.931 441.949ZM762.643 452.897L760.195 449.871H773.149C774.26 449.871 775.121 449.61 775.733 449.089C776.368 448.545 776.685 447.786 776.685 446.811C776.685 445.836 776.334 445.066 775.631 444.499C774.951 443.91 773.931 443.615 772.571 443.615H761.963V439.127H771.755C772.684 439.127 773.455 438.866 774.067 438.345C774.679 437.801 774.985 437.064 774.985 436.135C774.985 435.387 774.724 434.775 774.203 434.299C773.682 433.8 772.922 433.551 771.925 433.551H760.229L762.643 430.525L764.445 441.371L762.643 452.897ZM786.818 454.461V428.961H793.142V451.129L791.272 450.755L806.572 428.961H814.936V454.461H808.646V431.919L810.482 432.293L794.978 454.461H786.818ZM834.304 443.105V439.263L846.68 454.461H838.758L830.292 443.547H833.352L824.852 454.461H817.066L829.51 439.297V443.071L817.848 428.961H825.838L833.556 438.821H830.428L838.044 428.961H845.898L834.304 443.105ZM518.729 469.961V495.461H512.609V472.205L514.105 472.307L503.735 495.461H497.173L486.803 472.375L488.299 472.239V495.461H482.179V469.961H492.073L501.763 492.265H499.179L508.835 469.961H518.729ZM537.521 496.005C534.529 496.005 531.9 495.45 529.633 494.339C527.389 493.228 525.644 491.676 524.397 489.681C523.151 487.686 522.527 485.363 522.527 482.711C522.527 480.059 523.151 477.736 524.397 475.741C525.644 473.746 527.389 472.194 529.633 471.083C531.9 469.972 534.529 469.417 537.521 469.417C540.513 469.417 543.131 469.972 545.375 471.083C547.642 472.194 549.399 473.746 550.645 475.741C551.915 477.736 552.549 480.059 552.549 482.711C552.549 485.363 551.915 487.686 550.645 489.681C549.399 491.676 547.642 493.228 545.375 494.339C543.131 495.45 540.513 496.005 537.521 496.005ZM537.521 490.259C539.289 490.259 540.808 489.964 542.077 489.375C543.347 488.763 544.321 487.89 545.001 486.757C545.704 485.624 546.055 484.275 546.055 482.711C546.055 481.147 545.704 479.798 545.001 478.665C544.321 477.532 543.347 476.67 542.077 476.081C540.808 475.469 539.289 475.163 537.521 475.163C535.776 475.163 534.269 475.469 532.999 476.081C531.73 476.67 530.744 477.532 530.041 478.665C529.339 479.798 528.987 481.147 528.987 482.711C528.987 484.275 529.339 485.624 530.041 486.757C530.744 487.89 531.73 488.763 532.999 489.375C534.269 489.964 535.776 490.259 537.521 490.259ZM552.047 495.461L562.145 479.141L566.769 483.119L559.323 495.461H552.047ZM591.997 495.461L584.585 483.119L589.209 479.141L599.307 495.461H591.997ZM578.839 489.579L577.037 488.933L592.133 469.961H598.933L578.023 495.461H573.331L552.421 469.961H559.221L574.283 488.933L572.515 489.579V469.961H578.839V489.579ZM606.061 469.961H630.575V495.461H624.149V472.749L627.039 475.639H609.631L612.351 473.497C612.51 475.084 612.623 476.602 612.691 478.053C612.782 479.481 612.827 480.841 612.827 482.133C612.827 485.374 612.532 488.015 611.943 490.055C611.376 492.072 610.47 493.568 609.223 494.543C607.999 495.495 606.401 495.971 604.429 495.971C603.59 495.971 602.763 495.88 601.947 495.699C601.131 495.518 600.394 495.257 599.737 494.917V489.579C600.734 489.964 601.652 490.157 602.491 490.157C604.01 490.157 605.098 489.466 605.755 488.083C606.435 486.678 606.775 484.388 606.775 481.215C606.775 479.719 606.718 478.042 606.605 476.183C606.492 474.302 606.31 472.228 606.061 469.961ZM635.545 495.461V469.961H641.869V492.129L639.999 491.755L655.299 469.961H663.663V495.461H657.373V472.919L659.209 473.293L643.705 495.461H635.545ZM685.445 482.949L685.989 481.691C687.983 481.736 689.615 482.042 690.885 482.609C692.177 483.176 693.129 483.958 693.741 484.955C694.375 485.93 694.693 487.063 694.693 488.355C694.693 489.715 694.375 490.939 693.741 492.027C693.106 493.092 692.154 493.931 690.885 494.543C689.638 495.155 688.074 495.461 686.193 495.461H667.833L669.805 482.371L667.833 469.961H685.547C687.904 469.961 689.729 470.516 691.021 471.627C692.335 472.715 692.993 474.222 692.993 476.149C692.993 477.214 692.743 478.234 692.245 479.209C691.746 480.184 690.953 481.011 689.865 481.691C688.777 482.348 687.303 482.768 685.445 482.949ZM674.157 493.897L671.709 490.871H684.663C685.773 490.871 686.635 490.61 687.247 490.089C687.881 489.545 688.199 488.786 688.199 487.811C688.199 486.836 687.847 486.066 687.145 485.499C686.465 484.91 685.445 484.615 684.085 484.615H673.477V480.127H683.269C684.198 480.127 684.969 479.866 685.581 479.345C686.193 478.801 686.499 478.064 686.499 477.135C686.499 476.387 686.238 475.775 685.717 475.299C685.195 474.8 684.436 474.551 683.439 474.551H671.743L674.157 471.525L675.959 482.371L674.157 493.897ZM712.103 496.005C709.111 496.005 706.482 495.45 704.215 494.339C701.971 493.228 700.226 491.676 698.979 489.681C697.733 487.686 697.109 485.363 697.109 482.711C697.109 480.059 697.733 477.736 698.979 475.741C700.226 473.746 701.971 472.194 704.215 471.083C706.482 469.972 709.111 469.417 712.103 469.417C715.095 469.417 717.713 469.972 719.957 471.083C722.224 472.194 723.981 473.746 725.227 475.741C726.497 477.736 727.131 480.059 727.131 482.711C727.131 485.363 726.497 487.686 725.227 489.681C723.981 491.676 722.224 493.228 719.957 494.339C717.713 495.45 715.095 496.005 712.103 496.005ZM712.103 490.259C713.871 490.259 715.39 489.964 716.659 489.375C717.929 488.763 718.903 487.89 719.583 486.757C720.286 485.624 720.637 484.275 720.637 482.711C720.637 481.147 720.286 479.798 719.583 478.665C718.903 477.532 717.929 476.67 716.659 476.081C715.39 475.469 713.871 475.163 712.103 475.163C710.358 475.163 708.851 475.469 707.581 476.081C706.312 476.67 705.326 477.532 704.623 478.665C703.921 479.798 703.569 481.147 703.569 482.711C703.569 484.275 703.921 485.624 704.623 486.757C705.326 487.89 706.312 488.763 707.581 489.375C708.851 489.964 710.358 490.259 712.103 490.259ZM758.919 484.921C758.67 487.12 757.91 489.058 756.641 490.735C755.372 492.39 753.694 493.682 751.609 494.611C749.524 495.54 747.144 496.005 744.469 496.005C741.545 496.005 738.972 495.45 736.751 494.339C734.552 493.228 732.841 491.676 731.617 489.681C730.393 487.686 729.781 485.363 729.781 482.711C729.781 480.059 730.393 477.736 731.617 475.741C732.841 473.746 734.552 472.194 736.751 471.083C738.972 469.972 741.545 469.417 744.469 469.417C747.144 469.417 749.524 469.882 751.609 470.811C753.694 471.74 755.372 473.032 756.641 474.687C757.91 476.342 758.67 478.28 758.919 480.501H752.459C752.232 479.345 751.768 478.359 751.065 477.543C750.385 476.727 749.478 476.104 748.345 475.673C747.234 475.22 745.942 474.993 744.469 474.993C742.769 474.993 741.307 475.31 740.083 475.945C738.859 476.557 737.918 477.441 737.261 478.597C736.604 479.753 736.275 481.124 736.275 482.711C736.275 484.298 736.604 485.669 737.261 486.825C737.918 487.981 738.859 488.876 740.083 489.511C741.307 490.123 742.769 490.429 744.469 490.429C745.942 490.429 747.234 490.214 748.345 489.783C749.478 489.352 750.385 488.729 751.065 487.913C751.768 487.097 752.232 486.1 752.459 484.921H758.919ZM769.542 472.783H775.968V495.461H769.542V472.783ZM759.614 469.961H785.896V475.639H759.614V469.961ZM810.43 480.331V485.091H791.968V480.331H810.43ZM796.32 482.711L794.62 493.251L791.934 490.225H811.518V495.461H788.194L790.166 482.711L788.194 469.961H811.348V475.197H791.934L794.62 472.171L796.32 482.711ZM815.738 495.461V469.961H822.062V492.129L820.192 491.755L835.492 469.961H843.856V495.461H837.566V472.919L839.402 473.293L823.898 495.461H815.738ZM821.28 462.311H826.38C826.629 463.082 827.037 463.671 827.604 464.079C828.171 464.464 828.862 464.657 829.678 464.657C830.539 464.657 831.242 464.464 831.786 464.079C832.33 463.671 832.738 463.082 833.01 462.311H838.076C837.6 464.374 836.614 465.881 835.118 466.833C833.645 467.785 831.831 468.261 829.678 468.261C827.547 468.261 825.734 467.785 824.238 466.833C822.742 465.881 821.756 464.374 821.28 462.311Z" fill="white"/>
<path d="M900 367.814V0H0.0080284L0.00225358 79.5854H446.042L460.335 122.385H597.489L573.677 183.907H412.712V225.851H291.749L281.267 264.568H0.00225358L0 632.382H460.327L471.927 739.93H0.0080284L0.0164793 1065.8H900L899.992 1010.95H536.533L541.285 951.916H661.148L635.763 916.308H393.986L408.033 865.761H444.227L449.858 816.333H900V519.456L412.712 511.869L424.141 458.222H534.626L526.157 427.045H342.332L348.897 367.814H900Z" fill="#6D61FF"/>
<path d="M88.839 113.882C88.5897 116.081 87.8303 118.019 86.561 119.696C85.2917 121.351 83.6143 122.643 81.529 123.572C79.4437 124.501 77.0637 124.966 74.389 124.966C71.465 124.966 68.8923 124.411 66.671 123.3C64.4723 122.189 62.761 120.637 61.537 118.642C60.313 116.647 59.701 114.324 59.701 111.672C59.701 109.02 60.313 106.697 61.537 104.702C62.761 102.707 64.4723 101.155 66.671 100.044C68.8923 98.9332 71.465 98.3779 74.389 98.3779C77.0637 98.3779 79.4437 98.8425 81.529 99.7719C83.6143 100.701 85.2917 101.993 86.561 103.648C87.8303 105.303 88.5897 107.241 88.839 109.462H82.379C82.1523 108.306 81.6877 107.32 80.985 106.504C80.305 105.688 79.3983 105.065 78.265 104.634C77.1543 104.181 75.8623 103.954 74.389 103.954C72.689 103.954 71.227 104.271 70.003 104.906C68.779 105.518 67.8383 106.402 67.181 107.558C66.5237 108.714 66.195 110.085 66.195 111.672C66.195 113.259 66.5237 114.63 67.181 115.786C67.8383 116.942 68.779 117.837 70.003 118.472C71.227 119.084 72.689 119.39 74.389 119.39C75.8623 119.39 77.1543 119.175 78.265 118.744C79.3983 118.313 80.305 117.69 80.985 116.874C81.6877 116.058 82.1523 115.061 82.379 113.882H88.839ZM99.4619 101.744H105.888V124.422H99.4619V101.744ZM89.5339 98.9219H115.816V104.6H89.5339V98.9219ZM124.914 124.422L129.402 116.636H129.504L139.636 98.9219H146.572L131.85 124.422H124.914ZM129.334 120.852L116.618 98.9219H123.69L133.822 116.5L129.334 120.852ZM144.153 129.59V118.778H149.253L151.599 118.846H169.653L171.217 118.778H178.357V129.59H172.373V124.422H150.137V129.59H144.153ZM149.525 98.9219H173.937V122.518H167.511V101.608L170.401 104.532H152.959L155.611 102.39C155.77 103.501 155.86 104.577 155.883 105.62C155.928 106.64 155.951 107.615 155.951 108.544C155.951 111.264 155.724 113.553 155.271 115.412C154.84 117.271 154.172 118.687 153.265 119.662C152.381 120.614 151.282 121.09 149.967 121.09L147.281 118.88C148.21 117.792 148.902 116.296 149.355 114.392C149.808 112.465 150.035 110.085 150.035 107.252C150.035 105.96 149.99 104.623 149.899 103.24C149.808 101.835 149.684 100.395 149.525 98.9219ZM203.237 109.292V114.052H184.775V109.292H203.237ZM189.127 111.672L187.427 122.212L184.741 119.186H204.325V124.422H181.001L182.973 111.672L181.001 98.9219H204.155V104.158H184.741L187.427 101.132L189.127 111.672ZM208.545 98.9219H214.971V124.422H208.545V98.9219ZM228.809 98.9219H235.201V124.422H228.809V98.9219ZM212.115 108.68H231.529V114.324H212.115V108.68ZM248.245 101.744H254.671V124.422H248.245V101.744ZM238.317 98.9219H264.599V104.6H238.317V98.9219ZM268.086 119.288V114.12H285.698V119.288H268.086ZM281.21 98.9219L292.974 124.422H286.14L276.042 101.608H278.014L267.95 124.422H261.116L272.88 98.9219H281.21ZM332.12 98.9219V124.422H326V101.166L327.496 101.268L317.126 124.422H310.564L300.194 101.336L301.69 101.2V124.422H295.57V98.9219H305.464L315.154 121.226H312.57L322.226 98.9219H332.12ZM352.603 101.744H359.029V124.422H352.603V101.744ZM342.675 98.9219L368.957 98.9219V104.6H342.675V98.9219ZM372.443 119.288V114.12H390.055V119.288H372.443ZM385.567 98.9219L397.331 124.422H390.497L380.399 101.608H382.371L372.307 124.422H365.473L377.237 98.9219H385.567ZM77.687 152.91L78.231 151.652C80.2257 151.697 81.8577 152.003 83.127 152.57C84.419 153.137 85.371 153.919 85.983 154.916C86.6177 155.891 86.935 157.024 86.935 158.316C86.935 159.676 86.6177 160.9 85.983 161.988C85.3483 163.053 84.3963 163.892 83.127 164.504C81.8803 165.116 80.3163 165.422 78.435 165.422H60.075L62.047 152.332L60.075 139.922H77.789C80.1463 139.922 81.971 140.477 83.263 141.588C84.5777 142.676 85.235 144.183 85.235 146.11C85.235 147.175 84.9857 148.195 84.487 149.17C83.9883 150.145 83.195 150.972 82.107 151.652C81.019 152.309 79.5457 152.729 77.687 152.91ZM66.399 163.858L63.951 160.832H76.905C78.0157 160.832 78.877 160.571 79.489 160.05C80.1237 159.506 80.441 158.747 80.441 157.772C80.441 156.797 80.0897 156.027 79.387 155.46C78.707 154.871 77.687 154.576 76.327 154.576H65.719V150.088H75.511C76.4403 150.088 77.211 149.827 77.823 149.306C78.435 148.762 78.741 148.025 78.741 147.096C78.741 146.348 78.4803 145.736 77.959 145.26C77.4377 144.761 76.6783 144.512 75.681 144.512H63.985L66.399 141.486L68.201 152.332L66.399 163.858ZM90.5738 165.422V139.922H96.8978V162.09L95.0278 161.716L110.328 139.922H118.692V165.422H112.402V142.88L114.238 143.254L98.7338 165.422H90.5738ZM150.164 139.922V165.422H143.772V142.71L146.696 145.6H127.18L130.07 142.71V165.422H123.644V139.922H150.164ZM161.172 165.422L165.66 157.636H165.762L175.894 139.922H182.83L168.108 165.422H161.172ZM165.592 161.852L152.876 139.922H159.948L170.08 157.5L165.592 161.852ZM211.259 154.882C211.01 157.081 210.25 159.019 208.981 160.696C207.712 162.351 206.034 163.643 203.949 164.572C201.864 165.501 199.484 165.966 196.809 165.966C193.885 165.966 191.312 165.411 189.091 164.3C186.892 163.189 185.181 161.637 183.957 159.642C182.733 157.647 182.121 155.324 182.121 152.672C182.121 150.02 182.733 147.697 183.957 145.702C185.181 143.707 186.892 142.155 189.091 141.044C191.312 139.933 193.885 139.378 196.809 139.378C199.484 139.378 201.864 139.843 203.949 140.772C206.034 141.701 207.712 142.993 208.981 144.648C210.25 146.303 211.01 148.241 211.259 150.462H204.799C204.572 149.306 204.108 148.32 203.405 147.504C202.725 146.688 201.818 146.065 200.685 145.634C199.574 145.181 198.282 144.954 196.809 144.954C195.109 144.954 193.647 145.271 192.423 145.906C191.199 146.518 190.258 147.402 189.601 148.558C188.944 149.714 188.615 151.085 188.615 152.672C188.615 154.259 188.944 155.63 189.601 156.786C190.258 157.942 191.199 158.837 192.423 159.472C193.647 160.084 195.109 160.39 196.809 160.39C198.282 160.39 199.574 160.175 200.685 159.744C201.818 159.313 202.725 158.69 203.405 157.874C204.108 157.058 204.572 156.061 204.799 154.882H211.259ZM214.853 165.422V139.922H221.245V160.288L219.511 158.962L234.607 139.922H241.407L220.633 165.422H214.853ZM227.059 153.08L231.683 149.102L241.747 165.422H234.471L227.059 153.08ZM244.105 139.922H250.531V165.422H244.105V139.922ZM264.369 139.922H270.761V165.422H264.369V139.922ZM247.675 149.68H267.089V155.324H247.675V149.68ZM275.748 165.422V139.922H282.072V162.09L280.202 161.716L295.502 139.922H303.866V165.422H297.576V142.88L299.412 143.254L283.908 165.422H275.748ZM308.818 165.422V139.922H315.21V160.288L313.476 158.962L328.572 139.922H335.372L314.598 165.422H308.818ZM321.024 153.08L325.648 149.102L335.712 165.422H328.436L321.024 153.08ZM342.66 160.288V155.12H360.272V160.288H342.66ZM355.784 139.922L367.548 165.422H360.714L350.616 142.608H352.588L342.524 165.422H335.69L347.454 139.922H355.784ZM406.694 139.922V165.422H400.574V142.166L402.07 142.268L391.7 165.422H385.138L374.768 142.336L376.264 142.2V165.422H370.144V139.922H380.038L389.728 162.226H387.144L396.8 139.922H406.694ZM417.747 170.59V159.778H422.847L425.193 159.846H443.247L444.811 159.778H451.951V170.59H445.967V165.422H423.731V170.59H417.747ZM423.119 139.922H447.531V163.518H441.105V142.608L443.995 145.532H426.553L429.205 143.39C429.363 144.501 429.454 145.577 429.477 146.62C429.522 147.64 429.545 148.615 429.545 149.544C429.545 152.264 429.318 154.553 428.865 156.412C428.434 158.271 427.765 159.687 426.859 160.662C425.975 161.614 424.875 162.09 423.561 162.09L420.875 159.88C421.804 158.792 422.495 157.296 422.949 155.392C423.402 153.465 423.629 151.085 423.629 148.252C423.629 146.96 423.583 145.623 423.493 144.24C423.402 142.835 423.277 141.395 423.119 139.922ZM459.661 139.922H484.175V165.422H477.749V142.71L480.639 145.6H463.231L465.951 143.458C466.109 145.045 466.223 146.563 466.291 148.014C466.381 149.442 466.427 150.802 466.427 152.094C466.427 155.335 466.132 157.976 465.543 160.016C464.976 162.033 464.069 163.529 462.823 164.504C461.599 165.456 460.001 165.932 458.029 165.932C457.19 165.932 456.363 165.841 455.547 165.66C454.731 165.479 453.994 165.218 453.337 164.878V159.54C454.334 159.925 455.252 160.118 456.091 160.118C457.609 160.118 458.697 159.427 459.355 158.044C460.035 156.639 460.375 154.349 460.375 151.176C460.375 149.68 460.318 148.003 460.205 146.144C460.091 144.263 459.91 142.189 459.661 139.922ZM508.66 151.414V155.97H497.848L497.814 155.868C495.91 155.868 494.244 155.539 492.816 154.882C491.388 154.225 490.266 153.307 489.45 152.128C488.657 150.949 488.26 149.567 488.26 147.98C488.26 146.371 488.657 144.965 489.45 143.764C490.266 142.563 491.388 141.622 492.816 140.942C494.244 140.262 495.91 139.922 497.814 139.922H513.08V165.422H506.654V141.656L509.544 144.546H498.698C497.451 144.546 496.477 144.852 495.774 145.464C495.071 146.053 494.72 146.892 494.72 147.98C494.72 149.045 495.071 149.884 495.774 150.496C496.477 151.108 497.451 151.414 498.698 151.414H508.66ZM504.07 153.488L495.06 165.422H487.614L496.862 153.488H504.07ZM87.377 180.922V206.422H80.985V183.71L83.909 186.6H64.393L67.283 183.71V206.422H60.857V180.922H87.377ZM96.6508 180.922H121.165V206.422H114.739V183.71L117.629 186.6H100.221L102.941 184.458C103.099 186.045 103.213 187.563 103.281 189.014C103.371 190.442 103.417 191.802 103.417 193.094C103.417 196.335 103.122 198.976 102.533 201.016C101.966 203.033 101.059 204.529 99.8128 205.504C98.5888 206.456 96.9908 206.932 95.0188 206.932C94.1801 206.932 93.3528 206.841 92.5368 206.66C91.7208 206.479 90.9841 206.218 90.3268 205.878V200.54C91.3241 200.925 92.2421 201.118 93.0808 201.118C94.5994 201.118 95.6874 200.427 96.3448 199.044C97.0248 197.639 97.3648 195.349 97.3648 192.176C97.3648 190.68 97.3081 189.003 97.1948 187.144C97.0814 185.263 96.9001 183.189 96.6508 180.922ZM130.724 201.288V196.12H148.336V201.288H130.724ZM143.848 180.922L155.612 206.422H148.778L138.68 183.608H140.652L130.588 206.422H123.754L135.518 180.922H143.848ZM158.209 180.922H164.635V206.422H158.209V180.922ZM178.473 180.922H184.865V206.422H178.473V180.922ZM161.779 190.68H181.193V196.324H161.779V190.68ZM195.869 206.422L200.357 198.636H200.459L210.591 180.922H217.527L202.805 206.422H195.869ZM200.289 202.852L187.573 180.922H194.645L204.777 198.5L200.289 202.852ZM236.896 193.91L237.44 192.652C239.435 192.697 241.067 193.003 242.336 193.57C243.628 194.137 244.58 194.919 245.192 195.916C245.827 196.891 246.144 198.024 246.144 199.316C246.144 200.676 245.827 201.9 245.192 202.988C244.557 204.053 243.605 204.892 242.336 205.504C241.089 206.116 239.525 206.422 237.644 206.422H219.284L221.256 193.332L219.284 180.922H236.998C239.355 180.922 241.18 181.477 242.472 182.588C243.787 183.676 244.444 185.183 244.444 187.11C244.444 188.175 244.195 189.195 243.696 190.17C243.197 191.145 242.404 191.972 241.316 192.652C240.228 193.309 238.755 193.729 236.896 193.91ZM225.608 204.858L223.16 201.832H236.114C237.225 201.832 238.086 201.571 238.698 201.05C239.333 200.506 239.65 199.747 239.65 198.772C239.65 197.797 239.299 197.027 238.596 196.46C237.916 195.871 236.896 195.576 235.536 195.576H224.928V191.088H234.72C235.649 191.088 236.42 190.827 237.032 190.306C237.644 189.762 237.95 189.025 237.95 188.096C237.95 187.348 237.689 186.736 237.168 186.26C236.647 185.761 235.887 185.512 234.89 185.512H223.194L225.608 182.486L227.41 193.332L225.608 204.858ZM253.144 201.288V196.12H270.756V201.288H253.144ZM266.268 180.922L278.032 206.422H271.198L261.1 183.608H263.072L253.008 206.422H246.174L257.938 180.922H266.268ZM280.628 180.922H287.054V206.422H280.628V180.922ZM300.892 180.922H307.284V206.422H300.892V180.922ZM284.198 190.68H303.612V196.324H284.198V190.68ZM312.271 180.922H318.697V206.422H312.271V180.922ZM332.535 180.922H338.927V206.422H332.535V180.922ZM315.841 190.68H335.255V196.324H315.841V190.68ZM363.43 192.414V196.97H352.618L352.584 196.868C350.68 196.868 349.014 196.539 347.586 195.882C346.158 195.225 345.036 194.307 344.22 193.128C343.426 191.949 343.03 190.567 343.03 188.98C343.03 187.371 343.426 185.965 344.22 184.764C345.036 183.563 346.158 182.622 347.586 181.942C349.014 181.262 350.68 180.922 352.584 180.922H367.85V206.422H361.424V182.656L364.314 185.546H353.468C352.221 185.546 351.246 185.852 350.544 186.464C349.841 187.053 349.49 187.892 349.49 188.98C349.49 190.045 349.841 190.884 350.544 191.496C351.246 192.108 352.221 192.414 353.468 192.414H363.43ZM358.84 194.488L349.83 206.422H342.384L351.632 194.488H358.84ZM60.857 247.422V221.922H67.249V242.288L65.515 240.962L80.611 221.922H87.411L66.637 247.422H60.857ZM73.063 235.08L77.687 231.102L87.751 247.422H80.475L73.063 235.08ZM94.699 242.288V237.12H112.311V242.288H94.699ZM107.823 221.922L119.587 247.422H112.753L102.655 224.608H104.627L94.563 247.422H87.729L99.493 221.922H107.823ZM136.293 221.922C138.379 221.922 140.169 222.285 141.665 223.01C143.184 223.713 144.34 224.71 145.133 226.002C145.949 227.294 146.357 228.801 146.357 230.524C146.357 232.247 145.949 233.754 145.133 235.046C144.34 236.338 143.184 237.347 141.665 238.072C140.169 238.775 138.379 239.126 136.293 239.126H125.141V233.924H135.953C137.177 233.924 138.141 233.629 138.843 233.04C139.546 232.428 139.897 231.589 139.897 230.524C139.897 229.459 139.546 228.631 138.843 228.042C138.141 227.43 137.177 227.124 135.953 227.124H125.719L128.609 224.132V247.422H122.183V221.922H136.293ZM148.421 221.922H154.677L153.453 232.768H149.645L148.421 221.922ZM172.209 247.966C169.263 247.966 166.667 247.411 164.423 246.3C162.202 245.189 160.468 243.637 159.221 241.642C157.975 239.647 157.351 237.324 157.351 234.672C157.351 232.02 157.975 229.697 159.221 227.702C160.468 225.707 162.202 224.155 164.423 223.044C166.667 221.933 169.263 221.378 172.209 221.378C174.861 221.378 177.23 221.831 179.315 222.738C181.401 223.645 183.101 224.903 184.415 226.512C185.73 228.099 186.523 229.969 186.795 232.122H180.437C180.211 230.989 179.735 230.025 179.009 229.232C178.284 228.416 177.355 227.793 176.221 227.362C175.088 226.931 173.762 226.716 172.243 226.716C170.475 226.716 168.945 227.033 167.653 227.668C166.384 228.303 165.398 229.221 164.695 230.422C164.015 231.601 163.675 233.017 163.675 234.672C163.675 236.327 164.015 237.755 164.695 238.956C165.398 240.135 166.384 241.041 167.653 241.676C168.945 242.311 170.475 242.628 172.243 242.628C173.762 242.628 175.088 242.413 176.221 241.982C177.377 241.551 178.307 240.928 179.009 240.112C179.735 239.296 180.211 238.333 180.437 237.222H186.795C186.523 239.353 185.73 241.223 184.415 242.832C183.101 244.441 181.401 245.699 179.315 246.606C177.23 247.513 174.861 247.966 172.209 247.966ZM160.785 236.814V232.53H176.527V236.814H160.785ZM204.393 221.922C206.478 221.922 208.269 222.285 209.765 223.01C211.283 223.713 212.439 224.71 213.233 226.002C214.049 227.294 214.457 228.801 214.457 230.524C214.457 232.247 214.049 233.754 213.233 235.046C212.439 236.338 211.283 237.347 209.765 238.072C208.269 238.775 206.478 239.126 204.393 239.126H193.241V233.924H204.053C205.277 233.924 206.24 233.629 206.943 233.04C207.645 232.428 207.997 231.589 207.997 230.524C207.997 229.459 207.645 228.631 206.943 228.042C206.24 227.43 205.277 227.124 204.053 227.124H193.819L196.709 224.132V247.422H190.283V221.922H204.393ZM217.642 247.422V221.922H223.966V244.09L222.096 243.716L237.396 221.922H245.76V247.422H239.47V224.88L241.306 225.254L225.802 247.422H217.642Z" fill="white"/>
<path d="M90.4562 664.929C90.2069 667.127 89.4475 669.065 88.1782 670.743C86.9089 672.397 85.2315 673.689 83.1462 674.619C81.0609 675.548 78.6809 676.013 76.0062 676.013C73.0822 676.013 70.5095 675.457 68.2882 674.347C66.0895 673.236 64.3782 671.683 63.1542 669.689C61.9302 667.694 61.3182 665.371 61.3182 662.719C61.3182 660.067 61.9302 657.743 63.1542 655.749C64.3782 653.754 66.0895 652.201 68.2882 651.091C70.5095 649.98 73.0822 649.425 76.0062 649.425C78.6809 649.425 81.0609 649.889 83.1462 650.819C85.2315 651.748 86.9089 653.04 88.1782 654.695C89.4475 656.349 90.2069 658.287 90.4562 660.509H83.9962C83.7695 659.353 83.3049 658.367 82.6022 657.551C81.9222 656.735 81.0155 656.111 79.8822 655.681C78.7715 655.227 77.4795 655.001 76.0062 655.001C74.3062 655.001 72.8442 655.318 71.6202 655.953C70.3962 656.565 69.4555 657.449 68.7982 658.605C68.1409 659.761 67.8122 661.132 67.8122 662.719C67.8122 664.305 68.1409 665.677 68.7982 666.833C69.4555 667.989 70.3962 668.884 71.6202 669.519C72.8442 670.131 74.3062 670.437 76.0062 670.437C77.4795 670.437 78.7715 670.221 79.8822 669.791C81.0155 669.36 81.9222 668.737 82.6022 667.921C83.3049 667.105 83.7695 666.107 83.9962 664.929H90.4562ZM120.57 649.969V675.469H114.178V652.757L117.102 655.647H97.5864L100.476 652.757V675.469H94.0504V649.969H120.57ZM147.014 660.339V665.099H128.552V660.339H147.014ZM132.904 662.719L131.204 673.259L128.518 670.233H148.102V675.469H124.778L126.75 662.719L124.778 649.969H147.932V655.205H128.518L131.204 652.179L132.904 662.719ZM178.57 649.969V671.865L176.36 669.791H183.024V680.637H177.006V674.313L178.978 675.469H152.322V649.969H158.748V671.865L156.674 669.791H174.422L172.178 671.865V649.969H178.57ZM186.455 649.969H192.881V675.469H186.455V649.969ZM202.433 670.335V665.167H220.045V670.335H202.433ZM215.557 649.969L227.321 675.469H220.487L210.389 652.655H212.361L202.297 675.469H195.463L207.227 649.969H215.557ZM234.202 649.969H258.716V675.469H252.29V652.757L255.18 655.647H237.772L240.492 653.505C240.65 655.091 240.764 656.61 240.832 658.061C240.922 659.489 240.968 660.849 240.968 662.141C240.968 665.382 240.673 668.023 240.084 670.063C239.517 672.08 238.61 673.576 237.364 674.551C236.14 675.503 234.542 675.979 232.57 675.979C231.731 675.979 230.904 675.888 230.088 675.707C229.272 675.525 228.535 675.265 227.878 674.925V669.587C228.875 669.972 229.793 670.165 230.632 670.165C232.15 670.165 233.238 669.473 233.896 668.091C234.576 666.685 234.916 664.396 234.916 661.223C234.916 659.727 234.859 658.049 234.746 656.191C234.632 654.309 234.451 652.235 234.202 649.969ZM263.685 649.969H270.111V675.469H263.685V649.969ZM303.056 664.929C302.806 667.127 302.047 669.065 300.778 670.743C299.508 672.397 297.831 673.689 295.746 674.619C293.66 675.548 291.28 676.013 288.606 676.013C285.682 676.013 283.109 675.457 280.888 674.347C278.689 673.236 276.978 671.683 275.754 669.689C274.53 667.694 273.918 665.371 273.918 662.719C273.918 660.067 274.53 657.743 275.754 655.749C276.978 653.754 278.689 652.201 280.888 651.091C283.109 649.98 285.682 649.425 288.606 649.425C291.28 649.425 293.66 649.889 295.746 650.819C297.831 651.748 299.508 653.04 300.778 654.695C302.047 656.349 302.806 658.287 303.056 660.509H296.596C296.369 659.353 295.904 658.367 295.202 657.551C294.522 656.735 293.615 656.111 292.482 655.681C291.371 655.227 290.079 655.001 288.606 655.001C286.906 655.001 285.444 655.318 284.22 655.953C282.996 656.565 282.055 657.449 281.398 658.605C280.74 659.761 280.412 661.132 280.412 662.719C280.412 664.305 280.74 665.677 281.398 666.833C282.055 667.989 282.996 668.884 284.22 669.519C285.444 670.131 286.906 670.437 288.606 670.437C290.079 670.437 291.371 670.221 292.482 669.791C293.615 669.36 294.522 668.737 295.202 667.921C295.904 667.105 296.369 666.107 296.596 664.929H303.056ZM313.679 652.791H320.105V675.469H313.679V652.791ZM303.751 649.969H330.033V655.647H303.751V649.969ZM333.519 670.335V665.167H351.131V670.335H333.519ZM346.643 649.969L358.407 675.469H351.573L341.475 652.655H343.447L333.383 675.469H326.549L338.313 649.969H346.643ZM397.553 649.969V675.469H391.433V652.213L392.929 652.315L382.559 675.469H375.997L365.627 652.383L367.123 652.247V675.469H361.003V649.969H370.897L380.587 672.273H378.003L387.659 649.969H397.553ZM60.6042 721.637V710.825H65.7042L68.0502 710.893H86.1042L87.6682 710.825H94.8082V721.637H88.8242V716.469H66.5882V721.637H60.6042ZM65.9762 690.969H90.3882V714.565H83.9622V693.655L86.8522 696.579H69.4102L72.0622 694.437C72.2209 695.547 72.3115 696.624 72.3342 697.667C72.3795 698.687 72.4022 699.661 72.4022 700.591C72.4022 703.311 72.1755 705.6 71.7222 707.459C71.2915 709.317 70.6229 710.734 69.7162 711.709C68.8322 712.661 67.7329 713.137 66.4182 713.137L63.7322 710.927C64.6615 709.839 65.3529 708.343 65.8062 706.439C66.2595 704.512 66.4862 702.132 66.4862 699.299C66.4862 698.007 66.4409 696.669 66.3502 695.287C66.2595 693.881 66.1349 692.442 65.9762 690.969ZM102.518 690.969H127.032V716.469H120.606V693.757L123.496 696.647H106.088L108.808 694.505C108.967 696.091 109.08 697.61 109.148 699.061C109.239 700.489 109.284 701.849 109.284 703.141C109.284 706.382 108.989 709.023 108.4 711.063C107.833 713.08 106.927 714.576 105.68 715.551C104.456 716.503 102.858 716.979 100.886 716.979C100.047 716.979 99.22 716.888 98.404 716.707C97.588 716.525 96.8513 716.265 96.194 715.925V710.587C97.1913 710.972 98.1093 711.165 98.948 711.165C100.467 711.165 101.555 710.473 102.212 709.091C102.892 707.685 103.232 705.396 103.232 702.223C103.232 700.727 103.175 699.049 103.062 697.191C102.949 695.309 102.767 693.235 102.518 690.969ZM151.518 702.461V707.017H140.706L140.672 706.915C138.768 706.915 137.102 706.586 135.674 705.929C134.246 705.271 133.124 704.353 132.308 703.175C131.514 701.996 131.118 700.613 131.118 699.027C131.118 697.417 131.514 696.012 132.308 694.811C133.124 693.609 134.246 692.669 135.674 691.989C137.102 691.309 138.768 690.969 140.672 690.969H155.938V716.469H149.512V692.703L152.402 695.593H141.556C140.309 695.593 139.334 695.899 138.632 696.511C137.929 697.1 137.578 697.939 137.578 699.027C137.578 700.092 137.929 700.931 138.632 701.543C139.334 702.155 140.309 702.461 141.556 702.461H151.518ZM146.928 704.535L137.918 716.469H130.472L139.72 704.535H146.928ZM183.565 690.969C185.65 690.969 187.441 691.331 188.937 692.057C190.455 692.759 191.611 693.757 192.405 695.049C193.221 696.341 193.629 697.848 193.629 699.571C193.629 701.293 193.221 702.801 192.405 704.093C191.611 705.385 190.455 706.393 188.937 707.119C187.441 707.821 185.65 708.173 183.565 708.173H172.413V702.971H183.225C184.449 702.971 185.412 702.676 186.115 702.087C186.817 701.475 187.169 700.636 187.169 699.571C187.169 698.505 186.817 697.678 186.115 697.089C185.412 696.477 184.449 696.171 183.225 696.171H172.991L175.881 693.179V716.469H169.455V690.969H183.565ZM210.652 717.013C207.66 717.013 205.031 716.457 202.764 715.347C200.52 714.236 198.775 712.683 197.528 710.689C196.281 708.694 195.658 706.371 195.658 703.719C195.658 701.067 196.281 698.743 197.528 696.749C198.775 694.754 200.52 693.201 202.764 692.091C205.031 690.98 207.66 690.425 210.652 690.425C213.644 690.425 216.262 690.98 218.506 692.091C220.773 693.201 222.529 694.754 223.776 696.749C225.045 698.743 225.68 701.067 225.68 703.719C225.68 706.371 225.045 708.694 223.776 710.689C222.529 712.683 220.773 714.236 218.506 715.347C216.262 716.457 213.644 717.013 210.652 717.013ZM210.652 711.267C212.42 711.267 213.939 710.972 215.208 710.383C216.477 709.771 217.452 708.898 218.132 707.765C218.835 706.631 219.186 705.283 219.186 703.719C219.186 702.155 218.835 700.806 218.132 699.673C217.452 698.539 216.477 697.678 215.208 697.089C213.939 696.477 212.42 696.171 210.652 696.171C208.907 696.171 207.399 696.477 206.13 697.089C204.861 697.678 203.875 698.539 203.172 699.673C202.469 700.806 202.118 702.155 202.118 703.719C202.118 705.283 202.469 706.631 203.172 707.765C203.875 708.898 204.861 709.771 206.13 710.383C207.399 710.972 208.907 711.267 210.652 711.267ZM241.25 717.013C238.598 717.013 236.275 716.639 234.28 715.891C232.285 715.143 230.733 714.089 229.622 712.729C228.511 711.346 227.911 709.737 227.82 707.901H234.246C234.427 709.238 235.107 710.269 236.286 710.995C237.465 711.697 239.119 712.049 241.25 712.049C243.245 712.049 244.786 711.765 245.874 711.199C246.985 710.632 247.54 709.782 247.54 708.649C247.54 707.674 247.075 706.96 246.146 706.507C245.217 706.053 243.709 705.827 241.624 705.827H236.83V701.543H241.522C242.769 701.543 243.789 701.418 244.582 701.169C245.375 700.919 245.965 700.568 246.35 700.115C246.735 699.639 246.928 699.117 246.928 698.551C246.928 697.871 246.701 697.293 246.248 696.817C245.795 696.341 245.149 695.989 244.31 695.763C243.471 695.513 242.463 695.389 241.284 695.389C239.357 695.389 237.827 695.74 236.694 696.443C235.583 697.123 234.926 698.086 234.722 699.333H228.364C228.477 697.678 229.055 696.182 230.098 694.845C231.163 693.507 232.659 692.442 234.586 691.649C236.513 690.833 238.847 690.425 241.59 690.425C243.993 690.425 246.078 690.731 247.846 691.343C249.614 691.955 250.985 692.793 251.96 693.859C252.957 694.924 253.456 696.159 253.456 697.565C253.456 698.721 253.105 699.786 252.402 700.761C251.722 701.735 250.645 702.506 249.172 703.073C247.721 703.639 245.84 703.911 243.528 703.889V703.209C245.727 703.095 247.608 703.254 249.172 703.685C250.759 704.093 251.971 704.75 252.81 705.657C253.671 706.563 254.102 707.719 254.102 709.125C254.102 710.666 253.603 712.037 252.606 713.239C251.609 714.417 250.147 715.347 248.22 716.027C246.316 716.684 243.993 717.013 241.25 717.013ZM274.804 703.957L275.348 702.699C277.343 702.744 278.975 703.05 280.244 703.617C281.536 704.183 282.488 704.965 283.1 705.963C283.735 706.937 284.052 708.071 284.052 709.363C284.052 710.723 283.735 711.947 283.1 713.035C282.466 714.1 281.514 714.939 280.244 715.551C278.998 716.163 277.434 716.469 275.552 716.469H257.192L259.164 703.379L257.192 690.969H274.906C277.264 690.969 279.088 691.524 280.38 692.635C281.695 693.723 282.352 695.23 282.352 697.157C282.352 698.222 282.103 699.242 281.604 700.217C281.106 701.191 280.312 702.019 279.224 702.699C278.136 703.356 276.663 703.775 274.804 703.957ZM263.516 714.905L261.068 711.879H274.022C275.133 711.879 275.994 711.618 276.606 711.097C277.241 710.553 277.558 709.793 277.558 708.819C277.558 707.844 277.207 707.073 276.504 706.507C275.824 705.917 274.804 705.623 273.444 705.623H262.836V701.135H272.628C273.558 701.135 274.328 700.874 274.94 700.353C275.552 699.809 275.858 699.072 275.858 698.143C275.858 697.395 275.598 696.783 275.076 696.307C274.555 695.808 273.796 695.559 272.798 695.559H261.102L263.516 692.533L265.318 703.379L263.516 714.905ZM287.691 716.469V690.969H294.015V713.137L292.145 712.763L307.445 690.969H315.809V716.469H309.519V693.927L311.355 694.301L295.851 716.469H287.691ZM328.819 693.791H335.245V716.469H328.819V693.791ZM318.891 690.969H345.173V696.647H318.891V690.969ZM348.253 716.469V690.969H354.645V711.335L352.911 710.009L368.007 690.969H374.807L354.033 716.469H348.253ZM360.459 704.127L365.083 700.149L375.147 716.469H367.871L360.459 704.127ZM383.523 716.469L388.011 708.683H388.113L398.245 690.969H405.181L390.459 716.469H383.523ZM387.943 712.899L375.227 690.969H382.299L392.431 708.547L387.943 712.899Z" fill="white"/>
</svg>
