<svg width="1033" height="804" viewBox="0 0 1033 804" fill="none" xmlns="http://www.w3.org/2000/svg">
<path d="M615.915 20H632.475V80H615.915V20ZM663.115 20H679.755V80H663.115V20ZM625.195 42.16H669.995V56.88H625.195V42.16ZM706.754 53.2C706.754 55.92 707.26 58.2933 708.274 60.32C709.34 62.2933 710.887 63.8133 712.914 64.88C714.994 65.9467 717.527 66.48 720.514 66.48C723.554 66.48 726.087 65.9467 728.114 64.88C730.14 63.8133 731.66 62.2933 732.674 60.32C733.687 58.2933 734.194 55.92 734.194 53.2V20H750.834V54C750.834 59.4933 749.554 64.2933 746.994 68.4C744.487 72.4533 740.967 75.6267 736.434 77.92C731.9 80.16 726.594 81.28 720.514 81.28C714.487 81.28 709.18 80.16 704.594 77.92C700.06 75.6267 696.514 72.4533 693.954 68.4C691.447 64.2933 690.194 59.4933 690.194 54V20H706.754V53.2ZM848.908 20V80H833.148V25.92L836.668 26.32L813.468 80H796.668L773.388 26.48L776.988 26.08V80H761.228V20H786.828L808.348 71.52H801.948L823.308 20H848.908ZM871.814 68.48V55.12H913.174V68.48H871.814ZM903.734 20L931.014 80H913.334L890.454 27.04H895.254L872.294 80H854.614L881.894 20H903.734ZM992.297 68.4L987.177 69.44V20H1003.26V80H982.377L947.737 30.64L952.777 29.6V80H936.697V20H958.137L992.297 68.4ZM426.73 142.24H448.57C451.237 142.24 453.317 141.627 454.81 140.4C456.304 139.173 457.05 137.467 457.05 135.28C457.05 133.04 456.304 131.333 454.81 130.16C453.317 128.933 451.237 128.32 448.57 128.32H424.41L431.85 120.4V176H415.29V116H450.89C455.477 116 459.477 116.827 462.89 118.48C466.304 120.08 468.97 122.32 470.89 125.2C472.81 128.027 473.77 131.387 473.77 135.28C473.77 139.067 472.81 142.4 470.89 145.28C468.97 148.16 466.304 150.4 462.89 152C459.477 153.6 455.477 154.4 450.89 154.4H426.73V142.24ZM435.69 147.92H454.33L475.85 176H456.65L435.69 147.92ZM534.539 140V152H490.619V140H534.539ZM501.899 146L497.979 170.08L491.259 162.56H537.179V176H481.419L485.979 146L481.419 116H536.779V129.44H491.259L497.979 121.92L501.899 146ZM544.055 156.32H560.935C561.202 157.973 561.975 159.413 563.255 160.64C564.535 161.867 566.242 162.827 568.375 163.52C570.562 164.16 573.122 164.48 576.055 164.48C580.108 164.48 583.308 163.973 585.655 162.96C588.002 161.893 589.175 160.347 589.175 158.32C589.175 156.773 588.508 155.573 587.175 154.72C585.842 153.867 583.282 153.253 579.495 152.88L568.295 151.84C560.028 151.093 554.028 149.227 550.295 146.24C546.562 143.2 544.695 139.12 544.695 134C544.695 129.84 545.895 126.32 548.295 123.44C550.748 120.56 554.162 118.4 558.535 116.96C562.962 115.467 568.108 114.72 573.975 114.72C579.735 114.72 584.855 115.547 589.335 117.2C593.815 118.8 597.362 121.093 599.975 124.08C602.642 127.067 604.082 130.533 604.295 134.48H587.495C587.282 133.04 586.588 131.813 585.415 130.8C584.295 129.733 582.748 128.933 580.775 128.4C578.802 127.813 576.428 127.52 573.655 127.52C569.922 127.52 566.962 128.027 564.775 129.04C562.588 130 561.495 131.44 561.495 133.36C561.495 134.747 562.135 135.867 563.415 136.72C564.748 137.573 567.122 138.16 570.535 138.48L582.455 139.68C588.162 140.213 592.722 141.147 596.135 142.48C599.548 143.76 602.028 145.547 603.575 147.84C605.122 150.133 605.895 152.987 605.895 156.4C605.895 160.613 604.642 164.293 602.135 167.44C599.628 170.533 596.108 172.96 591.575 174.72C587.042 176.427 581.762 177.28 575.735 177.28C569.548 177.28 564.082 176.427 559.335 174.72C554.642 172.96 550.962 170.507 548.295 167.36C545.628 164.16 544.215 160.48 544.055 156.32ZM647.157 177.28C640.063 177.28 633.823 175.973 628.437 173.36C623.103 170.747 618.943 167.093 615.957 162.4C613.023 157.707 611.557 152.24 611.557 146C611.557 139.76 613.023 134.293 615.957 129.6C618.943 124.907 623.103 121.253 628.437 118.64C633.823 116.027 640.063 114.72 647.157 114.72C654.303 114.72 660.543 116.027 665.877 118.64C671.21 121.253 675.37 124.907 678.357 129.6C681.343 134.293 682.837 139.76 682.837 146C682.837 152.24 681.343 157.707 678.357 162.4C675.37 167.093 671.21 170.747 665.877 173.36C660.543 175.973 654.303 177.28 647.157 177.28ZM647.157 162.48C651.05 162.48 654.41 161.813 657.237 160.48C660.063 159.147 662.223 157.253 663.717 154.8C665.263 152.347 666.037 149.413 666.037 146C666.037 142.587 665.263 139.653 663.717 137.2C662.223 134.747 660.063 132.853 657.237 131.52C654.41 130.187 651.05 129.52 647.157 129.52C643.317 129.52 639.983 130.187 637.157 131.52C634.33 132.853 632.143 134.747 630.597 137.2C629.05 139.653 628.277 142.587 628.277 146C628.277 149.413 629.05 152.347 630.597 154.8C632.143 157.253 634.33 159.147 637.157 160.48C639.983 161.813 643.317 162.48 647.157 162.48ZM707.144 149.2C707.144 151.92 707.651 154.293 708.664 156.32C709.731 158.293 711.278 159.813 713.304 160.88C715.384 161.947 717.918 162.48 720.904 162.48C723.944 162.48 726.478 161.947 728.504 160.88C730.531 159.813 732.051 158.293 733.064 156.32C734.078 154.293 734.584 151.92 734.584 149.2V116H751.224V150C751.224 155.493 749.944 160.293 747.384 164.4C744.878 168.453 741.358 171.627 736.824 173.92C732.291 176.16 726.984 177.28 720.904 177.28C714.878 177.28 709.571 176.16 704.984 173.92C700.451 171.627 696.904 168.453 694.344 164.4C691.838 160.293 690.584 155.493 690.584 150V116H707.144V149.2ZM773.059 142.24H794.899C797.565 142.24 799.645 141.627 801.139 140.4C802.632 139.173 803.379 137.467 803.379 135.28C803.379 133.04 802.632 131.333 801.139 130.16C799.645 128.933 797.565 128.32 794.899 128.32H770.739L778.179 120.4V176H761.619V116H797.219C801.805 116 805.805 116.827 809.219 118.48C812.632 120.08 815.299 122.32 817.219 125.2C819.139 128.027 820.099 131.387 820.099 135.28C820.099 139.067 819.139 142.4 817.219 145.28C815.299 148.16 812.632 150.4 809.219 152C805.805 153.6 801.805 154.4 797.219 154.4H773.059V142.24ZM782.019 147.92H800.659L822.179 176H802.979L782.019 147.92ZM895.602 150.88C895.016 156.16 893.202 160.8 890.162 164.8C887.122 168.747 883.122 171.813 878.162 174C873.256 176.187 867.602 177.28 861.202 177.28C854.216 177.28 848.109 175.973 842.882 173.36C837.656 170.747 833.576 167.093 830.642 162.4C827.762 157.707 826.322 152.24 826.322 146C826.322 139.76 827.762 134.293 830.642 129.6C833.576 124.907 837.656 121.253 842.882 118.64C848.109 116.027 854.216 114.72 861.202 114.72C867.602 114.72 873.256 115.813 878.162 118C883.122 120.187 887.122 123.28 890.162 127.28C893.202 131.227 895.016 135.84 895.602 141.12H878.962C878.429 138.56 877.389 136.4 875.842 134.64C874.296 132.827 872.269 131.44 869.762 130.48C867.309 129.52 864.456 129.04 861.202 129.04C857.469 129.04 854.242 129.733 851.522 131.12C848.802 132.453 846.722 134.4 845.282 136.96C843.842 139.467 843.122 142.48 843.122 146C843.122 149.52 843.842 152.56 845.282 155.12C846.722 157.627 848.802 159.573 851.522 160.96C854.242 162.293 857.469 162.96 861.202 162.96C864.456 162.96 867.309 162.507 869.762 161.6C872.269 160.693 874.296 159.333 875.842 157.52C877.389 155.707 878.429 153.493 878.962 150.88H895.602ZM954.617 140V152H910.697V140H954.617ZM921.977 146L918.057 170.08L911.337 162.56H957.257V176H901.497L906.057 146L901.497 116H956.857V129.44H911.337L918.057 121.92L921.977 146ZM964.133 156.32H981.013C981.28 157.973 982.053 159.413 983.333 160.64C984.613 161.867 986.32 162.827 988.453 163.52C990.64 164.16 993.2 164.48 996.133 164.48C1000.19 164.48 1003.39 163.973 1005.73 162.96C1008.08 161.893 1009.25 160.347 1009.25 158.32C1009.25 156.773 1008.59 155.573 1007.25 154.72C1005.92 153.867 1003.36 153.253 999.573 152.88L988.373 151.84C980.106 151.093 974.106 149.227 970.373 146.24C966.64 143.2 964.773 139.12 964.773 134C964.773 129.84 965.973 126.32 968.373 123.44C970.826 120.56 974.24 118.4 978.613 116.96C983.04 115.467 988.186 114.72 994.053 114.72C999.813 114.72 1004.93 115.547 1009.41 117.2C1013.89 118.8 1017.44 121.093 1020.05 124.08C1022.72 127.067 1024.16 130.533 1024.37 134.48H1007.57C1007.36 133.04 1006.67 131.813 1005.49 130.8C1004.37 129.733 1002.83 128.933 1000.85 128.4C998.88 127.813 996.506 127.52 993.733 127.52C990 127.52 987.04 128.027 984.853 129.04C982.666 130 981.573 131.44 981.573 133.36C981.573 134.747 982.213 135.867 983.493 136.72C984.826 137.573 987.2 138.16 990.613 138.48L1002.53 139.68C1008.24 140.213 1012.8 141.147 1016.21 142.48C1019.63 143.76 1022.11 145.547 1023.65 147.84C1025.2 150.133 1025.97 152.987 1025.97 156.4C1025.97 160.613 1024.72 164.293 1022.21 167.44C1019.71 170.533 1016.19 172.96 1011.65 174.72C1007.12 176.427 1001.84 177.28 995.813 177.28C989.626 177.28 984.16 176.427 979.413 174.72C974.72 172.96 971.04 170.507 968.373 167.36C965.706 164.16 964.293 160.48 964.133 156.32Z" fill="white"/>
<path d="M565.601 2H2V147.82V267.232V364.195V477.351V802H121.905L173.614 646.994L232.817 802H532.58V682.588H851.589L790.562 802H1028.69V512.976L900.65 364.195L1028.69 219.725H335.853V92.1976H532.58L565.601 2Z" stroke="white" stroke-width="3"/>
</svg>
