<svg width="440" height="350" viewBox="0 0 440 350" fill="none" xmlns="http://www.w3.org/2000/svg">
<path d="M254.253 8H261.705V35H254.253V8ZM275.493 8H282.981V35H275.493V8ZM258.429 17.972H278.589V24.596H258.429V17.972ZM295.13 22.94C295.13 24.164 295.358 25.232 295.814 26.144C296.294 27.032 296.99 27.716 297.902 28.196C298.838 28.676 299.978 28.916 301.322 28.916C302.69 28.916 303.83 28.676 304.742 28.196C305.654 27.716 306.338 27.032 306.794 26.144C307.25 25.232 307.478 24.164 307.478 22.94V8H314.966V23.3C314.966 25.772 314.39 27.932 313.238 29.78C312.11 31.604 310.526 33.032 308.486 34.064C306.446 35.072 304.058 35.576 301.322 35.576C298.61 35.576 296.222 35.072 294.158 34.064C292.118 33.032 290.522 31.604 289.37 29.78C288.242 27.932 287.678 25.772 287.678 23.3V8H295.13V22.94ZM359.1 8V35H352.008V10.664L353.592 10.844L343.152 35H335.592L325.116 10.916L326.736 10.736V35H319.644V8H331.164L340.848 31.184H337.968L347.58 8H359.1ZM369.408 29.816V23.804H388.02V29.816H369.408ZM383.772 8L396.048 35H388.092L377.796 11.168H379.956L369.624 35H361.668L373.944 8H383.772ZM423.625 29.78L421.321 30.248V8H428.557V35H419.161L403.573 12.788L405.841 12.32V35H398.605V8H408.253L423.625 29.78ZM169.12 62.808H178.948C180.148 62.808 181.084 62.532 181.756 61.98C182.428 61.428 182.764 60.66 182.764 59.676C182.764 58.668 182.428 57.9 181.756 57.372C181.084 56.82 180.148 56.544 178.948 56.544H168.076L171.424 52.98V78H163.972V51H179.992C182.056 51 183.856 51.372 185.392 52.116C186.928 52.836 188.128 53.844 188.992 55.14C189.856 56.412 190.288 57.924 190.288 59.676C190.288 61.38 189.856 62.88 188.992 64.176C188.128 65.472 186.928 66.48 185.392 67.2C183.856 67.92 182.056 68.28 179.992 68.28H169.12V62.808ZM173.152 65.364H181.54L191.224 78H182.584L173.152 65.364ZM217.634 61.8V67.2H197.87V61.8H217.634ZM202.946 64.5L201.182 75.336L198.158 71.952H218.822V78H193.73L195.782 64.5L193.73 51H218.642V57.048H198.158L201.182 53.664L202.946 64.5ZM221.916 69.144H229.512C229.632 69.888 229.98 70.536 230.556 71.088C231.132 71.64 231.9 72.072 232.86 72.384C233.844 72.672 234.996 72.816 236.316 72.816C238.14 72.816 239.58 72.588 240.636 72.132C241.692 71.652 242.22 70.956 242.22 70.044C242.22 69.348 241.92 68.808 241.32 68.424C240.72 68.04 239.568 67.764 237.864 67.596L232.824 67.128C229.104 66.792 226.404 65.952 224.724 64.608C223.044 63.24 222.204 61.404 222.204 59.1C222.204 57.228 222.744 55.644 223.824 54.348C224.928 53.052 226.464 52.08 228.432 51.432C230.424 50.76 232.74 50.424 235.38 50.424C237.972 50.424 240.276 50.796 242.292 51.54C244.308 52.26 245.904 53.292 247.08 54.636C248.28 55.98 248.928 57.54 249.024 59.316H241.464C241.368 58.668 241.056 58.116 240.528 57.66C240.024 57.18 239.328 56.82 238.44 56.58C237.552 56.316 236.484 56.184 235.236 56.184C233.556 56.184 232.224 56.412 231.24 56.868C230.256 57.3 229.764 57.948 229.764 58.812C229.764 59.436 230.052 59.94 230.628 60.324C231.228 60.708 232.296 60.972 233.832 61.116L239.196 61.656C241.764 61.896 243.816 62.316 245.352 62.916C246.888 63.492 248.004 64.296 248.7 65.328C249.396 66.36 249.744 67.644 249.744 69.18C249.744 71.076 249.18 72.732 248.052 74.148C246.924 75.54 245.34 76.632 243.3 77.424C241.26 78.192 238.884 78.576 236.172 78.576C233.388 78.576 230.928 78.192 228.792 77.424C226.68 76.632 225.024 75.528 223.824 74.112C222.624 72.672 221.988 71.016 221.916 69.144ZM268.312 78.576C265.12 78.576 262.312 77.988 259.888 76.812C257.488 75.636 255.616 73.992 254.272 71.88C252.952 69.768 252.292 67.308 252.292 64.5C252.292 61.692 252.952 59.232 254.272 57.12C255.616 55.008 257.488 53.364 259.888 52.188C262.312 51.012 265.12 50.424 268.312 50.424C271.528 50.424 274.336 51.012 276.736 52.188C279.136 53.364 281.008 55.008 282.352 57.12C283.696 59.232 284.368 61.692 284.368 64.5C284.368 67.308 283.696 69.768 282.352 71.88C281.008 73.992 279.136 75.636 276.736 76.812C274.336 77.988 271.528 78.576 268.312 78.576ZM268.312 71.916C270.064 71.916 271.576 71.616 272.848 71.016C274.12 70.416 275.092 69.564 275.764 68.46C276.46 67.356 276.808 66.036 276.808 64.5C276.808 62.964 276.46 61.644 275.764 60.54C275.092 59.436 274.12 58.584 272.848 57.984C271.576 57.384 270.064 57.084 268.312 57.084C266.584 57.084 265.084 57.384 263.812 57.984C262.54 58.584 261.556 59.436 260.86 60.54C260.164 61.644 259.816 62.964 259.816 64.5C259.816 66.036 260.164 67.356 260.86 68.46C261.556 69.564 262.54 70.416 263.812 71.016C265.084 71.616 266.584 71.916 268.312 71.916ZM295.306 65.94C295.306 67.164 295.534 68.232 295.99 69.144C296.47 70.032 297.166 70.716 298.078 71.196C299.014 71.676 300.154 71.916 301.498 71.916C302.866 71.916 304.006 71.676 304.918 71.196C305.83 70.716 306.514 70.032 306.97 69.144C307.426 68.232 307.654 67.164 307.654 65.94V51H315.142V66.3C315.142 68.772 314.566 70.932 313.414 72.78C312.286 74.604 310.702 76.032 308.662 77.064C306.622 78.072 304.234 78.576 301.498 78.576C298.786 78.576 296.398 78.072 294.334 77.064C292.294 76.032 290.698 74.604 289.546 72.78C288.418 70.932 287.854 68.772 287.854 66.3V51H295.306V65.94ZM324.968 62.808H334.796C335.996 62.808 336.932 62.532 337.604 61.98C338.276 61.428 338.612 60.66 338.612 59.676C338.612 58.668 338.276 57.9 337.604 57.372C336.932 56.82 335.996 56.544 334.796 56.544H323.924L327.272 52.98V78H319.82V51H335.84C337.904 51 339.704 51.372 341.24 52.116C342.776 52.836 343.976 53.844 344.84 55.14C345.704 56.412 346.136 57.924 346.136 59.676C346.136 61.38 345.704 62.88 344.84 64.176C343.976 65.472 342.776 66.48 341.24 67.2C339.704 67.92 337.904 68.28 335.84 68.28H324.968V62.808ZM329 65.364H337.388L347.072 78H338.432L329 65.364ZM380.112 66.696C379.848 69.072 379.032 71.16 377.664 72.96C376.296 74.736 374.496 76.116 372.264 77.1C370.056 78.084 367.512 78.576 364.632 78.576C361.488 78.576 358.74 77.988 356.388 76.812C354.036 75.636 352.2 73.992 350.88 71.88C349.584 69.768 348.936 67.308 348.936 64.5C348.936 61.692 349.584 59.232 350.88 57.12C352.2 55.008 354.036 53.364 356.388 52.188C358.74 51.012 361.488 50.424 364.632 50.424C367.512 50.424 370.056 50.916 372.264 51.9C374.496 52.884 376.296 54.276 377.664 56.076C379.032 57.852 379.848 59.928 380.112 62.304H372.624C372.384 61.152 371.916 60.18 371.22 59.388C370.524 58.572 369.612 57.948 368.484 57.516C367.38 57.084 366.096 56.868 364.632 56.868C362.952 56.868 361.5 57.18 360.276 57.804C359.052 58.404 358.116 59.28 357.468 60.432C356.82 61.56 356.496 62.916 356.496 64.5C356.496 66.084 356.82 67.452 357.468 68.604C358.116 69.732 359.052 70.608 360.276 71.232C361.5 71.832 362.952 72.132 364.632 72.132C366.096 72.132 367.38 71.928 368.484 71.52C369.612 71.112 370.524 70.5 371.22 69.684C371.916 68.868 372.384 67.872 372.624 66.696H380.112ZM406.669 61.8V67.2H386.905V61.8H406.669ZM391.981 64.5L390.217 75.336L387.193 71.952H407.857V78H382.765L384.817 64.5L382.765 51H407.677V57.048H387.193L390.217 53.664L391.981 64.5ZM410.951 69.144H418.547C418.667 69.888 419.015 70.536 419.591 71.088C420.167 71.64 420.935 72.072 421.895 72.384C422.879 72.672 424.031 72.816 425.351 72.816C427.175 72.816 428.615 72.588 429.671 72.132C430.727 71.652 431.255 70.956 431.255 70.044C431.255 69.348 430.955 68.808 430.355 68.424C429.755 68.04 428.603 67.764 426.899 67.596L421.859 67.128C418.139 66.792 415.439 65.952 413.759 64.608C412.079 63.24 411.239 61.404 411.239 59.1C411.239 57.228 411.779 55.644 412.859 54.348C413.963 53.052 415.499 52.08 417.467 51.432C419.459 50.76 421.775 50.424 424.415 50.424C427.007 50.424 429.311 50.796 431.327 51.54C433.343 52.26 434.939 53.292 436.115 54.636C437.315 55.98 437.963 57.54 438.059 59.316H430.499C430.403 58.668 430.091 58.116 429.563 57.66C429.059 57.18 428.363 56.82 427.475 56.58C426.587 56.316 425.519 56.184 424.271 56.184C422.591 56.184 421.259 56.412 420.275 56.868C419.291 57.3 418.799 57.948 418.799 58.812C418.799 59.436 419.087 59.94 419.663 60.324C420.263 60.708 421.331 60.972 422.867 61.116L428.231 61.656C430.799 61.896 432.851 62.316 434.387 62.916C435.923 63.492 437.039 64.296 437.735 65.328C438.431 66.36 438.779 67.644 438.779 69.18C438.779 71.076 438.215 72.732 437.087 74.148C435.959 75.54 434.375 76.632 432.335 77.424C430.295 78.192 427.919 78.576 425.207 78.576C422.423 78.576 419.963 78.192 417.827 77.424C415.715 76.632 414.059 75.528 412.859 74.112C411.659 72.672 411.023 71.016 410.951 69.144Z" fill="#040000"/>
<path d="M241.538 0H0V63.7963V116.039V158.46V207.966V350H51.3869L73.5474 282.185L98.9197 350H227.387V297.757H364.103L337.949 350H440V223.552L385.128 158.46L440 95.2547H143.077V39.4615H227.387L241.538 0Z" fill="#040000"/>
</svg>
