<svg width="440" height="350" viewBox="0 0 440 350" fill="none" xmlns="http://www.w3.org/2000/svg">
<path d="M357 253.18H0V129.503L29 68.5722L0 36.7821V0H119L170.786 77.1186L281.451 0H440V170.3H378.5L440 219.045V350H344.591L351.591 311.236H378.5L357 253.18Z" fill="#040000"/>
<path d="M41.976 272.078V299.078H34.884V274.742L36.468 274.922L26.028 299.078H18.468L7.992 274.994L9.612 274.814L9.612 299.078H2.52L2.52 272.078H14.04L23.724 295.262H20.844L30.456 272.078H41.976ZM52.2838 293.894V287.882H70.8958V293.894H52.2838ZM66.6478 272.078L78.9238 299.078H70.9678L60.6718 275.246H62.8318L52.4998 299.078H44.5438L56.8198 272.078H66.6478ZM106.501 293.858L104.197 294.326V272.078H111.433V299.078H102.037L86.4489 276.866L88.7169 276.398V299.078H81.4809V272.078H91.1289L106.501 293.858ZM121.717 293.894V287.882H140.329V293.894H121.717ZM136.081 272.078L148.357 299.078H140.401L130.105 275.246H132.265L121.933 299.078H113.977L126.253 272.078H136.081ZM176.945 287.378C176.873 289.01 176.537 290.57 175.937 292.058C175.361 293.522 174.509 294.83 173.381 295.982C172.277 297.134 170.885 298.034 169.205 298.682C167.549 299.33 165.617 299.654 163.409 299.654C161.297 299.654 159.317 299.354 157.469 298.754C155.621 298.13 153.989 297.218 152.573 296.018C151.181 294.818 150.089 293.342 149.297 291.59C148.529 289.838 148.145 287.834 148.145 285.578C148.145 283.322 148.541 281.318 149.333 279.566C150.125 277.814 151.229 276.338 152.645 275.138C154.085 273.938 155.741 273.038 157.613 272.438C159.509 271.814 161.573 271.502 163.805 271.502C166.781 271.502 169.349 271.958 171.509 272.87C173.669 273.782 175.409 275.03 176.729 276.614C178.049 278.198 178.901 280.034 179.285 282.122H171.761C171.521 281.21 171.029 280.43 170.285 279.782C169.565 279.11 168.653 278.606 167.549 278.27C166.469 277.91 165.233 277.73 163.841 277.73C162.161 277.73 160.709 278.03 159.485 278.63C158.261 279.206 157.313 280.082 156.641 281.258C155.969 282.41 155.633 283.85 155.633 285.578C155.633 287.33 155.993 288.806 156.713 290.006C157.433 291.206 158.453 292.106 159.773 292.706C161.117 293.306 162.689 293.606 164.489 293.606C166.241 293.606 167.789 293.366 169.133 292.886C170.477 292.382 171.545 291.65 172.337 290.69C173.153 289.73 173.621 288.578 173.741 287.234L176.945 287.378ZM165.209 290.366V285.11H179.537V299.078H174.245L173.201 288.386L174.605 290.366H165.209ZM207.073 282.878V288.278H187.309V282.878H207.073ZM192.385 285.578L190.621 296.414L187.597 293.03H208.261V299.078H183.169L185.221 285.578L183.169 272.078H208.081V278.126H187.597L190.621 274.742L192.385 285.578ZM252.035 272.078V299.078H244.943V274.742L246.527 274.922L236.087 299.078H228.527L218.051 274.994L219.671 274.814V299.078H212.579V272.078H224.099L233.783 295.262H230.903L240.515 272.078H252.035ZM280.162 282.878V288.278H260.398V282.878H280.162ZM265.474 285.578L263.71 296.414L260.686 293.03H281.35V299.078H256.258L258.31 285.578L256.258 272.078H281.17V278.126H260.686L263.71 274.742L265.474 285.578ZM310.688 293.858L308.384 294.326V272.078H315.62V299.078H306.224L290.636 276.866L292.904 276.398V299.078H285.668V272.078H295.316L310.688 293.858ZM329.109 275.354H336.597V299.078H329.109V275.354ZM318.813 272.078H346.893V278.702H318.813V272.078ZM27.036 322.746H19.728C19.608 321.858 19.212 321.126 18.54 320.55C17.892 319.95 16.956 319.65 15.732 319.65C15.012 319.65 14.388 319.746 13.86 319.938C13.356 320.13 12.972 320.406 12.708 320.766C12.444 321.126 12.312 321.534 12.312 321.99C12.312 322.374 12.42 322.758 12.636 323.142C12.876 323.526 13.26 323.934 13.788 324.366L34.344 342.078H25.164L8.172 327.534C7.14 326.646 6.264 325.71 5.544 324.726C4.848 323.718 4.5 322.638 4.5 321.486C4.5 320.094 4.92 318.882 5.76 317.85C6.6 316.794 7.836 315.978 9.468 315.402C11.1 314.802 13.092 314.502 15.444 314.502C17.844 314.502 19.884 314.862 21.564 315.582C23.268 316.302 24.576 317.286 25.488 318.534C26.424 319.782 26.94 321.186 27.036 322.746ZM25.128 327.174H32.76L24.156 336.894C22.956 338.262 21.756 339.378 20.556 340.242C19.356 341.082 18.06 341.694 16.668 342.078C15.276 342.462 13.692 342.654 11.916 342.654C9.66 342.654 7.716 342.306 6.084 341.61C4.476 340.89 3.24 339.93 2.376 338.73C1.512 337.53 1.08 336.162 1.08 334.626C1.08 333.282 1.44 332.058 2.16 330.954C2.88 329.85 4.008 328.926 5.544 328.182C7.08 327.438 9.084 326.946 11.556 326.706L13.068 329.586C11.58 329.898 10.428 330.414 9.612 331.134C8.796 331.83 8.388 332.67 8.388 333.654C8.388 334.302 8.58 334.902 8.964 335.454C9.372 335.982 9.912 336.402 10.584 336.714C11.28 337.026 12.096 337.182 13.032 337.182C14.712 337.182 16.104 336.858 17.208 336.21C18.336 335.562 19.296 334.734 20.088 333.726L25.128 327.174ZM58.6958 342.654C55.5038 342.654 52.6958 342.066 50.2718 340.89C47.8718 339.714 45.9998 338.07 44.6558 335.958C43.3358 333.846 42.6758 331.386 42.6758 328.578C42.6758 325.77 43.3358 323.31 44.6558 321.198C45.9998 319.086 47.8718 317.442 50.2718 316.266C52.6958 315.09 55.5038 314.502 58.6958 314.502C61.9118 314.502 64.7198 315.09 67.1198 316.266C69.5198 317.442 71.3918 319.086 72.7358 321.198C74.0798 323.31 74.7518 325.77 74.7518 328.578C74.7518 331.386 74.0798 333.846 72.7358 335.958C71.3918 338.07 69.5198 339.714 67.1198 340.89C64.7198 342.066 61.9118 342.654 58.6958 342.654ZM58.6958 335.994C60.4478 335.994 61.9598 335.694 63.2318 335.094C64.5038 334.494 65.4758 333.642 66.1478 332.538C66.8438 331.434 67.1918 330.114 67.1918 328.578C67.1918 327.042 66.8438 325.722 66.1478 324.618C65.4758 323.514 64.5038 322.662 63.2318 322.062C61.9598 321.462 60.4478 321.162 58.6958 321.162C56.9678 321.162 55.4678 321.462 54.1958 322.062C52.9238 322.662 51.9398 323.514 51.2438 324.618C50.5478 325.722 50.1998 327.042 50.1998 328.578C50.1998 330.114 50.5478 331.434 51.2438 332.538C51.9398 333.642 52.9238 334.494 54.1958 335.094C55.4678 335.694 56.9678 335.994 58.6958 335.994ZM93.7541 315.078C96.0101 315.078 97.9541 315.462 99.5861 316.23C101.242 316.998 102.502 318.09 103.366 319.506C104.23 320.898 104.662 322.53 104.662 324.402C104.662 326.25 104.23 327.882 103.366 329.298C102.502 330.69 101.242 331.77 99.5861 332.538C97.9541 333.306 96.0101 333.69 93.7541 333.69H82.0541V327.714H93.2861C94.4861 327.714 95.4221 327.426 96.0941 326.85C96.7661 326.25 97.1021 325.434 97.1021 324.402C97.1021 323.346 96.7661 322.53 96.0941 321.954C95.4221 321.354 94.4861 321.054 93.2861 321.054H82.7021L86.0501 317.598V342.078H78.5981V315.078H93.7541ZM130.889 325.878V331.278H111.125V325.878H130.889ZM116.201 328.578L114.437 339.414L111.413 336.03H132.077V342.078H106.985L109.037 328.578L106.985 315.078H131.897V321.126H111.413L114.437 317.742L116.201 328.578ZM141.543 326.886H151.371C152.571 326.886 153.507 326.61 154.179 326.058C154.851 325.506 155.187 324.738 155.187 323.754C155.187 322.746 154.851 321.978 154.179 321.45C153.507 320.898 152.571 320.622 151.371 320.622H140.499L143.847 317.058V342.078H136.395V315.078H152.415C154.479 315.078 156.279 315.45 157.815 316.194C159.351 316.914 160.551 317.922 161.415 319.218C162.279 320.49 162.711 322.002 162.711 323.754C162.711 325.458 162.279 326.958 161.415 328.254C160.551 329.55 159.351 330.558 157.815 331.278C156.279 331.998 154.479 332.358 152.415 332.358H141.543V326.886ZM145.575 329.442H153.963L163.647 342.078H155.007L145.575 329.442ZM171.745 336.894V330.882H190.357V336.894H171.745ZM186.109 315.078L198.385 342.078H190.429L180.133 318.246H182.293L171.961 342.078H164.005L176.281 315.078H186.109ZM205.078 318.354H212.566V342.078H205.078V318.354ZM194.782 315.078H222.862V321.702H194.782V315.078ZM226.079 315.078H233.531V342.078H226.079V315.078ZM253.391 342.654C250.199 342.654 247.391 342.066 244.967 340.89C242.567 339.714 240.695 338.07 239.351 335.958C238.031 333.846 237.371 331.386 237.371 328.578C237.371 325.77 238.031 323.31 239.351 321.198C240.695 319.086 242.567 317.442 244.967 316.266C247.391 315.09 250.199 314.502 253.391 314.502C256.607 314.502 259.415 315.09 261.815 316.266C264.215 317.442 266.087 319.086 267.431 321.198C268.775 323.31 269.447 325.77 269.447 328.578C269.447 331.386 268.775 333.846 267.431 335.958C266.087 338.07 264.215 339.714 261.815 340.89C259.415 342.066 256.607 342.654 253.391 342.654ZM253.391 335.994C255.143 335.994 256.655 335.694 257.927 335.094C259.199 334.494 260.171 333.642 260.843 332.538C261.539 331.434 261.887 330.114 261.887 328.578C261.887 327.042 261.539 325.722 260.843 324.618C260.171 323.514 259.199 322.662 257.927 322.062C256.655 321.462 255.143 321.162 253.391 321.162C251.663 321.162 250.163 321.462 248.891 322.062C247.619 322.662 246.635 323.514 245.939 324.618C245.243 325.722 244.895 327.042 244.895 328.578C244.895 330.114 245.243 331.434 245.939 332.538C246.635 333.642 247.619 334.494 248.891 335.094C250.163 335.694 251.663 335.994 253.391 335.994ZM298.313 336.858L296.009 337.326V315.078H303.245V342.078H293.849L278.261 319.866L280.529 319.398V342.078H273.293V315.078H282.941L298.313 336.858ZM307.05 333.222H314.646C314.766 333.966 315.114 334.614 315.69 335.166C316.266 335.718 317.034 336.15 317.994 336.462C318.978 336.75 320.13 336.894 321.45 336.894C323.274 336.894 324.714 336.666 325.77 336.21C326.826 335.73 327.354 335.034 327.354 334.122C327.354 333.426 327.054 332.886 326.454 332.502C325.854 332.118 324.702 331.842 322.998 331.674L317.958 331.206C314.238 330.87 311.538 330.03 309.858 328.686C308.178 327.318 307.338 325.482 307.338 323.178C307.338 321.306 307.878 319.722 308.958 318.426C310.062 317.13 311.598 316.158 313.566 315.51C315.558 314.838 317.874 314.502 320.514 314.502C323.106 314.502 325.41 314.874 327.426 315.618C329.442 316.338 331.038 317.37 332.214 318.714C333.414 320.058 334.062 321.618 334.158 323.394H326.598C326.502 322.746 326.19 322.194 325.662 321.738C325.158 321.258 324.462 320.898 323.574 320.658C322.686 320.394 321.618 320.262 320.37 320.262C318.69 320.262 317.358 320.49 316.374 320.946C315.39 321.378 314.898 322.026 314.898 322.89C314.898 323.514 315.186 324.018 315.762 324.402C316.362 324.786 317.43 325.05 318.966 325.194L324.33 325.734C326.898 325.974 328.95 326.394 330.486 326.994C332.022 327.57 333.138 328.374 333.834 329.406C334.53 330.438 334.878 331.722 334.878 333.258C334.878 335.154 334.314 336.81 333.186 338.226C332.058 339.618 330.474 340.71 328.434 341.502C326.394 342.27 324.018 342.654 321.306 342.654C318.522 342.654 316.062 342.27 313.926 341.502C311.814 340.71 310.158 339.606 308.958 338.19C307.758 336.75 307.122 335.094 307.05 333.222Z" fill="#040000"/>
</svg>
