<svg width="1070" height="804" viewBox="0 0 1070 804" fill="none" xmlns="http://www.w3.org/2000/svg">
<path d="M866.69 580.698H2V298.007L72.2409 158.736L2 86.0734V2H290.23L415.661 178.271L683.703 2H1067.72V391.258H918.765L1067.72 502.675V802H836.634L853.589 713.397H918.765L866.69 580.698Z" stroke="white" stroke-width="3"/>
<path d="M95.28 623.609V683.609H79.52V629.529L83.04 629.929L59.84 683.609H43.04L19.76 630.089L23.36 629.689L23.36 683.609H7.6L7.6 623.609H33.2L54.72 675.129H48.32L69.68 623.609H95.28ZM118.186 672.089V658.729H159.546V672.089H118.186ZM150.106 623.609L177.386 683.609H159.706L136.826 630.649H141.626L118.666 683.609H100.986L128.266 623.609H150.106ZM238.669 672.009L233.549 673.049V623.609H249.629V683.609H228.749L194.109 634.249L199.149 633.209V683.609H183.069V623.609H204.509L238.669 672.009ZM272.483 672.089V658.729H313.843V672.089H272.483ZM304.403 623.609L331.683 683.609H314.003L291.123 630.649H295.923L272.963 683.609H255.283L282.563 623.609H304.403ZM395.212 657.609C395.052 661.236 394.305 664.703 392.972 668.009C391.692 671.263 389.799 674.169 387.292 676.729C384.839 679.289 381.745 681.289 378.012 682.729C374.332 684.169 370.039 684.889 365.132 684.889C360.439 684.889 356.039 684.223 351.932 682.889C347.825 681.503 344.199 679.476 341.052 676.809C337.959 674.143 335.532 670.863 333.772 666.969C332.065 663.076 331.212 658.623 331.212 653.609C331.212 648.596 332.092 644.143 333.852 640.249C335.612 636.356 338.065 633.076 341.212 630.409C344.412 627.743 348.092 625.743 352.252 624.409C356.465 623.023 361.052 622.329 366.012 622.329C372.625 622.329 378.332 623.343 383.132 625.369C387.932 627.396 391.799 630.169 394.732 633.689C397.665 637.209 399.559 641.289 400.412 645.929H383.692C383.159 643.903 382.065 642.169 380.412 640.729C378.812 639.236 376.785 638.116 374.332 637.369C371.932 636.569 369.185 636.169 366.092 636.169C362.359 636.169 359.132 636.836 356.412 638.169C353.692 639.449 351.585 641.396 350.092 644.009C348.599 646.569 347.852 649.769 347.852 653.609C347.852 657.503 348.652 660.783 350.252 663.449C351.852 666.116 354.119 668.116 357.052 669.449C360.039 670.783 363.532 671.449 367.532 671.449C371.425 671.449 374.865 670.916 377.852 669.849C380.839 668.729 383.212 667.103 384.972 664.969C386.785 662.836 387.825 660.276 388.092 657.289L395.212 657.609ZM369.132 664.249V652.569H400.972V683.609H389.212L386.892 659.849L390.012 664.249H369.132ZM462.161 647.609V659.609H418.241V647.609H462.161ZM429.521 653.609L425.601 677.689L418.881 670.169H464.801V683.609H409.041L413.601 653.609L409.041 623.609H464.401V637.049H418.881L425.601 629.529L429.521 653.609ZM562.077 623.609V683.609H546.317V629.529L549.837 629.929L526.637 683.609H509.837L486.557 630.089L490.157 629.689V683.609H474.397V623.609H499.997L521.517 675.129H515.117L536.477 623.609H562.077ZM624.583 647.609V659.609H580.663V647.609H624.583ZM591.943 653.609L588.023 677.689L581.303 670.169H627.223V683.609H571.463L576.023 653.609L571.463 623.609H626.823V637.049H581.303L588.023 629.529L591.943 653.609ZM692.419 672.009L687.299 673.049V623.609H703.379V683.609H682.499L647.859 634.249L652.899 633.209V683.609H636.819V623.609H658.259L692.419 672.009ZM733.353 630.889H749.993V683.609H733.353V630.889ZM710.473 623.609H772.873V638.329H710.473V623.609ZM62.08 736.649H45.84C45.5733 734.676 44.6933 733.049 43.2 731.769C41.76 730.436 39.68 729.769 36.96 729.769C35.36 729.769 33.9733 729.983 32.8 730.409C31.68 730.836 30.8267 731.449 30.24 732.249C29.6533 733.049 29.36 733.956 29.36 734.969C29.36 735.823 29.6 736.676 30.08 737.529C30.6133 738.383 31.4667 739.289 32.64 740.249L78.32 779.609H57.92L20.16 747.289C17.8667 745.316 15.92 743.236 14.32 741.049C12.7733 738.809 12 736.409 12 733.849C12 730.756 12.9333 728.063 14.8 725.769C16.6667 723.423 19.4133 721.609 23.04 720.329C26.6667 718.996 31.0933 718.329 36.32 718.329C41.6533 718.329 46.1867 719.129 49.92 720.729C53.7067 722.329 56.6133 724.516 58.64 727.289C60.72 730.063 61.8667 733.183 62.08 736.649ZM57.84 746.489H74.8L55.68 768.089C53.0133 771.129 50.3467 773.609 47.68 775.529C45.0133 777.396 42.1333 778.756 39.04 779.609C35.9467 780.463 32.4267 780.889 28.48 780.889C23.4667 780.889 19.1467 780.116 15.52 778.569C11.9467 776.969 9.2 774.836 7.28 772.169C5.36 769.503 4.4 766.463 4.4 763.049C4.4 760.063 5.2 757.343 6.8 754.889C8.4 752.436 10.9067 750.383 14.32 748.729C17.7333 747.076 22.1867 745.983 27.68 745.449L31.04 751.849C27.7333 752.543 25.1733 753.689 23.36 755.289C21.5467 756.836 20.64 758.703 20.64 760.889C20.64 762.329 21.0667 763.663 21.92 764.889C22.8267 766.063 24.0267 766.996 25.52 767.689C27.0667 768.383 28.88 768.729 30.96 768.729C34.6933 768.729 37.7867 768.009 40.24 766.569C42.7467 765.129 44.88 763.289 46.64 761.049L57.84 746.489ZM132.435 780.889C125.342 780.889 119.102 779.583 113.715 776.969C108.382 774.356 104.222 770.703 101.235 766.009C98.3017 761.316 96.835 755.849 96.835 749.609C96.835 743.369 98.3017 737.903 101.235 733.209C104.222 728.516 108.382 724.863 113.715 722.249C119.102 719.636 125.342 718.329 132.435 718.329C139.582 718.329 145.822 719.636 151.155 722.249C156.488 724.863 160.648 728.516 163.635 733.209C166.622 737.903 168.115 743.369 168.115 749.609C168.115 755.849 166.622 761.316 163.635 766.009C160.648 770.703 156.488 774.356 151.155 776.969C145.822 779.583 139.582 780.889 132.435 780.889ZM132.435 766.089C136.328 766.089 139.688 765.423 142.515 764.089C145.342 762.756 147.502 760.863 148.995 758.409C150.542 755.956 151.315 753.023 151.315 749.609C151.315 746.196 150.542 743.263 148.995 740.809C147.502 738.356 145.342 736.463 142.515 735.129C139.688 733.796 136.328 733.129 132.435 733.129C128.595 733.129 125.262 733.796 122.435 735.129C119.608 736.463 117.422 738.356 115.875 740.809C114.328 743.263 113.555 746.196 113.555 749.609C113.555 753.023 114.328 755.956 115.875 758.409C117.422 760.863 119.608 762.756 122.435 764.089C125.262 765.423 128.595 766.089 132.435 766.089ZM210.343 719.609C215.356 719.609 219.676 720.463 223.303 722.169C226.983 723.876 229.783 726.303 231.703 729.449C233.623 732.543 234.583 736.169 234.583 740.329C234.583 744.436 233.623 748.063 231.703 751.209C229.783 754.303 226.983 756.703 223.303 758.409C219.676 760.116 215.356 760.969 210.343 760.969H184.343V747.689H209.303C211.969 747.689 214.049 747.049 215.543 745.769C217.036 744.436 217.783 742.623 217.783 740.329C217.783 737.983 217.036 736.169 215.543 734.889C214.049 733.556 211.969 732.889 209.303 732.889H185.783L193.223 725.209V779.609H176.663V719.609H210.343ZM292.864 743.609V755.609H248.944V743.609H292.864ZM260.224 749.609L256.304 773.689L249.584 766.169H295.504V779.609H239.744L244.304 749.609L239.744 719.609H295.104V733.049H249.584L256.304 725.529L260.224 749.609ZM316.54 745.849H338.38C341.047 745.849 343.127 745.236 344.62 744.009C346.113 742.783 346.86 741.076 346.86 738.889C346.86 736.649 346.113 734.943 344.62 733.769C343.127 732.543 341.047 731.929 338.38 731.929H314.22L321.66 724.009V779.609H305.1V719.609H340.7C345.287 719.609 349.287 720.436 352.7 722.089C356.113 723.689 358.78 725.929 360.7 728.809C362.62 731.636 363.58 734.996 363.58 738.889C363.58 742.676 362.62 746.009 360.7 748.889C358.78 751.769 356.113 754.009 352.7 755.609C349.287 757.209 345.287 758.009 340.7 758.009H316.54V745.849ZM325.5 751.529H344.14L365.66 779.609H346.46L325.5 751.529ZM383.655 768.089V754.729H425.015V768.089H383.655ZM415.575 719.609L442.855 779.609H425.175L402.295 726.649H407.095L384.135 779.609H366.455L393.735 719.609H415.575ZM457.728 726.889H474.368V779.609H457.728V726.889ZM434.848 719.609H497.248V734.329H434.848V719.609ZM504.397 719.609H520.957V779.609H504.397V719.609ZM565.091 780.889C557.998 780.889 551.758 779.583 546.371 776.969C541.038 774.356 536.878 770.703 533.891 766.009C530.958 761.316 529.491 755.849 529.491 749.609C529.491 743.369 530.958 737.903 533.891 733.209C536.878 728.516 541.038 724.863 546.371 722.249C551.758 719.636 557.998 718.329 565.091 718.329C572.238 718.329 578.478 719.636 583.811 722.249C589.145 724.863 593.305 728.516 596.291 733.209C599.278 737.903 600.771 743.369 600.771 749.609C600.771 755.849 599.278 761.316 596.291 766.009C593.305 770.703 589.145 774.356 583.811 776.969C578.478 779.583 572.238 780.889 565.091 780.889ZM565.091 766.089C568.985 766.089 572.345 765.423 575.171 764.089C577.998 762.756 580.158 760.863 581.651 758.409C583.198 755.956 583.971 753.023 583.971 749.609C583.971 746.196 583.198 743.263 581.651 740.809C580.158 738.356 577.998 736.463 575.171 735.129C572.345 733.796 568.985 733.129 565.091 733.129C561.251 733.129 557.918 733.796 555.091 735.129C552.265 736.463 550.078 738.356 548.531 740.809C546.985 743.263 546.211 746.196 546.211 749.609C546.211 753.023 546.985 755.956 548.531 758.409C550.078 760.863 552.265 762.756 555.091 764.089C557.918 765.423 561.251 766.089 565.091 766.089ZM664.919 768.009L659.799 769.049V719.609H675.879V779.609H654.999L620.359 730.249L625.399 729.209V779.609H609.319V719.609H630.759L664.919 768.009ZM684.333 759.929H701.213C701.48 761.583 702.253 763.023 703.533 764.249C704.813 765.476 706.52 766.436 708.653 767.129C710.84 767.769 713.4 768.089 716.333 768.089C720.386 768.089 723.586 767.583 725.933 766.569C728.28 765.503 729.453 763.956 729.453 761.929C729.453 760.383 728.786 759.183 727.453 758.329C726.12 757.476 723.56 756.863 719.773 756.489L708.573 755.449C700.306 754.703 694.306 752.836 690.573 749.849C686.84 746.809 684.973 742.729 684.973 737.609C684.973 733.449 686.173 729.929 688.573 727.049C691.026 724.169 694.44 722.009 698.813 720.569C703.24 719.076 708.386 718.329 714.253 718.329C720.013 718.329 725.133 719.156 729.613 720.809C734.093 722.409 737.64 724.703 740.253 727.689C742.92 730.676 744.36 734.143 744.573 738.089H727.773C727.56 736.649 726.866 735.423 725.693 734.409C724.573 733.343 723.026 732.543 721.053 732.009C719.08 731.423 716.706 731.129 713.933 731.129C710.2 731.129 707.24 731.636 705.053 732.649C702.866 733.609 701.773 735.049 701.773 736.969C701.773 738.356 702.413 739.476 703.693 740.329C705.026 741.183 707.4 741.769 710.813 742.089L722.733 743.289C728.44 743.823 733 744.756 736.413 746.089C739.826 747.369 742.306 749.156 743.853 751.449C745.4 753.743 746.173 756.596 746.173 760.009C746.173 764.223 744.92 767.903 742.413 771.049C739.906 774.143 736.386 776.569 731.853 778.329C727.32 780.036 722.04 780.889 716.013 780.889C709.826 780.889 704.36 780.036 699.613 778.329C694.92 776.569 691.24 774.116 688.573 770.969C685.906 767.769 684.493 764.089 684.333 759.929Z" fill="white"/>
</svg>
