<svg width="1042" height="804" viewBox="0 0 1042 804" fill="none" xmlns="http://www.w3.org/2000/svg">
<path d="M539.538 682.588L1040.28 802V70.2927L901.386 2H801.801V219.725H141.688H4L162.09 374.014L4 477.351V802H125.026L177.218 646.994L236.974 802H539.538V682.588Z" stroke="white" stroke-width="3"/>
<path d="M97.28 20V80H81.52V25.92L85.04 26.32L61.84 80H45.04L21.76 26.48L25.36 26.08V80H9.6V20H35.2L56.72 71.52H50.32L71.68 20H97.28ZM120.186 68.48V55.12H161.546V68.48H120.186ZM152.106 20L179.386 80H161.706L138.826 27.04H143.626L120.666 80H102.986L130.266 20H152.106ZM196.509 46.24H218.349C221.015 46.24 223.095 45.6267 224.589 44.4C226.082 43.1733 226.829 41.4667 226.829 39.28C226.829 37.04 226.082 35.3333 224.589 34.16C223.095 32.9333 221.015 32.32 218.349 32.32H194.189L201.629 24.4V80H185.069V20H220.669C225.255 20 229.255 20.8267 232.669 22.48C236.082 24.08 238.749 26.32 240.669 29.2C242.589 32.0267 243.549 35.3867 243.549 39.28C243.549 43.0667 242.589 46.4 240.669 49.28C238.749 52.16 236.082 54.4 232.669 56C229.255 57.6 225.255 58.4 220.669 58.4H196.509V46.24ZM205.469 51.92H224.109L245.629 80H226.429L205.469 51.92ZM253.038 80V20H269.518V66.8L265.118 63.36L299.118 20H316.638L267.997 80H253.038ZM281.678 51.36L293.838 41.28L317.438 80H298.638L281.678 51.36ZM373.927 44V56H330.007V44H373.927ZM341.287 50L337.367 74.08L330.647 66.56H376.567V80H320.807L325.367 50L320.807 20H376.167V33.44H330.647L337.367 25.92L341.287 50ZM404.338 27.28H420.978V80H404.338V27.28ZM381.458 20H443.858V34.72H381.458V20ZM451.006 20H467.566V80H451.006V20ZM534.341 68.4L529.221 69.44V20H545.301V80H524.421L489.781 30.64L494.821 29.6V80H478.741V20H500.181L534.341 68.4ZM617.915 54C617.755 57.6267 617.008 61.0933 615.675 64.4C614.395 67.6533 612.502 70.56 609.995 73.12C607.542 75.68 604.448 77.68 600.715 79.12C597.035 80.56 592.742 81.28 587.835 81.28C583.142 81.28 578.742 80.6133 574.635 79.28C570.528 77.8933 566.902 75.8667 563.755 73.2C560.662 70.5333 558.235 67.2533 556.475 63.36C554.768 59.4667 553.915 55.0133 553.915 50C553.915 44.9867 554.795 40.5333 556.555 36.64C558.315 32.7467 560.768 29.4667 563.915 26.8C567.115 24.1333 570.795 22.1333 574.955 20.8C579.168 19.4133 583.755 18.72 588.715 18.72C595.328 18.72 601.035 19.7333 605.835 21.76C610.635 23.7867 614.502 26.56 617.435 30.08C620.368 33.6 622.262 37.68 623.115 42.32H606.395C605.862 40.2933 604.768 38.56 603.115 37.12C601.515 35.6267 599.488 34.5067 597.035 33.76C594.635 32.96 591.888 32.56 588.795 32.56C585.062 32.56 581.835 33.2267 579.115 34.56C576.395 35.84 574.288 37.7867 572.795 40.4C571.302 42.96 570.555 46.16 570.555 50C570.555 53.8933 571.355 57.1733 572.955 59.84C574.555 62.5067 576.822 64.5067 579.755 65.84C582.742 67.1733 586.235 67.84 590.235 67.84C594.128 67.84 597.568 67.3067 600.555 66.24C603.542 65.12 605.915 63.4933 607.675 61.36C609.488 59.2267 610.528 56.6667 610.795 53.68L617.915 54ZM591.835 60.64V48.96H623.675V80H611.915L609.595 56.24L612.715 60.64H591.835ZM707.908 37.04H691.668C691.401 35.0667 690.521 33.44 689.028 32.16C687.588 30.8267 685.508 30.16 682.788 30.16C681.188 30.16 679.801 30.3733 678.628 30.8C677.508 31.2267 676.655 31.84 676.068 32.64C675.481 33.44 675.188 34.3467 675.188 35.36C675.188 36.2133 675.428 37.0667 675.908 37.92C676.441 38.7733 677.295 39.68 678.468 40.64L724.148 80H703.748L665.988 47.68C663.695 45.7067 661.748 43.6267 660.148 41.44C658.601 39.2 657.828 36.8 657.828 34.24C657.828 31.1467 658.761 28.4533 660.628 26.16C662.495 23.8133 665.241 22 668.868 20.72C672.495 19.3867 676.921 18.72 682.148 18.72C687.481 18.72 692.015 19.52 695.748 21.12C699.535 22.72 702.441 24.9067 704.468 27.68C706.548 30.4533 707.695 33.5733 707.908 37.04ZM703.668 46.88H720.628L701.508 68.48C698.841 71.52 696.175 74 693.508 75.92C690.841 77.7867 687.961 79.1467 684.868 80C681.775 80.8533 678.255 81.28 674.308 81.28C669.295 81.28 664.975 80.5067 661.348 78.96C657.775 77.36 655.028 75.2267 653.108 72.56C651.188 69.8933 650.228 66.8533 650.228 63.44C650.228 60.4533 651.028 57.7333 652.628 55.28C654.228 52.8267 656.735 50.7733 660.148 49.12C663.561 47.4667 668.015 46.3733 673.508 45.84L676.868 52.24C673.561 52.9333 671.001 54.08 669.188 55.68C667.375 57.2267 666.468 59.0933 666.468 61.28C666.468 62.72 666.895 64.0533 667.748 65.28C668.655 66.4533 669.855 67.3867 671.348 68.08C672.895 68.7733 674.708 69.12 676.788 69.12C680.521 69.12 683.615 68.4 686.068 66.96C688.575 65.52 690.708 63.68 692.468 61.44L703.668 46.88ZM21.28 164.48V151.12H62.64V164.48H21.28ZM53.2 116L80.48 176H62.8L39.92 123.04H44.72L21.76 176H4.08L31.36 116H53.2ZM116.083 116C123.176 116 129.389 117.253 134.723 119.76C140.109 122.213 144.269 125.707 147.203 130.24C150.189 134.72 151.683 139.973 151.683 146C151.683 152.027 150.189 157.307 147.203 161.84C144.269 166.32 140.109 169.813 134.723 172.32C129.389 174.773 123.176 176 116.083 176H86.1625V116H116.083ZM102.643 169.04L94.7225 161.28H117.363C120.936 161.28 124.029 160.667 126.643 159.44C129.309 158.16 131.363 156.373 132.803 154.08C134.243 151.787 134.963 149.093 134.963 146C134.963 142.853 134.243 140.16 132.803 137.92C131.363 135.627 129.309 133.867 126.643 132.64C124.029 131.36 120.936 130.72 117.363 130.72H94.7225L102.643 122.96V169.04ZM191.917 168.56H184.877L207.997 116H225.517L197.597 176H178.797L150.877 116H168.637L191.917 168.56ZM282.443 140V152H238.523V140H282.443ZM249.803 146L245.883 170.08L239.163 162.56H285.083V176H229.323L233.883 146L229.323 116H284.683V129.44H239.163L245.883 121.92L249.803 146ZM306.118 142.24H327.958C330.625 142.24 332.705 141.627 334.198 140.4C335.691 139.173 336.438 137.467 336.438 135.28C336.438 133.04 335.691 131.333 334.198 130.16C332.705 128.933 330.625 128.32 327.958 128.32H303.798L311.238 120.4V176H294.678V116H330.278C334.865 116 338.865 116.827 342.278 118.48C345.691 120.08 348.358 122.32 350.278 125.2C352.198 128.027 353.158 131.387 353.158 135.28C353.158 139.067 352.198 142.4 350.278 145.28C348.358 148.16 345.691 150.4 342.278 152C338.865 153.6 334.865 154.4 330.278 154.4H306.118V142.24ZM315.078 147.92H333.718L355.238 176H336.038L315.078 147.92ZM379.728 123.28H396.368V176H379.728V123.28ZM356.848 116H419.248V130.72H356.848V116ZM426.397 116H442.957V176H426.397V116ZM451.411 156.32H468.291C468.558 157.973 469.331 159.413 470.611 160.64C471.891 161.867 473.598 162.827 475.731 163.52C477.918 164.16 480.478 164.48 483.411 164.48C487.465 164.48 490.665 163.973 493.011 162.96C495.358 161.893 496.531 160.347 496.531 158.32C496.531 156.773 495.865 155.573 494.531 154.72C493.198 153.867 490.638 153.253 486.851 152.88L475.651 151.84C467.385 151.093 461.385 149.227 457.651 146.24C453.918 143.2 452.051 139.12 452.051 134C452.051 129.84 453.251 126.32 455.651 123.44C458.105 120.56 461.518 118.4 465.891 116.96C470.318 115.467 475.465 114.72 481.331 114.72C487.091 114.72 492.211 115.547 496.691 117.2C501.171 118.8 504.718 121.093 507.331 124.08C509.998 127.067 511.438 130.533 511.651 134.48H494.851C494.638 133.04 493.945 131.813 492.771 130.8C491.651 129.733 490.105 128.933 488.131 128.4C486.158 127.813 483.785 127.52 481.011 127.52C477.278 127.52 474.318 128.027 472.131 129.04C469.945 130 468.851 131.44 468.851 133.36C468.851 134.747 469.491 135.867 470.771 136.72C472.105 137.573 474.478 138.16 477.891 138.48L489.811 139.68C495.518 140.213 500.078 141.147 503.491 142.48C506.905 143.76 509.385 145.547 510.931 147.84C512.478 150.133 513.251 152.987 513.251 156.4C513.251 160.613 511.998 164.293 509.491 167.44C506.985 170.533 503.465 172.96 498.931 174.72C494.398 176.427 489.118 177.28 483.091 177.28C476.905 177.28 471.438 176.427 466.691 174.72C461.998 172.96 458.318 170.507 455.651 167.36C452.985 164.16 451.571 160.48 451.411 156.32ZM521.553 116H538.113V176H521.553V116ZM604.888 164.4L599.768 165.44V116H615.848V176H594.968L560.328 126.64L565.368 125.6V176H549.288V116H570.728L604.888 164.4ZM688.462 150C688.302 153.627 687.555 157.093 686.222 160.4C684.942 163.653 683.049 166.56 680.542 169.12C678.089 171.68 674.995 173.68 671.262 175.12C667.582 176.56 663.289 177.28 658.382 177.28C653.689 177.28 649.289 176.613 645.182 175.28C641.075 173.893 637.449 171.867 634.302 169.2C631.209 166.533 628.782 163.253 627.022 159.36C625.315 155.467 624.462 151.013 624.462 146C624.462 140.987 625.342 136.533 627.102 132.64C628.862 128.747 631.315 125.467 634.462 122.8C637.662 120.133 641.342 118.133 645.502 116.8C649.715 115.413 654.302 114.72 659.262 114.72C665.875 114.72 671.582 115.733 676.382 117.76C681.182 119.787 685.049 122.56 687.982 126.08C690.915 129.6 692.809 133.68 693.662 138.32H676.942C676.409 136.293 675.315 134.56 673.662 133.12C672.062 131.627 670.035 130.507 667.582 129.76C665.182 128.96 662.435 128.56 659.342 128.56C655.609 128.56 652.382 129.227 649.662 130.56C646.942 131.84 644.835 133.787 643.342 136.4C641.849 138.96 641.102 142.16 641.102 146C641.102 149.893 641.902 153.173 643.502 155.84C645.102 158.507 647.369 160.507 650.302 161.84C653.289 163.173 656.782 163.84 660.782 163.84C664.675 163.84 668.115 163.307 671.102 162.24C674.089 161.12 676.462 159.493 678.222 157.36C680.035 155.227 681.075 152.667 681.342 149.68L688.462 150ZM662.382 156.64V144.96H694.222V176H682.462L680.142 152.24L683.262 156.64H662.382Z" fill="white"/>
</svg>
