<svg width="440" height="350" viewBox="0 0 440 350" fill="none" xmlns="http://www.w3.org/2000/svg">
<path d="M227.387 297.757L440 350V29.878L381.026 0H338.742V95.2547H58.4615H0L67.1241 162.756L0 207.966V350H51.3869L73.5474 282.185L98.9197 350H227.387V297.757Z" fill="#040000"/>
<path d="M41.976 8V35H34.884V10.664L36.468 10.844L26.028 35H18.468L7.992 10.916L9.612 10.736V35H2.52V8H14.04L23.724 31.184H20.844L30.456 8H41.976ZM52.2838 29.816V23.804H70.8958V29.816H52.2838ZM66.6478 8L78.9238 35H70.9678L60.6718 11.168H62.8318L52.4998 35H44.5438L56.8198 8H66.6478ZM86.6289 19.808H96.4569C97.6569 19.808 98.5929 19.532 99.2649 18.98C99.9369 18.428 100.273 17.66 100.273 16.676C100.273 15.668 99.9369 14.9 99.2649 14.372C98.5929 13.82 97.6569 13.544 96.4569 13.544H85.5849L88.9329 9.98V35H81.4809V8H97.5009C99.5649 8 101.365 8.372 102.901 9.116C104.437 9.836 105.637 10.844 106.501 12.14C107.365 13.412 107.797 14.924 107.797 16.676C107.797 18.38 107.365 19.88 106.501 21.176C105.637 22.472 104.437 23.48 102.901 24.2C101.365 24.92 99.5649 25.28 97.5009 25.28H86.6289V19.808ZM90.6609 22.364H99.0489L108.733 35H100.093L90.6609 22.364ZM112.067 35V8H119.483V29.06L117.503 27.512L132.803 8H140.687L118.799 35H112.067ZM124.955 22.112L130.427 17.576L141.047 35H132.587L124.955 22.112ZM166.467 18.8V24.2H146.703V18.8H166.467ZM151.779 21.5L150.015 32.336L146.991 28.952H167.655V35H142.563L144.615 21.5L142.563 8H167.475V14.048H146.991L150.015 10.664L151.779 21.5ZM180.152 11.276H187.64V35H180.152V11.276ZM169.856 8H197.936V14.624H169.856V8ZM201.153 8H208.605V35H201.153V8ZM238.653 29.78L236.349 30.248V8H243.585V35H234.189L218.601 12.788L220.869 12.32V35H213.633V8H223.281L238.653 29.78ZM276.262 23.3C276.19 24.932 275.854 26.492 275.254 27.98C274.678 29.444 273.826 30.752 272.698 31.904C271.594 33.056 270.202 33.956 268.522 34.604C266.866 35.252 264.934 35.576 262.726 35.576C260.614 35.576 258.634 35.276 256.786 34.676C254.938 34.052 253.306 33.14 251.89 31.94C250.498 30.74 249.406 29.264 248.614 27.512C247.846 25.76 247.462 23.756 247.462 21.5C247.462 19.244 247.858 17.24 248.65 15.488C249.442 13.736 250.546 12.26 251.962 11.06C253.402 9.86 255.058 8.96 256.93 8.36C258.826 7.736 260.89 7.424 263.122 7.424C266.098 7.424 268.666 7.88 270.826 8.792C272.986 9.704 274.726 10.952 276.046 12.536C277.366 14.12 278.218 15.956 278.602 18.044H271.078C270.838 17.132 270.346 16.352 269.602 15.704C268.882 15.032 267.97 14.528 266.866 14.192C265.786 13.832 264.55 13.652 263.158 13.652C261.478 13.652 260.026 13.952 258.802 14.552C257.578 15.128 256.63 16.004 255.958 17.18C255.286 18.332 254.95 19.772 254.95 21.5C254.95 23.252 255.31 24.728 256.03 25.928C256.75 27.128 257.77 28.028 259.09 28.628C260.434 29.228 262.006 29.528 263.806 29.528C265.558 29.528 267.106 29.288 268.45 28.808C269.794 28.304 270.862 27.572 271.654 26.612C272.47 25.652 272.938 24.5 273.058 23.156L276.262 23.3ZM264.526 26.288V21.032H278.854V35H273.562L272.518 24.308L273.922 26.288H264.526ZM316.759 15.668H309.451C309.331 14.78 308.935 14.048 308.263 13.472C307.615 12.872 306.679 12.572 305.455 12.572C304.735 12.572 304.111 12.668 303.583 12.86C303.079 13.052 302.695 13.328 302.431 13.688C302.167 14.048 302.035 14.456 302.035 14.912C302.035 15.296 302.143 15.68 302.359 16.064C302.599 16.448 302.983 16.856 303.511 17.288L324.067 35H314.887L297.895 20.456C296.863 19.568 295.987 18.632 295.267 17.648C294.571 16.64 294.223 15.56 294.223 14.408C294.223 13.016 294.643 11.804 295.483 10.772C296.323 9.716 297.559 8.9 299.191 8.324C300.823 7.724 302.815 7.424 305.167 7.424C307.567 7.424 309.607 7.784 311.287 8.504C312.991 9.224 314.299 10.208 315.211 11.456C316.147 12.704 316.663 14.108 316.759 15.668ZM314.851 20.096H322.483L313.879 29.816C312.679 31.184 311.479 32.3 310.279 33.164C309.079 34.004 307.783 34.616 306.391 35C304.999 35.384 303.415 35.576 301.639 35.576C299.383 35.576 297.439 35.228 295.807 34.532C294.199 33.812 292.963 32.852 292.099 31.652C291.235 30.452 290.803 29.084 290.803 27.548C290.803 26.204 291.163 24.98 291.883 23.876C292.603 22.772 293.731 21.848 295.267 21.104C296.803 20.36 298.807 19.868 301.279 19.628L302.791 22.508C301.303 22.82 300.151 23.336 299.335 24.056C298.519 24.752 298.111 25.592 298.111 26.576C298.111 27.224 298.303 27.824 298.687 28.376C299.095 28.904 299.635 29.324 300.307 29.636C301.003 29.948 301.819 30.104 302.755 30.104C304.435 30.104 305.827 29.78 306.931 29.132C308.059 28.484 309.019 27.656 309.811 26.648L314.851 20.096ZM7.776 72.816V66.804H26.388V72.816H7.776ZM22.14 51L34.416 78H26.46L16.164 54.168H18.324L7.992 78H0.036L12.312 51H22.14ZM50.4371 51C53.6291 51 56.4251 51.564 58.8251 52.692C61.2491 53.796 63.1211 55.368 64.4411 57.408C65.7851 59.424 66.4571 61.788 66.4571 64.5C66.4571 67.212 65.7851 69.588 64.4411 71.628C63.1211 73.644 61.2491 75.216 58.8251 76.344C56.4251 77.448 53.6291 78 50.4371 78H36.9731V51H50.4371ZM44.3891 74.868L40.8251 71.376H51.0131C52.6211 71.376 54.0131 71.1 55.1891 70.548C56.3891 69.972 57.3131 69.168 57.9611 68.136C58.6091 67.104 58.9331 65.892 58.9331 64.5C58.9331 63.084 58.6091 61.872 57.9611 60.864C57.3131 59.832 56.3891 59.04 55.1891 58.488C54.0131 57.912 52.6211 57.624 51.0131 57.624H40.8251L44.3891 54.132V74.868ZM84.5626 74.652H81.3946L91.7986 51H99.6826L87.1186 78H78.6586L66.0946 51H74.0866L84.5626 74.652ZM125.299 61.8V67.2H105.535V61.8H125.299ZM110.611 64.5L108.847 75.336L105.823 71.952H126.487V78H101.395L103.447 64.5L101.395 51H126.307V57.048H105.823L108.847 53.664L110.611 64.5ZM135.953 62.808H145.781C146.981 62.808 147.917 62.532 148.589 61.98C149.261 61.428 149.597 60.66 149.597 59.676C149.597 58.668 149.261 57.9 148.589 57.372C147.917 56.82 146.981 56.544 145.781 56.544H134.909L138.257 52.98V78H130.805V51H146.825C148.889 51 150.689 51.372 152.225 52.116C153.761 52.836 154.961 53.844 155.825 55.14C156.689 56.412 157.121 57.924 157.121 59.676C157.121 61.38 156.689 62.88 155.825 64.176C154.961 65.472 153.761 66.48 152.225 67.2C150.689 67.92 148.889 68.28 146.825 68.28H135.953V62.808ZM139.985 65.364H148.373L158.057 78H149.417L139.985 65.364ZM169.078 54.276H176.566V78H169.078V54.276ZM158.782 51H186.862V57.624H158.782V51ZM190.079 51H197.531V78H190.079V51ZM201.335 69.144H208.931C209.051 69.888 209.399 70.536 209.975 71.088C210.551 71.64 211.319 72.072 212.279 72.384C213.263 72.672 214.415 72.816 215.735 72.816C217.559 72.816 218.999 72.588 220.055 72.132C221.111 71.652 221.639 70.956 221.639 70.044C221.639 69.348 221.339 68.808 220.739 68.424C220.139 68.04 218.987 67.764 217.283 67.596L212.243 67.128C208.523 66.792 205.823 65.952 204.143 64.608C202.463 63.24 201.623 61.404 201.623 59.1C201.623 57.228 202.163 55.644 203.243 54.348C204.347 53.052 205.883 52.08 207.851 51.432C209.843 50.76 212.159 50.424 214.799 50.424C217.391 50.424 219.695 50.796 221.711 51.54C223.727 52.26 225.323 53.292 226.499 54.636C227.699 55.98 228.347 57.54 228.443 59.316H220.883C220.787 58.668 220.475 58.116 219.947 57.66C219.443 57.18 218.747 56.82 217.859 56.58C216.971 56.316 215.903 56.184 214.655 56.184C212.975 56.184 211.643 56.412 210.659 56.868C209.675 57.3 209.183 57.948 209.183 58.812C209.183 59.436 209.471 59.94 210.047 60.324C210.647 60.708 211.715 60.972 213.251 61.116L218.615 61.656C221.183 61.896 223.235 62.316 224.771 62.916C226.307 63.492 227.423 64.296 228.119 65.328C228.815 66.36 229.163 67.644 229.163 69.18C229.163 71.076 228.599 72.732 227.471 74.148C226.343 75.54 224.759 76.632 222.719 77.424C220.679 78.192 218.303 78.576 215.591 78.576C212.807 78.576 210.347 78.192 208.211 77.424C206.099 76.632 204.443 75.528 203.243 74.112C202.043 72.672 201.407 71.016 201.335 69.144ZM232.899 51H240.351V78H232.899V51ZM270.399 72.78L268.095 73.248V51H275.331V78H265.935L250.347 55.788L252.615 55.32V78H245.379V51H255.027L270.399 72.78ZM308.008 66.3C307.936 67.932 307.6 69.492 307 70.98C306.424 72.444 305.572 73.752 304.444 74.904C303.34 76.056 301.948 76.956 300.268 77.604C298.612 78.252 296.68 78.576 294.472 78.576C292.36 78.576 290.38 78.276 288.532 77.676C286.684 77.052 285.052 76.14 283.636 74.94C282.244 73.74 281.152 72.264 280.36 70.512C279.592 68.76 279.208 66.756 279.208 64.5C279.208 62.244 279.604 60.24 280.396 58.488C281.188 56.736 282.292 55.26 283.708 54.06C285.148 52.86 286.804 51.96 288.676 51.36C290.572 50.736 292.636 50.424 294.868 50.424C297.844 50.424 300.412 50.88 302.572 51.792C304.732 52.704 306.472 53.952 307.792 55.536C309.112 57.12 309.964 58.956 310.348 61.044H302.824C302.584 60.132 302.092 59.352 301.348 58.704C300.628 58.032 299.716 57.528 298.612 57.192C297.532 56.832 296.296 56.652 294.904 56.652C293.224 56.652 291.772 56.952 290.548 57.552C289.324 58.128 288.376 59.004 287.704 60.18C287.032 61.332 286.696 62.772 286.696 64.5C286.696 66.252 287.056 67.728 287.776 68.928C288.496 70.128 289.516 71.028 290.836 71.628C292.18 72.228 293.752 72.528 295.552 72.528C297.304 72.528 298.852 72.288 300.196 71.808C301.54 71.304 302.608 70.572 303.4 69.612C304.216 68.652 304.684 67.5 304.804 66.156L308.008 66.3ZM296.272 69.288V64.032H310.6V78H305.308L304.264 67.308L305.668 69.288H296.272Z" fill="#040000"/>
</svg>
