<svg width="1061" height="804" viewBox="0 0 1061 804" fill="none" xmlns="http://www.w3.org/2000/svg">
<path d="M3 802H167.233H425.627V637.313H830.005L763.582 802H1058.47L830.005 226.954H1058.47V2H806.598L763.582 127.937H271.666L235.684 226.954H3V521.34H114.544L68.967 637.313L3 802Z" stroke="white" stroke-width="3"/>
<path d="M27.4 27.28L44.04 27.28L44.04 80H27.4L27.4 27.28ZM4.52 20L66.92 20V34.72H4.52L4.52 20ZM125.349 44V56H81.4287V44H125.349ZM92.7087 50L88.7887 74.08L82.0687 66.56H127.989V80H72.2287L76.7887 50L72.2287 20L127.589 20V33.44L82.0687 33.44L88.7887 25.92L92.7087 50ZM203.287 54.88C202.7 60.16 200.887 64.8 197.847 68.8C194.807 72.7467 190.807 75.8133 185.847 78C180.94 80.1867 175.287 81.28 168.887 81.28C161.9 81.28 155.794 79.9733 150.567 77.36C145.34 74.7467 141.26 71.0933 138.327 66.4C135.447 61.7067 134.007 56.24 134.007 50C134.007 43.76 135.447 38.2933 138.327 33.6C141.26 28.9067 145.34 25.2533 150.567 22.64C155.794 20.0267 161.9 18.72 168.887 18.72C175.287 18.72 180.94 19.8133 185.847 22C190.807 24.1867 194.807 27.28 197.847 31.28C200.887 35.2267 202.7 39.84 203.287 45.12H186.647C186.114 42.56 185.074 40.4 183.527 38.64C181.98 36.8267 179.954 35.44 177.447 34.48C174.994 33.52 172.14 33.04 168.887 33.04C165.154 33.04 161.927 33.7333 159.207 35.12C156.487 36.4533 154.407 38.4 152.967 40.96C151.527 43.4667 150.807 46.48 150.807 50C150.807 53.52 151.527 56.56 152.967 59.12C154.407 61.6267 156.487 63.5733 159.207 64.96C161.927 66.2933 165.154 66.96 168.887 66.96C172.14 66.96 174.994 66.5067 177.447 65.6C179.954 64.6933 181.98 63.3333 183.527 61.52C185.074 59.7067 186.114 57.4933 186.647 54.88H203.287ZM211.334 20H227.894V80H211.334V20ZM258.534 20H275.174V80H258.534V20ZM220.614 42.16H265.414V56.88H220.614V42.16ZM342.012 68.4L336.892 69.44V20H352.972V80H332.092L297.452 30.64L302.492 29.6V80H286.412V20H307.852L342.012 68.4ZM397.107 81.28C390.014 81.28 383.774 79.9733 378.387 77.36C373.054 74.7467 368.894 71.0933 365.907 66.4C362.974 61.7067 361.507 56.24 361.507 50C361.507 43.76 362.974 38.2933 365.907 33.6C368.894 28.9067 373.054 25.2533 378.387 22.64C383.774 20.0267 390.014 18.72 397.107 18.72C404.254 18.72 410.494 20.0267 415.827 22.64C421.16 25.2533 425.32 28.9067 428.307 33.6C431.294 38.2933 432.787 43.76 432.787 50C432.787 56.24 431.294 61.7067 428.307 66.4C425.32 71.0933 421.16 74.7467 415.827 77.36C410.494 79.9733 404.254 81.28 397.107 81.28ZM397.107 66.48C401 66.48 404.36 65.8133 407.187 64.48C410.014 63.1467 412.174 61.2533 413.667 58.8C415.214 56.3467 415.987 53.4133 415.987 50C415.987 46.5867 415.214 43.6533 413.667 41.2C412.174 38.7467 410.014 36.8533 407.187 35.52C404.36 34.1867 401 33.52 397.107 33.52C393.267 33.52 389.934 34.1867 387.107 35.52C384.28 36.8533 382.094 38.7467 380.547 41.2C379 43.6533 378.227 46.5867 378.227 50C378.227 53.4133 379 56.3467 380.547 58.8C382.094 61.2533 384.28 63.1467 387.107 64.48C389.934 65.8133 393.267 66.48 397.107 66.48ZM457.894 20V72.64L450.454 65.28H495.334V80H441.334V20L457.894 20ZM532.654 81.28C525.56 81.28 519.32 79.9733 513.934 77.36C508.6 74.7467 504.44 71.0933 501.454 66.4C498.52 61.7067 497.054 56.24 497.054 50C497.054 43.76 498.52 38.2933 501.454 33.6C504.44 28.9067 508.6 25.2533 513.934 22.64C519.32 20.0267 525.56 18.72 532.654 18.72C539.8 18.72 546.04 20.0267 551.374 22.64C556.707 25.2533 560.867 28.9067 563.854 33.6C566.84 38.2933 568.334 43.76 568.334 50C568.334 56.24 566.84 61.7067 563.854 66.4C560.867 71.0933 556.707 74.7467 551.374 77.36C546.04 79.9733 539.8 81.28 532.654 81.28ZM532.654 66.48C536.547 66.48 539.907 65.8133 542.734 64.48C545.56 63.1467 547.72 61.2533 549.214 58.8C550.76 56.3467 551.534 53.4133 551.534 50C551.534 46.5867 550.76 43.6533 549.214 41.2C547.72 38.7467 545.56 36.8533 542.734 35.52C539.907 34.1867 536.547 33.52 532.654 33.52C528.814 33.52 525.48 34.1867 522.654 35.52C519.827 36.8533 517.64 38.7467 516.094 41.2C514.547 43.6533 513.774 46.5867 513.774 50C513.774 53.4133 514.547 56.3467 516.094 58.8C517.64 61.2533 519.827 63.1467 522.654 64.48C525.48 65.8133 528.814 66.48 532.654 66.48ZM638.321 54C638.161 57.6267 637.415 61.0933 636.081 64.4C634.801 67.6533 632.908 70.56 630.401 73.12C627.948 75.68 624.855 77.68 621.121 79.12C617.441 80.56 613.148 81.28 608.241 81.28C603.548 81.28 599.148 80.6133 595.041 79.28C590.935 77.8933 587.308 75.8667 584.161 73.2C581.068 70.5333 578.641 67.2533 576.881 63.36C575.175 59.4667 574.321 55.0133 574.321 50C574.321 44.9867 575.201 40.5333 576.961 36.64C578.721 32.7467 581.175 29.4667 584.321 26.8C587.521 24.1333 591.201 22.1333 595.361 20.8C599.575 19.4133 604.161 18.72 609.121 18.72C615.735 18.72 621.441 19.7333 626.241 21.76C631.041 23.7867 634.908 26.56 637.841 30.08C640.775 33.6 642.668 37.68 643.521 42.32H626.801C626.268 40.2933 625.175 38.56 623.521 37.12C621.921 35.6267 619.895 34.5067 617.441 33.76C615.041 32.96 612.295 32.56 609.201 32.56C605.468 32.56 602.241 33.2267 599.521 34.56C596.801 35.84 594.695 37.7867 593.201 40.4C591.708 42.96 590.961 46.16 590.961 50C590.961 53.8933 591.761 57.1733 593.361 59.84C594.961 62.5067 597.228 64.5067 600.161 65.84C603.148 67.1733 606.641 67.84 610.641 67.84C614.535 67.84 617.975 67.3067 620.961 66.24C623.948 65.12 626.321 63.4933 628.081 61.36C629.895 59.2267 630.935 56.6667 631.201 53.68L638.321 54ZM612.241 60.64V48.96L644.081 48.96V80H632.321L630.001 56.24L633.121 60.64L612.241 60.64ZM669.062 80V50.8H685.702V80L669.062 80ZM640.902 20L659.302 20L681.062 47.68H673.622L695.302 20H713.702L682.662 59.44L672.022 59.6L640.902 20ZM63.08 133.04H46.84C46.5733 131.067 45.6933 129.44 44.2 128.16C42.76 126.827 40.68 126.16 37.96 126.16C36.36 126.16 34.9733 126.373 33.8 126.8C32.68 127.227 31.8267 127.84 31.24 128.64C30.6533 129.44 30.36 130.347 30.36 131.36C30.36 132.213 30.6 133.067 31.08 133.92C31.6133 134.773 32.4667 135.68 33.64 136.64L79.32 176H58.92L21.16 143.68C18.8667 141.707 16.92 139.627 15.32 137.44C13.7733 135.2 13 132.8 13 130.24C13 127.147 13.9333 124.453 15.8 122.16C17.6667 119.813 20.4133 118 24.04 116.72C27.6667 115.387 32.0933 114.72 37.32 114.72C42.6533 114.72 47.1867 115.52 50.92 117.12C54.7067 118.72 57.6133 120.907 59.64 123.68C61.72 126.453 62.8667 129.573 63.08 133.04ZM58.84 142.88H75.8L56.68 164.48C54.0133 167.52 51.3467 170 48.68 171.92C46.0133 173.787 43.1333 175.147 40.04 176C36.9467 176.853 33.4267 177.28 29.48 177.28C24.4667 177.28 20.1467 176.507 16.52 174.96C12.9467 173.36 10.2 171.227 8.28 168.56C6.36 165.893 5.4 162.853 5.4 159.44C5.4 156.453 6.2 153.733 7.8 151.28C9.4 148.827 11.9067 146.773 15.32 145.12C18.7333 143.467 23.1867 142.373 28.68 141.84L32.04 148.24C28.7333 148.933 26.1733 150.08 24.36 151.68C22.5467 153.227 21.64 155.093 21.64 157.28C21.64 158.72 22.0667 160.053 22.92 161.28C23.8267 162.453 25.0267 163.387 26.52 164.08C28.0667 164.773 29.88 165.12 31.96 165.12C35.6933 165.12 38.7867 164.4 41.24 162.96C43.7467 161.52 45.88 159.68 47.64 157.44L58.84 142.88ZM100.475 116H117.035L117.035 176H100.475L100.475 116ZM147.009 123.28H163.649V176H147.009V123.28ZM124.129 116L186.529 116V130.72H124.129L124.129 116Z" fill="white"/>
</svg>
