<svg width="440" height="350" viewBox="0 0 440 350" fill="none" xmlns="http://www.w3.org/2000/svg">
<path d="M0 350H71.6908H184.484V277.95H332.008L303.013 350H440L361.003 98.4172H440V0H350.785L332.008 55.0975H117.277L101.571 98.4172H0V227.211H48.6911L28.7958 277.95L0 350Z" fill="#040000"/>
<path d="M10.98 11.276L18.468 11.276L18.468 35H10.98L10.98 11.276ZM0.684 8L28.764 8V14.624L0.684 14.624L0.684 8ZM55.0569 18.8V24.2H35.2929V18.8H55.0569ZM40.3689 21.5L38.6049 32.336L35.5809 28.952H56.2449V35H31.1529L33.2049 21.5L31.1529 8L56.0649 8V14.048L35.5809 14.048L38.6049 10.664L40.3689 21.5ZM90.1291 23.696C89.8651 26.072 89.0491 28.16 87.6811 29.96C86.3131 31.736 84.5131 33.116 82.2811 34.1C80.0731 35.084 77.5291 35.576 74.6491 35.576C71.5051 35.576 68.7571 34.988 66.4051 33.812C64.0531 32.636 62.2171 30.992 60.8971 28.88C59.6011 26.768 58.9531 24.308 58.9531 21.5C58.9531 18.692 59.6011 16.232 60.8971 14.12C62.2171 12.008 64.0531 10.364 66.4051 9.188C68.7571 8.012 71.5051 7.424 74.6491 7.424C77.5291 7.424 80.0731 7.916 82.2811 8.9C84.5131 9.884 86.3131 11.276 87.6811 13.076C89.0491 14.852 89.8651 16.928 90.1291 19.304H82.6411C82.4011 18.152 81.9331 17.18 81.2371 16.388C80.5411 15.572 79.6291 14.948 78.5011 14.516C77.3971 14.084 76.1131 13.868 74.6491 13.868C72.9691 13.868 71.5171 14.18 70.2931 14.804C69.0691 15.404 68.1331 16.28 67.4851 17.432C66.8371 18.56 66.5131 19.916 66.5131 21.5C66.5131 23.084 66.8371 24.452 67.4851 25.604C68.1331 26.732 69.0691 27.608 70.2931 28.232C71.5171 28.832 72.9691 29.132 74.6491 29.132C76.1131 29.132 77.3971 28.928 78.5011 28.52C79.6291 28.112 80.5411 27.5 81.2371 26.684C81.9331 25.868 82.4011 24.872 82.6411 23.696H90.1291ZM93.7505 8H101.202V35H93.7505V8ZM114.99 8H122.478V35H114.99V8ZM97.9265 17.972L118.086 17.972V24.596L97.9265 24.596V17.972ZM152.556 29.78L150.252 30.248V8H157.488V35H148.092L132.504 12.788L134.772 12.32V35H127.536V8H137.184L152.556 29.78ZM177.348 35.576C174.156 35.576 171.348 34.988 168.924 33.812C166.524 32.636 164.652 30.992 163.308 28.88C161.988 26.768 161.328 24.308 161.328 21.5C161.328 18.692 161.988 16.232 163.308 14.12C164.652 12.008 166.524 10.364 168.924 9.188C171.348 8.012 174.156 7.424 177.348 7.424C180.564 7.424 183.372 8.012 185.772 9.188C188.172 10.364 190.044 12.008 191.388 14.12C192.732 16.232 193.404 18.692 193.404 21.5C193.404 24.308 192.732 26.768 191.388 28.88C190.044 30.992 188.172 32.636 185.772 33.812C183.372 34.988 180.564 35.576 177.348 35.576ZM177.348 28.916C179.1 28.916 180.612 28.616 181.884 28.016C183.156 27.416 184.128 26.564 184.8 25.46C185.496 24.356 185.844 23.036 185.844 21.5C185.844 19.964 185.496 18.644 184.8 17.54C184.128 16.436 183.156 15.584 181.884 14.984C180.612 14.384 179.1 14.084 177.348 14.084C175.62 14.084 174.12 14.384 172.848 14.984C171.576 15.584 170.592 16.436 169.896 17.54C169.2 18.644 168.852 19.964 168.852 21.5C168.852 23.036 169.2 24.356 169.896 25.46C170.592 26.564 171.576 27.416 172.848 28.016C174.12 28.616 175.62 28.916 177.348 28.916ZM204.702 8V31.688L201.354 28.376H221.55V35L197.25 35V8H204.702ZM238.344 35.576C235.152 35.576 232.344 34.988 229.92 33.812C227.52 32.636 225.648 30.992 224.304 28.88C222.984 26.768 222.324 24.308 222.324 21.5C222.324 18.692 222.984 16.232 224.304 14.12C225.648 12.008 227.52 10.364 229.92 9.188C232.344 8.012 235.152 7.424 238.344 7.424C241.56 7.424 244.368 8.012 246.768 9.188C249.168 10.364 251.04 12.008 252.384 14.12C253.728 16.232 254.4 18.692 254.4 21.5C254.4 24.308 253.728 26.768 252.384 28.88C251.04 30.992 249.168 32.636 246.768 33.812C244.368 34.988 241.56 35.576 238.344 35.576ZM238.344 28.916C240.096 28.916 241.608 28.616 242.88 28.016C244.152 27.416 245.124 26.564 245.796 25.46C246.492 24.356 246.84 23.036 246.84 21.5C246.84 19.964 246.492 18.644 245.796 17.54C245.124 16.436 244.152 15.584 242.88 14.984C241.608 14.384 240.096 14.084 238.344 14.084C236.616 14.084 235.116 14.384 233.844 14.984C232.572 15.584 231.588 16.436 230.892 17.54C230.196 18.644 229.848 19.964 229.848 21.5C229.848 23.036 230.196 24.356 230.892 25.46C231.588 26.564 232.572 27.416 233.844 28.016C235.116 28.616 236.616 28.916 238.344 28.916ZM285.895 23.3C285.823 24.932 285.487 26.492 284.887 27.98C284.311 29.444 283.459 30.752 282.331 31.904C281.227 33.056 279.835 33.956 278.155 34.604C276.499 35.252 274.567 35.576 272.359 35.576C270.247 35.576 268.267 35.276 266.419 34.676C264.571 34.052 262.939 33.14 261.523 31.94C260.131 30.74 259.039 29.264 258.247 27.512C257.479 25.76 257.095 23.756 257.095 21.5C257.095 19.244 257.491 17.24 258.283 15.488C259.075 13.736 260.179 12.26 261.595 11.06C263.035 9.86 264.691 8.96 266.563 8.36C268.459 7.736 270.523 7.424 272.755 7.424C275.731 7.424 278.299 7.88 280.459 8.792C282.619 9.704 284.359 10.952 285.679 12.536C286.999 14.12 287.851 15.956 288.235 18.044H280.711C280.471 17.132 279.979 16.352 279.235 15.704C278.515 15.032 277.603 14.528 276.499 14.192C275.419 13.832 274.183 13.652 272.791 13.652C271.111 13.652 269.659 13.952 268.435 14.552C267.211 15.128 266.263 16.004 265.591 17.18C264.919 18.332 264.583 19.772 264.583 21.5C264.583 23.252 264.943 24.728 265.663 25.928C266.383 27.128 267.403 28.028 268.723 28.628C270.067 29.228 271.639 29.528 273.439 29.528C275.191 29.528 276.739 29.288 278.083 28.808C279.427 28.304 280.495 27.572 281.287 26.612C282.103 25.652 282.571 24.5 282.691 23.156L285.895 23.3ZM274.159 26.288V21.032H288.487V35H283.195L282.151 24.308L283.555 26.288H274.159ZM299.728 35V21.86L307.216 21.86V35H299.728ZM287.056 8H295.336L305.128 20.456H301.78L311.536 8L319.816 8L305.848 25.748L301.06 25.82L287.056 8ZM27.036 58.668H19.728C19.608 57.78 19.212 57.048 18.54 56.472C17.892 55.872 16.956 55.572 15.732 55.572C15.012 55.572 14.388 55.668 13.86 55.86C13.356 56.052 12.972 56.328 12.708 56.688C12.444 57.048 12.312 57.456 12.312 57.912C12.312 58.296 12.42 58.68 12.636 59.064C12.876 59.448 13.26 59.856 13.788 60.288L34.344 78H25.164L8.172 63.456C7.14 62.568 6.264 61.632 5.544 60.648C4.848 59.64 4.5 58.56 4.5 57.408C4.5 56.016 4.92 54.804 5.76 53.772C6.6 52.716 7.836 51.9 9.468 51.324C11.1 50.724 13.092 50.424 15.444 50.424C17.844 50.424 19.884 50.784 21.564 51.504C23.268 52.224 24.576 53.208 25.488 54.456C26.424 55.704 26.94 57.108 27.036 58.668ZM25.128 63.096H32.76L24.156 72.816C22.956 74.184 21.756 75.3 20.556 76.164C19.356 77.004 18.06 77.616 16.668 78C15.276 78.384 13.692 78.576 11.916 78.576C9.66 78.576 7.716 78.228 6.084 77.532C4.476 76.812 3.24 75.852 2.376 74.652C1.512 73.452 1.08 72.084 1.08 70.548C1.08 69.204 1.44 67.98 2.16 66.876C2.88 65.772 4.008 64.848 5.544 64.104C7.08 63.36 9.084 62.868 11.556 62.628L13.068 65.508C11.58 65.82 10.428 66.336 9.612 67.056C8.796 67.752 8.388 68.592 8.388 69.576C8.388 70.224 8.58 70.824 8.964 71.376C9.372 71.904 9.912 72.324 10.584 72.636C11.28 72.948 12.096 73.104 13.032 73.104C14.712 73.104 16.104 72.78 17.208 72.132C18.336 71.484 19.296 70.656 20.088 69.648L25.128 63.096ZM43.8637 51H51.3157L51.3157 78H43.8637L43.8637 51ZM64.8042 54.276L72.2922 54.276V78H64.8042V54.276ZM54.5082 51L82.5882 51V57.624L54.5082 57.624V51Z" fill="#040000"/>
</svg>
